<svg width="60" height="60" viewBox="0 0 60 60" fill="none" xmlns="http://www.w3.org/2000/svg">
<g id="agile__2_-removebg-preview 1" clip-path="url(#clip0_315_472)">
<path id="Vector" d="M33.3599 5.76C34.0322 6.21278 34.4878 6.7548 34.7516 7.53093C34.8201 7.9125 34.811 8.28275 34.8074 8.67C34.8063 8.82159 34.8053 8.97318 34.8041 9.12937C34.8021 9.30293 34.8021 9.30293 34.7999 9.48C34.9073 9.48777 34.9073 9.48777 35.0168 9.4957C37.9962 9.74772 41.4129 10.9722 43.702 12.9459C43.9183 13.108 43.9183 13.108 44.2077 13.0608C44.5492 12.9505 44.8682 12.8159 45.1949 12.6675C47.125 11.8501 48.9855 12.0299 50.9123 12.7458C52.6456 13.5295 54.006 15.0495 54.7199 16.8C55.0285 17.6408 55.1423 18.4038 55.1324 19.2975C55.1311 19.4708 55.1311 19.4708 55.1297 19.6476C55.0831 21.6704 54.2362 23.3172 52.7999 24.72C52.5634 24.9247 52.3227 25.1226 52.0799 25.32C52.1045 25.4461 52.1291 25.5721 52.1545 25.702C52.1871 25.8722 52.2198 26.0423 52.2524 26.2125C52.2686 26.295 52.2848 26.3775 52.3014 26.4626C53.2774 31.5804 52.0625 37.2276 49.1434 41.5409C48.4257 42.56 47.6376 43.4692 46.7999 44.4C47.9483 44.4396 49.0967 44.4792 50.2799 44.52C50.2799 44.2032 50.2799 43.8864 50.2799 43.56C50.4753 42.7143 50.8855 42.0201 51.5999 41.52C52.4354 41.0766 53.2012 40.9125 54.1199 41.16C55.2262 41.6496 56.0109 42.5184 56.8349 43.3725C57.0935 43.6379 57.3527 43.9025 57.6121 44.167C57.6738 44.2302 57.7354 44.2933 57.7989 44.3583C58.2106 44.7773 58.6349 45.1714 59.0877 45.5453C59.6314 46.0394 59.9715 46.5996 60.037 47.3372C60.1067 48.9471 60.1067 48.9471 59.548 49.6387C59.4596 49.7316 59.3711 49.8244 59.2799 49.92C59.2194 49.984 59.1588 50.0481 59.0964 50.1141C58.3955 50.8495 57.6728 51.5583 56.8935 52.2108C56.6778 52.4058 56.4781 52.6053 56.2776 52.8155C54.5766 54.5953 54.5766 54.5953 53.2724 54.6675C52.4211 54.6206 51.595 54.2516 50.9999 53.64C50.5509 52.9385 50.2625 52.3611 50.2724 51.5175C50.2735 51.3982 50.2746 51.279 50.2757 51.1561C50.2771 51.065 50.2785 50.9739 50.2799 50.88C50.1776 50.8782 50.0754 50.8765 49.97 50.8747C49.5886 50.8673 49.2074 50.8584 48.8261 50.8485C48.6614 50.8445 48.4967 50.8412 48.332 50.8384C48.0946 50.8344 47.8572 50.8279 47.6198 50.8214C47.4771 50.8183 47.3345 50.8151 47.1875 50.8119C46.7683 50.7558 46.5369 50.6513 46.1999 50.4C46.0314 50.0629 46.05 49.8134 46.0799 49.44C46.2935 49.0637 46.3827 48.9791 46.7999 48.84C47.157 48.8269 47.5111 48.8203 47.8682 48.8198C48.0255 48.8192 48.0255 48.8192 48.1861 48.8186C48.4079 48.818 48.6297 48.8177 48.8515 48.8178C49.1907 48.8175 49.5299 48.8153 49.8691 48.813C50.0846 48.8127 50.3002 48.8125 50.5157 48.8123C50.6171 48.8115 50.7185 48.8106 50.8229 48.8097C50.9178 48.8101 51.0127 48.8105 51.1105 48.8108C51.2352 48.8106 51.2352 48.8106 51.3624 48.8103C51.6456 48.8457 51.8363 48.933 52.0799 49.08C52.3104 49.4239 52.3506 49.7062 52.357 50.115C52.3615 50.2719 52.3615 50.2719 52.3661 50.4319C52.3703 50.6506 52.3741 50.8694 52.3773 51.0881C52.3821 51.245 52.3821 51.245 52.387 51.405C52.3886 51.5 52.3902 51.595 52.3918 51.6928C52.4522 52.0282 52.566 52.1945 52.7999 52.44C53.2058 52.5275 53.4813 52.5373 53.8448 52.3144C54.1115 52.0889 54.3542 51.8484 54.5999 51.6C54.7424 51.4576 54.8849 51.3153 55.0274 51.173C55.2649 50.9355 55.5021 50.6978 55.7385 50.4593C56.2596 49.9345 56.7962 49.4388 57.3599 48.96C57.8001 48.5699 57.8001 48.5699 58.0799 48.0675C58.0799 47.6226 57.9663 47.4133 57.7199 47.04C57.5878 46.9178 57.4516 46.7999 57.313 46.6852C56.882 46.3152 56.4752 45.9255 56.0751 45.5227C56.0155 45.4627 55.9559 45.4027 55.8946 45.341C55.7103 45.155 55.5263 44.9688 55.3424 44.7825C55.097 44.5339 54.8512 44.2856 54.6051 44.0377C54.4436 43.8741 54.4436 43.8741 54.2789 43.7073C53.9499 43.3921 53.7452 43.2134 53.2874 43.155C52.9191 43.1718 52.9191 43.1718 52.6602 43.3758C52.2938 43.8818 52.3826 44.4369 52.3919 45.0429C52.3906 45.1362 52.3892 45.2296 52.3879 45.3258C52.3891 45.4101 52.3902 45.4944 52.3914 45.5812C52.2667 46.0326 52.1096 46.1736 51.7199 46.44C51.1845 46.5201 50.6551 46.5006 50.1149 46.4869C49.8735 46.4857 49.6321 46.4846 49.3907 46.4838C48.7978 46.481 48.2049 46.4719 47.6121 46.4602C45.1931 46.3273 45.1931 46.3273 43.1148 47.3685C43.0241 47.4581 42.9334 47.5477 42.8399 47.64C42.5721 47.8168 42.5721 47.8168 42.3285 47.9512C42.1195 48.0675 41.9106 48.1838 41.702 48.3009C41.4436 48.4456 41.1848 48.5876 40.9199 48.72C41.0776 48.7245 41.2352 48.729 41.3976 48.7336C41.6059 48.7415 41.8141 48.7494 42.0224 48.7575C42.1261 48.7602 42.2299 48.7629 42.3367 48.7657C42.9147 48.7901 43.3331 48.8212 43.7999 49.2C43.9685 49.5371 43.9498 49.7866 43.9199 50.16C43.7063 50.5363 43.6172 50.6209 43.1999 50.76C42.9028 50.772 42.6091 50.7772 42.312 50.7768C42.2208 50.7772 42.1296 50.7776 42.0357 50.7779C41.7292 50.779 41.4227 50.7792 41.1163 50.7793C40.8969 50.7799 40.6775 50.7805 40.4581 50.7811C39.8613 50.7827 39.2645 50.7835 38.6677 50.784C38.2948 50.7844 37.9218 50.7849 37.5489 50.7854C36.3818 50.787 35.2147 50.7882 34.0476 50.7887C32.7009 50.7892 31.3541 50.7913 30.0074 50.7948C28.9663 50.7974 27.9251 50.7986 26.884 50.7987C26.2623 50.7989 25.6406 50.7996 25.0189 50.8017C24.4336 50.8037 23.8484 50.804 23.2631 50.8029C23.0488 50.8028 22.8345 50.8033 22.6201 50.8045C19.9911 50.8182 19.9911 50.8182 19.0209 49.9022C18.4483 49.1991 18.277 48.371 18.3135 47.4806C18.433 46.6551 18.8327 45.9276 19.4399 45.36C20.2495 44.9282 20.9886 44.8109 21.8947 44.8221C22.0139 44.8216 22.1331 44.8212 22.256 44.8207C22.5129 44.82 22.7699 44.8203 23.0269 44.8217C23.436 44.8238 23.845 44.8229 24.2541 44.8212C25.2708 44.8176 26.2875 44.8192 27.3042 44.8206C28.1633 44.8216 29.0224 44.8206 29.8815 44.8171C30.2802 44.8163 30.6789 44.8182 31.0777 44.8204C34.8419 44.8199 38.396 43.7655 41.2799 41.28C41.3533 41.2173 41.4266 41.1547 41.5022 41.0901C44.4678 38.526 46.2441 34.9339 46.5445 31.0097C46.5496 30.9141 46.5547 30.8185 46.5599 30.72C46.5663 30.6194 46.5726 30.5189 46.5791 30.4153C46.6162 29.2704 46.4139 28.1496 46.233 27.023C46.1999 26.76 46.1999 26.76 46.1999 26.28C46.0489 26.2552 45.898 26.2305 45.7424 26.205C44.0911 25.8343 42.6903 24.654 41.7599 23.28C41.1506 22.2488 40.6077 21.1655 40.7263 19.9458C40.8662 18.8785 40.8662 18.8785 40.5221 17.9079C40.0779 17.5183 39.5627 17.2716 39.0247 17.0362C38.778 16.9279 38.5415 16.8095 38.3034 16.6837C37.2241 16.1269 36.0902 15.7908 34.9199 15.48C34.9096 15.5714 34.8992 15.6628 34.8885 15.757C34.7579 16.717 34.5833 17.5533 33.8343 18.218C33.0382 18.7876 32.3549 19.0289 31.3799 18.9C30.1239 18.6182 29.3475 17.6021 28.4774 16.718C28.1946 16.4321 27.9076 16.1593 27.5999 15.9C27.1296 15.4983 26.685 15.0718 26.2424 14.64C26.169 14.5702 26.0956 14.5003 26.02 14.4284C25.4511 13.867 25.1287 13.3534 25.0279 12.54C25.0267 11.5029 25.0813 10.9257 25.8249 10.1712C25.9354 10.0619 26.046 9.95259 26.1599 9.84C26.2916 9.70683 26.423 9.57346 26.5543 9.43992C26.9493 9.03852 27.3453 8.63824 27.7418 8.23834C27.9119 8.06643 28.0817 7.89421 28.2511 7.72166C28.4977 7.47065 28.7455 7.22085 28.9935 6.97125C29.0681 6.89486 29.1426 6.81846 29.2194 6.73976C30.3858 5.57286 31.7838 4.90438 33.3599 5.76ZM30.5849 8.1825C30.505 8.26107 30.4251 8.33964 30.3428 8.42059C30.1658 8.59525 29.9896 8.77083 29.8142 8.94714C29.5495 9.21054 29.2813 9.46962 29.0109 9.72711C28.7768 9.95048 28.5443 10.1755 28.3122 10.4009C28.142 10.5655 27.9703 10.7286 27.7986 10.8917C27.6947 10.994 27.5908 11.0963 27.4837 11.2017C27.3903 11.2921 27.297 11.3824 27.2008 11.4755C26.9467 11.8354 26.9512 12.0483 26.9999 12.48C27.122 12.7147 27.122 12.7147 27.3224 12.9075C27.4366 13.0282 27.4366 13.0282 27.553 13.1512C27.6477 13.2465 27.7424 13.3418 27.8399 13.44C27.9631 13.5662 28.0862 13.6925 28.2093 13.8187C28.8319 14.4526 29.4592 15.0734 30.1405 15.6445C30.3938 15.8702 30.6173 16.116 30.8474 16.365C31.1699 16.69 31.3154 16.7985 31.7624 16.95C32.2527 16.913 32.4296 16.7994 32.7599 16.44C32.8689 16.1092 32.8967 15.8001 32.9052 15.4533C32.9086 15.359 32.912 15.2647 32.9155 15.1676C32.9218 14.9704 32.9271 14.7732 32.9315 14.576C32.9371 14.4348 32.9371 14.4348 32.9427 14.2908C32.9451 14.2052 32.9475 14.1197 32.9499 14.0315C33.0148 13.7309 33.1146 13.6222 33.3599 13.44C34.0396 13.3872 34.6558 13.4764 35.3174 13.6275C35.4099 13.6485 35.5024 13.6695 35.5976 13.6911C37.6561 14.1841 39.6335 15.0342 41.3999 16.2C41.5353 16.0103 41.6702 15.8202 41.8049 15.63C41.9177 15.4713 41.9177 15.4713 42.0327 15.3094C42.2057 15.0511 42.3497 14.8014 42.4799 14.52C40.3724 12.8989 37.7073 11.8461 35.099 11.4052C34.985 11.3854 34.871 11.3657 34.7536 11.3454C34.5282 11.3074 34.3023 11.2718 34.0761 11.2389C33.3163 11.1122 33.3163 11.1122 32.9901 10.8037C32.7945 10.1581 32.8276 9.49859 32.8272 8.82867C32.8184 8.18343 32.8184 8.18343 32.5682 7.60172C31.6958 7.11231 31.1875 7.56878 30.5849 8.1825ZM43.8899 15.8625C42.8975 17.1227 42.4682 18.5679 42.6487 20.1553C42.923 21.5592 43.7044 22.8883 44.8499 23.7525C46.2212 24.6181 47.7646 24.8585 49.3457 24.5166C50.8002 24.031 51.9507 23.072 52.6649 21.7125C53.2454 20.4362 53.3803 19.0885 52.9724 17.73C52.489 16.4589 51.6164 15.3186 50.392 14.6916C48.1151 13.7137 45.6359 14.0127 43.8899 15.8625ZM49.1249 26.34C49.0402 26.3572 48.9554 26.3743 48.868 26.392C48.6586 26.4345 48.4493 26.4772 48.2399 26.52C48.2568 26.6206 48.2737 26.7213 48.2911 26.825C48.9955 31.3165 48.1715 35.8766 45.4799 39.6C42.5255 43.4729 38.6297 45.9064 33.777 46.6224C33.19 46.6942 32.6077 46.6982 32.0169 46.6989C31.8983 46.6995 31.7797 46.7001 31.6576 46.7008C31.4017 46.702 31.1458 46.7031 30.89 46.7039C30.4849 46.7053 30.0799 46.7077 29.6749 46.7103C28.5239 46.7177 27.3729 46.7242 26.2219 46.7282C25.5167 46.7307 24.8114 46.7349 24.1062 46.7403C23.8377 46.742 23.5693 46.743 23.3008 46.7434C22.926 46.744 22.5512 46.7467 22.1764 46.75C22.0656 46.7497 21.9548 46.7493 21.8407 46.7489C21.2647 46.7564 20.8644 46.7791 20.3999 47.16C20.2116 47.5366 20.2377 47.8246 20.2799 48.24C20.5199 48.578 20.7109 48.8027 21.1276 48.8946C21.4384 48.9166 21.744 48.9183 22.0556 48.9138C22.1735 48.9145 22.2915 48.9152 22.413 48.9158C22.8035 48.9173 23.1937 48.9143 23.5841 48.9112C23.8573 48.911 24.1305 48.911 24.4037 48.9113C24.9776 48.9111 25.5515 48.9088 26.1254 48.905C26.8544 48.9003 27.5833 48.8997 28.3123 48.9007C28.8777 48.901 29.443 48.8995 30.0083 48.8975C30.2767 48.8967 30.545 48.8963 30.8133 48.8964C36.1507 48.8933 41.1407 47.2389 44.9999 43.44C45.0659 43.3768 45.1318 43.3137 45.1998 43.2486C45.7254 42.738 46.1797 42.1951 46.6199 41.61C46.6879 41.52 46.756 41.43 46.826 41.3372C49.3856 37.9206 50.5597 34.1267 50.5649 29.8725C50.5652 29.7903 50.5654 29.7082 50.5657 29.6235C50.5653 28.4487 50.4606 27.3185 50.2799 26.16C49.8874 26.16 49.5082 26.2615 49.1249 26.34Z" fill="#0A56F1"/>
<path id="Vector_2" d="M30.7801 20.0025C30.9124 20.0006 31.0446 19.9986 31.1809 19.9966C32.0061 19.9961 32.6836 20.0153 33.3292 20.5842C33.7413 21.1399 33.8551 21.3884 33.8401 22.08C34.0294 22.1302 34.2196 22.1771 34.4101 22.2225C34.5159 22.249 34.6217 22.2754 34.7307 22.3027C35.1237 22.3247 35.2295 22.2121 35.5201 21.96C36.0504 21.7833 36.5089 21.7633 37.0389 21.9558C37.6211 22.3101 38.066 22.7739 38.5426 23.2575C38.6394 23.3529 38.7361 23.4482 38.8358 23.5465C39.9271 24.6432 39.9271 24.6432 39.9817 25.3655C39.9037 25.9241 39.7768 26.2744 39.4801 26.76C39.5009 27.0638 39.5009 27.0638 39.6001 27.36C39.6401 27.56 39.6801 27.76 39.7201 27.96C39.8241 27.9501 39.928 27.9402 40.0351 27.93C40.5485 27.968 40.7652 28.1138 41.1601 28.44C41.5876 28.9779 41.7014 29.335 41.7039 30.0188C41.7043 30.0986 41.7048 30.1784 41.7053 30.2607C41.7056 30.4285 41.7047 30.5963 41.7027 30.7641C41.7001 31.0194 41.7027 31.2743 41.7057 31.5295C41.7054 31.6934 41.7048 31.8573 41.7039 32.0213C41.7033 32.1687 41.7028 32.3162 41.7022 32.4682C41.6127 33.0616 41.2834 33.5941 40.8001 33.96C40.5287 34.0214 40.5287 34.0214 40.2376 34.0425C40.1406 34.0504 40.0436 34.0583 39.9437 34.0664C39.8699 34.0709 39.7961 34.0754 39.7201 34.08C39.4841 34.8066 39.4841 34.8066 39.5753 35.5397C39.6665 35.696 39.7584 35.8519 39.8509 36.0075C40.0077 36.3413 39.9793 36.5953 39.9301 36.9534C39.6364 37.7582 38.9894 38.3234 38.3926 38.91C38.263 39.0395 38.263 39.0395 38.1308 39.1716C37.4996 39.7975 37.0508 40.1881 36.1201 40.2C35.3609 40.0408 35.3609 40.0408 35.0401 39.72C34.7528 39.7534 34.7528 39.7534 34.4401 39.84C34.2401 39.88 34.0401 39.92 33.8401 39.96C33.85 40.064 33.8599 40.1679 33.8701 40.275C33.8321 40.7884 33.6863 41.0051 33.3601 41.4C32.8144 41.8359 32.4496 41.9413 31.7551 41.9438C31.6726 41.9442 31.5901 41.9447 31.5051 41.9451C31.3316 41.9455 31.1582 41.9446 30.9847 41.9426C30.7208 41.94 30.4572 41.9426 30.1932 41.9456C30.0239 41.9453 29.8545 41.9447 29.6851 41.9438C29.5326 41.9432 29.3801 41.9427 29.2229 41.9421C28.6197 41.8535 28.2367 41.5997 27.8626 41.1225C27.6918 40.7358 27.6412 40.3791 27.6001 39.96C27.4108 39.9098 27.2206 39.8629 27.0301 39.8175C26.9243 39.7911 26.8185 39.7646 26.7095 39.7373C26.3164 39.7153 26.212 39.8295 25.9201 40.08C25.2001 40.2776 24.6554 40.1644 24.0001 39.84C23.5889 39.5233 23.2341 39.164 22.8751 38.79C22.78 38.6956 22.6848 38.6013 22.5868 38.5041C22.0202 37.9269 21.5365 37.4143 21.4543 36.5775C21.5225 36.1323 21.6169 35.8286 21.8701 35.4525C22.1303 35.0464 22.1303 35.0464 21.9901 34.5825C21.7491 34.1571 21.7491 34.1571 21.2626 34.065C21.1786 34.0506 21.0946 34.0362 21.0081 34.0214C20.5721 33.9134 20.352 33.6793 20.0401 33.36C19.6698 32.6291 19.7559 31.8351 19.7551 31.035C19.7522 30.8788 19.7492 30.7225 19.7462 30.5616C19.7432 29.5649 19.7961 28.9585 20.4901 28.215C20.8932 28.0134 21.272 27.9973 21.7201 27.96C21.8808 27.6056 22.0142 27.2646 22.0801 26.88C21.8763 26.5043 21.8763 26.5043 21.6001 26.16C21.4187 25.6324 21.4505 25.2742 21.6573 24.7552C21.9863 24.1318 22.464 23.6702 22.9651 23.1825C23.0542 23.0926 23.1433 23.0026 23.2351 22.9099C24.3688 21.7892 24.3688 21.7892 25.2001 21.7875C25.7077 21.8029 25.9837 22.0394 26.4001 22.32C26.7745 22.311 26.7745 22.311 27.1201 22.2C27.2142 22.1777 27.3082 22.1555 27.4051 22.1325C27.4695 22.1152 27.5338 22.0979 27.6001 22.08C27.6051 21.9389 27.61 21.7979 27.6151 21.6525C27.681 21.1371 27.8751 20.845 28.2048 20.4534C28.9468 19.9066 29.9028 19.9999 30.7801 20.0025ZM29.6401 22.08C29.5956 22.3659 29.5956 22.3659 29.5501 22.6575C29.4944 23.0147 29.463 23.2162 29.207 23.4759C28.8264 23.6936 28.4289 23.8523 28.0201 24.0075C27.4232 24.2335 27.4232 24.2335 26.845 24.5025C26.5021 24.6657 26.2777 24.5852 25.9201 24.48C25.6215 24.2974 25.357 24.096 25.0801 23.88C24.6049 24.3552 24.1297 24.8304 23.6401 25.32C23.8422 25.777 23.8422 25.777 24.0751 26.0175C24.3144 26.3982 24.271 26.6753 24.2401 27.12C24.0953 27.5138 24.0953 27.5138 23.9026 27.9C23.8367 28.0344 23.7708 28.1688 23.7029 28.3073C23.6426 28.4303 23.5823 28.5533 23.5201 28.68C23.4511 28.8469 23.3832 29.0143 23.3176 29.1825C23.1601 29.52 23.1601 29.52 22.8001 29.76C22.2655 29.8194 22.2655 29.8194 21.7201 29.88C21.7201 30.6324 21.7201 31.3848 21.7201 32.16C22.0765 32.1996 22.4329 32.2392 22.8001 32.28C23.2046 32.4615 23.3157 32.6871 23.4761 33.0825C23.5373 33.2545 23.5969 33.427 23.6551 33.6C23.89 34.2862 23.89 34.2862 24.2401 34.92C24.2932 35.3221 24.327 35.6214 24.1056 35.9747C23.9586 36.1503 23.8 36.3161 23.6401 36.48C23.8304 36.9427 24.1279 37.2399 24.4801 37.59C24.6398 37.7506 24.6398 37.7506 24.8026 37.9144C25.0483 38.1865 25.0483 38.1865 25.3201 38.16C25.4538 38.0152 25.4538 38.0152 25.5901 37.8675C25.9759 37.5081 26.1203 37.4616 26.6401 37.44C26.9584 37.5567 27.2346 37.6754 27.5326 37.83C27.6849 37.9058 27.8372 37.9814 27.9896 38.0569C28.0639 38.0945 28.1381 38.1322 28.2146 38.171C28.4404 38.2801 28.6688 38.3732 28.9018 38.4656C29.2801 38.64 29.2801 38.64 29.5201 39C29.5597 39.3168 29.5993 39.6336 29.6401 39.96C30.3529 39.96 31.0657 39.96 31.8001 39.96C31.8298 39.7694 31.8595 39.5789 31.8901 39.3825C31.9465 39.021 31.9785 38.8223 32.2379 38.5598C32.5954 38.3574 32.9557 38.2306 33.3451 38.1C33.7793 37.9537 34.1857 37.8073 34.5953 37.6013C34.9201 37.44 34.9201 37.44 35.2126 37.44C35.5201 37.56 35.5201 37.56 36.3601 38.16C36.8749 37.6452 37.3897 37.1304 37.9201 36.6C37.7988 36.4589 37.6776 36.3179 37.5526 36.1725C37.2924 35.8199 37.2029 35.6896 37.1776 35.2425C37.3373 34.7467 37.5353 34.2853 37.7598 33.8156C37.9506 33.4162 38.122 33.0099 38.2928 32.6016C38.4001 32.4 38.4001 32.4 38.6401 32.28C39.1747 32.2206 39.1747 32.2206 39.7201 32.16C39.7201 31.4076 39.7201 30.6552 39.7201 29.88C39.3637 29.8404 39.0073 29.8008 38.6401 29.76C38.2709 29.5772 38.1867 29.4624 38.0251 29.0836C37.9731 28.9024 37.9731 28.9024 37.9201 28.7175C37.7819 28.2629 37.6389 27.8515 37.4101 27.435C37.1989 27.0278 37.1092 26.7447 37.2001 26.28C37.3796 26.0092 37.5743 25.7971 37.8001 25.56C37.6097 25.0917 37.3041 24.7998 36.9451 24.45C36.8359 24.343 36.7267 24.2359 36.6142 24.1256C36.5303 24.0446 36.4465 23.9635 36.3601 23.88C36.2586 23.9765 36.1572 24.0731 36.0526 24.1725C35.6756 24.5311 35.3125 24.5761 34.8001 24.6C34.4148 24.4711 34.4148 24.4711 34.0351 24.2775C33.8339 24.177 33.8339 24.177 33.6287 24.0745C33.5005 24.0103 33.3722 23.9461 33.2401 23.88C32.9495 23.7591 32.6583 23.6408 32.365 23.5266C32.0887 23.3558 32.0289 23.2262 31.9201 22.92C31.8607 22.5042 31.8607 22.5042 31.8001 22.08C31.0873 22.08 30.3745 22.08 29.6401 22.08Z" fill="#0A56F1"/>
<path id="Vector_3" d="M22.529 12.1659C23.2311 12.6689 23.7666 13.3227 23.9999 14.16C24.0954 15.0915 24.0945 15.9105 23.5199 16.68C23.0025 17.3127 22.3608 17.7584 21.6993 18.2292C18.7029 20.4434 16.6808 23.9053 16.1024 27.5775C15.5291 31.6399 16.5956 35.4171 18.9339 38.7705C19.3412 39.4107 19.2604 40.1913 19.1999 40.92C18.9733 41.754 18.3536 42.4388 17.6193 42.8747C16.7582 43.2874 15.9581 43.4264 15.0266 43.1803C13.1793 42.4855 12.008 39.8544 11.2433 38.168C10.1025 35.5138 9.66961 32.7381 9.6824 29.865C9.68254 29.768 9.68268 29.671 9.68282 29.571C9.68712 28.0507 9.76313 26.5716 10.0799 25.08C10.1087 24.9377 10.1374 24.7954 10.1671 24.6488C10.3812 23.7359 10.3812 23.7359 10.9199 23.4C11.3152 23.2581 11.4573 23.2509 11.8424 23.43C12.1199 23.64 12.1199 23.64 12.3599 24C12.329 24.6292 12.2113 25.2103 12.0674 25.8225C10.9341 31.0147 12.2064 35.8978 14.8265 40.4006C15.0488 40.7395 15.2152 40.9813 15.5966 41.1361C16 41.2107 16.2883 41.1731 16.6649 41.0175C16.9371 40.7853 17.0618 40.6633 17.1599 40.32C17.1102 39.7925 16.9996 39.4879 16.6724 39.075C14.2306 35.7143 13.4984 31.1759 14.1163 27.1342C14.2428 26.3971 14.4316 25.6778 14.6399 24.96C14.6831 24.8106 14.7262 24.6611 14.7707 24.5072C15.2942 22.8255 16.0498 21.2937 17.1599 19.92C17.2339 19.828 17.2339 19.828 17.3094 19.7341C18.4337 18.3451 19.6199 17.1196 21.0832 16.087C21.1623 16.0304 21.2414 15.9738 21.3229 15.9155C21.3937 15.8661 21.4644 15.8166 21.5374 15.7657C21.7556 15.5676 21.8535 15.394 21.9599 15.12C21.9423 14.697 21.8878 14.4657 21.6374 14.1225C21.2732 13.8567 21.0948 13.7914 20.6399 13.8C19.8891 14.1295 19.2419 14.6141 18.6149 15.135C18.5321 15.2033 18.4493 15.2716 18.3641 15.342C16.7361 16.702 15.4657 18.2237 14.3779 20.0367C14.1783 20.3694 13.9741 20.6974 13.7624 21.0225C13.7084 21.1059 13.6544 21.1893 13.5988 21.2752C13.4399 21.48 13.4399 21.48 13.0799 21.72C12.6758 21.6984 12.361 21.6767 12.0149 21.4575C11.8217 21.1463 11.7919 20.8837 11.7599 20.52C11.8677 20.22 11.8677 20.22 12.0449 19.92C12.1117 19.8063 12.1786 19.6926 12.2474 19.5755C12.3241 19.4516 12.4009 19.3277 12.4799 19.2C12.5419 19.0986 12.5419 19.0986 12.6051 18.9951C13.4703 17.5837 14.4716 16.3325 15.5999 15.12C15.6734 15.04 15.7469 14.9601 15.8226 14.8777C17.4766 13.146 20.0485 10.7542 22.529 12.1659Z" fill="#0A56F1"/>
<path id="Vector_4" d="M10.32 41.52C10.7198 41.8413 11.0658 42.2025 11.415 42.5775C11.595 42.7661 11.7753 42.9544 11.9559 43.1423C12.0433 43.2336 12.1307 43.3249 12.2208 43.419C12.5374 43.7378 12.8711 44.0304 13.2123 44.3225C13.5746 44.6368 13.9167 44.97 14.2575 45.3075C14.3245 45.3721 14.3916 45.4367 14.4607 45.5032C15.1424 46.1785 15.4365 46.8344 15.51 47.79C15.4064 49.344 14.3764 50.2046 13.3275 51.2475C13.2477 51.3277 13.168 51.4079 13.0858 51.4905C12.6107 51.9648 12.1208 52.413 11.6124 52.8511C11.3483 53.0859 11.1124 53.3411 10.875 53.6025C10.2441 54.2388 9.54268 54.6001 8.63996 54.66C7.7014 54.6012 6.93932 54.1835 6.29668 53.5172C5.85237 52.9209 5.71231 52.4138 5.67746 51.675C5.66957 51.5256 5.66168 51.3761 5.65355 51.2222C5.64682 51.0528 5.64682 51.0528 5.63996 50.88C5.54746 50.8783 5.45497 50.8765 5.35968 50.8747C4.93555 50.8657 4.51152 50.8541 4.08746 50.8425C3.94197 50.8398 3.79649 50.8371 3.6466 50.8343C2.60335 50.8032 1.60291 50.7395 0.794959 50.01C0.71978 49.945 0.644602 49.8801 0.567146 49.8131C-0.0521153 49.0566 -0.0914539 48.2132 -0.0567602 47.2753C0.0389276 46.4734 0.341283 45.9119 0.964646 45.3984C1.63321 44.9552 2.16714 44.8648 2.96808 44.8683C3.12354 44.8687 3.27901 44.8691 3.43918 44.8695C3.60277 44.8705 3.76636 44.8715 3.92996 44.8725C4.09543 44.8731 4.2609 44.8737 4.42636 44.8741C4.8309 44.8756 5.23543 44.8775 5.63996 44.88C5.6381 44.733 5.63625 44.5861 5.63433 44.4347C5.63521 43.4432 5.83865 42.6612 6.54418 41.9288C7.68556 40.868 8.96713 40.7935 10.32 41.52ZM7.79996 43.44C7.68754 43.7772 7.66378 43.9937 7.65886 44.3433C7.656 44.4482 7.65314 44.5532 7.65019 44.6613C7.64505 44.8816 7.64129 45.1019 7.63894 45.3223C7.63562 45.4274 7.63229 45.5325 7.62886 45.6408C7.62711 45.7365 7.62536 45.8323 7.62356 45.9309C7.53152 46.3203 7.4089 46.451 7.07996 46.68C6.72422 46.7244 6.41186 46.7413 6.05668 46.7363C5.95757 46.7371 5.85845 46.7379 5.75634 46.7388C5.33324 46.7424 4.9102 46.7404 4.4871 46.7389C4.17775 46.7386 3.86851 46.7411 3.55918 46.7438C3.41646 46.7417 3.41646 46.7417 3.27087 46.7396C2.79932 46.7439 2.57137 46.7676 2.16204 47.0252C1.87834 47.3238 1.80996 47.47 1.79996 47.88C1.88862 48.2185 1.98438 48.4216 2.22558 48.675C2.65371 48.915 3.06963 48.8882 3.54746 48.8845C3.75152 48.8866 3.95558 48.8887 4.15965 48.8909C4.48039 48.8921 4.80112 48.8925 5.12187 48.8923C5.43212 48.8927 5.74224 48.896 6.05246 48.8995C6.14822 48.8986 6.24398 48.8976 6.34264 48.8966C6.76545 48.9022 7.0292 48.9246 7.3804 49.1694C7.58253 49.474 7.61957 49.6285 7.62043 49.9908C7.62379 50.1468 7.62379 50.1468 7.62722 50.306C7.6273 50.4138 7.62738 50.5215 7.62746 50.6325C7.6067 51.6009 7.6067 51.6009 8.03996 52.44C8.40209 52.6211 8.59475 52.62 8.99996 52.56C9.76349 52.0735 10.3868 51.2972 11.0219 50.6559C11.4631 50.2114 11.9145 49.7888 12.39 49.3809C13.1158 48.7819 13.1158 48.7819 13.575 47.985C13.5415 47.2146 12.9168 46.7234 12.3975 46.215C12.3217 46.14 12.2459 46.065 12.1679 45.9877C11.7259 45.553 11.2753 45.135 10.8014 44.7352C10.4106 44.3869 10.0467 44.0117 9.68143 43.637C9.24617 43.1884 9.24617 43.1884 8.65496 43.05C8.23931 43.0833 8.09124 43.1487 7.79996 43.44Z" fill="#0A56F1"/>
<path id="Vector_5" d="M33.8348 26.1272C35.1458 26.9988 35.9976 28.2894 36.3899 29.805C36.7145 31.4921 36.3107 33.0061 35.3999 34.44C34.5908 35.6088 33.2262 36.333 31.866 36.6736C30.2661 36.9162 28.7579 36.6134 27.4007 35.7291C26.2028 34.8372 25.3219 33.6608 25.0199 32.175C24.8016 30.3385 25.126 28.7672 26.256 27.3009C28.2002 25.084 31.3338 24.6669 33.8348 26.1272ZM27.7199 28.68C26.9934 29.7022 26.8408 30.6857 26.9999 31.92C27.2554 32.942 28.0421 33.8757 28.9199 34.44C29.886 34.902 30.9731 34.9617 32.0024 34.6725C33.1173 34.2363 33.8111 33.4642 34.3199 32.4C34.7077 31.3952 34.6503 30.4851 34.2538 29.4933C33.7097 28.4504 32.8946 27.7665 31.7999 27.36C30.261 26.8989 28.7361 27.4806 27.7199 28.68Z" fill="#0A56F1"/>
<path id="Vector_6" d="M50.5424 16.9125C50.9389 17.0623 51.1197 17.1689 51.3599 17.52C51.4473 18.0441 51.4161 18.2757 51.1199 18.72C50.7862 19.0754 50.4153 19.3899 50.0446 19.7058C49.8125 19.909 49.5957 20.1198 49.3799 20.34C49.0088 20.718 48.6179 21.0663 48.2155 21.4106C47.9989 21.5947 47.9989 21.5947 47.8157 21.7964C47.4952 22.0947 47.2271 22.087 46.7999 22.08C46.439 21.8857 46.1476 21.6286 45.8399 21.36C45.7596 21.3009 45.6794 21.2418 45.5966 21.1809C45.1913 20.8742 45.0221 20.7067 44.8574 20.2125C44.8799 19.8 44.8799 19.8 45.0749 19.455C45.3958 19.1679 45.5309 19.08 45.9599 19.08C46.3547 19.2458 46.6838 19.4426 47.0399 19.68C47.2627 19.4778 47.4852 19.2753 47.7074 19.0725C47.7735 19.0122 47.8396 18.952 47.9077 18.8899C48.2604 18.5666 48.6047 18.2392 48.9374 17.895C49.9027 16.925 49.9027 16.925 50.5424 16.9125Z" fill="#0A56F1"/>
<path id="Vector_7" d="M27.7199 8.28C27.7199 9.14437 26.5072 9.99075 25.9363 10.5712C25.6799 10.8 25.6799 10.8 25.4399 10.8C25.6286 10.337 25.9253 10.0668 26.2799 9.72C26.4046 9.59563 26.5292 9.47109 26.6535 9.34641C27.1867 8.8132 27.1867 8.8132 27.7199 8.28Z" fill="#0A56F1"/>
<path id="Vector_8" d="M19.8 17.04C19.8792 17.0796 19.9584 17.1192 20.04 17.16C19.9877 17.2195 19.9354 17.2791 19.8816 17.3405C19.8101 17.422 19.7386 17.5035 19.665 17.5875C19.5884 17.6744 19.5119 17.7614 19.433 17.8509C19.2862 18.0205 19.1417 18.1921 19.0008 18.3666C18.9101 18.4784 18.9101 18.4784 18.8175 18.5925C18.737 18.6944 18.737 18.6944 18.6548 18.7983C18.4446 18.9927 18.279 19.0328 18 19.08C18.1585 18.7281 18.3296 18.4816 18.6047 18.2119C18.6743 18.143 18.7439 18.0742 18.8156 18.0033C18.888 17.9329 18.9604 17.8625 19.035 17.79C19.1083 17.7178 19.1816 17.6455 19.2572 17.5711C19.4376 17.3935 19.6187 17.2167 19.8 17.04Z" fill="#0A56F1"/>
<path id="Vector_9" d="M27.36 26.28C27.4392 26.3196 27.5184 26.3592 27.6 26.4C27.4055 26.6179 27.2104 26.8353 27.015 27.0525C26.9598 27.1145 26.9046 27.1764 26.8477 27.2402C26.4272 27.7064 26.4272 27.7064 26.16 27.84C26.1204 27.9588 26.0808 28.0776 26.04 28.2C25.9608 28.2 25.8816 28.2 25.8 28.2C26.0508 27.3724 26.6787 26.781 27.36 26.28Z" fill="#0A56F1"/>
<path id="Vector_10" d="M16.56 14.16C16.6392 14.1996 16.7184 14.2392 16.8 14.28C16.1752 15.0119 15.5618 15.6626 14.76 16.2C14.9186 15.8481 15.0896 15.6016 15.3647 15.3319C15.4343 15.263 15.5039 15.1942 15.5756 15.1233C15.648 15.0529 15.7204 14.9825 15.795 14.91C15.8683 14.8378 15.9417 14.7655 16.0172 14.6911C16.1976 14.5135 16.3787 14.3367 16.56 14.16Z" fill="#0A56F1"/>
<path id="Vector_11" d="M50.88 17.16C51.24 17.28 51.24 17.28 51.36 17.52C51.4418 18.2288 51.4418 18.2288 51.226 18.5752C51.0786 18.7504 50.9199 18.9161 50.76 19.08C50.6808 19.0404 50.6016 19.0008 50.52 18.96C50.5992 18.9031 50.6784 18.8462 50.76 18.7875C51.1039 18.347 51.0638 17.9416 51 17.4C50.9604 17.3208 50.9208 17.2416 50.88 17.16Z" fill="#0A56F1"/>
<path id="Vector_12" d="M1.20011 45.24C1.27931 45.2796 1.35851 45.3192 1.44011 45.36C1.30595 45.5207 1.17075 45.6805 1.03511 45.84C0.959929 45.9291 0.884751 46.0182 0.807295 46.11C0.704737 46.2139 0.704737 46.2139 0.600107 46.32C0.520907 46.32 0.441707 46.32 0.360107 46.32C0.522134 45.7897 0.751446 45.5588 1.20011 45.24Z" fill="#0A56F1"/>
<path id="Vector_13" d="M51.6 41.52C51.6792 41.5596 51.7584 41.5992 51.84 41.64C51.2229 42.4286 51.2229 42.4286 50.76 42.6C50.9466 42.142 51.2443 41.857 51.6 41.52Z" fill="#0A56F1"/>
<path id="Vector_14" d="M28.4401 20.28C28.5589 20.3196 28.6777 20.3592 28.8001 20.4C28.2451 20.985 28.2451 20.985 27.8401 21.12C27.9952 20.7739 28.1592 20.5353 28.4401 20.28Z" fill="#0A56F1"/>
</g>
<defs>
<clipPath id="clip0_315_472">
<rect width="60" height="60" fill="white"/>
</clipPath>
</defs>
</svg>
