<svg width="85" height="86" viewBox="0 0 85 86" fill="none" xmlns="http://www.w3.org/2000/svg">
<g id="brainstorm__1_-removebg-preview 1">
<path id="Vector" d="M15.8546 1.84535C17.1839 2.42517 17.8035 3.46042 18.4199 4.72273C18.5407 4.96729 18.6617 5.21183 18.7826 5.45635C18.8499 5.59284 18.9172 5.72933 18.9866 5.86996C19.4206 6.74726 19.8597 7.62201 20.2979 8.49726C20.4933 8.88816 20.6888 9.27907 20.8842 9.66999C21.0319 9.96526 21.0319 9.96526 21.1825 10.2665C22.4063 12.7141 22.4063 12.7141 23.6301 15.1618C23.7192 15.3128 23.7192 15.3128 23.81 15.4668C24.0098 15.9347 24.0119 16.2927 24.011 16.8013C24.0117 17.0945 24.0117 17.0945 24.0124 17.3936C24.0106 17.7142 24.0106 17.7142 24.0087 18.0413C24.0086 18.2692 24.0087 18.4971 24.0089 18.725C24.009 19.3431 24.007 19.9612 24.0046 20.5793C24.0025 21.2255 24.0023 21.8717 24.0019 22.5178C24.0008 23.7412 23.998 24.9646 23.9946 26.188C23.9908 27.5809 23.9889 28.9738 23.9872 30.3666C23.9837 33.2317 23.9776 36.0967 23.9701 38.9618C25.2043 38.9618 26.4385 38.9618 27.7101 38.9618C28.9851 42.7868 28.9851 42.7868 30.2601 46.6118C30.3162 44.0873 30.3723 41.5628 30.4301 38.9618C31.7765 38.9618 33.1229 38.9618 34.5101 38.9618C34.4906 38.2321 34.4691 37.5026 34.4464 36.773C34.4385 36.466 34.4385 36.466 34.4304 36.1528C34.3493 33.6648 33.9932 31.8647 32.1474 30.1019C31.812 29.8014 31.468 29.5157 31.1207 29.2293C28.5689 27.007 27.0011 23.3982 26.5201 20.0918C26.2415 15.5432 26.9015 11.2668 29.9201 7.68179C31.1324 6.32012 32.4244 5.04518 34.0001 4.11179C34.1881 3.99871 34.3762 3.88564 34.5699 3.76913C38.1154 1.71934 42.3578 1.12657 46.3517 2.07644C48.8564 2.80503 51.0654 3.93543 53.0401 5.64179C53.1672 5.74238 53.2943 5.84296 53.4253 5.9466C56.2636 8.27379 57.8649 11.9487 58.4801 15.5018C58.6383 17.9969 58.637 20.4394 57.8001 22.8118C57.7646 22.9176 57.7291 23.0234 57.6925 23.1324C56.7401 25.9359 55.095 28.3211 52.8276 30.2387C51.4737 31.3843 50.8372 32.6098 50.6601 34.3718C50.6159 35.1612 50.5898 35.951 50.5645 36.7412C50.5572 36.9547 50.5498 37.1683 50.5422 37.3883C50.5243 37.9128 50.5071 38.4373 50.4901 38.9618C51.8365 38.9618 53.1829 38.9618 54.5701 38.9618C54.6262 41.4863 54.6823 44.0108 54.7401 46.6118C55.0662 45.6335 55.3923 44.6553 55.7282 43.6474C56.2489 42.0855 56.7695 40.5237 57.2901 38.9618C66.0417 38.9618 74.7933 38.9618 83.8101 38.9618C83.8101 51.6111 83.8101 51.6111 79.7301 56.3018C79.5883 56.4823 79.4466 56.6629 79.3051 56.8437C78.105 58.1938 76.5165 59.5942 74.8639 60.332C74.277 60.5965 73.7726 60.8283 73.2701 61.2318C73.0366 61.9289 73.0273 62.5445 73.1001 63.2718C73.2031 63.2987 73.3061 63.3257 73.4122 63.3535C77.2927 64.434 80.1262 67.2323 82.1061 70.6522C84.4427 75.0568 83.8101 79.164 83.8101 84.3518C56.5455 84.3518 29.2809 84.3518 1.19011 84.3518C1.19011 71.4898 1.19011 71.4898 6.12012 66.5018C7.53205 65.1109 9.82477 63.2718 11.9001 63.2718C11.973 62.5445 11.9637 61.9289 11.7301 61.2318C11.227 60.8278 10.7209 60.5954 10.1337 60.3293C6.28361 58.5251 3.59108 54.7457 2.11914 50.8744C1.89708 50.2531 1.68827 49.6327 1.53011 48.9918C1.49809 48.8644 1.46607 48.737 1.43308 48.6058C1.03935 46.7111 1.15361 44.7539 1.16886 42.8293C1.17057 42.4537 1.17212 42.078 1.17351 41.7024C1.17694 40.7888 1.1836 39.8754 1.19011 38.9618C2.53651 38.9618 3.88292 38.9618 5.27012 38.9618C5.26558 38.6787 5.26105 38.3956 5.25639 38.1039C5.21482 35.4208 5.18423 32.7378 5.16442 30.0545C5.15396 28.6753 5.13974 27.2963 5.11622 25.9173C5.09569 24.7134 5.08268 23.5096 5.07817 22.3055C5.07555 21.6696 5.06951 21.0341 5.05443 20.3984C4.98273 17.2535 5.32073 14.8952 7.04671 12.1968C7.50833 11.4345 7.87199 10.6257 8.24512 9.81742C8.90803 8.41515 9.58383 7.01999 10.2745 5.63117C10.3589 5.46025 10.4432 5.28933 10.5302 5.11324C11.6428 2.88467 13.0722 1.0236 15.8546 1.84535ZM32.9801 8.70179C32.8207 8.85826 32.8207 8.85826 32.658 9.01789C30.3985 11.4049 29.2375 14.7828 29.2408 18.0279C29.4412 22.2077 31.3605 25.4034 34.3401 28.2518C35.9831 29.8628 36.7928 31.4325 37.2301 33.6918C38.0155 33.6918 38.8009 33.6918 39.6101 33.6918C39.5303 31.2358 39.3838 28.7852 39.2196 26.3337C39.1966 25.9898 39.1738 25.6459 39.1513 25.3019C39.1191 24.8125 39.0858 24.3231 39.0523 23.8338C39.0426 23.6843 39.0328 23.5348 39.0228 23.3808C38.9889 22.648 38.9889 22.648 38.7601 21.9618C38.2992 21.9076 38.2992 21.9076 37.7507 21.898C36.4431 21.8148 35.4015 21.5433 34.3614 20.7293C33.4843 19.5943 33.1927 18.7032 33.2451 17.2456C33.3826 16.2309 33.7156 15.3747 34.5114 14.7043C35.7989 13.8705 37.0959 13.8357 38.5901 13.9718C39.7987 14.3713 40.4725 15.0893 41.087 16.1818C41.4591 17.0898 41.4379 18.1039 41.4801 19.0718C42.1533 19.0718 42.8265 19.0718 43.5201 19.0718C43.5306 18.7422 43.5412 18.4126 43.552 18.073C43.6545 16.7489 44.0046 15.6973 44.9545 14.7474C46.309 13.9215 47.3826 13.813 48.9601 13.9718C49.4864 14.1441 49.8475 14.3519 50.3201 14.6518C50.5726 14.7359 50.5726 14.7359 50.8301 14.8218C51.0001 15.098 51.0001 15.098 51.1701 15.5018C51.3069 15.749 51.3069 15.749 51.4464 16.0012C51.8892 17.065 51.8713 18.3134 51.5188 19.3985C51.0722 20.3508 50.6217 21.0214 49.6202 21.4279C48.6332 21.7621 47.6814 21.8657 46.6432 21.9093C46.5102 21.9266 46.3772 21.944 46.2401 21.9618C46.0218 22.3985 46.0214 22.7514 45.9884 23.2395C45.968 23.5341 45.968 23.5341 45.9472 23.8347C45.9262 24.1547 45.9262 24.1547 45.9048 24.4812C45.8825 24.8096 45.8825 24.8096 45.8598 25.1446C45.8283 25.6091 45.7973 26.0735 45.7668 26.538C45.7278 27.1302 45.6877 27.7223 45.6473 28.3145C45.6087 28.8819 45.5708 29.4494 45.5329 30.0169C45.5114 30.3338 45.5114 30.3338 45.4894 30.6572C45.4231 31.6712 45.3732 32.6756 45.3901 33.6918C46.1755 33.6918 46.9609 33.6918 47.7701 33.6918C47.8074 33.5274 47.8446 33.3631 47.883 33.1937C48.3958 31.0459 49.2396 29.3326 50.9576 27.8693C53.7022 25.5013 55.4035 22.348 55.7223 18.7205C55.9322 15.012 54.6497 11.6418 52.1901 8.87179C52.0392 8.69692 52.0392 8.69692 51.8853 8.51851C49.5149 5.95096 46.2707 4.92944 42.8899 4.57331C39.1635 4.4273 35.5743 6.11213 32.9801 8.70179ZM14.1101 4.79179C12.989 6.90155 11.8956 9.02345 10.8292 11.1614C10.5986 11.6237 10.3672 12.0855 10.1357 12.5474C9.98846 12.842 9.84126 13.1366 9.6941 13.4312C9.62506 13.569 9.55602 13.7067 9.48489 13.8486C9.15816 14.3966 9.15816 14.3966 9.01012 14.9918C12.7127 14.9918 16.4153 14.9918 20.2301 14.9918C19.7813 14.0942 19.3325 13.1966 18.8701 12.2718C17.6234 9.77846 16.3768 7.28512 15.1301 4.79179C14.7935 4.79179 14.4569 4.79179 14.1101 4.79179ZM36.2101 17.0318C35.9753 17.2296 35.9753 17.2296 35.9976 17.7755C35.9855 18.3721 35.9855 18.3721 36.2632 18.7105C36.7901 19.0618 37.2436 19.0913 37.857 19.0824C37.9944 19.0809 38.1318 19.0793 38.2734 19.0778C38.3779 19.0758 38.4824 19.0738 38.5901 19.0718C38.5994 18.831 38.6059 18.5902 38.6114 18.3493C38.6153 18.2152 38.6193 18.0811 38.6233 17.9429C38.5867 17.4999 38.4846 17.237 38.2501 16.8618C37.4429 16.341 36.9759 16.528 36.2101 17.0318ZM46.7501 16.8618C46.4338 17.3744 46.3713 17.7516 46.3889 18.3493C46.3919 18.4852 46.395 18.621 46.3982 18.761C46.4021 18.8636 46.4061 18.9661 46.4101 19.0718C47.3442 19.1267 48.0184 19.1647 48.7901 18.5618C49.025 18.3639 49.025 18.3639 49.0026 17.818C49.0088 17.2283 49.0088 17.2283 48.7689 16.883C48.088 16.4745 47.4022 16.3727 46.7501 16.8618ZM7.99012 17.8818C7.99012 24.8382 7.99012 31.7946 7.99012 38.9618C9.72922 38.9618 11.4683 38.9618 13.2601 38.9618C13.2601 32.0054 13.2601 25.049 13.2601 17.8818C11.521 17.8818 9.78192 17.8818 7.99012 17.8818ZM15.9801 17.8818C15.9801 24.8382 15.9801 31.7946 15.9801 38.9618C17.7192 38.9618 19.4583 38.9618 21.2501 38.9618C21.2501 32.0054 21.2501 25.049 21.2501 17.8818C19.511 17.8818 17.7719 17.8818 15.9801 17.8818ZM41.8201 21.9618C41.9054 24.1664 42.0082 26.3702 42.1285 28.5732C42.1425 28.833 42.1559 29.0929 42.1688 29.3528C42.1873 29.7215 42.2077 30.0899 42.2285 30.4585C42.2399 30.6722 42.2513 30.8859 42.263 31.1061C42.3257 31.6158 42.4309 31.8905 42.6701 32.3318C42.7433 31.0736 42.8159 29.8153 42.888 28.557C42.9126 28.1293 42.9373 27.7016 42.9622 27.2739C42.998 26.6578 43.0333 26.0417 43.0686 25.4255C43.0797 25.2355 43.0909 25.0454 43.1024 24.8496C43.157 23.8851 43.1924 22.9279 43.1801 21.9618C42.7313 21.9618 42.2825 21.9618 41.8201 21.9618ZM37.2301 36.4118C37.2301 37.2533 37.2301 38.0948 37.2301 38.9618C40.7083 38.9618 44.1865 38.9618 47.7701 38.9618C47.7701 38.1203 47.7701 37.2788 47.7701 36.4118C44.2919 36.4118 40.8137 36.4118 37.2301 36.4118ZM4.08012 41.8518C4.08012 46.987 4.47674 51.2295 8.10101 55.0527C8.23272 55.1844 8.36442 55.3161 8.50012 55.4518C8.63708 55.5888 8.77404 55.7257 8.91515 55.8668C9.83422 56.7399 10.7422 57.3249 11.9001 57.8318C12.2066 55.6385 12.2066 55.6385 11.5077 53.6562C11.0507 53.1941 10.5357 52.7992 10.0301 52.3918C9.25576 51.4663 9.23506 50.4135 9.2764 49.2421C9.38764 48.3512 9.61666 47.6443 10.2001 46.9518C10.498 46.7935 10.7994 46.6415 11.1032 46.4949C11.4977 46.132 11.4977 46.132 11.9001 45.7618C11.9001 44.4715 11.9001 43.1812 11.9001 41.8518C9.31952 41.8518 6.73892 41.8518 4.08012 41.8518ZM14.6201 41.8518C14.6201 44.0397 14.6201 46.2276 14.6201 48.4818C14.1152 48.4818 13.6103 48.4818 13.0901 48.4818C12.5705 48.626 12.5705 48.626 12.2401 48.9918C12.0248 49.663 11.9932 50.0171 12.2932 50.6599C12.5525 51.0112 12.8211 51.2607 13.1595 51.541C14.0469 52.304 14.5545 52.8551 14.6587 54.0467C14.6655 54.4765 14.6633 54.9065 14.6533 55.3362C14.654 55.5663 14.6554 55.7964 14.6575 56.0265C14.661 56.6264 14.6544 57.2258 14.6457 57.8257C14.6385 58.44 14.641 59.0542 14.6427 59.6686C14.6446 60.8698 14.6358 62.0707 14.6201 63.2718C15.9206 63.9377 15.9206 63.9377 17.2671 64.5023C17.4078 64.5554 17.5485 64.6085 17.6935 64.6632C17.8644 64.7265 18.0353 64.7897 18.2114 64.8549C18.7654 65.0618 19.3193 65.2687 19.8901 65.4818C19.8901 64.2476 19.8901 63.0134 19.8901 61.7418C18.9925 61.7418 18.0949 61.7418 17.1701 61.7418C17.1701 60.7881 17.1701 59.8344 17.1701 58.8518C17.5348 58.8577 17.8994 58.8636 18.2751 58.8697C18.6324 58.8737 18.9897 58.8768 19.347 58.8798C19.5933 58.8824 19.8396 58.8858 20.0859 58.8903C22.2405 58.9705 22.2405 58.9705 24.1441 58.0675C24.2578 57.9245 24.2578 57.9245 24.3739 57.7787C24.4523 57.6847 24.5308 57.5906 24.6116 57.4938C25.0995 56.6935 25.197 55.9498 25.1648 55.0268C25.1629 54.8199 25.161 54.6131 25.1591 54.3999C25.1527 53.9677 25.1403 53.5355 25.1219 53.1037C25.1223 52.4763 25.1396 51.9704 25.3301 51.3718C25.7828 50.9837 26.1941 50.7754 26.7476 50.5577C27.3843 50.268 27.6038 49.9417 27.8558 49.3021C27.893 48.5669 27.6532 47.9484 27.4193 47.2573C27.3704 47.1079 27.3215 46.9586 27.2711 46.8048C27.1677 46.4901 27.0633 46.1758 26.9581 45.8617C26.7964 45.3793 26.6374 44.896 26.4789 44.4124C26.3782 44.1069 26.2772 43.8014 26.1761 43.496C26.1281 43.3508 26.0801 43.2056 26.0307 43.056C25.855 42.4037 25.855 42.4037 25.5001 41.8518C25.1611 41.8358 24.8215 41.8318 24.4821 41.8325C24.1553 41.8325 24.1553 41.8325 23.822 41.8325C23.5825 41.8334 23.343 41.8343 23.1035 41.8352C22.8598 41.8355 22.6161 41.8358 22.3724 41.8359C21.7299 41.8366 21.0874 41.8382 20.4449 41.8401C19.6746 41.8422 18.9043 41.8429 18.1339 41.8439C16.9627 41.8456 15.7914 41.8488 14.6201 41.8518ZM33.3201 41.8518C33.3061 44.0502 33.2921 46.2486 33.2776 48.5137C33.2714 49.2036 33.2652 49.8935 33.2589 50.6043C33.2566 51.2317 33.2566 51.2317 33.2552 51.8591C33.2542 52.135 33.2518 52.4109 33.2483 52.6867C33.2231 54.7867 33.253 56.81 34.6376 58.5224C36.0686 59.964 37.8414 60.2456 39.8132 60.259C39.9776 60.2583 40.142 60.2577 40.3114 60.257C40.486 60.2573 40.6607 60.2576 40.8407 60.2579C41.2076 60.2582 41.5744 60.2575 41.9413 60.2561C42.4986 60.2543 43.0558 60.2561 43.6131 60.2583C43.9717 60.2581 44.3303 60.2576 44.6889 60.257C44.9354 60.258 44.9354 60.258 45.187 60.259C47.2107 60.2453 48.9895 59.9081 50.4582 58.4268C51.8598 56.6307 51.7738 54.4198 51.7465 52.261C51.7455 51.9932 51.7448 51.7254 51.7444 51.4576C51.7409 50.4762 51.7314 49.495 51.7226 48.5137C51.7016 45.216 51.7016 45.216 51.6801 41.8518C45.6213 41.8518 39.5625 41.8518 33.3201 41.8518ZM59.5001 41.8518C58.5306 44.4556 58.5306 44.4556 57.6195 47.0793C57.5653 47.2331 57.511 47.387 57.4551 47.5455C57.1395 48.5056 57.0484 49.0748 57.4601 50.0118C57.9241 50.4894 58.4305 50.7596 59.0207 51.0511C59.2034 51.1415 59.2034 51.1415 59.3898 51.2339C59.4823 51.2794 59.5748 51.3249 59.6701 51.3718C59.6726 51.5089 59.6751 51.6459 59.6776 51.7872C59.6904 52.4138 59.7068 53.0403 59.7232 53.6668C59.7271 53.8824 59.7309 54.0981 59.7349 54.3202C59.7783 56.1988 59.7783 56.1988 60.6244 57.8358C60.7674 57.9495 60.7674 57.9495 60.9132 58.0655C61.0543 58.1832 61.0543 58.1832 61.1981 58.3033C62.0403 58.8168 62.8419 58.893 63.8125 58.885C63.9281 58.8845 64.0436 58.884 64.1626 58.8835C64.5281 58.8816 64.8934 58.8774 65.2589 58.873C65.5081 58.8713 65.7574 58.8698 66.0066 58.8684C66.6145 58.865 67.2222 58.8583 67.8301 58.8518C67.8301 59.8055 67.8301 60.7592 67.8301 61.7418C66.9325 61.7418 66.0349 61.7418 65.1101 61.7418C65.1101 62.976 65.1101 64.2102 65.1101 65.4818C65.7974 65.2096 66.4845 64.9368 67.1714 64.6637C67.3655 64.5869 67.5597 64.5101 67.7597 64.4309C67.9482 64.3559 68.1367 64.2808 68.3308 64.2035C68.5035 64.1349 68.6762 64.0664 68.8542 63.9957C69.3751 63.7755 69.8771 63.5299 70.3801 63.2718C70.3777 63.1464 70.3753 63.021 70.3728 62.8918C70.3519 61.7016 70.341 60.5117 70.3409 59.3212C70.3405 58.7094 70.3365 58.098 70.3236 57.4862C70.2329 52.9806 70.2329 52.9806 71.2782 51.8429C71.6923 51.4773 72.1357 51.1756 72.5901 50.8618C72.9281 50.3629 72.9308 50.2006 72.9089 49.5762C72.8056 48.9148 72.8056 48.9148 72.0801 48.4818C71.5191 48.4818 70.9581 48.4818 70.3801 48.4818C70.3801 46.2939 70.3801 44.106 70.3801 41.8518C66.7897 41.8518 63.1993 41.8518 59.5001 41.8518ZM73.1001 41.8518C73.1001 43.1421 73.1001 44.4324 73.1001 45.7618C73.7982 46.4752 73.7982 46.4752 74.3652 46.7207C75.0138 47.0653 75.2344 47.5013 75.518 48.1624C75.8588 49.4245 75.9076 50.8986 75.2457 52.0624C74.9701 52.3918 74.9701 52.3918 74.5086 52.7637C73.5051 53.5557 73.5051 53.5557 73.0145 54.6948C72.9362 55.7433 72.9961 56.7869 73.1001 57.8318C75.5961 56.9327 77.6244 54.6571 78.8801 52.3918C78.9708 52.2309 79.0616 52.0701 79.155 51.9044C80.8716 48.6848 80.9201 45.4739 80.9201 41.8518C78.3395 41.8518 75.7589 41.8518 73.1001 41.8518ZM30.2601 50.5218C30.176 50.7216 30.0918 50.9215 30.0051 51.1274C29.583 51.9822 28.9525 52.4852 28.2201 53.0718C27.8491 53.3699 27.8491 53.3699 27.8523 53.7328C27.8584 53.8616 27.8645 53.9903 27.8708 54.123C27.8755 54.2658 27.8802 54.4087 27.885 54.5558C27.8904 54.7077 27.8958 54.8596 27.9014 55.0162C27.9315 56.8412 27.6632 58.2931 26.477 59.7396C25.636 60.5956 24.714 61.0665 23.5783 61.431C23.3965 61.4899 23.2146 61.5488 23.0272 61.6095C22.8896 61.6531 22.7519 61.6968 22.6101 61.7418C22.176 65.0071 22.176 65.0071 23.1102 67.9614C23.5925 68.4017 24.1234 68.7257 24.6968 69.034C25.1901 69.3498 25.4912 69.7762 25.8401 70.2418C26.3182 69.8866 26.7014 69.5478 27.0779 69.0837C29.1013 66.6219 32.6267 64.8627 35.7586 64.4034C36.0783 64.3126 36.0783 64.3126 36.2181 63.9405C36.2575 63.8005 36.297 63.6604 36.3376 63.5162C36.3788 63.3757 36.42 63.2352 36.4625 63.0905C36.4914 62.982 36.5203 62.8736 36.5501 62.7618C36.4368 62.7285 36.3235 62.6952 36.2068 62.6609C33.9193 61.9186 32.4246 60.6064 31.3226 58.5012C30.7593 57.3726 30.5495 56.3 30.5297 55.054C30.5264 54.9236 30.5231 54.7933 30.5198 54.6589C30.5097 54.2468 30.5017 53.8346 30.4939 53.4224C30.4874 53.1412 30.4807 52.86 30.4739 52.5787C30.4577 51.8931 30.4434 51.2075 30.4301 50.5218C30.374 50.5218 30.3179 50.5218 30.2601 50.5218ZM54.5701 50.5218C54.5685 50.6914 54.5669 50.8609 54.5653 51.0356C54.5584 51.6744 54.5472 52.3131 54.5348 52.9518C54.5301 53.2265 54.5265 53.5011 54.5241 53.7758C54.5034 55.9969 54.2846 57.863 52.9325 59.7124C52.6892 60.0339 52.6892 60.0339 52.5421 60.403C52.3103 60.809 52.1028 60.8737 51.6801 61.0618C51.4124 61.2537 51.1469 61.4487 50.8832 61.6462C50.102 62.2034 49.3699 62.5139 48.4501 62.7618C48.5442 63.3201 48.6752 63.7997 48.9601 64.2918C49.4805 64.6018 50.0275 64.6967 50.6176 64.8124C52.9195 65.3646 54.8154 66.2918 56.6101 67.8618C56.7554 67.9887 56.9007 68.1156 57.0504 68.2463C57.7755 68.8905 58.4855 69.5447 59.1601 70.2418C59.2224 70.1633 59.2846 70.0849 59.3487 70.0041C59.8194 69.437 60.2487 68.9509 60.8624 68.5325C62.0023 67.7549 62.0023 67.7549 62.5556 66.5346C62.615 65.8049 62.5691 65.0843 62.5176 64.3555C62.5074 64.1012 62.4981 63.8469 62.4897 63.5925C62.4674 62.9748 62.4324 62.3585 62.3901 61.7418C62.2523 61.698 62.1146 61.6542 61.9726 61.6091C61.6997 61.5206 61.6997 61.5206 61.4213 61.4303C61.1515 61.3436 61.1515 61.3436 60.8763 61.2552C59.4663 60.737 58.3775 59.8188 57.6301 58.5118C57.116 57.3649 57.0831 56.341 57.0989 55.1012C57.1014 53.8575 57.1014 53.8575 56.6241 52.7444C56.2263 52.4083 56.2263 52.4083 55.8 52.1434C55.191 51.7239 55.0158 51.193 54.7401 50.5218C54.684 50.5218 54.6279 50.5218 54.5701 50.5218ZM39.6101 63.1018C38.8127 64.6142 38.8127 64.6142 39.1001 65.4818C39.3803 65.8294 39.3803 65.8294 39.737 66.1625C39.8653 66.2884 39.9936 66.4142 40.1258 66.544C40.2606 66.6738 40.3955 66.8036 40.5345 66.9374C40.8003 67.1958 41.0657 67.4546 41.3307 67.7137C41.4489 67.8278 41.5671 67.9419 41.6889 68.0594C41.9901 68.3718 41.9901 68.3718 42.3301 68.8818C42.8867 68.6963 42.9822 68.5878 43.3395 68.1487C43.7253 67.6827 44.1212 67.262 44.5733 66.8617C45.6052 66.0173 45.6052 66.0173 46.1372 64.8649C46.0478 64.4571 45.9293 64.1477 45.7301 63.7818C45.6179 63.5574 45.5057 63.333 45.3901 63.1018C43.4827 63.1018 41.5753 63.1018 39.6101 63.1018ZM70.5448 66.2322C70.3401 66.3196 70.1355 66.4071 69.9246 66.4971C69.7642 66.5665 69.7642 66.5665 69.6007 66.6373C69.2816 66.7753 68.9617 66.9112 68.6416 67.047C63.892 69.0785 60.3577 72.0771 58.3101 76.8718C57.7102 78.4081 57.4418 79.7936 57.2901 81.4618C62.4513 81.4618 67.6125 81.4618 72.9301 81.4618C72.9301 78.8251 72.9301 76.1884 72.9301 73.4718C73.8838 73.4718 74.8375 73.4718 75.8201 73.4718C75.8201 76.1085 75.8201 78.7452 75.8201 81.4618C77.5031 81.4618 79.1861 81.4618 80.9201 81.4618C80.9754 76.5401 80.574 72.4319 77.0075 68.6925C75.3879 67.148 72.7661 65.2832 70.5448 66.2322ZM7.82012 68.8818C6.75586 70.015 5.9404 71.2216 5.27012 72.6218C5.20569 72.7517 5.14126 72.8817 5.07488 73.0156C3.87287 75.6862 4.03326 78.6037 4.08012 81.4618C5.76311 81.4618 7.44612 81.4618 9.18012 81.4618C9.18012 78.8251 9.18012 76.1884 9.18012 73.4718C10.1338 73.4718 11.0875 73.4718 12.0701 73.4718C12.0701 76.1085 12.0701 78.7452 12.0701 81.4618C17.2313 81.4618 22.3925 81.4618 27.7101 81.4618C27.3844 77.8792 26.0671 74.8826 23.8001 72.1118C23.4138 72.4673 23.1726 72.7956 22.9428 73.2666C22.8831 73.3877 22.8234 73.5088 22.7619 73.6335C22.7013 73.7589 22.6407 73.8844 22.5782 74.0137C22.5157 74.1411 22.4531 74.2685 22.3887 74.3998C22.2349 74.7134 22.0824 75.0275 21.9301 75.3418C21.2686 75.2264 20.7688 74.9162 20.1949 74.5768C20.0932 74.5169 19.9915 74.4571 19.8867 74.3954C19.558 74.2017 19.23 74.0067 18.902 73.8118C18.6776 73.6794 18.4532 73.547 18.2288 73.4147C17.2962 72.8644 16.3656 72.3111 15.4396 71.7499C15.3208 71.6779 15.2019 71.6059 15.0795 71.5317C14.7817 71.3504 14.4847 71.1677 14.1878 70.9849C13.8004 70.7242 13.8004 70.7242 13.4301 70.7518C13.3869 70.5629 13.3438 70.374 13.2993 70.1794C12.9872 68.8264 12.6688 67.4837 12.2401 66.1618C10.7562 66.1618 8.81193 67.9368 7.82012 68.8818ZM15.4701 66.8418C15.4588 67.5249 15.5403 68.0812 15.8101 68.7118C16.4055 69.2568 17.0621 69.6448 17.7688 70.0243C18.0965 70.2004 18.4184 70.3847 18.7403 70.5712C19.5539 71.0335 19.5539 71.0335 20.4001 71.4318C20.9515 71.3071 20.9515 71.3071 21.2182 70.7837C21.4678 70.2798 21.4678 70.2798 21.3212 69.9078C20.2428 68.36 17.4963 67.5156 15.8101 66.8418C15.6979 66.8418 15.5857 66.8418 15.4701 66.8418ZM36.7201 67.3518C36.996 69.3034 37.4622 71.2142 37.9101 73.1318C38.4759 72.8644 38.8441 72.5742 39.2807 72.1224C39.3949 72.0052 39.5091 71.8879 39.6267 71.7671C39.7334 71.6565 39.8402 71.5458 39.9501 71.4318C40.1199 71.2616 40.2898 71.0915 40.4601 70.9218C39.9553 70.4128 39.45 69.9044 38.9442 69.3965C38.772 69.2235 38.6001 69.0504 38.4282 68.8771C38.1818 68.6286 37.9348 68.3806 37.6877 68.1327C37.539 67.9832 37.3903 67.8336 37.2371 67.6795C36.9491 67.3323 36.9491 67.3323 36.7201 67.3518ZM48.1101 67.3518C46.932 68.5299 45.7539 69.708 44.5401 70.9218C44.8206 71.2023 45.1011 71.4828 45.3901 71.7718C45.5117 71.8974 45.6334 72.0229 45.7587 72.1523C45.872 72.2687 45.9853 72.385 46.102 72.5049C46.2166 72.6235 46.3312 72.742 46.4493 72.8642C46.7254 73.1695 46.7254 73.1695 47.0901 73.1318C47.2644 72.391 47.437 71.6498 47.6079 70.9082C47.6663 70.656 47.7251 70.4039 47.7845 70.1519C47.8698 69.7897 47.9533 69.4271 48.0364 69.0644C48.0872 68.8463 48.1379 68.6282 48.1902 68.4035C48.3237 67.8602 48.3237 67.8602 48.1101 67.3518ZM33.1402 68.1473C31.149 69.1478 29.1313 70.5751 27.8801 72.4518C27.9364 73.1925 28.2758 73.8061 28.6026 74.4599C29.6894 76.7234 30.1582 78.9574 30.6001 81.4618C38.4541 81.4618 46.3081 81.4618 54.4001 81.4618C54.5684 80.5081 54.7367 79.5544 54.9101 78.5718C55.3634 76.9142 55.9004 75.4425 56.6946 73.9257C56.9355 73.4504 57.1171 73.0574 57.1341 72.5202C56.8644 71.9215 56.4469 71.501 55.9832 71.0493C55.8372 70.9049 55.8372 70.9049 55.6881 70.7576C54.6821 69.7949 53.5662 69.059 52.3601 68.3718C52.2394 68.2988 52.1186 68.2258 51.9942 68.1507C51.5983 68.0008 51.3987 68.0868 51.0001 68.2018C50.0216 72.3997 50.0216 72.3997 49.1301 76.6168C49.0949 76.7919 49.0597 76.9669 49.0234 77.1473C48.8478 78.0232 48.8478 78.0232 48.7901 78.9118C48.6218 78.9118 48.4535 78.9118 48.2801 78.9118C48.2801 78.7996 48.2801 78.6874 48.2801 78.5718C48.0508 78.3395 48.0508 78.3395 47.7382 78.093C46.6693 77.1841 45.6978 76.1775 44.7101 75.1824C44.5116 74.983 44.313 74.7837 44.1145 74.5844C43.6326 74.1007 43.1512 73.6164 42.6701 73.1318C42.1697 73.3571 41.8208 73.6004 41.4372 73.9915C41.3334 74.0964 41.2296 74.2013 41.1227 74.3094C41.0125 74.4224 40.9023 74.5354 40.7888 74.6518C40.674 74.7679 40.5592 74.884 40.4409 75.0036C40.0746 75.3741 39.7094 75.7456 39.3445 76.1174C38.8636 76.6074 38.3816 77.0962 37.8988 77.5843C37.7883 77.6977 37.6778 77.811 37.564 77.9278C37.4607 78.0322 37.3574 78.1366 37.251 78.2441C37.1606 78.3363 37.0701 78.4286 36.9769 78.5236C36.7201 78.7418 36.7201 78.7418 36.2101 78.9118C36.1911 78.7919 36.1721 78.672 36.1526 78.5485C35.8273 76.5421 35.4041 74.5572 34.9828 72.5692C34.8971 72.1639 34.8121 71.7585 34.7281 71.3529C34.6187 70.8262 34.5065 70.3002 34.3932 69.7743C34.361 69.6165 34.3287 69.4588 34.2954 69.2962C34.2639 69.1533 34.2324 69.0104 34.2 68.8632C34.1736 68.7388 34.1471 68.6144 34.1199 68.4862C34.0803 68.3923 34.0408 68.2985 34.0001 68.2018C33.5169 67.9843 33.5169 67.9843 33.1402 68.1473Z" fill="#36454F"/>
<path id="Vector_2" d="M68.9882 4.3776C69.153 4.37901 69.3177 4.38042 69.4874 4.38187C71.7187 4.43445 73.3827 5.14253 75.0079 6.67924C76.6928 8.46169 77.2716 10.3969 77.2332 12.8125C77.068 14.8324 76.1168 16.5304 74.6301 17.882C74.5135 17.9913 74.3969 18.1007 74.2768 18.2133C74.1409 18.3389 74.0051 18.4645 73.8651 18.5938C73.7198 18.7302 73.5745 18.8665 73.4248 19.0069C72.9301 19.412 72.9301 19.412 72.3344 19.7214C71.6536 20.086 71.0946 20.4151 70.7201 21.112C70.392 22.6704 70.4848 24.2903 70.5501 25.872C69.5964 25.872 68.6427 25.872 67.6601 25.872C67.6049 25.0085 67.5579 24.1512 67.5294 23.2873C67.5175 22.9948 67.5013 22.7024 67.4805 22.4104C67.3181 20.0638 67.3181 20.0638 67.8766 19.2769C68.4302 18.7163 69.0693 18.3002 69.7419 17.8957C70.1458 17.6468 70.5081 17.3569 70.8748 17.0565C70.9937 16.9613 71.1126 16.8661 71.2351 16.768C71.3491 16.6763 71.4632 16.5846 71.5807 16.4901C71.7007 16.3964 71.8207 16.3027 71.9443 16.2062C73.0072 15.3465 73.805 14.3392 74.0829 12.9739C74.24 11.4455 73.7713 10.1987 72.9832 8.91447C71.7384 7.70327 70.388 7.46017 68.7167 7.45847C67.3645 7.48434 66.3172 7.81424 65.3013 8.73385C64.2897 9.85255 63.9957 11.1588 63.7501 12.612C62.8525 12.612 61.9549 12.612 61.0301 12.612C60.9292 10.4925 61.2859 8.77628 62.7301 7.17197C62.8193 7.06919 62.9085 6.96642 63.0004 6.86053C64.622 5.10913 66.6401 4.35166 68.9882 4.3776Z" fill="#36454F"/>
<path id="Vector_3" d="M70.9006 28.6344C71.1478 28.7816 71.1478 28.7816 71.4 28.9319C71.5472 29.0195 71.6945 29.1072 71.8462 29.1975C72.7576 30.1329 73.1532 31.1353 73.1956 32.4381C73.1435 33.668 72.805 34.4112 72.0375 35.3494C70.8639 36.3095 69.9296 36.527 68.3984 36.4763C67.3121 36.3532 66.6429 35.9639 65.9068 35.1687C65.1272 34.164 64.8302 33.2315 64.8702 31.9653C65.052 30.7048 65.6908 29.75 66.6665 28.9584C67.8567 28.212 69.5923 28.1058 70.9006 28.6344ZM68.17 31.4819C67.8745 31.8899 67.8249 32.0926 67.8618 32.5975C68.013 33.0509 68.1282 33.2391 68.51 33.5219C68.8248 33.6927 68.8248 33.6927 69.19 33.6919C69.5714 33.4967 69.9056 33.3162 70.21 33.0119C70.2869 32.22 70.2869 32.22 70.0081 31.5031C69.3542 31.0973 68.8066 31.0208 68.17 31.4819Z" fill="#36454F"/>
<path id="Vector_4" d="M45.0499 50.8618C46.0036 50.8618 46.9573 50.8618 47.9399 50.8618C47.9399 52.2276 47.7307 52.8667 46.8562 53.8793C45.7067 54.8646 44.9065 55.1378 43.417 55.1284C43.2743 55.1282 43.1317 55.1279 42.9847 55.1277C42.5291 55.1267 42.0736 55.1246 41.618 55.1224C41.3091 55.1216 41.0002 55.1208 40.6913 55.1201C39.9342 55.1184 39.1771 55.1151 38.4199 55.1118C38.4199 54.1581 38.4199 53.2044 38.4199 52.2218C38.817 52.2135 39.2141 52.2052 39.6232 52.1966C40.0086 52.1874 40.394 52.1777 40.7794 52.1679C41.0469 52.1614 41.3143 52.1554 41.5818 52.1501C41.9667 52.1423 42.3515 52.1325 42.7363 52.1222C42.8555 52.1202 42.9747 52.1183 43.0975 52.1163C43.963 52.0965 43.963 52.0965 44.7099 51.7118C44.8221 51.4313 44.9343 51.1508 45.0499 50.8618Z" fill="#36454F"/>
<path id="Vector_5" d="M57.2901 38.9619C66.0417 38.9619 74.7933 38.9619 83.8101 38.9619C83.8101 49.988 83.8101 49.988 81.4301 53.9219C81.374 53.8097 81.3179 53.6975 81.2601 53.5819C81.4298 53.1902 81.6093 52.8147 81.802 52.4344C82.9542 50.0643 83.5078 47.5553 83.5405 44.9259C83.5438 44.7587 83.5471 44.5916 83.5505 44.4193C83.5605 43.8929 83.5685 43.3665 83.5764 42.84C83.5829 42.48 83.5895 42.12 83.5963 41.7599C83.6125 40.884 83.6268 40.008 83.6401 39.1319C80.2827 39.1422 76.9254 39.1554 73.568 39.172C72.0092 39.1796 70.4503 39.1863 68.8915 39.1908C67.5329 39.1947 66.1744 39.2004 64.8159 39.2082C64.0964 39.2123 63.377 39.2154 62.6575 39.2165C61.9804 39.2175 61.3035 39.2209 60.6264 39.2261C60.3778 39.2276 60.1292 39.2283 59.8806 39.228C59.5413 39.2277 59.2021 39.2308 58.8629 39.2341C58.578 39.2353 58.578 39.2353 58.2873 39.2365C57.7496 39.3087 57.5153 39.4497 57.1201 39.8119C57.1762 39.5314 57.2323 39.2509 57.2901 38.9619Z" fill="#36454F"/>
<path id="Vector_6" d="M7.14001 65.8218C6.88072 66.4343 6.51528 66.8321 6.04563 67.2987C5.91262 67.4325 5.7796 67.5664 5.64255 67.7044C5.27001 68.0318 5.27001 68.0318 4.76001 68.2018C5.02956 67.5463 5.45108 67.1253 5.95001 66.6293C6.10078 66.4776 6.25155 66.326 6.40688 66.1697C6.80001 65.8218 6.80001 65.8218 7.14001 65.8218Z" fill="#36454F"/>
<path id="Vector_7" d="M72.4199 50.8618C72.476 51.0301 72.5321 51.1984 72.5899 51.3718C71.9665 51.9951 71.3432 52.6185 70.7199 53.2418C70.6077 53.1296 70.4955 53.0174 70.3799 52.9018C71.0531 52.2286 71.7263 51.5554 72.4199 50.8618Z" fill="#36454F"/>
<path id="Vector_8" d="M64.26 5.98193C64.0159 6.56344 63.7164 6.87252 63.2294 7.26756C62.673 7.71301 62.673 7.71301 62.39 8.36193C62.2778 8.36193 62.1656 8.36193 62.05 8.36193C62.2856 7.64129 62.6157 7.22181 63.155 6.69381C63.29 6.55948 63.425 6.42514 63.5641 6.28674C63.92 5.98193 63.92 5.98193 64.26 5.98193Z" fill="#36454F"/>
<path id="Vector_9" d="M32.3 5.30176C32.4122 5.35786 32.5244 5.41396 32.64 5.47176C32.3922 5.74811 32.1443 6.02434 31.8963 6.30051C31.7582 6.45434 31.6201 6.60818 31.4779 6.76668C31.2476 7.02028 31.0123 7.26952 30.77 7.51176C30.6017 7.45566 30.4334 7.39956 30.26 7.34176C30.9332 6.66856 31.6064 5.99536 32.3 5.30176Z" fill="#36454F"/>
<path id="Vector_10" d="M35.5301 14.1421C35.5301 14.2543 35.5301 14.3665 35.5301 14.4821C35.2556 14.7262 34.9704 14.9583 34.6801 15.1833C34.5223 15.3065 34.3645 15.4297 34.202 15.5565C34.0792 15.6508 33.9565 15.745 33.8301 15.8421C33.8301 15.3321 33.8301 15.3321 34.2232 14.8965C35.0549 14.1421 35.0549 14.1421 35.5301 14.1421Z" fill="#36454F"/>
<path id="Vector_11" d="M11.0499 46.1021C11.1621 46.1582 11.2743 46.2143 11.3899 46.2721C11.2035 46.4963 11.0155 46.7191 10.8268 46.9414C10.7223 47.0657 10.6178 47.1899 10.5101 47.3179C10.1999 47.6321 10.1999 47.6321 9.68994 47.8021C9.93334 46.9502 10.3673 46.6215 11.0499 46.1021Z" fill="#36454F"/>
<path id="Vector_12" d="M52.5299 26.2119C52.586 26.3802 52.6421 26.5485 52.6999 26.7219C52.1389 27.2268 51.5779 27.7317 50.9999 28.2519C50.8877 28.1958 50.7755 28.1397 50.6599 28.0819C51.277 27.4648 51.8941 26.8477 52.5299 26.2119Z" fill="#36454F"/>
<path id="Vector_13" d="M53.72 24.5122C53.8581 24.7991 53.8581 24.7991 53.89 25.1922C53.5225 25.6192 53.2066 25.9589 52.7 26.2122C52.9807 25.6038 53.343 25.065 53.72 24.5122Z" fill="#36454F"/>
<path id="Vector_14" d="M12.92 2.24219C12.6665 2.88737 12.2813 3.19596 11.73 3.60219C11.73 3.09219 11.73 3.09219 12.1337 2.63531C12.58 2.24219 12.58 2.24219 12.92 2.24219Z" fill="#36454F"/>
<path id="Vector_15" d="M48.1099 67.0122C48.2782 67.0122 48.4465 67.0122 48.6199 67.0122C48.7368 67.2991 48.7368 67.2991 48.7899 67.6922C48.5455 68.1597 48.5455 68.1597 48.2799 68.5422C48.1251 68.0198 48.0948 67.556 48.1099 67.0122Z" fill="#36454F"/>
<path id="Vector_16" d="M71.3999 51.8818C71.456 51.994 71.5121 52.1062 71.5699 52.2218C71.2333 52.7267 71.2333 52.7267 70.8899 53.2418C70.7216 53.1296 70.5533 53.0174 70.3799 52.9018C70.7165 52.5652 71.0531 52.2286 71.3999 51.8818Z" fill="#36454F"/>
</g>
</svg>
