<svg width="60" height="60" viewBox="0 0 60 60" fill="none" xmlns="http://www.w3.org/2000/svg">
<g id="clarity:blocks-group-line" clip-path="url(#clip0_315_757)">
<path id="Vector" d="M55.8833 31.2667L44.3333 25.95V10.7167C44.328 10.3971 44.231 10.0858 44.0536 9.81981C43.8764 9.55386 43.6263 9.3445 43.3333 9.21669L30.8333 3.46669C30.6139 3.36515 30.3751 3.31256 30.1333 3.31256C29.8916 3.31256 29.6527 3.36515 29.4333 3.46669L16.9333 9.21669C16.644 9.35057 16.3992 9.56462 16.2279 9.83344C16.0565 10.1023 15.9659 10.4146 15.9667 10.7334V25.9667L4.46667 31.2667C4.17737 31.4006 3.93254 31.6146 3.7612 31.8834C3.58986 32.1523 3.49922 32.4646 3.50001 32.7834V49.0834C3.49922 49.4021 3.58986 49.7145 3.7612 49.9833C3.93254 50.2521 4.17737 50.4661 4.46667 50.6L16.9667 56.35C17.1861 56.4516 17.4249 56.5042 17.6667 56.5042C17.9084 56.5042 18.1473 56.4516 18.3667 56.35L30.1667 50.9167L41.9667 56.35C42.1861 56.4516 42.4249 56.5042 42.6667 56.5042C42.9084 56.5042 43.1473 56.4516 43.3667 56.35L55.8667 50.6C56.156 50.4661 56.4008 50.2521 56.5721 49.9833C56.7435 49.7145 56.8341 49.4021 56.8333 49.0834V32.7834C56.8356 32.4664 56.7474 32.1553 56.5792 31.8867C56.4109 31.6181 56.1695 31.403 55.8833 31.2667ZM51.2 32.7834L42.6833 36.6667L34.1667 32.7834L42.6833 28.8667L51.2 32.7834ZM30.1667 6.80002L38.6833 10.7167L30.1667 14.6334L21.6667 10.7167L30.1667 6.80002ZM17.6667 28.85L26.1833 32.7667L17.6667 36.6667L9.15 32.7834L17.6667 28.85ZM28.5 48L17.6667 53L6.83334 48V35.3834L16.9667 40C17.1815 40.0966 17.4144 40.1465 17.65 40.1465C17.8856 40.1465 18.1185 40.0966 18.3333 40L28.4667 35.3334L28.5 48ZM19.3333 25.95V13.3334L29.4667 18C29.6861 18.1016 29.9249 18.1541 30.1667 18.1541C30.4084 18.1541 30.6473 18.1016 30.8667 18L41 13.3334V25.9667L30.1667 30.9667L19.3333 25.95ZM53.5167 48.0167L42.6833 53.0167L31.8333 48.0167V35.3667L41.9833 40C42.1959 40.0942 42.4258 40.1428 42.6583 40.1428C42.8908 40.1428 43.1208 40.0942 43.3333 40L53.4667 35.3334L53.5167 48.0167Z" fill="#36454F"/>
</g>
<defs>
<clipPath id="clip0_315_757">
<rect width="60" height="60" fill="white"/>
</clipPath>
</defs>
</svg>
