<svg width="85" height="86" viewBox="0 0 85 86" fill="none" xmlns="http://www.w3.org/2000/svg">
<g id="data-removebg-preview 1" clip-path="url(#clip0_315_180)">
<path id="Vector" d="M7.81839 0.477285C8.12998 0.476697 8.44158 0.475887 8.75318 0.474874C9.60665 0.47275 10.4601 0.473796 11.3136 0.475377C12.2351 0.476532 13.1566 0.474749 14.0781 0.473347C15.8823 0.471081 17.6864 0.471569 19.4906 0.473048C20.9569 0.4742 22.4233 0.474356 23.8897 0.473801C24.0984 0.473723 24.3072 0.473644 24.5223 0.473564C24.9464 0.473401 25.3705 0.473236 25.7946 0.473068C29.7708 0.471614 33.7469 0.473285 37.7231 0.476026C41.1342 0.478332 44.5453 0.477909 47.9565 0.475558C51.9185 0.472828 55.8805 0.471754 59.8425 0.47332C60.265 0.473482 60.6876 0.473643 61.1101 0.473801C61.4219 0.473919 61.4219 0.473919 61.7401 0.474039C63.2046 0.474479 64.669 0.473737 66.1335 0.472536C67.9184 0.471105 69.7033 0.471494 71.4882 0.474209C72.3988 0.475549 73.3093 0.476076 74.2198 0.474388C75.0537 0.472866 75.8875 0.473707 76.7214 0.476417C77.0227 0.476986 77.324 0.476699 77.6253 0.47546C79.8233 0.467119 81.7274 0.589919 83.4699 2.07205C84.9319 3.64257 85.075 5.06759 85.0658 7.14924C85.0665 7.40932 85.0674 7.66941 85.0686 7.9295C85.071 8.64296 85.0703 9.3564 85.0691 10.0699C85.0683 10.8398 85.0704 11.6097 85.0721 12.3797C85.075 13.8876 85.0752 15.3955 85.0743 16.9034C85.0736 18.1291 85.0739 19.3548 85.0748 20.5805C85.0749 20.7549 85.075 20.9294 85.0751 21.1091C85.0754 21.4635 85.0757 21.8178 85.0759 22.1722C85.0783 25.4956 85.0773 28.8191 85.0754 32.1425C85.0737 35.1826 85.0759 38.2228 85.08 41.2629C85.0841 44.3848 85.0857 47.5067 85.0846 50.6286C85.084 52.3812 85.0844 54.1338 85.0874 55.8863C85.0899 57.3784 85.09 58.8703 85.087 60.3623C85.0856 61.1234 85.0852 61.8845 85.0878 62.6456C85.0902 63.3428 85.0894 64.0398 85.0861 64.737C85.0854 64.9888 85.0859 65.2406 85.0877 65.4923C85.0968 66.8873 85.0393 68.0052 84.3199 69.2221C84.2441 69.3577 84.1683 69.4933 84.0901 69.6331C83.3557 70.6536 82.3629 71.4227 81.1224 71.7143C80.9995 71.7333 80.8766 71.7524 80.7499 71.772C80.7639 71.9754 80.7779 72.1788 80.7924 72.3883C80.7897 73.1563 80.5787 73.5629 80.0699 74.1521C79.0954 75.0569 78.0391 74.9236 76.7649 74.9092C76.532 74.9091 76.299 74.9092 76.0661 74.9095C75.4356 74.9097 74.8053 74.9058 74.1749 74.901C73.5153 74.8967 72.8558 74.8963 72.1962 74.8955C70.9481 74.8934 69.7001 74.8879 68.452 74.881C67.0308 74.8734 65.6095 74.8697 64.1883 74.8663C61.2655 74.8592 58.3427 74.8472 55.4199 74.832C55.4199 75.2809 55.4199 75.7297 55.4199 76.192C55.5449 76.1885 55.6699 76.1849 55.7987 76.1813C56.3736 76.167 56.9486 76.1582 57.5236 76.1496C57.7202 76.1439 57.9168 76.1382 58.1193 76.1323C59.7829 76.1135 61.2196 76.4186 62.4689 77.5793C63.6125 78.9498 63.7824 80.4185 63.7924 82.1314C63.7976 82.3561 63.7976 82.3561 63.803 82.5853C63.8095 83.6684 63.6185 84.3312 62.9814 85.2245C62.3395 85.7081 61.7444 85.6361 60.9607 85.6284C60.7969 85.6295 60.6331 85.6305 60.4643 85.6316C59.9139 85.6343 59.3637 85.6322 58.8133 85.63C58.4193 85.631 58.0253 85.6322 57.6313 85.6337C56.5601 85.6368 55.4888 85.6355 54.4175 85.6334C53.2976 85.6317 52.1776 85.6333 51.0576 85.6343C49.0559 85.6358 47.0542 85.6335 45.0524 85.6301C43.2375 85.627 41.4227 85.6276 39.6078 85.6307C37.5004 85.6343 35.3931 85.6357 33.2858 85.6337C32.1702 85.6326 31.0546 85.6325 29.939 85.6347C28.8901 85.6367 27.8413 85.6353 26.7924 85.6314C26.4071 85.6305 26.0217 85.6308 25.6364 85.6323C25.1111 85.6341 24.5859 85.6318 24.0606 85.6284C23.8309 85.6307 23.8309 85.6307 23.5965 85.633C22.8937 85.6242 22.5336 85.6015 21.9273 85.2169C21.0532 84.2977 21.1875 83.3304 21.1861 82.1208C21.182 81.9354 21.1778 81.75 21.1735 81.559C21.1683 80.1159 21.3888 78.8901 22.323 77.7539C22.4738 77.6312 22.6245 77.5085 22.7799 77.382C22.8713 77.3071 22.9626 77.2322 23.0568 77.1549C24.3815 76.1296 25.7341 76.1301 27.3593 76.0858C27.5566 76.0792 27.7539 76.0727 27.9572 76.0659C28.4414 76.0499 28.9256 76.0358 29.4099 76.022C29.4099 74.7318 29.4099 73.4415 29.4099 72.1121C29.0436 72.1114 28.6772 72.1107 28.2998 72.1099C27.0886 72.107 25.8774 72.0994 24.6662 72.0896C23.932 72.0838 23.1978 72.0795 22.4635 72.0788C21.7547 72.0781 21.046 72.0732 20.3372 72.0656C20.067 72.0634 19.7968 72.0626 19.5266 72.0634C19.1475 72.0642 18.7689 72.0598 18.39 72.0542C18.0666 72.0525 18.0666 72.0525 17.7368 72.0507C17.0199 71.9133 16.7661 71.6588 16.3199 71.092C16.2243 70.5714 16.2243 70.5714 16.3199 70.0721C16.6373 69.6806 16.8905 69.4467 17.3399 69.2221C17.6931 69.206 18.0469 69.2013 18.4005 69.2016C18.5654 69.2014 18.5654 69.2014 18.7337 69.2012C19.1039 69.2009 19.474 69.2018 19.8441 69.2028C20.1088 69.2028 20.3735 69.2028 20.6382 69.2027C21.3582 69.2026 22.0782 69.2036 22.7982 69.2048C23.5501 69.2059 24.302 69.206 25.0539 69.2062C26.4784 69.2067 27.9029 69.2081 29.3273 69.2098C30.9488 69.2117 32.5703 69.2126 34.1917 69.2135C37.5278 69.2153 40.8638 69.2183 44.1999 69.2221C44.1972 69.1192 44.1945 69.0164 44.1918 68.9105C44.1811 68.4406 44.1745 67.9708 44.168 67.5008C44.1616 67.2582 44.1616 67.2582 44.1551 67.0107C44.1454 66.0869 44.1792 65.4256 44.7099 64.632C45.7521 63.6915 46.3943 63.7661 47.7699 63.7821C47.7699 63.1088 47.7699 62.4356 47.7699 61.7421C32.8473 61.7421 17.9247 61.7421 2.54988 61.7421C2.33731 65.3052 2.33731 65.3052 3.73988 68.5421C4.51486 69.0587 5.14859 69.0807 6.05016 69.0939C6.30881 69.0995 6.56746 69.1051 6.82611 69.1108C7.23311 69.1189 7.6401 69.1264 8.04712 69.1331C8.44046 69.1399 8.83373 69.1486 9.22703 69.1576C9.34835 69.1591 9.46967 69.1605 9.59467 69.162C10.2159 69.1774 10.6977 69.2088 11.2199 69.562C11.5738 70.017 11.5592 70.262 11.5386 70.8477C11.3899 71.4321 11.3899 71.4321 11.1247 71.7193C10.5462 72.0299 10.005 72.0151 9.36449 72.0098C9.23365 72.0103 9.1028 72.0108 8.96799 72.0113C8.69107 72.0116 8.41414 72.0107 8.13722 72.0085C7.71857 72.0058 7.3002 72.0085 6.88156 72.0118C4.81485 72.0147 3.11579 71.8705 1.52988 70.412C0.392295 69.2389 -0.0197203 68.228 -0.0238848 66.6108C-0.0248523 66.3913 -0.0258199 66.1717 -0.0268167 65.9455C-0.0270364 65.7022 -0.0272382 65.4589 -0.0274243 65.2156C-0.0282289 64.9569 -0.0291048 64.6982 -0.0300456 64.4394C-0.0324074 63.7281 -0.0336982 63.0168 -0.034801 62.3055C-0.0358849 61.6955 -0.0375962 61.0855 -0.0393158 60.4755C-0.0449778 58.4658 -0.0486389 56.4562 -0.0517599 54.4466C-0.0525752 53.9233 -0.0534223 53.3999 -0.0542767 52.8766C-0.0595417 49.6259 -0.064078 46.3752 -0.0669283 43.1245C-0.0675997 42.3717 -0.06828 41.619 -0.0689723 40.8662C-0.0691438 40.6791 -0.0693152 40.492 -0.0694918 40.2993C-0.0723827 37.2688 -0.0793711 34.2383 -0.0880161 31.2079C-0.096821 28.0958 -0.101769 24.9837 -0.103002 21.8716C-0.103794 20.1246 -0.106298 18.3776 -0.113158 16.6306C-0.118995 15.1427 -0.121356 13.6548 -0.119206 12.1669C-0.118216 11.4081 -0.118864 10.6495 -0.123995 9.8907C-0.128661 9.19506 -0.128551 8.49957 -0.124758 7.80393C-0.124212 7.55326 -0.125367 7.30259 -0.128464 7.05194C-0.1504 5.16091 0.210856 3.72703 1.43426 2.25267C1.57801 2.13697 1.72177 2.02126 1.86988 1.90205C1.95491 1.82951 2.03994 1.75698 2.12754 1.68224C3.79426 0.354314 5.7968 0.468974 7.81839 0.477285ZM3.41051 4.2608C1.33637 7.40343 2.71988 11.1347 2.71988 14.992C28.9747 14.992 55.2295 14.992 82.2799 14.992C83.086 9.4657 83.086 9.4657 81.2068 3.8783C80.2704 3.31211 79.337 3.21949 78.2602 3.21879C78.1341 3.21824 78.0081 3.2177 77.8782 3.21713C77.4565 3.21572 77.0349 3.21673 76.6132 3.21773C76.3075 3.21721 76.0019 3.21655 75.6962 3.21576C74.8568 3.21401 74.0173 3.21438 73.1779 3.21511C72.2724 3.21553 71.3668 3.214 70.4613 3.21272C68.6875 3.21055 66.9137 3.21025 65.1398 3.21065C63.6982 3.21095 62.2565 3.21065 60.8148 3.20993C60.6097 3.20983 60.4046 3.20973 60.1933 3.20962C59.7766 3.20942 59.36 3.20921 58.9433 3.209C55.035 3.20715 51.1266 3.20752 47.2182 3.20856C43.6422 3.20944 40.0661 3.20752 36.4901 3.20429C32.8188 3.201 29.1475 3.19959 25.4762 3.20023C23.4148 3.20056 21.3534 3.20013 19.292 3.19773C17.5371 3.19571 15.7823 3.19547 14.0274 3.19753C13.132 3.19853 12.2367 3.19871 11.3413 3.19668C10.5215 3.19483 9.70172 3.19535 8.8819 3.19774C8.58549 3.19819 8.28909 3.19778 7.99269 3.19643C5.49107 3.09004 5.49107 3.09004 3.41051 4.2608ZM2.54988 17.712C2.54988 31.3443 2.54988 44.9767 2.54988 59.022C16.2944 59.022 30.0389 59.022 44.1999 59.022C44.256 56.722 44.3121 54.4218 44.3699 52.0521C44.9932 50.8054 44.9932 50.8054 45.8999 50.3521C46.5227 50.2011 47.1343 50.1051 47.7699 50.0121C47.7699 49.2827 47.7699 48.5535 47.7699 47.8021C47.2965 47.7442 47.2965 47.7442 46.8136 47.6852C45.8468 47.5244 45.3654 47.3366 44.7099 46.612C44.4147 46.1191 44.3267 45.7565 44.3232 45.1844C44.3216 45.038 44.32 44.8916 44.3183 44.7407C44.3185 44.5054 44.3185 44.5054 44.3188 44.2653C44.318 44.1026 44.3173 43.94 44.3165 43.7724C44.3156 43.4286 44.3155 43.0848 44.3162 42.741C44.3168 42.2164 44.3128 41.692 44.3085 41.1674C44.3081 40.8329 44.308 40.4985 44.3081 40.164C44.3066 40.0078 44.305 39.8516 44.3034 39.6906C44.3097 38.8163 44.3587 38.1694 44.8799 37.432C45.7733 36.6583 46.5246 36.6553 47.6774 36.6668C47.8541 36.6658 48.0309 36.6649 48.213 36.664C48.7956 36.6618 49.378 36.6647 49.9606 36.6677C50.3658 36.6677 50.7709 36.6674 51.1761 36.667C52.0242 36.6667 52.8723 36.6689 53.7204 36.6727C54.8089 36.6776 55.8973 36.6771 56.9858 36.6749C57.8219 36.6737 58.658 36.6751 59.494 36.6772C59.8955 36.678 60.297 36.678 60.6984 36.6773C61.2585 36.6768 61.8184 36.6796 62.3784 36.6834C62.6284 36.6822 62.6284 36.6822 62.8834 36.681C63.1118 36.6836 63.1118 36.6836 63.3449 36.6861C63.5434 36.6868 63.5434 36.6868 63.7459 36.6874C64.1856 36.77 64.3354 36.9054 64.5999 37.262C64.6803 37.894 64.7108 38.2824 64.3566 38.8241C63.6958 39.29 63.0884 39.2292 62.2978 39.2248C62.1335 39.2266 61.9692 39.2284 61.8 39.2302C61.2573 39.2352 60.7147 39.2354 60.1719 39.2356C59.7956 39.2382 59.4192 39.241 59.0428 39.2442C58.0524 39.2516 57.0619 39.255 56.0714 39.2575C55.0607 39.2609 54.05 39.268 53.0392 39.2748C51.0561 39.2876 49.073 39.2958 47.0899 39.302C47.0899 41.1533 47.0899 43.0047 47.0899 44.912C57.3001 44.912 67.5103 44.912 78.0299 44.912C78.0299 43.0607 78.0299 41.2094 78.0299 39.302C77.5101 39.2977 76.9903 39.2933 76.4547 39.2888C75.9512 39.2822 75.4476 39.2746 74.9441 39.2668C74.5942 39.262 74.2443 39.2584 73.8944 39.256C73.3913 39.2523 72.8884 39.2444 72.3854 39.2356C72.229 39.2354 72.0726 39.2352 71.9115 39.235C70.8313 39.2103 70.8313 39.2103 70.2804 38.8234C69.9296 38.2818 69.9597 37.8923 70.0399 37.262C70.3135 36.8847 70.4646 36.767 70.9271 36.6861C71.0738 36.6852 71.2206 36.6843 71.3719 36.6834C71.5387 36.6812 71.7056 36.679 71.8775 36.6768C72.0576 36.6773 72.2377 36.6778 72.4232 36.6783C72.6087 36.6774 72.7943 36.6766 72.9854 36.6756C73.3782 36.6745 73.7711 36.6748 74.1639 36.6762C74.7639 36.6777 75.3637 36.6728 75.9637 36.6674C76.3454 36.6671 76.7271 36.6672 77.1088 36.6677C77.3774 36.6648 77.3774 36.6648 77.6515 36.6619C78.6509 36.6714 79.3017 36.7236 80.0699 37.432C80.7342 38.1941 80.6566 39.0357 80.6536 39.9967C80.6545 40.1624 80.6554 40.3282 80.6563 40.499C80.6574 40.8491 80.6572 41.1992 80.6557 41.5492C80.6543 42.0828 80.6592 42.6161 80.6646 43.1496C80.6648 43.4905 80.6647 43.8314 80.6642 44.1723C80.6661 44.3308 80.668 44.4893 80.67 44.6527C80.6591 45.6767 80.5017 46.2855 79.8999 47.1221C79.0942 47.6842 78.3055 47.7297 77.3499 47.8021C77.406 48.5313 77.4621 49.2607 77.5199 50.0121C77.839 50.0787 78.158 50.1453 78.4868 50.2139C79.3895 50.4385 79.8643 50.6195 80.4099 51.3721C80.5634 51.8327 80.6048 52.1203 80.6148 52.5954C80.6182 52.7383 80.6216 52.8812 80.6251 53.0284C80.6293 53.2588 80.6293 53.2588 80.6337 53.4937C80.6372 53.6515 80.6407 53.8092 80.6444 53.9718C80.6555 54.4758 80.6655 54.9799 80.6755 55.4839C80.6829 55.8256 80.6903 56.1672 80.6978 56.5089C80.716 57.3466 80.7332 58.1843 80.7499 59.022C81.2548 59.022 81.7597 59.022 82.2799 59.022C82.2799 45.3897 82.2799 31.7574 82.2799 17.712C55.969 17.712 29.6581 17.712 2.54988 17.712ZM50.3199 47.8021C50.3199 48.5313 50.3199 49.2607 50.3199 50.0121C50.9274 50.1639 51.3611 50.2011 51.9787 50.196C52.1785 50.1948 52.3783 50.1936 52.5841 50.1924C52.8026 50.1902 53.0211 50.188 53.2462 50.1857C53.4792 50.184 53.7121 50.1824 53.945 50.1808C54.5768 50.1763 55.2086 50.1707 55.8404 50.165C56.5009 50.1591 57.1614 50.1543 57.8218 50.1493C59.0723 50.1398 60.3228 50.1293 61.5733 50.1186C62.997 50.1064 64.4207 50.0952 65.8444 50.0841C68.7729 50.0612 71.7014 50.037 74.6299 50.0121C74.6299 49.2827 74.6299 48.5535 74.6299 47.8021C66.6076 47.8021 58.5853 47.8021 50.3199 47.8021ZM47.0899 52.9021C47.0899 54.7533 47.0899 56.6046 47.0899 58.5121C57.3001 58.5121 67.5103 58.5121 78.0299 58.5121C78.0299 56.6608 78.0299 54.8094 78.0299 52.9021C67.8197 52.9021 57.6095 52.9021 47.0899 52.9021ZM50.3199 61.4021C50.3199 62.1875 50.3199 62.9729 50.3199 63.7821C58.3422 63.7821 66.3645 63.7821 74.6299 63.7821C74.6299 62.9967 74.6299 62.2113 74.6299 61.4021C66.6076 61.4021 58.5853 61.4021 50.3199 61.4021ZM77.5199 61.7421C77.4638 62.4152 77.4077 63.0885 77.3499 63.7821C77.6059 63.7961 77.8618 63.8101 78.1255 63.8246C79.0023 63.9128 79.5283 64.1132 80.2399 64.632C80.5647 65.1423 80.6284 65.5604 80.6503 66.1594C80.6569 66.3183 80.6634 66.4771 80.6702 66.6408C80.6755 66.8054 80.6807 66.97 80.6861 67.1395C80.6927 67.3068 80.6993 67.474 80.7061 67.6462C80.7221 68.0581 80.7366 68.47 80.7499 68.882C80.9428 68.7319 81.1337 68.5791 81.3236 68.4252C81.4301 68.3404 81.5366 68.2556 81.6464 68.1682C82.3239 67.4615 82.3209 66.7186 82.3131 65.7762C82.3124 65.6026 82.3124 65.6026 82.3116 65.4254C82.3097 65.0582 82.3055 64.6911 82.3011 64.3239C82.2994 64.0739 82.2979 63.8239 82.2965 63.5739C82.2931 62.9632 82.2864 62.3527 82.2799 61.7421C80.7091 61.7421 79.1383 61.7421 77.5199 61.7421ZM47.0899 66.332C47.0899 68.2394 47.0899 70.1469 47.0899 72.1121C57.3001 72.1121 67.5103 72.1121 78.0299 72.1121C78.0299 70.2047 78.0299 68.2972 78.0299 66.332C67.8197 66.332 57.6095 66.332 47.0899 66.332ZM32.2999 71.942C32.2999 73.3446 32.2999 74.747 32.2999 76.192C38.9758 76.192 45.6517 76.192 52.5299 76.192C52.5299 75.7432 52.5299 75.2944 52.5299 74.832C52.3404 74.8305 52.151 74.8289 51.9558 74.8272C51.2489 74.8204 50.5421 74.8092 49.8352 74.7968C49.5301 74.792 49.2249 74.7884 48.9197 74.786C48.4794 74.7823 48.0394 74.7744 47.5992 74.7656C47.4641 74.7654 47.3289 74.7652 47.1896 74.765C46.2349 74.7402 45.6653 74.5327 44.8799 73.982C44.4162 73.2711 44.3442 72.808 44.1999 71.942C40.2729 71.942 36.3459 71.942 32.2999 71.942ZM24.4799 79.4221C23.7798 80.6321 23.7798 80.6321 23.9699 82.9921C36.1436 82.9921 48.3173 82.9921 60.8599 82.9921C61.1608 80.2967 61.1608 80.2967 60.1799 79.2521C59.5645 78.795 58.8623 78.8641 58.1266 78.8677C57.9871 78.8671 57.8476 78.8664 57.7038 78.8658C57.2357 78.864 56.7676 78.8647 56.2995 78.8654C55.9641 78.8646 55.6287 78.8637 55.2934 78.8627C54.3819 78.8604 53.4705 78.8604 52.559 78.8608C51.7985 78.861 51.0381 78.8601 50.2776 78.8593C48.4838 78.8574 46.6901 78.8574 44.8963 78.8584C43.0447 78.8594 41.1932 78.8573 39.3416 78.8537C37.7528 78.8507 36.1639 78.8497 34.5751 78.8502C33.6257 78.8505 32.6764 78.8501 31.7271 78.8477C30.8345 78.8456 29.9419 78.8459 29.0493 78.8481C28.7215 78.8485 28.3938 78.8481 28.066 78.8467C27.6189 78.8449 27.1719 78.8463 26.7248 78.8484C26.5297 78.8466 26.5297 78.8465 26.3308 78.8446C25.5705 78.8524 25.0655 78.9235 24.4799 79.4221Z" fill="#36454F"/>
<path id="Vector_2" d="M38.7947 25.168C39.0157 25.1671 39.2366 25.1661 39.4642 25.1651C39.7096 25.1649 39.9551 25.1647 40.2005 25.1645C40.4585 25.1637 40.7165 25.1629 40.9745 25.162C41.676 25.1597 42.3774 25.1586 43.0789 25.1579C43.5171 25.1574 43.9553 25.1567 44.3936 25.1559C45.7647 25.1536 47.1359 25.152 48.507 25.1513C50.0898 25.1505 51.6726 25.1476 53.2553 25.1426C54.4788 25.139 55.7022 25.1372 56.9257 25.137C57.6564 25.1368 58.387 25.1358 59.1177 25.1328C59.8052 25.13 60.4927 25.1296 61.1802 25.1311C61.4322 25.1312 61.6843 25.1305 61.9363 25.1288C62.281 25.1267 62.6257 25.128 62.9703 25.1294C63.2594 25.1291 63.2594 25.1291 63.5543 25.1287C64.1702 25.2014 64.5811 25.3824 65.1099 25.7019C65.3801 26.2422 65.3486 26.8136 65.2799 27.4019C64.9719 27.8565 64.7907 27.905 64.2599 28.0819C63.9018 28.0989 63.5431 28.1056 63.1846 28.1069C63.0203 28.1079 63.0203 28.1079 62.8527 28.1088C62.4851 28.1107 62.1175 28.1114 61.7498 28.112C61.4865 28.1131 61.2232 28.1142 60.9599 28.1154C60.0947 28.119 59.2295 28.1207 58.3644 28.1224C58.0666 28.1231 57.7688 28.1238 57.471 28.1245C56.0723 28.1278 54.6737 28.1302 53.275 28.1316C51.6599 28.1333 50.0448 28.1377 48.4297 28.1446C47.1816 28.1497 45.9335 28.1522 44.6854 28.1528C43.9397 28.1532 43.1942 28.1547 42.4485 28.159C41.7472 28.163 41.046 28.1637 40.3447 28.1619C40.0873 28.1619 39.83 28.1629 39.5727 28.1653C39.2212 28.1683 38.8699 28.1671 38.5184 28.1648C38.3218 28.1652 38.1251 28.1656 37.9226 28.1661C37.2823 28.063 37.0024 27.8597 36.5499 27.4019C36.3587 26.8175 36.3587 26.8175 36.3799 26.2119C37.0985 25.2938 37.6736 25.171 38.7947 25.168Z" fill="#36454F"/>
<path id="Vector_3" d="M21.427 36.6474C21.5802 36.6465 21.7335 36.6455 21.8913 36.6446C22.3968 36.6426 22.902 36.6467 23.4075 36.6511C23.7591 36.6514 24.1108 36.6514 24.4624 36.6511C25.1988 36.6513 25.9351 36.6545 26.6715 36.6599C27.6157 36.6666 28.5598 36.6674 29.5041 36.6661C30.2299 36.6656 30.9557 36.6676 31.6816 36.6705C32.0297 36.6717 32.3779 36.6723 32.7261 36.6721C33.2124 36.6724 33.6986 36.676 34.185 36.6806C34.329 36.6801 34.4731 36.6796 34.6215 36.6791C35.1907 36.6874 35.6189 36.7084 36.1254 36.9809C36.5029 37.3978 36.5278 37.7273 36.55 38.282C36.3717 38.9359 36.2771 39.0873 35.7 39.472C35.1953 39.5069 34.7064 39.5219 34.2016 39.5214C34.0484 39.5225 33.8952 39.5237 33.7374 39.5249C33.2301 39.5281 32.7229 39.5288 32.2156 39.5291C31.8635 39.5302 31.5114 39.5314 31.1593 39.5326C30.4209 39.5346 29.6825 39.5352 28.9441 39.535C27.9972 39.535 27.0504 39.5396 26.1035 39.5455C25.3762 39.5493 24.6489 39.5499 23.9216 39.5498C23.5725 39.5502 23.2234 39.5517 22.8742 39.5543C22.3862 39.5576 21.8984 39.5567 21.4104 39.5546C21.2658 39.5565 21.1212 39.5584 20.9722 39.5604C19.997 39.55 19.997 39.55 19.4662 39.1634C19.0964 38.6274 19.0286 38.2513 19.04 37.602C19.7285 36.6488 20.3374 36.6303 21.427 36.6474Z" fill="#36454F"/>
<path id="Vector_4" d="M29.8536 5.93221C30.8688 6.79977 31.5067 7.63517 31.63 9.00682C31.5995 10.1558 31.189 11.1923 30.3948 12.0217C29.5242 12.7368 28.5395 13.0785 27.4139 13.0158C26.1544 12.8066 25.3296 12.232 24.5438 11.2407C23.895 10.3284 23.8618 9.45667 23.97 8.36202C24.2818 7.34009 24.8662 6.3654 25.8009 5.80006C27.1465 5.19615 28.5831 5.10101 29.8536 5.93221ZM27.1363 8.18139C26.7299 8.69715 26.7906 9.08505 26.86 9.72202C27.1795 10.1127 27.1795 10.1127 27.6994 10.1151C28.2058 10.0976 28.2058 10.0976 28.5494 9.88139C28.8349 9.36082 28.6767 8.92408 28.56 8.36202C27.8594 8.04169 27.8594 8.04169 27.1363 8.18139Z" fill="#36454F"/>
<path id="Vector_5" d="M21.1384 6.37452C21.9305 7.18351 22.2174 7.99004 22.2859 9.11843C22.2442 10.2525 21.8201 11.1925 21.0447 12.0157C20.1925 12.7324 19.189 13.0849 18.0764 13.0284C17.0898 12.8384 16.1545 12.3662 15.4806 11.6133C14.7836 10.5573 14.4063 9.62326 14.6199 8.36206C15.0269 7.11469 15.671 6.26475 16.8299 5.64206C18.2919 4.971 19.9415 5.3567 21.1384 6.37452ZM17.6799 8.36206C17.4579 9.13961 17.4579 9.13961 17.6906 9.88144C18.1727 10.1458 18.4998 10.1408 19.0399 10.0621C19.3933 9.79398 19.3933 9.79398 19.5499 9.38206C19.5636 8.94025 19.5636 8.94025 19.3799 8.53206C18.7831 7.97376 18.3605 7.8571 17.6799 8.36206Z" fill="#36454F"/>
<path id="Vector_6" d="M11.7299 6.32205C12.5809 7.20382 12.9687 7.8724 12.973 9.1058C12.9529 10.2323 12.7661 10.8477 12.0168 11.6983C10.9548 12.6368 10.1322 13.0183 8.73367 12.9999C7.6529 12.8719 6.79687 12.2494 6.11992 11.4221C5.41022 10.4029 5.2667 9.41533 5.43992 8.19205C5.7493 7.12845 6.41025 6.43156 7.30992 5.81205C8.78263 5.01131 10.4515 5.25175 11.7299 6.32205ZM8.32992 8.36205C8.10792 9.1396 8.10792 9.1396 8.34055 9.88143C8.82271 10.1458 9.1498 10.1408 9.68992 10.0621C10.0433 9.79397 10.0433 9.79397 10.1999 9.38205C10.2136 8.94024 10.2136 8.94024 10.0299 8.53205C9.43312 7.97376 9.01052 7.8571 8.32992 8.36205Z" fill="#36454F"/>
<path id="Vector_7" d="M50.3432 30.6044C50.5583 30.6028 50.7733 30.6012 50.9949 30.5995C51.2299 30.5986 51.4649 30.5979 51.7 30.5973C51.9411 30.5963 52.1823 30.5953 52.4235 30.5943C52.9291 30.5926 53.4347 30.5916 53.9403 30.591C54.5872 30.59 55.234 30.586 55.8809 30.5811C56.3791 30.5779 56.8773 30.5771 57.3755 30.5768C57.614 30.5763 57.8524 30.5749 58.0908 30.5727C58.4248 30.5698 58.7589 30.5704 59.0929 30.5712C59.2828 30.5706 59.4726 30.57 59.6682 30.5693C60.4096 30.6598 60.8493 30.961 61.37 31.4818C61.4783 32.4406 61.4783 32.4406 61.37 32.8418C60.7185 33.4878 60.2827 33.6077 59.3759 33.6125C59.2644 33.614 59.1528 33.6154 59.038 33.6169C58.6713 33.6208 58.3049 33.6196 57.9382 33.6181C57.6822 33.619 57.4263 33.6201 57.1704 33.6213C56.6348 33.6231 56.0993 33.6223 55.5637 33.6198C54.8782 33.6169 54.193 33.6209 53.5075 33.6269C52.9793 33.6306 52.4511 33.6303 51.9228 33.6289C51.6701 33.6288 51.4175 33.63 51.1648 33.6325C50.8111 33.6354 50.4579 33.633 50.1042 33.6291C49.9033 33.6289 49.7024 33.6288 49.4954 33.6286C48.7989 33.4897 48.5444 33.223 48.11 32.6718C48.0144 32.0662 48.0144 32.0662 48.11 31.4818C48.739 30.6576 49.3538 30.6105 50.3432 30.6044Z" fill="#36454F"/>
<path id="Vector_8" d="M11.2201 21.6219C11.7661 22.0254 12.0218 22.2908 12.1976 22.95C11.9997 23.791 11.4791 24.2499 10.8801 24.8519C10.801 24.9323 10.7218 25.0126 10.6402 25.0954C10.1013 25.6422 9.5574 26.1835 9.01012 26.7219C9.24573 27.2547 9.51854 27.609 9.93516 28.0142C10.0483 28.1255 10.1615 28.2368 10.2781 28.3515C10.4552 28.5231 10.4552 28.5231 10.6357 28.6982C10.8701 28.9267 11.1041 29.1555 11.3377 29.3848C11.4933 29.5359 11.4933 29.5359 11.6521 29.69C11.9987 30.0561 12.0665 30.2651 12.1339 30.77C12.0701 31.3119 12.0701 31.3119 11.7089 31.8007C11.2201 32.1619 11.2201 32.1619 10.742 32.2894C9.43049 31.9808 8.3613 30.5151 7.43762 29.58C7.31972 29.4614 7.20182 29.3427 7.08035 29.2205C6.85606 28.9947 6.6322 28.7684 6.40886 28.5417C6.17889 28.3109 5.94294 28.0861 5.70508 27.8634C5.44012 27.5719 5.44012 27.5719 5.32324 27.0194C5.49256 26.0959 5.97531 25.6688 6.63012 25.0219C6.78373 24.8681 6.93735 24.7142 7.09563 24.5557C7.34075 24.3105 7.58629 24.0657 7.83336 23.8225C8.24348 23.4172 8.63254 23.0102 8.98887 22.5569C9.62988 21.8028 10.218 21.4549 11.2201 21.6219Z" fill="#36454F"/>
<path id="Vector_9" d="M31.2378 47.0367C31.4026 47.0353 31.4026 47.0353 31.5707 47.0339C31.931 47.0318 32.291 47.0346 32.6512 47.0377C32.9031 47.0377 33.1549 47.0374 33.4068 47.0369C33.9334 47.0367 34.4599 47.0388 34.9865 47.0427C35.6603 47.0475 36.3339 47.0471 37.0077 47.0449C37.5274 47.0437 38.047 47.045 38.5666 47.0471C38.815 47.0479 39.0634 47.048 39.3118 47.0473C39.6593 47.0468 40.0066 47.0496 40.354 47.0533C40.6501 47.0547 40.6501 47.0547 40.9521 47.0561C41.5373 47.1292 41.8571 47.2863 42.3299 47.632C42.6633 48.0715 42.6721 48.276 42.638 48.8326C42.4959 49.3464 42.4196 49.5396 41.9899 49.842C41.4102 50.0325 40.8601 50.0357 40.2528 50.0394C39.9319 50.0419 39.9319 50.0419 39.6046 50.0444C39.3715 50.0452 39.1384 50.0459 38.9053 50.0465C38.6652 50.0475 38.4251 50.0485 38.185 50.0495C37.6818 50.0513 37.1787 50.0523 36.6755 50.0529C36.033 50.0538 35.3906 50.0579 34.7481 50.0627C34.2521 50.0659 33.7561 50.0668 33.2601 50.067C33.0233 50.0675 32.7866 50.0689 32.5499 50.0711C30.2008 50.0918 30.2008 50.0918 29.2399 49.502C28.8999 48.992 28.8999 48.992 28.8999 48.4076C29.0699 47.802 29.0699 47.802 29.5188 47.4295C30.1548 47.0871 30.5211 47.0368 31.2378 47.0367Z" fill="#36454F"/>
<path id="Vector_10" d="M20.57 21.6219C20.9459 21.8609 20.9459 21.8609 21.3138 22.2169C21.4571 22.3543 21.6004 22.4917 21.7481 22.6333C21.922 22.8061 22.096 22.979 22.27 23.1519C22.5041 23.3797 22.7383 23.6075 22.9726 23.8352C23.2203 24.0782 23.4678 24.3215 23.715 24.565C23.8352 24.6829 23.9554 24.8008 24.0792 24.9223C24.1922 25.0351 24.3052 25.148 24.4216 25.2643C24.5229 25.3649 24.6243 25.4656 24.7287 25.5693C25.1365 26.0416 25.3264 26.3922 25.3406 27.0194C24.9534 28.204 23.9225 29.0013 22.9905 29.7812C22.3579 30.3476 21.791 30.9825 21.2175 31.6081C20.644 32.0691 20.279 32.1423 19.55 32.1619C19.0506 31.9175 19.0506 31.9175 18.7 31.4819C18.557 30.767 18.5292 30.392 18.9205 29.7733C19.5257 29.0584 20.2228 28.4455 20.9445 27.8508C21.2661 27.5572 21.5098 27.2472 21.76 26.8919C21.5586 26.6701 21.3571 26.4484 21.1553 26.227C20.984 26.0391 20.8131 25.8508 20.6425 25.6622C20.1755 25.1493 19.6987 24.6739 19.1781 24.2144C18.7647 23.8069 18.6142 23.5331 18.5725 22.95C18.7 22.3019 18.7 22.3019 19.0613 21.8769C19.6334 21.5784 19.9321 21.5574 20.57 21.6219Z" fill="#36454F"/>
<path id="Vector_11" d="M16.0647 41.9918C16.178 41.9907 16.2914 41.9896 16.4082 41.9884C16.7839 41.9851 17.1596 41.9831 17.5353 41.9814C17.6636 41.9807 17.7918 41.98 17.924 41.9793C18.6026 41.9757 19.2813 41.9733 19.96 41.9717C20.6612 41.9698 21.3624 41.964 22.0636 41.9572C22.6027 41.9528 23.1417 41.9514 23.6807 41.9507C23.9392 41.9499 24.1977 41.9479 24.4562 41.9448C24.8181 41.9407 25.1797 41.9408 25.5415 41.942C25.7474 41.941 25.9532 41.94 26.1653 41.939C26.7933 42.0382 26.987 42.2049 27.3701 42.7019C27.5831 43.2558 27.5797 43.4623 27.3382 44.0088C27.0061 44.4325 26.8456 44.553 26.3501 44.7419C25.8481 44.7862 25.8481 44.7862 25.2564 44.7886C24.9237 44.791 24.9237 44.791 24.5842 44.7935C24.3425 44.7934 24.1008 44.7933 23.8592 44.793C23.6106 44.7937 23.3621 44.7944 23.1135 44.7952C22.5929 44.7965 22.0724 44.7964 21.5518 44.7955C20.8856 44.7946 20.2195 44.7974 19.5534 44.8014C19.0402 44.8039 18.527 44.804 18.0137 44.8035C17.7682 44.8036 17.5226 44.8045 17.2771 44.8062C16.9333 44.8083 16.5895 44.8068 16.2457 44.8052C16.0504 44.8053 15.855 44.8054 15.6537 44.8055C15.0696 44.7345 14.7493 44.5811 14.2801 44.2319C14.0208 43.7134 14.07 43.2727 14.1101 42.7019C14.6426 41.9757 15.2088 41.9988 16.0647 41.9918Z" fill="#36454F"/>
<path id="Vector_12" d="M29.618 30.6046C29.795 30.6029 29.9721 30.6013 30.1545 30.5996C30.3449 30.5989 30.5352 30.5982 30.7314 30.5974C31.0263 30.596 31.0263 30.596 31.3272 30.5945C31.743 30.5929 32.1588 30.5918 32.5747 30.5911C33.21 30.5895 33.8453 30.5842 34.4807 30.5788C34.8849 30.5777 35.2891 30.5768 35.6933 30.5762C35.9778 30.573 35.9778 30.573 36.2681 30.5698C37.9729 30.5747 37.9729 30.5747 38.7599 31.142C39.0255 31.7157 39.0255 31.7157 39.0999 32.332C38.8408 32.9456 38.6381 33.1498 38.0799 33.522C37.65 33.5686 37.65 33.5686 37.1304 33.5741C36.9358 33.5768 36.7411 33.5795 36.5406 33.5823C36.3302 33.5832 36.1199 33.5841 35.9031 33.5851C35.687 33.5866 35.4709 33.5881 35.2482 33.5897C34.7906 33.5922 34.3331 33.5938 33.8755 33.5943C33.2902 33.5952 32.7052 33.6016 32.12 33.6094C31.5607 33.6157 31.0013 33.6159 30.4419 33.6169C30.1273 33.6219 30.1273 33.6219 29.8064 33.627C28.1884 33.6184 28.1884 33.6184 27.662 33.1229C27.3011 32.5657 27.2477 32.3038 27.3699 31.652C27.8574 30.8685 27.8574 30.8685 28.3583 30.6954C28.7838 30.6228 29.1862 30.6078 29.618 30.6046Z" fill="#36454F"/>
<path id="Vector_13" d="M67.0005 67.8375C67.182 67.8364 67.3636 67.8354 67.5507 67.8342C67.8461 67.834 67.8461 67.834 68.1474 67.8337C68.3491 67.8331 68.5507 67.8325 68.7585 67.8319C69.1858 67.8311 69.6131 67.8307 70.0404 67.8307C70.6948 67.8303 71.3492 67.8273 72.0036 67.824C72.4182 67.8235 72.8328 67.8232 73.2474 67.823C73.4436 67.8218 73.6398 67.8206 73.842 67.8193C74.0247 67.8199 74.2073 67.8204 74.3955 67.8209C74.556 67.8207 74.7166 67.8204 74.882 67.8202C75.3397 67.8651 75.6067 67.951 75.99 68.2022C76.3881 68.7993 76.4143 69.0292 76.33 69.7322C75.9643 70.2996 75.7853 70.5371 75.14 70.7522C74.8551 70.7696 74.5695 70.7774 74.2841 70.7796C74.1099 70.7812 73.9357 70.7829 73.7562 70.7846C73.5681 70.7853 73.3801 70.786 73.1863 70.7867C72.8961 70.7882 72.8961 70.7882 72.6 70.7897C72.1905 70.7913 71.7809 70.7924 71.3713 70.7931C70.7449 70.7947 70.1185 70.8 69.4921 70.8053C69.0943 70.8065 68.6966 70.8073 68.2988 70.808C68.1114 70.8101 67.924 70.8122 67.731 70.8144C67.5557 70.8138 67.3804 70.8133 67.1999 70.8128C67.0462 70.8134 66.8926 70.8141 66.7344 70.8147C66.0446 70.7155 65.5954 70.3877 65.11 69.9022C65.034 69.2186 64.9942 68.8588 65.4287 68.3085C65.9903 67.879 66.3017 67.8403 67.0005 67.8375Z" fill="#36454F"/>
<path id="Vector_14" d="M67.3139 54.2374C67.4813 54.2363 67.6487 54.2353 67.8212 54.2341C68.0009 54.2339 68.1807 54.2338 68.3659 54.2336C68.5516 54.233 68.7372 54.2324 68.9286 54.2319C69.3211 54.231 69.7136 54.2306 70.1062 54.2306C70.7065 54.2302 71.3067 54.2272 71.907 54.2239C72.2885 54.2234 72.67 54.2231 73.0515 54.2229C73.2309 54.2217 73.4103 54.2205 73.5951 54.2192C73.7631 54.2198 73.931 54.2203 74.104 54.2208C74.251 54.2206 74.3981 54.2203 74.5496 54.2201C75.1469 54.2798 75.6279 54.4763 76.1281 54.804C76.4598 55.3102 76.402 55.7153 76.33 56.3021C75.9528 56.7963 75.7317 56.9549 75.14 57.1521C74.8551 57.1695 74.5695 57.1774 74.2841 57.1795C74.1099 57.1811 73.9357 57.1828 73.7562 57.1845C73.5681 57.1852 73.3801 57.1859 73.1863 57.1867C72.8961 57.1881 72.8961 57.1881 72.6 57.1896C72.1904 57.1912 71.7809 57.1923 71.3713 57.193C70.7449 57.1946 70.1185 57.1999 69.4921 57.2052C69.0943 57.2064 68.6966 57.2072 68.2988 57.2079C68.1114 57.21 67.924 57.2121 67.731 57.2143C67.5557 57.2138 67.3804 57.2132 67.1999 57.2127C67.0462 57.2133 66.8926 57.214 66.7343 57.2146C66.0446 57.1154 65.5954 56.7876 65.11 56.3021C65.0355 55.6319 65.0004 55.2609 65.4075 54.7084C66.0193 54.2665 66.5725 54.2407 67.3139 54.2374Z" fill="#36454F"/>
<path id="Vector_15" d="M17.51 21.622C18.0093 21.9514 18.0093 21.9514 18.36 22.472C18.3554 23.9288 17.7649 25.1875 17.2125 26.5095C17.077 26.8388 16.942 27.1684 16.8071 27.498C16.7182 27.7147 16.629 27.9313 16.5394 28.1477C16.1686 29.0457 15.8247 29.9529 15.489 30.8647C15.2267 31.4854 15.0135 31.7909 14.45 32.162C13.94 32.2683 13.94 32.2683 13.43 32.162C12.9306 31.8326 12.9306 31.8326 12.58 31.312C12.5305 30.2747 12.8724 29.3511 13.2918 28.422C13.7253 27.4203 14.1185 26.4162 14.4712 25.3833C15.8661 21.3536 15.8661 21.3536 17.51 21.622Z" fill="#36454F"/>
<path id="Vector_16" d="M68.0955 40.7357C68.3036 40.7347 68.5117 40.7336 68.7261 40.7325C69.1656 40.7313 69.6052 40.7319 70.0447 40.734C70.7175 40.7364 71.3899 40.7306 72.0626 40.7241C72.4898 40.7239 72.917 40.7242 73.3443 40.7251C73.5454 40.7228 73.7466 40.7206 73.9539 40.7183C75.5058 40.7359 75.5058 40.7359 76.0324 41.2311C76.3974 41.7844 76.4544 42.052 76.3299 42.702C75.9504 43.1861 75.7264 43.3565 75.1399 43.552C74.8559 43.5694 74.5712 43.5772 74.2867 43.5794C74.113 43.581 73.9394 43.5827 73.7605 43.5843C73.4792 43.5854 73.4792 43.5854 73.1922 43.5865C72.9991 43.5875 72.806 43.5885 72.6071 43.5895C72.1983 43.5911 71.7894 43.5922 71.3806 43.5928C70.756 43.5945 70.1315 43.5998 69.507 43.6051C69.1098 43.6062 68.7125 43.6071 68.3153 43.6078C68.1288 43.6099 67.9423 43.612 67.7502 43.6141C66.8057 43.6114 66.0853 43.5987 65.2799 43.042C65.014 42.5101 65.0493 42.0975 65.1099 41.512C65.8683 40.556 66.9815 40.731 68.0955 40.7357Z" fill="#36454F"/>
<path id="Vector_17" d="M18.3659 47.0947C18.5401 47.093 18.7143 47.0914 18.8937 47.0897C19.0818 47.089 19.2699 47.0883 19.4636 47.0875C19.7539 47.0861 19.7539 47.0861 20.0499 47.0846C20.4595 47.083 20.869 47.0819 21.2786 47.0812C21.905 47.0796 22.5314 47.0743 23.1578 47.0689C23.5556 47.0678 23.9534 47.0669 24.3511 47.0663C24.5385 47.0642 24.7259 47.0621 24.919 47.0599C25.1819 47.0607 25.1819 47.0607 25.4501 47.0614C25.6037 47.0608 25.7573 47.0602 25.9156 47.0596C26.4456 47.1358 26.7654 47.3247 27.2 47.632C27.4969 48.037 27.5438 48.2347 27.5187 48.737C27.3342 49.2642 27.1191 49.4868 26.69 49.842C26.273 49.9337 26.273 49.9337 25.8019 49.9429C25.6248 49.9479 25.4478 49.9529 25.2654 49.9581C24.9798 49.9608 24.9798 49.9608 24.6885 49.9636C24.3936 49.9696 24.3936 49.9696 24.0927 49.9758C23.6769 49.9834 23.2611 49.9895 22.8452 49.994C22.2097 50.0014 21.5746 50.0151 20.9392 50.0296C20.535 50.0363 20.1308 50.0427 19.7266 50.0486C19.5369 50.0528 19.3472 50.057 19.1518 50.0613C18.2002 50.068 17.467 50.0715 16.66 49.502C16.2643 48.9085 16.2345 48.6704 16.32 47.972C16.908 47.2218 17.4458 47.1016 18.3659 47.0947Z" fill="#36454F"/>
<path id="Vector_18" d="M8.9623 36.645C9.17481 36.6445 9.38731 36.6441 9.60626 36.6437C10.0557 36.6439 10.5047 36.6457 10.9541 36.6504C11.5292 36.6562 12.1041 36.6552 12.6792 36.652C13.2288 36.6498 13.7784 36.6529 14.3279 36.6556C14.6374 36.6543 14.6374 36.6543 14.9531 36.653C15.2408 36.6571 15.2408 36.6571 15.5342 36.6612C15.7871 36.6628 15.7871 36.6628 16.045 36.6644C16.6105 36.7755 16.8134 36.9888 17.1701 37.4319C17.2664 37.7719 17.2664 37.7719 17.2657 38.1119C17.2695 38.2241 17.2732 38.3363 17.277 38.4519C17.0968 39.025 16.8394 39.1655 16.3201 39.4719C15.6192 39.5755 14.9231 39.5671 14.2157 39.5622C14.011 39.5628 13.8063 39.5635 13.5953 39.5642C13.1631 39.5646 12.7308 39.5634 12.2986 39.5605C11.6363 39.5569 10.9743 39.5605 10.312 39.5648C9.89199 39.5644 9.47197 39.5635 9.05195 39.5622C8.85361 39.5636 8.65527 39.5649 8.45091 39.5664C8.26651 39.5642 8.08211 39.5621 7.89213 39.5599C7.7301 39.5593 7.56807 39.5588 7.40113 39.5582C6.8401 39.4458 6.64084 39.236 6.29012 38.7919C6.09878 38.1342 6.04214 37.7755 6.32498 37.1457C7.10865 36.4961 7.97676 36.6342 8.9623 36.645Z" fill="#36454F"/>
<path id="Vector_19" d="M8.81752 47.0877C8.96571 47.0867 9.11391 47.0857 9.26659 47.0847C9.58011 47.0831 9.89363 47.082 10.2072 47.0814C10.6859 47.0797 11.1644 47.0744 11.6431 47.0691C11.9479 47.068 12.2527 47.0671 12.5575 47.0664C12.7716 47.0633 12.7716 47.0633 12.9901 47.0601C13.7893 47.0631 14.3086 47.1172 14.9601 47.6322C15.2935 48.0717 15.3023 48.2762 15.2682 48.8328C15.1225 49.3595 15.037 49.5109 14.6201 49.8422C13.3301 50.1839 11.8453 50.0439 10.5143 50.0437C10.1447 50.0441 9.77515 50.0472 9.40554 50.0504C9.16814 50.0509 8.93074 50.0512 8.69334 50.0514C8.4807 50.0521 8.26807 50.0528 8.04899 50.0535C7.33649 50.0018 6.84464 49.8653 6.31135 49.3853C6.029 48.805 6.13378 48.4163 6.2901 47.8022C6.91066 46.956 7.86242 47.0925 8.81752 47.0877Z" fill="#36454F"/>
<path id="Vector_20" d="M51.2696 67.8337C51.4147 67.8331 51.5598 67.8325 51.7092 67.8319C52.0165 67.8311 52.3237 67.8307 52.631 67.8307C53.1007 67.8303 53.5704 67.8273 54.0401 67.824C54.3385 67.8235 54.6369 67.8232 54.9353 67.823C55.0757 67.8218 55.2162 67.8206 55.3609 67.8193C56.5904 67.8242 56.5904 67.8242 57.12 68.2022C57.4765 68.6605 57.4592 68.898 57.4282 69.4878C57.2457 70.2598 57.2457 70.2598 56.78 70.5822C56.1403 70.7955 55.5407 70.7798 54.8742 70.7808C54.7373 70.7813 54.6004 70.7819 54.4594 70.7825C54.1699 70.7833 53.8804 70.7837 53.5909 70.7837C53.1491 70.7841 52.7075 70.7872 52.2657 70.7904C51.9842 70.7909 51.7026 70.7912 51.421 70.7914C51.2894 70.7926 51.1578 70.7938 51.0223 70.7951C50.3201 70.7921 49.749 70.7588 49.13 70.4122C48.7084 69.7797 48.7113 69.4606 48.79 68.7122C49.5105 67.7996 50.1728 67.8351 51.2696 67.8337Z" fill="#36454F"/>
<path id="Vector_21" d="M51.488 54.2336C51.6171 54.233 51.7462 54.2324 51.8792 54.2319C52.1517 54.231 52.4242 54.2306 52.6966 54.2306C53.1123 54.2302 53.5278 54.2272 53.9434 54.2239C54.2087 54.2234 54.474 54.2231 54.7393 54.2229C54.8629 54.2217 54.9865 54.2205 55.1139 54.2192C55.7999 54.2223 56.3403 54.2778 56.9499 54.6021C57.3612 55.0957 57.4645 55.3376 57.4387 55.9834C57.2872 56.481 57.1939 56.6796 56.7799 56.9821C56.13 57.1988 55.5144 57.1831 54.8369 57.1867C54.6259 57.1881 54.6259 57.1881 54.4107 57.1896C54.1132 57.1912 53.8156 57.1923 53.5181 57.193C53.0641 57.1946 52.6101 57.1999 52.1561 57.2052C51.8667 57.2064 51.5774 57.2072 51.2881 57.2079C51.1528 57.21 51.0175 57.2121 50.8781 57.2143C50.0989 57.2111 49.594 57.146 48.9599 56.6421C48.6971 56.1165 48.74 55.6911 48.7899 55.1121C49.4987 54.1502 50.3771 54.2353 51.488 54.2336Z" fill="#36454F"/>
<path id="Vector_22" d="M51.2237 40.7251C51.4516 40.7244 51.4516 40.7244 51.684 40.7238C52.0042 40.724 52.3244 40.7262 52.6446 40.7305C53.1346 40.7363 53.6241 40.734 54.1141 40.7307C54.4256 40.7319 54.7372 40.7335 55.0487 40.7357C55.195 40.7348 55.3413 40.734 55.492 40.7331C56.5023 40.753 56.5023 40.753 57.0382 41.1461C57.363 41.6182 57.4362 41.9612 57.4599 42.532C57.3537 42.9145 57.3537 42.9145 57.1199 43.212C56.3824 43.6019 55.662 43.6041 54.8469 43.6031C54.7109 43.6038 54.5749 43.6046 54.4348 43.6053C54.148 43.6063 53.8612 43.6064 53.5745 43.6056C53.1376 43.6051 52.7009 43.6091 52.264 43.6134C51.9845 43.6138 51.7051 43.6139 51.4256 43.6137C51.2959 43.6153 51.1663 43.6169 51.0327 43.6185C50.2209 43.6115 49.6645 43.488 48.9599 43.042C48.7144 42.5509 48.7259 42.2266 48.7899 41.682C49.4924 40.7194 50.1178 40.708 51.2237 40.7251Z" fill="#36454F"/>
<path id="Vector_23" d="M30.7487 25.1602C31.0507 25.1571 31.0507 25.1571 31.3589 25.1539C31.5533 25.1536 31.7477 25.1533 31.948 25.1529C32.1254 25.1522 32.3029 25.1515 32.4858 25.1508C33.1226 25.204 33.6055 25.3851 34.138 25.734C34.4697 26.2402 34.412 26.6453 34.3399 27.2321C34.0225 27.6341 33.7754 27.8543 33.3199 28.0821C32.6013 28.1299 31.882 28.1354 31.162 28.1416C30.9227 28.1444 30.6835 28.1491 30.4443 28.1556C30.0983 28.1649 29.7527 28.1686 29.4066 28.1711C29.1995 28.1744 28.9925 28.1778 28.7792 28.1813C28.0629 28.0542 27.8152 27.7953 27.3699 27.2321C27.2444 26.5629 27.3085 26.3074 27.678 25.734C28.4889 24.9231 29.6752 25.1608 30.7487 25.1602Z" fill="#36454F"/>
<path id="Vector_24" d="M70.38 38.9619C72.9606 39.018 75.5412 39.0741 78.2 39.1319C78.2 41.1515 78.2 43.1711 78.2 45.2519C74.1245 45.2557 70.0491 45.2589 65.9736 45.2607C64.0814 45.2616 62.1893 45.2628 60.2971 45.2647C58.6485 45.2664 56.9999 45.2675 55.3513 45.2679C54.4779 45.2681 53.6044 45.2687 52.7309 45.2699C51.9098 45.271 51.0886 45.2714 50.2675 45.2711C49.9652 45.2712 49.6629 45.2715 49.3606 45.2722C48.9497 45.273 48.5388 45.2728 48.128 45.2724C47.9461 45.2731 47.9461 45.2731 47.7606 45.2739C46.9394 45.2713 46.9394 45.2713 46.75 45.0819C46.75 43.1184 46.75 41.1549 46.75 39.1319C52.4161 39.1319 58.0822 39.1319 63.92 39.1319C63.92 39.188 63.92 39.2441 63.92 39.3019C58.3661 39.3019 52.8122 39.3019 47.09 39.3019C47.09 41.1532 47.09 43.0045 47.09 44.9119C57.3002 44.9119 67.5104 44.9119 78.03 44.9119C78.03 43.0606 78.03 41.2093 78.03 39.3019C77.2444 39.3078 77.2444 39.3078 76.4429 39.3139C75.9371 39.3165 75.4313 39.3186 74.9255 39.3206C74.5733 39.3223 74.221 39.3246 73.8688 39.3276C73.3633 39.3317 72.8578 39.3336 72.3523 39.3351C72.1941 39.3369 72.036 39.3386 71.873 39.3404C71.6536 39.3405 71.6536 39.3405 71.4296 39.3405C71.3005 39.3413 71.1714 39.342 71.0384 39.3428C70.72 39.3019 70.72 39.3019 70.38 38.9619Z" fill="#36454F"/>
<path id="Vector_25" d="M38.3935 41.9369C38.7478 41.9371 39.1014 41.93 39.4555 41.9225C39.6798 41.922 39.9041 41.9216 40.1352 41.9211C40.4425 41.9193 40.4425 41.9193 40.7561 41.9175C41.4657 42.0515 41.7171 42.3132 42.1599 42.8721C42.2556 43.3927 42.2556 43.3927 42.1599 43.8921C41.7805 44.3762 41.5565 44.5466 40.9699 44.7421C40.241 44.7821 39.5111 44.7736 38.7812 44.7739C38.4791 44.7771 38.4791 44.7771 38.1709 44.7803C37.9765 44.7806 37.7822 44.7809 37.5819 44.7812C37.3157 44.7823 37.3157 44.7823 37.0441 44.7834C36.5284 44.7403 36.1623 44.6307 35.6999 44.4021C35.3341 43.9531 35.3606 43.7031 35.3812 43.1164C35.5299 42.5321 35.5299 42.5321 35.8072 42.2455C36.5921 41.81 37.5159 41.934 38.3935 41.9369Z" fill="#36454F"/>
<path id="Vector_26" d="M43.5732 30.5894C43.7488 30.5859 43.9244 30.5824 44.1054 30.5787C45.0524 30.5739 45.7721 30.5843 46.58 31.1419C46.8464 31.6746 46.8948 32.2692 46.75 32.8419C45.8007 33.7691 44.8637 33.6288 43.605 33.6175C43.3971 33.6215 43.1891 33.6256 42.9748 33.6298C41.2793 33.627 41.2793 33.627 40.7476 33.1287C40.369 32.5272 40.3458 32.18 40.46 31.4819C41.2711 30.4191 42.3522 30.5954 43.5732 30.5894Z" fill="#36454F"/>
<path id="Vector_27" d="M9.25433 41.937C9.46306 41.9322 9.67179 41.9274 9.88685 41.9224C11.5943 41.9187 11.5943 41.9187 12.1231 42.4198C12.4749 42.9744 12.5334 43.2474 12.41 43.892C12.0305 44.3761 11.8065 44.5465 11.22 44.742C10.576 44.7814 9.9312 44.7735 9.2862 44.7739C9.0206 44.777 9.0206 44.777 8.74964 44.7802C8.57827 44.7805 8.4069 44.7809 8.23034 44.7812C7.99618 44.7822 7.99618 44.7822 7.75728 44.7833C7.26526 44.7379 6.90334 44.6173 6.45995 44.402C6.0941 43.953 6.12062 43.7031 6.1412 43.1164C6.28995 42.532 6.28995 42.532 6.57421 42.2455C7.37776 41.7917 8.35425 41.9351 9.25433 41.937Z" fill="#36454F"/>
<path id="Vector_28" d="M31.705 41.9263C31.8481 41.9223 31.9912 41.9182 32.1386 41.9141C32.8948 41.9158 33.223 41.9476 33.84 42.4204C34.17 42.872 34.17 42.872 34.2656 43.3926C34.1493 44.0002 33.9748 44.198 33.49 44.572C32.8826 44.7745 32.3773 44.7769 31.7369 44.7845C31.5167 44.7889 31.2964 44.7932 31.0695 44.7978C30.3911 44.7386 29.9847 44.5902 29.41 44.232C29.1441 43.7001 29.1794 43.2874 29.24 42.702C29.9581 41.8865 30.6901 41.9131 31.705 41.9263Z" fill="#36454F"/>
<path id="Vector_29" d="M61.2532 67.8194C61.477 67.8151 61.7007 67.8107 61.9312 67.8062C62.5833 67.864 62.8974 67.9757 63.4101 68.3719C63.6729 68.8975 63.63 69.323 63.5801 69.9019C63.2029 70.3962 62.9818 70.5547 62.3901 70.7519C62.0294 70.7767 61.6678 70.7895 61.3063 70.7944C61.1157 70.7988 60.925 70.8032 60.7286 70.8077C59.9607 70.7296 59.528 70.4398 58.9901 69.9019C58.9141 69.2184 58.8743 68.8585 59.3088 68.3082C59.9493 67.8184 60.472 67.8254 61.2532 67.8194Z" fill="#36454F"/>
<path id="Vector_30" d="M61.2745 54.23C61.5108 54.2263 61.5108 54.2263 61.752 54.2227C62.3754 54.2748 62.8569 54.4621 63.3782 54.8037C63.7099 55.31 63.6522 55.715 63.5801 56.3018C63.2627 56.7039 63.0156 56.9241 62.5601 57.1518C62.1782 57.1773 61.7953 57.1895 61.4126 57.1943C61.2066 57.1987 61.0006 57.2031 60.7884 57.2076C60.1274 57.147 59.7222 56.9885 59.1601 56.6418C58.8973 56.1162 58.9402 55.6908 58.9901 55.1118C59.6085 54.2726 60.2854 54.2368 61.2745 54.23Z" fill="#36454F"/>
<path id="Vector_31" d="M61.1893 40.7468C61.3251 40.7442 61.4608 40.7416 61.6007 40.7389C62.2805 40.7434 62.651 40.7847 63.2459 41.1399C63.5799 41.5118 63.5799 41.5118 63.6649 42.1068C63.578 42.7157 63.5159 42.9678 63.0699 43.3818C61.9799 43.7551 60.6074 43.7085 59.5424 43.3181C59.1599 43.0418 59.1599 43.0418 58.9899 42.7018C58.8932 41.6572 58.8932 41.6572 59.2383 41.1386C59.8736 40.6871 60.4284 40.7322 61.1893 40.7468Z" fill="#36454F"/>
<path id="Vector_32" d="M44.3699 65.1421C44.426 65.1421 44.4821 65.1421 44.5399 65.1421C44.4838 66.5446 44.4277 67.9471 44.3699 69.3921C44.0374 69.3927 43.7049 69.3933 43.3624 69.394C40.2329 69.4002 37.1035 69.41 33.9741 69.4234C32.3651 69.4301 30.7562 69.4356 29.1472 69.4382C27.7449 69.4404 26.3426 69.4449 24.9404 69.4524C24.1978 69.4562 23.4552 69.4589 22.7126 69.4587C22.0137 69.4586 21.3148 69.4616 20.6159 69.4671C20.3594 69.4685 20.1029 69.4688 19.8464 69.4679C19.4959 69.4667 19.1458 69.4698 18.7954 69.4739C18.5993 69.4745 18.4033 69.4751 18.2013 69.4758C17.5731 69.5798 17.2993 69.8251 16.8299 70.2421C16.7177 70.2421 16.6055 70.2421 16.4899 70.2421C16.4899 70.5226 16.4899 70.8031 16.4899 71.0921C16.4338 71.0921 16.3777 71.0921 16.3199 71.0921C16.2365 70.1749 16.2365 70.1749 16.6386 69.679C17.2527 69.1913 17.6218 69.201 18.4005 69.2016C18.5105 69.2015 18.6204 69.2014 18.7337 69.2012C19.1039 69.2009 19.474 69.2019 19.8442 69.2028C20.1088 69.2028 20.3735 69.2028 20.6382 69.2027C21.3582 69.2027 22.0782 69.2037 22.7982 69.2049C23.5501 69.2059 24.302 69.206 25.0539 69.2062C26.4784 69.2067 27.9029 69.2081 29.3274 69.2098C30.9488 69.2117 32.5703 69.2127 34.1917 69.2135C37.5278 69.2153 40.8638 69.2183 44.1999 69.2221C44.199 69.1166 44.1981 69.0111 44.1972 68.9025C44.1937 68.4246 44.1915 67.9468 44.1893 67.469C44.1878 67.303 44.1864 67.137 44.185 66.9659C44.1844 66.8065 44.1839 66.6471 44.1833 66.4828C44.1824 66.3359 44.1815 66.189 44.1806 66.0377C44.1999 65.6521 44.1999 65.6521 44.3699 65.1421Z" fill="#36454F"/>
<path id="Vector_33" d="M67.0005 67.8375C67.182 67.8364 67.3636 67.8354 67.5507 67.8342C67.846 67.834 67.846 67.834 68.1474 67.8337C68.349 67.8331 68.5507 67.8325 68.7585 67.8319C69.1858 67.8311 69.6131 67.8307 70.0404 67.8307C70.6948 67.8303 71.3492 67.8273 72.0036 67.824C72.4182 67.8235 72.8328 67.8232 73.2474 67.823C73.4436 67.8218 73.6398 67.8206 73.842 67.8193C74.0246 67.8199 74.2073 67.8204 74.3955 67.8209C74.556 67.8207 74.7165 67.8204 74.882 67.8202C75.3284 67.864 75.6067 67.9754 75.99 68.2022C75.9339 68.3144 75.8778 68.4266 75.82 68.5422C75.7078 68.4861 75.5956 68.43 75.48 68.3722C75.185 68.3534 74.8894 68.3452 74.5938 68.3421C74.3164 68.3389 74.3164 68.3389 74.0333 68.3355C73.8327 68.3343 73.6321 68.333 73.4253 68.3317C73.2199 68.3303 73.0145 68.329 72.8028 68.3276C72.3675 68.3252 71.9322 68.3234 71.4969 68.322C70.8301 68.3191 70.1635 68.3116 69.4967 68.3042C69.0744 68.3024 68.6521 68.301 68.2297 68.2998C67.9298 68.2954 67.9298 68.2954 67.6238 68.2908C67.4378 68.2913 67.2517 68.2918 67.0601 68.2923C66.8965 68.2913 66.7329 68.2903 66.5644 68.2893C65.9996 68.3971 65.7969 68.6016 65.45 69.0522C65.3931 69.5907 65.3931 69.5907 65.45 70.0722C65.3378 70.0161 65.2256 69.96 65.11 69.9022C65.0265 68.8179 65.0265 68.8179 65.4287 68.3085C65.9903 67.879 66.3016 67.8403 67.0005 67.8375Z" fill="#36454F"/>
<path id="Vector_34" d="M8.82352 47.0934C8.97211 47.0929 9.12071 47.0923 9.27381 47.0917C9.58805 47.0909 9.90228 47.0905 10.2165 47.0905C10.6971 47.0901 11.1775 47.087 11.6581 47.0838C11.9634 47.0833 12.2688 47.083 12.5741 47.0828C12.7178 47.0816 12.8614 47.0804 13.0094 47.0791C13.1438 47.0796 13.2783 47.0801 13.4168 47.0807C13.5934 47.0803 13.5934 47.0803 13.7736 47.08C14.1686 47.1293 14.4455 47.2675 14.7901 47.462C14.3965 47.6588 14.1882 47.6479 13.7513 47.6378C13.5351 47.6337 13.5351 47.6337 13.3145 47.6294C13.0805 47.6241 13.0805 47.6241 12.8418 47.6187C12.5128 47.6141 12.1839 47.6096 11.855 47.6054C11.3352 47.5981 10.8156 47.5895 10.2959 47.5772C9.79512 47.5659 9.29451 47.56 8.79363 47.555C8.63831 47.55 8.48299 47.5451 8.32296 47.54C7.42861 47.5243 7.42861 47.5243 6.71802 48.0299C6.63291 48.1791 6.5478 48.3283 6.46012 48.482C6.34792 48.6503 6.23572 48.8186 6.12012 48.992C6.22386 47.8923 6.22386 47.8923 6.52387 47.4832C7.22201 46.9999 8.01196 47.0945 8.82352 47.0934Z" fill="#36454F"/>
<path id="Vector_35" d="M51.4881 54.2336C51.6171 54.233 51.7462 54.2324 51.8792 54.2319C52.1517 54.231 52.4242 54.2306 52.6967 54.2306C53.1123 54.2302 53.5278 54.2272 53.9434 54.2239C54.2087 54.2234 54.474 54.2231 54.7393 54.2229C54.8629 54.2217 54.9866 54.2205 55.1139 54.2192C55.8017 54.2223 56.3309 54.297 56.95 54.6021C56.3652 54.8945 55.6939 54.7711 55.0521 54.7515C54.8979 54.7475 54.7436 54.7435 54.5847 54.7394C54.091 54.7263 53.5974 54.7121 53.1037 54.6977C52.7695 54.6887 52.4352 54.6797 52.101 54.6709C51.2806 54.6489 50.4603 54.6258 49.64 54.6021C49.5278 54.8265 49.4156 55.0509 49.3 55.2821C49.1878 55.2821 49.0756 55.2821 48.96 55.2821C48.96 55.6187 48.96 55.9553 48.96 56.3021C48.9039 56.3021 48.8478 56.3021 48.79 56.3021C48.7071 55.2246 48.7071 55.2246 49.0875 54.7084C49.8262 54.1749 50.6042 54.2349 51.4881 54.2336Z" fill="#36454F"/>
<path id="Vector_36" d="M77.1799 47.6318C77.7409 47.6318 78.3019 47.6318 78.8799 47.6318C78.8799 47.6879 78.8799 47.744 78.8799 47.8018C78.4311 47.8579 77.9823 47.914 77.5199 47.9718C77.5199 48.645 77.5199 49.3182 77.5199 50.0118C78.0809 50.0679 78.6419 50.124 79.2199 50.1818C79.2199 50.2379 79.2199 50.294 79.2199 50.3518C78.5467 50.3518 77.8735 50.3518 77.1799 50.3518C77.1799 49.4542 77.1799 48.5566 77.1799 47.6318Z" fill="#36454F"/>
<path id="Vector_37" d="M61.2743 54.23C61.5106 54.2263 61.5106 54.2263 61.7518 54.2227C62.2502 54.2644 62.6175 54.3941 63.0699 54.6018C62.4633 54.9052 61.6906 54.7558 61.02 54.7204C60.4159 54.7054 60.0828 54.7173 59.5916 55.0846C59.2985 55.4959 59.2153 55.8034 59.1599 56.3018C59.1038 56.3018 59.0477 56.3018 58.9899 56.3018C58.907 55.2243 58.907 55.2243 59.2874 54.7081C59.9194 54.2516 60.5073 54.2353 61.2743 54.23Z" fill="#36454F"/>
<path id="Vector_38" d="M9.35005 22.1321C9.46225 22.1882 9.57445 22.2443 9.69005 22.3021C8.08719 24.2449 8.08719 24.2449 7.31005 25.0221C7.14175 24.966 6.97345 24.9099 6.80005 24.8521C6.91291 24.7412 7.02576 24.6303 7.14204 24.5161C7.91754 23.7485 8.67364 22.9889 9.35005 22.1321Z" fill="#36454F"/>
<path id="Vector_39" d="M19.8899 28.762C20.0021 28.8181 20.1143 28.8742 20.2299 28.932C20.2299 29.1003 20.2299 29.2686 20.2299 29.442C19.9756 29.679 19.9756 29.679 19.6455 29.9201C19.1611 30.3098 19.0541 30.4108 18.8805 31.0357C18.877 31.183 18.8735 31.3302 18.8699 31.482C18.8138 31.482 18.7577 31.482 18.6999 31.482C18.5565 30.3347 18.5565 30.3347 18.9649 29.7288C19.2626 29.3933 19.5662 29.0724 19.8899 28.762Z" fill="#36454F"/>
<path id="Vector_40" d="M19.1782 5.46126C19.3441 5.49435 19.51 5.52744 19.6809 5.56153C19.806 5.58805 19.9311 5.61456 20.0601 5.64188C20.0601 5.69798 20.0601 5.75408 20.0601 5.81188C19.8859 5.80399 19.7116 5.7961 19.5321 5.78797C19.3008 5.78159 19.0695 5.77541 18.8382 5.76938C18.7237 5.76368 18.6092 5.75799 18.4912 5.75212C17.8511 5.73963 17.5388 5.79251 17.0021 6.15454C16.8892 6.26586 16.7763 6.37718 16.6601 6.49188C16.6601 6.37968 16.6601 6.26748 16.6601 6.15188C16.5479 6.09578 16.4357 6.03968 16.3201 5.98188C17.3487 5.4317 18.0272 5.2255 19.1782 5.46126Z" fill="#36454F"/>
<path id="Vector_41" d="M8.16012 47.2918C8.16012 47.3479 8.16012 47.404 8.16012 47.4618C7.97779 47.4934 7.79547 47.5249 7.60762 47.5574C7.19275 47.671 7.01145 47.7502 6.73969 48.0893C6.57557 48.3826 6.43131 48.6868 6.29012 48.9918C6.23402 48.9918 6.17792 48.9918 6.12012 48.9918C6.22039 47.929 6.22039 47.929 6.47074 47.4724C7.01699 47.1729 7.54543 47.2616 8.16012 47.2918Z" fill="#36454F"/>
<path id="Vector_42" d="M23.4599 77.042C23.1954 77.6913 22.7874 78.1063 22.2699 78.572C22.1577 78.572 22.0455 78.572 21.9299 78.572C22.1923 77.928 22.704 77.042 23.4599 77.042Z" fill="#36454F"/>
<path id="Vector_43" d="M48.4499 30.9722C48.6743 31.0283 48.8987 31.0844 49.1299 31.1422C49.0177 31.2614 48.9055 31.3806 48.7899 31.5034C48.3985 32.0661 48.3876 32.3428 48.4499 33.0122C48.1099 32.6722 48.1099 32.6722 48.0674 32.0878C48.1099 31.4822 48.1099 31.4822 48.4499 30.9722Z" fill="#36454F"/>
<path id="Vector_44" d="M17.3826 69.4344C17.5298 69.4975 17.5298 69.4975 17.6801 69.5619C16.8726 70.2419 16.8726 70.2419 16.4901 70.2419C16.4901 70.5224 16.4901 70.8029 16.4901 71.0919C16.434 71.0919 16.3779 71.0919 16.3201 71.0919C16.2638 70.4729 16.2487 70.1714 16.6176 69.6575C17.0001 69.3919 17.0001 69.3919 17.3826 69.4344Z" fill="#36454F"/>
<path id="Vector_45" d="M65.4499 68.2021C65.6743 68.2582 65.8987 68.3143 66.1299 68.3721C65.9616 68.5089 65.9616 68.5089 65.7899 68.6484C65.3972 69.0351 65.3972 69.0351 65.4074 69.6046C65.4214 69.7589 65.4355 69.9132 65.4499 70.0721C65.3377 70.016 65.2255 69.9599 65.1099 69.9021C65.0674 68.7759 65.0674 68.7759 65.4499 68.2021Z" fill="#36454F"/>
<path id="Vector_46" d="M59.33 54.6021C59.5544 54.6582 59.7788 54.7143 60.01 54.7721C59.9013 54.8667 59.7926 54.9614 59.6807 55.0589C59.2966 55.4896 59.2227 55.7382 59.16 56.3021C59.1039 56.3021 59.0478 56.3021 58.99 56.3021C58.9475 55.1758 58.9475 55.1758 59.33 54.6021Z" fill="#36454F"/>
<path id="Vector_47" d="M6.96995 5.98193C7.08215 6.03803 7.19435 6.09413 7.30995 6.15193C7.30995 6.26413 7.30995 6.37633 7.30995 6.49193C6.72149 7.00193 6.72149 7.00193 6.28995 7.00193C6.28995 7.11413 6.28995 7.22633 6.28995 7.34193C6.17775 7.34193 6.06555 7.34193 5.94995 7.34193C6.19518 6.76973 6.5165 6.40515 6.96995 5.98193Z" fill="#36454F"/>
<path id="Vector_48" d="M19.5501 21.792C19.4379 22.0164 19.3257 22.2408 19.2101 22.472C19.0979 22.472 18.9857 22.472 18.8701 22.472C18.9262 22.9208 18.9823 23.3696 19.0401 23.832C18.9279 23.7759 18.8157 23.7198 18.7001 23.662C18.6377 22.3928 18.6377 22.3928 18.9338 21.962C19.2101 21.792 19.2101 21.792 19.5501 21.792Z" fill="#36454F"/>
<path id="Vector_49" d="M6.63003 25.022C6.68613 25.1903 6.74223 25.3586 6.80003 25.532C6.29513 25.9527 6.29513 25.9527 5.78003 26.382C5.78003 25.872 5.78003 25.872 6.20503 25.4151C6.34528 25.2854 6.48553 25.1556 6.63003 25.022Z" fill="#36454F"/>
<path id="Vector_50" d="M9.86009 21.792C9.97229 21.792 10.0845 21.792 10.2001 21.792C9.93097 22.5186 9.43412 22.8571 8.84009 23.322C9.09981 22.7376 9.4354 22.2698 9.86009 21.792Z" fill="#36454F"/>
</g>
<defs>
<clipPath id="clip0_315_180">
<rect width="85" height="85" fill="white" transform="translate(0 0.541992)"/>
</clipPath>
</defs>
</svg>
