<svg width="60" height="60" viewBox="0 0 60 60" fill="none" xmlns="http://www.w3.org/2000/svg">
<g id="devops__3_-removebg-preview (1) 1" clip-path="url(#clip0_315_491)">
<path id="Vector" d="M42.7201 11.76C43.7378 12.1936 44.6937 12.7743 45.6451 13.335C45.8324 13.4443 45.8324 13.4443 46.0234 13.5558C48.1165 14.7828 48.1165 14.7828 48.3086 15.4931C48.4066 16.1149 48.3694 16.5091 48.0001 17.04C47.5064 17.6144 46.926 18.0799 46.3314 18.5452C46.0331 18.7821 45.739 19.0224 45.4464 19.2661C45.3556 19.3416 45.2649 19.4171 45.1714 19.4948C44.9896 19.6463 44.8081 19.7981 44.6268 19.9503C44.5424 20.0204 44.458 20.0906 44.3711 20.1628C44.2957 20.2258 44.2204 20.2889 44.1428 20.3538C43.5342 20.808 42.983 20.8539 42.2401 20.76C41.6412 20.4769 41.4018 20.1706 41.1601 19.56C41.1182 19.4005 41.0778 19.2406 41.0401 19.08C39.1027 19.6095 37.5008 20.3565 36.0001 21.72C35.9243 21.7861 35.8485 21.8521 35.7704 21.9202C33.7711 23.7689 32.6502 26.658 32.5164 29.3409C32.544 32.4336 33.4985 35.3936 35.6401 37.68C35.7221 37.7728 35.8041 37.8656 35.8886 37.9613C37.5241 39.7235 40.1678 41.0427 42.5816 41.1793C44.8399 41.2358 44.8399 41.2358 47.0401 40.8C47.1164 40.7755 47.1926 40.751 47.2712 40.7258C48.5412 40.3088 49.6462 39.7426 50.7601 39C51.1642 39.0217 51.4791 39.0433 51.8251 39.2625C52.0193 39.5753 52.0577 39.8343 52.0801 40.2C51.922 40.7505 51.4467 40.9771 50.9851 41.2575C50.8996 41.3099 50.814 41.3623 50.7259 41.4162C47.8192 43.155 44.3733 43.8286 41.0354 43.0922C37.3946 42.1251 34.3276 39.9587 32.3796 36.7056C31.1898 34.652 30.5876 32.5793 30.4377 30.2236C30.1731 26.1789 29.0537 22.846 26.1601 19.92C26.0818 19.8331 26.0036 19.7461 25.9229 19.6566C23.8374 17.3873 20.3442 15.8842 17.3073 15.6998C13.4561 15.5488 9.92194 16.5556 6.96012 19.08C6.8978 19.1323 6.83548 19.1846 6.77127 19.2384C3.89137 21.6756 2.31397 25.2441 1.95762 28.9495C1.67062 32.3971 2.80184 36.0302 4.92012 38.76C5.09367 38.977 5.09367 38.977 5.28012 39.12C5.59868 39.0924 5.59868 39.0924 5.88012 39C5.82067 38.4855 5.72965 38.1814 5.40762 37.7775C4.29823 36.2541 3.54802 34.5893 3.12012 32.76C3.09088 32.6445 3.06165 32.5289 3.03153 32.4099C2.30655 28.9921 3.25363 25.4818 5.04012 22.56C5.96406 21.184 5.96406 21.184 6.60012 20.76C7.09952 20.7691 7.35603 20.8085 7.74012 21.135C7.97963 21.5941 7.91593 21.8201 7.80012 22.32C7.58168 22.6664 7.58168 22.6664 7.30512 23.0025C5.42554 25.3916 4.63791 28.2263 4.9759 31.2567C5.26063 33.4816 6.05022 35.4113 7.46309 37.1667C7.89559 37.7113 8.08257 38.2586 8.02512 38.955C7.87436 39.8706 7.45696 40.3892 6.72012 40.92C6.16687 41.249 5.54531 41.2329 4.92012 41.16C3.7034 40.8446 2.94912 39.6479 2.33262 38.6325C0.772837 35.968 -0.0499423 33.3095 -0.0311704 30.2003C-0.0298843 29.9481 -0.0311668 29.696 -0.0326939 29.4438C-0.0345622 27.9104 0.0877518 26.4045 0.592619 24.945C0.628197 24.8405 0.663775 24.7359 0.700431 24.6283C0.989111 23.8187 1.34437 23.0524 1.74012 22.29C1.7927 22.1887 1.84529 22.0873 1.89946 21.9829C2.41178 21.0355 3.05936 20.2163 3.78762 19.425C4.09079 19.0943 4.38464 18.7625 4.66512 18.4125C5.15749 17.8347 5.76302 17.3839 6.36012 16.92C6.46283 16.838 6.56554 16.756 6.67137 16.6716C9.8349 14.2417 14.1636 13.2906 18.0878 13.7353C21.7525 14.2445 24.9434 15.8198 27.5486 18.4289C27.7199 18.6 27.8932 18.7692 28.0707 18.9338C28.7997 19.6191 29.333 20.4091 29.8801 21.24C29.949 21.1538 30.0178 21.0677 30.0887 20.9789C32.4803 17.9925 32.4803 17.9925 33.3601 17.52C33.7894 17.52 34.0569 17.5541 34.4251 17.775C34.649 18.1482 34.6874 18.4038 34.6801 18.84C34.4807 19.1634 34.233 19.4175 33.9601 19.68C33.8976 19.7475 33.8351 19.8149 33.7707 19.8844C33.6001 20.04 33.6001 20.04 33.3601 20.04C33.3283 20.1107 33.2964 20.1814 33.2636 20.2542C33.1164 20.527 32.9588 20.7094 32.7451 20.9325C32.1716 21.571 31.7467 22.2987 31.3201 23.04C31.2668 23.1242 31.2134 23.2083 31.1584 23.295C31.0533 23.5246 31.0533 23.5246 31.1617 23.7769C31.209 23.8604 31.2564 23.9439 31.3051 24.03C31.3518 24.1148 31.3986 24.1995 31.4467 24.2869C31.4841 24.3506 31.5216 24.4143 31.5601 24.48C31.6155 24.3682 31.6709 24.2563 31.7279 24.1411C33.3697 20.9016 36.0735 18.5 39.5226 17.315C41.8229 16.5744 41.8229 16.5744 42.7351 16.9575C43.0641 17.429 43.1281 17.9169 43.2001 18.48C43.3762 18.3257 43.3762 18.3257 43.5559 18.1683C44.3799 17.4487 45.2023 16.7342 46.0801 16.08C45.7809 15.7418 45.4515 15.5555 45.055 15.3436C44.9262 15.2744 44.7974 15.2052 44.6647 15.1338C44.5304 15.0624 44.396 14.9911 44.2576 14.9175C44.1219 14.8447 43.9861 14.7719 43.8463 14.697C43.5112 14.5174 43.1758 14.3384 42.8401 14.16C42.837 14.2324 42.8339 14.3048 42.8307 14.3794C42.7997 14.8162 42.774 15.1506 42.5457 15.5297C42.083 15.8178 41.6003 15.8987 41.0701 16.005C39.8606 16.2682 38.6721 16.604 37.5601 17.16C36.7098 17.2286 36.7098 17.2286 36.3001 16.9725C36.05 16.5661 36.0532 16.3087 36.1201 15.84C36.6781 15.0262 37.8776 14.7565 38.7751 14.4975C38.8792 14.4663 38.9833 14.4352 39.0906 14.4031C39.6181 14.2477 40.1338 14.1143 40.6801 14.04C40.6759 13.969 40.6718 13.898 40.6675 13.8249C40.6472 13.2322 40.646 12.8357 41.0401 12.36C41.5823 11.884 41.9874 11.6258 42.7201 11.76Z" fill="#0A56F1"/>
<path id="Vector_2" d="M16.0248 16.5403C19.2533 16.4304 22.2912 17.749 24.7201 19.8C24.892 19.9425 24.892 19.9425 25.0674 20.0878C27.4793 22.1725 29.2033 25.3856 29.5201 28.56C29.5428 28.9823 29.5575 29.4049 29.5726 29.8275C29.7216 33.8989 31.1215 37.4686 34.0801 40.32C36.7556 42.7928 40.2268 44.3912 43.9173 44.3025C47.5751 44.0757 51.1157 42.8893 53.7334 40.2202C54.0001 39.96 54.0001 39.96 54.2401 39.96C54.2865 39.8568 54.2865 39.8568 54.3338 39.7514C54.4935 39.4552 54.6802 39.2321 54.9001 38.9775C57.2063 36.1262 58.403 32.3308 58.0193 28.6713C57.7344 26.2668 56.9488 24.1281 55.6801 22.08C55.5678 21.896 55.5678 21.896 55.4532 21.7083C55.1775 21.2689 55.1775 21.2689 54.8401 20.88C54.5233 20.8386 54.5233 20.8386 54.2401 20.88C54.1356 21.1456 54.1356 21.1456 54.1201 21.48C54.3101 21.8284 54.3101 21.8284 54.5926 22.1775C55.2368 23.0492 55.7086 23.9772 56.1601 24.96C56.2108 25.0701 56.2615 25.1803 56.3138 25.2938C57.5076 28.0792 57.4533 31.5959 56.4352 34.4278C55.1947 37.4036 55.1947 37.4036 54.2401 38.04C53.836 38.0184 53.5211 37.9967 53.1751 37.7775C52.9816 37.4658 52.9512 37.2044 52.9201 36.84C53.0363 36.54 53.0363 36.54 53.2201 36.24C53.2866 36.1254 53.3531 36.0108 53.4216 35.8927C53.4937 35.7697 53.5658 35.6467 53.6401 35.52C54.5406 33.9064 55.0185 32.3382 55.0801 30.48C55.0849 30.385 55.0897 30.2901 55.0946 30.1922C55.1759 27.3124 54.1184 24.8238 52.3838 22.5764C51.9492 21.9699 52.0143 21.2346 52.0801 20.52C52.2851 19.8698 52.7414 19.4648 53.2801 19.08C53.9702 18.7555 54.7319 18.6744 55.4612 18.9324C57.7787 20.2467 58.956 23.4801 59.6349 25.9041C59.6771 26.0693 59.7189 26.2346 59.7601 26.4C59.7826 26.4815 59.8051 26.5629 59.8283 26.6468C60.0643 27.6155 60.0405 28.6004 60.038 29.5912C60.0376 29.8998 60.0404 30.2082 60.0434 30.5168C60.0497 32.1262 59.8431 33.6218 59.3176 35.1525C59.2872 35.2419 59.2569 35.3312 59.2257 35.4232C57.7887 39.5034 54.7148 42.8216 50.8585 44.7333C49.9714 45.1533 49.066 45.4625 48.1201 45.72C47.9884 45.7576 47.9884 45.7576 47.8541 45.7959C45.4408 46.463 42.3692 46.5412 39.9601 45.84C39.8661 45.8136 39.7722 45.7871 39.6754 45.7599C37.5509 45.1503 35.5664 44.2359 33.8401 42.84C33.718 42.7435 33.596 42.647 33.4702 42.5475C32.7601 41.9776 32.1368 41.3835 31.5601 40.68C31.4153 40.5198 31.2703 40.3598 31.1251 40.2C30.7316 39.7524 30.4175 39.2754 30.1201 38.76C29.8813 39.0579 29.6431 39.3562 29.4076 39.6567C28.9053 40.2874 28.3826 40.8928 27.8251 41.475C27.7677 41.5375 27.7103 41.6 27.6512 41.6644C27.2214 42.1023 26.8912 42.2336 26.2801 42.24C25.9278 42.1014 25.8195 41.9374 25.5601 41.64C25.4626 41.3025 25.4626 41.3025 25.5601 40.92C25.8589 40.4919 26.2214 40.1282 26.6007 39.7711C27.2749 39.1339 27.7957 38.3996 28.311 37.6321C28.4186 37.4719 28.5291 37.3137 28.6402 37.1559C28.8124 36.9008 28.8124 36.9008 28.9201 36.48C28.8144 36.0851 28.6503 35.7493 28.4401 35.4C28.3847 35.5118 28.3293 35.6237 28.2723 35.7389C27.7136 36.8416 27.0897 37.8249 26.2801 38.76C26.2276 38.8208 26.175 38.8815 26.1209 38.9441C24.4418 40.8413 22.1663 42.1366 19.7476 42.8325C19.6155 42.8707 19.6155 42.8707 19.4809 42.9096C18.8919 43.0665 18.3697 43.1169 17.7601 43.08C17.4222 42.8755 17.3107 42.7138 17.2085 42.3337C17.1885 42.2371 17.1685 42.1404 17.1479 42.0408C17.1274 41.9433 17.1069 41.8459 17.0857 41.7454C17.0707 41.6711 17.0556 41.5967 17.0401 41.52C16.9227 41.6229 16.8053 41.7257 16.6843 41.8317C15.1441 43.1764 15.1441 43.1764 14.3448 43.7677C14.1434 43.9128 14.1434 43.9128 14.0401 44.16C14.1455 44.1926 14.251 44.2252 14.3596 44.2589C14.7353 44.3913 15.0599 44.546 15.4079 44.7384C15.5247 44.8026 15.6415 44.8668 15.7618 44.933C15.8817 44.9996 16.0016 45.0663 16.1251 45.135C16.2477 45.2026 16.3704 45.2702 16.4968 45.3399C16.7982 45.506 17.0993 45.6728 17.4001 45.84C17.3926 45.694 17.3852 45.548 17.3776 45.3975C17.381 44.9257 17.4308 44.6398 17.7601 44.28C18.1393 44.1417 18.1393 44.1417 18.6076 44.0475C18.7804 44.0097 18.953 43.971 19.1255 43.9317C19.2159 43.9112 19.3063 43.8906 19.3994 43.8694C19.8808 43.7504 20.3499 43.5969 20.8201 43.44C20.9075 43.4116 20.9949 43.3831 21.0849 43.3538C21.6121 43.1764 22.0986 42.9619 22.5886 42.6982C22.9209 42.5439 23.1622 42.5364 23.5201 42.6C23.9246 42.8337 24.0844 42.9889 24.2551 43.425C24.2349 43.9298 23.9962 44.188 23.6401 44.52C23.2679 44.7225 23.2679 44.7225 22.8451 44.88C22.7311 44.9231 22.7311 44.9231 22.6149 44.967C21.6107 45.3386 20.5842 45.6491 19.5601 45.96C19.5625 46.0333 19.5649 46.1065 19.5675 46.182C19.5703 46.3269 19.5703 46.3269 19.5732 46.4747C19.5756 46.5702 19.5781 46.6658 19.5806 46.7642C19.5413 47.2923 19.2233 47.6062 18.8776 47.9775C18.4196 48.2127 18.0341 48.2816 17.5201 48.24C16.4972 47.8321 15.5418 47.223 14.5951 46.665C14.4702 46.5922 14.3454 46.5193 14.2168 46.4442C12.1595 45.2382 12.1595 45.2382 11.8801 44.4C11.8263 43.8407 11.8655 43.4238 12.1735 42.9427C12.5456 42.4986 13.0104 42.1623 13.4664 41.8089C13.7085 41.6176 13.9454 41.4208 14.1821 41.2228C14.2701 41.1494 14.3581 41.0759 14.4487 41.0002C14.6216 40.8557 14.7942 40.7109 14.9666 40.5658C16.716 39.1135 16.716 39.1135 17.7249 39.187C18.1677 39.2723 18.3968 39.4044 18.7201 39.72C18.9125 40.0694 19.064 40.4254 19.2001 40.8C20.9652 40.2919 22.526 39.5326 23.8801 38.28C23.9734 38.1977 24.0666 38.1154 24.1627 38.0306C25.919 36.3983 27.2287 33.7403 27.3813 31.3468C27.454 27.7625 26.8101 24.8142 24.279 22.1241C24.1869 22.0303 24.0949 21.9366 24.0001 21.84C23.9117 21.7487 23.8234 21.6575 23.7324 21.5634C22.3268 20.2025 20.58 19.4758 18.7201 18.96C18.6061 18.928 18.4921 18.896 18.3746 18.863C15.8394 18.2877 13.0528 18.8356 10.7682 19.9997C10.3814 20.1887 10.1455 20.2155 9.72007 20.16C9.44257 20.0325 9.44257 20.0325 9.24007 19.8C9.11257 19.4025 9.11257 19.4025 9.12007 18.96C9.51661 18.3836 9.91552 18.0821 10.5601 17.805C10.6388 17.7699 10.7174 17.7347 10.7985 17.6985C12.4976 16.9583 14.1891 16.6589 16.0248 16.5403Z" fill="#0A56F1"/>
<path id="Vector_3" d="M42.441 22.0556C42.5782 22.0546 42.5782 22.0546 42.7182 22.0535C42.9119 22.0524 43.1057 22.0516 43.2995 22.0512C43.595 22.05 43.8904 22.0463 44.1859 22.0425C44.3743 22.0417 44.5626 22.0411 44.751 22.0406C44.839 22.0391 44.927 22.0377 45.0177 22.0361C45.5544 22.0385 45.8954 22.1062 46.3199 22.44C46.585 22.8376 46.5869 22.9613 46.5749 23.4225C46.5727 23.5306 46.5706 23.6388 46.5683 23.7502C46.5656 23.8326 46.5628 23.9151 46.5599 24C47.0151 24.2211 47.2743 24.2694 47.7599 24.12C47.8342 24.0754 47.9084 24.0309 47.9849 23.985C48.3879 23.819 48.6645 23.8907 49.0799 24C49.7071 24.5517 50.0814 25.2154 50.4942 25.9321C50.6173 26.1448 50.7432 26.3556 50.8694 26.5664C50.9479 26.7018 51.0264 26.8371 51.1073 26.9766C51.1788 27.0991 51.2504 27.2215 51.3242 27.3478C51.5052 27.7805 51.5164 28.0951 51.4799 28.56C51.2558 29.0128 50.8747 29.3442 50.3999 29.52C50.3398 29.9198 50.3398 29.9198 50.3999 30.36C50.7333 30.6323 50.7333 30.6323 51.1199 30.84C51.4308 31.1405 51.4761 31.2735 51.5116 31.7099C51.4762 32.2119 51.3596 32.4717 51.1073 32.9034C51.0287 33.0388 50.9502 33.1741 50.8694 33.3136C50.8279 33.3828 50.7865 33.4521 50.7438 33.5234C50.6179 33.7342 50.495 33.9465 50.3725 34.1592C49.4204 35.7809 49.4204 35.7809 48.6674 36C48.1809 36 47.9429 35.8656 47.5199 35.64C47.2645 35.6588 47.2645 35.6588 47.0399 35.76C46.8802 35.8012 46.7203 35.8414 46.5599 35.88C46.5655 35.9597 46.571 36.0393 46.5768 36.1214C46.6123 36.9914 46.6123 36.9914 46.3424 37.4475C45.8734 37.8629 45.3861 37.8226 44.7913 37.8286C44.7003 37.8296 44.6093 37.8305 44.5155 37.8315C44.323 37.8332 44.1304 37.8345 43.9379 37.8354C43.7415 37.8368 43.5452 37.8393 43.3489 37.8428C43.0647 37.8479 42.7806 37.8499 42.4963 37.8511C42.4093 37.8532 42.3223 37.8553 42.2326 37.8575C41.6187 37.8549 41.2718 37.7077 40.7999 37.32C40.6161 36.9523 40.646 36.5643 40.6288 36.1575C40.5878 35.8626 40.5878 35.8626 40.3335 35.7206C40.002 35.6152 39.811 35.6607 39.4799 35.76C39.4057 35.8045 39.3314 35.8491 39.2549 35.895C38.847 36.0629 38.5791 35.9977 38.1599 35.88C37.5449 35.2523 37.131 34.482 36.6899 33.7275C36.6135 33.6004 36.5371 33.4733 36.4583 33.3424C35.7543 32.1418 35.7543 32.1418 35.7599 31.44C35.9789 31.002 36.1337 30.7755 36.5699 30.5475C36.8848 30.374 36.8848 30.374 36.9299 29.955C36.8318 29.4809 36.8085 29.45 36.4349 29.1975C36.3585 29.1497 36.2821 29.1019 36.2033 29.0527C35.9335 28.8767 35.8341 28.7551 35.7599 28.44C35.8109 27.8186 35.956 27.3894 36.2685 26.8523C36.3472 26.7164 36.4258 26.5806 36.5069 26.4405C36.548 26.3711 36.5892 26.3016 36.6316 26.23C36.7573 26.0177 36.8807 25.8041 37.0037 25.5902C37.8888 24.0753 37.8888 24.0753 38.5649 23.8875C39.0615 23.8789 39.2868 24.014 39.7199 24.24C40.0502 24.21 40.2652 24.1473 40.5599 24C40.5932 23.7368 40.5932 23.7368 40.5974 23.43C40.6346 22.9492 40.6594 22.8258 40.9724 22.4325C41.4699 22.0564 41.8353 22.0591 42.441 22.0556ZM42.7199 24.12C42.6927 24.2809 42.6655 24.4417 42.6374 24.6075C42.4458 25.2011 42.1365 25.3792 41.5949 25.665C41.3303 25.7909 41.0654 25.916 40.7999 26.04C40.6382 26.1416 40.6382 26.1416 40.4732 26.2453C40.0985 26.4574 39.8887 26.3844 39.4799 26.28C39.3199 26.2399 39.1599 26.1999 38.9999 26.16C38.8556 26.3889 38.7135 26.6191 38.5724 26.85C38.4931 26.9781 38.4137 27.1062 38.3319 27.2381C38.1429 27.5708 38.1429 27.5708 38.1566 27.8494C38.2773 28.11 38.2773 28.11 38.5827 28.3312C39.0191 28.8434 38.9684 29.288 38.9549 29.94C38.9572 30.0525 38.9595 30.1649 38.9619 30.2808C38.9561 31.1106 38.9561 31.1106 38.5827 31.5487C38.4828 31.6317 38.3829 31.7146 38.2799 31.8C38.1365 32.0237 38.1365 32.0237 38.1599 32.28C38.3294 32.6538 38.3294 32.6538 38.5724 33.03C38.6515 33.1593 38.7305 33.2886 38.8119 33.4219C38.874 33.5203 38.936 33.6186 38.9999 33.72C39.1658 33.6606 39.1658 33.6606 39.3351 33.6C39.8192 33.449 40.0692 33.4669 40.5599 33.6C40.8465 33.7673 41.1138 33.9496 41.3826 34.1442C41.6513 34.342 41.6513 34.342 42.0449 34.4775C42.5391 34.7952 42.5745 35.2026 42.7199 35.76C43.3535 35.76 43.9871 35.76 44.6399 35.76C44.6696 35.5991 44.6993 35.4382 44.7299 35.2725C44.9585 34.5677 45.4478 34.3484 46.079 34.0209C46.1981 33.9612 46.3172 33.9015 46.4399 33.84C46.5452 33.7722 46.6506 33.7045 46.7591 33.6347C47.2751 33.3504 47.8177 33.5824 48.3599 33.72C48.5005 33.4653 48.6404 33.2103 48.7799 32.955C48.82 32.8826 48.86 32.8102 48.9013 32.7356C49.1264 32.3503 49.1264 32.3503 49.1999 31.92C49.0013 31.7978 48.8012 31.6778 48.5999 31.56C48.4483 31.2569 48.4644 31.0444 48.464 30.7055C48.4638 30.5833 48.4637 30.4612 48.4635 30.3354C48.464 30.2074 48.4644 30.0794 48.4649 29.9475C48.4644 29.82 48.464 29.6924 48.4635 29.561C48.4637 29.4387 48.4638 29.3165 48.464 29.1905C48.4641 29.0783 48.4642 28.966 48.4644 28.8504C48.4799 28.56 48.4799 28.56 48.5999 28.2C48.9074 28.0575 48.9074 28.0575 49.1999 27.96C49.0145 27.3025 48.7013 26.7463 48.3599 26.16C48.2362 26.2021 48.1124 26.2441 47.9849 26.2875C47.2398 26.4678 46.8448 26.3233 46.1999 25.9425C45.9999 25.8151 45.7999 25.6876 45.5999 25.56C45.4613 25.4857 45.3227 25.4115 45.1799 25.335C44.7518 24.9711 44.731 24.6667 44.6399 24.12C44.0063 24.12 43.3727 24.12 42.7199 24.12Z" fill="#0A56F1"/>
<path id="Vector_4" d="M15.195 22.0045C15.294 22.0042 15.3929 22.0039 15.4949 22.0036C15.7034 22.0038 15.912 22.0054 16.1206 22.0084C16.4391 22.0125 16.7572 22.0108 17.0757 22.0085C17.2788 22.0093 17.4819 22.0105 17.685 22.012C17.7798 22.0114 17.8746 22.0108 17.9722 22.0102C18.5698 22.0229 18.8862 22.112 19.32 22.56C19.4715 22.863 19.4519 23.0774 19.4475 23.415C19.4464 23.5242 19.4454 23.6334 19.4442 23.7459C19.4429 23.8298 19.4415 23.9136 19.44 24C19.829 24.1555 19.829 24.1555 20.28 24.24C20.4832 24.1254 20.6831 24.0049 20.88 23.88C21.2145 23.813 21.5112 23.7853 21.84 23.88C22.5201 24.4054 22.8846 25.1924 23.3025 25.9275C23.3779 26.0581 23.4533 26.1888 23.531 26.3234C23.7293 26.6679 23.9269 27.0125 24.12 27.36C24.1673 27.4442 24.2145 27.5284 24.2631 27.6152C24.4311 28.0049 24.3523 28.2801 24.24 28.68C23.9673 28.9908 23.6507 29.2147 23.28 29.4C23.23 29.8848 23.23 29.8848 23.28 30.36C23.6112 30.6408 23.6112 30.6408 24 30.84C24.2325 31.05 24.2325 31.05 24.36 31.32C24.3285 32.1106 24.1022 32.6152 23.685 33.2775C23.6311 33.3658 23.5772 33.454 23.5216 33.5449C23.4132 33.7217 23.3041 33.898 23.1941 34.0738C23.0564 34.2939 22.921 34.5152 22.7864 34.7372C22.2513 35.6058 22.2513 35.6058 21.84 35.88C21.2863 35.9254 21.0004 35.9426 20.505 35.685C20.1594 35.4751 20.1594 35.4751 19.755 35.6175C19.6511 35.6645 19.5471 35.7115 19.44 35.76C19.4456 35.8397 19.4512 35.9193 19.4569 36.0014C19.4926 36.8742 19.4926 36.8742 19.215 37.3275C18.5857 37.9013 17.5975 37.7165 16.7866 37.722C16.5712 37.724 16.3558 37.7273 16.1403 37.7318C15.8294 37.7384 15.5187 37.741 15.2077 37.7428C15.1118 37.7455 15.0159 37.7482 14.9171 37.751C14.4043 37.7491 14.2162 37.7242 13.7985 37.3953C13.5344 37.0462 13.4948 36.8949 13.5 36.465C13.4839 35.9789 13.4839 35.9789 13.17 35.61C12.7624 35.4988 12.6062 35.5621 12.24 35.76C11.8621 35.9489 11.5776 35.9218 11.16 35.88C10.3999 35.4122 10.0342 34.6605 9.61667 33.8966C9.49506 33.6751 9.37008 33.4557 9.24471 33.2362C9.16575 33.0942 9.087 32.952 9.00846 32.8097C8.90222 32.6184 8.90222 32.6184 8.79383 32.4233C8.6169 31.9824 8.59276 31.6711 8.64003 31.2C8.9842 30.7575 9.30671 30.5276 9.84003 30.36C9.84003 30.0432 9.84003 29.7264 9.84003 29.4C9.7534 29.3728 9.66678 29.3455 9.57753 29.3175C9.15689 29.1212 8.92548 28.927 8.64003 28.56C8.57333 27.9046 8.69644 27.5143 9.0169 26.9461C9.05572 26.8765 9.09453 26.8069 9.13452 26.7352C9.21641 26.5892 9.29915 26.4437 9.3827 26.2987C9.50982 26.0778 9.63409 25.8556 9.75799 25.6329C10.5845 24.1678 10.5845 24.1678 11.16 23.88C11.9087 23.8235 11.9087 23.8235 12.315 24.075C12.4091 24.1294 12.5031 24.1839 12.6 24.24C12.9241 24.1624 12.9241 24.1624 13.2 24C13.2792 23.9604 13.3584 23.9208 13.44 23.88C13.4733 23.5851 13.4778 23.2935 13.4836 22.9969C13.7051 22.0783 14.3884 21.991 15.195 22.0045ZM15.48 24C15.4479 24.151 15.4157 24.3019 15.3825 24.4575C15.2971 24.8581 15.2006 25.061 14.88 25.32C14.6633 25.4482 14.4429 25.5704 14.22 25.6875C13.8667 25.8741 13.5328 26.0581 13.2 26.28C12.6958 26.308 12.2514 26.2655 11.76 26.16C11.616 26.3916 11.4739 26.6243 11.3325 26.8575C11.2532 26.987 11.1738 27.1164 11.0921 27.2498C10.8716 27.5951 10.8716 27.5951 11.04 27.96C11.14 28.0392 11.2399 28.1184 11.3428 28.2C11.7835 28.7338 11.7282 29.2084 11.715 29.88C11.7173 29.9982 11.7197 30.1164 11.7221 30.2381C11.7182 30.8149 11.7157 31.104 11.3503 31.5675C11.2479 31.6442 11.1455 31.7209 11.04 31.8C10.9212 31.9188 10.9212 31.9188 10.8 32.04C11.1564 32.5944 11.5128 33.1488 11.88 33.72C12.1176 33.6012 12.1176 33.6012 12.36 33.48C13.1051 33.3909 13.5242 33.6027 14.13 33.99C14.2091 34.0375 14.2881 34.085 14.3696 34.1339C14.7774 34.3862 15.1289 34.607 15.36 35.04C15.3996 35.2776 15.4392 35.5152 15.48 35.76C16.1136 35.76 16.7472 35.76 17.4 35.76C17.4471 35.5892 17.4941 35.4184 17.5425 35.2425C17.6469 34.8633 17.7044 34.7182 18.0333 34.4925C18.1411 34.4356 18.2489 34.3786 18.36 34.32C18.4649 34.2478 18.5698 34.1755 18.6778 34.1011C19.7813 33.347 19.7813 33.347 20.52 33.48C20.718 33.5592 20.916 33.6384 21.12 33.72C21.4368 33.126 21.7536 32.532 22.08 31.92C21.8424 31.7616 21.6048 31.6032 21.36 31.44C21.1283 30.9765 21.2022 30.4124 21.195 29.9025C21.1883 29.7228 21.1883 29.7228 21.1814 29.5394C21.1708 28.6488 21.1708 28.6488 21.5278 28.1911C21.6309 28.1148 21.7339 28.0386 21.84 27.96C21.9588 27.8412 21.9588 27.8412 22.08 27.72C21.6048 26.8884 21.6048 26.8884 21.12 26.04C20.922 26.1192 20.724 26.1984 20.52 26.28C19.6249 26.4411 19.0609 25.9228 18.36 25.44C18.2522 25.3831 18.1444 25.3261 18.0333 25.2675C17.5704 24.9499 17.5451 24.5267 17.4 24C16.7664 24 16.1328 24 15.48 24Z" fill="#0A56F1"/>
<path id="Vector_5" d="M18.5025 27.1875C19.142 27.6978 19.6548 28.4665 19.8 29.28C19.9019 30.4325 19.6463 31.2762 18.9281 32.1811C18.2533 32.8909 17.421 33.1996 16.455 33.2775C15.3973 33.2368 14.6958 32.8242 13.9411 32.093C13.2284 31.2933 13.111 30.5109 13.1475 29.452C13.2792 28.4187 13.7998 27.7263 14.5926 27.0755C15.8405 26.2266 17.279 26.3649 18.5025 27.1875ZM15.24 29.16C15.0463 29.5474 15.0485 29.9412 15.12 30.36C15.3283 30.723 15.5803 31.0102 15.96 31.2C16.5588 31.2599 16.8047 31.2705 17.325 30.9525C17.6901 30.5439 17.8144 30.3036 17.88 29.76C17.7465 29.2888 17.6251 29.0131 17.2575 28.6875C16.3643 28.3501 15.8756 28.5089 15.24 29.16Z" fill="#0A56F1"/>
<path id="Vector_6" d="M45.2485 26.9761C46.1147 27.5144 46.6379 28.1711 46.9201 29.16C47.0472 30.3381 46.879 31.2557 46.1551 32.1975C45.4349 32.9348 44.6784 33.271 43.6501 33.2925C42.6406 33.2741 41.9214 32.9247 41.1751 32.2575C40.4877 31.5051 40.2296 30.6157 40.2751 29.6077C40.4222 28.5366 40.9104 27.7785 41.7601 27.12C42.7983 26.4239 44.1482 26.4017 45.2485 26.9761ZM42.7201 28.92C42.3588 29.2813 42.2604 29.6119 42.2401 30.12C42.4238 30.6132 42.6091 30.9514 43.0801 31.2C43.5631 31.3252 43.8361 31.3491 44.3101 31.185C44.6846 30.9297 44.8319 30.7804 45.0001 30.36C45.0844 29.8467 45.0636 29.5082 44.7976 29.055C44.1178 28.4303 43.4952 28.4582 42.7201 28.92Z" fill="#0A56F1"/>
<path id="Vector_7" d="M15.2076 22.013C15.3573 22.0134 15.3573 22.0134 15.51 22.0138C15.7201 22.015 15.9302 22.0176 16.1403 22.0216C16.4626 22.0275 16.7848 22.0289 17.1072 22.0296C17.3115 22.0313 17.5158 22.0332 17.7201 22.0355C17.8167 22.0361 17.9134 22.0368 18.0129 22.0374C18.692 22.052 18.692 22.052 18.96 22.32C18.8412 22.3596 18.7224 22.3992 18.6 22.44C18.6 22.3608 18.6 22.2816 18.6 22.2C18.0127 22.2023 17.4257 22.2086 16.8385 22.2183C16.6389 22.2211 16.4393 22.2228 16.2396 22.2235C15.9521 22.2246 15.6648 22.2295 15.3773 22.2352C15.2885 22.2347 15.1997 22.2342 15.1083 22.2337C14.6328 22.2471 14.4197 22.3042 14.0442 22.6052C13.7755 22.9516 13.7197 23.1254 13.7025 23.5575C13.6967 23.6635 13.691 23.7694 13.6851 23.8786C13.6834 23.9583 13.6817 24.0379 13.68 24.12C13.5216 24.0804 13.3632 24.0408 13.2 24C13.2792 23.9604 13.3584 23.9208 13.44 23.88C13.4733 23.5851 13.4778 23.2936 13.4835 22.9969C13.7073 22.0691 14.3959 21.9931 15.2076 22.013Z" fill="#0A56F1"/>
<path id="Vector_8" d="M34.2001 17.64C34.2793 17.6796 34.3585 17.7192 34.4401 17.76C34.4005 17.8392 34.3609 17.9184 34.3201 18C34.2409 17.9604 34.1617 17.9208 34.0801 17.88C33.6964 17.7692 33.6964 17.7692 33.2401 17.88C32.8355 18.2425 32.5047 18.6613 32.1601 19.08C32.0051 19.2473 31.8479 19.4127 31.6876 19.575C31.6221 19.6421 31.5567 19.7093 31.4893 19.7784C31.3201 19.92 31.3201 19.92 31.0801 19.92C31.5692 18.7715 32.8796 17.2775 34.2001 17.64Z" fill="#0A56F1"/>
<path id="Vector_9" d="M35.52 19.44C35.5992 19.4796 35.6784 19.5192 35.76 19.56C35.4935 19.8335 35.2256 20.1056 34.9575 20.3775C34.8824 20.4546 34.8073 20.5317 34.7299 20.6112C34.3388 21.0064 33.9801 21.3428 33.48 21.6C33.6675 21.1474 33.9505 20.8613 34.2975 20.52C34.3997 20.4185 34.502 20.3171 34.6073 20.2125C34.9007 19.938 35.2026 19.6861 35.52 19.44Z" fill="#0A56F1"/>
<path id="Vector_10" d="M13.92 22.2C14.0784 22.2396 14.2368 22.2792 14.4 22.32C14.3034 22.3943 14.2069 22.4685 14.1075 22.545C13.6618 22.9793 13.6926 23.5291 13.68 24.12C13.5216 24.0804 13.3632 24.0408 13.2 24C13.2792 23.9604 13.3584 23.9208 13.44 23.88C13.4829 23.5816 13.4932 23.2863 13.507 22.9852C13.5678 22.6351 13.6886 22.4647 13.92 22.2Z" fill="#0A56F1"/>
<path id="Vector_11" d="M12.0001 23.88C12.0793 23.9592 12.1585 24.0384 12.2401 24.12C12.1188 24.1076 11.9975 24.0953 11.8726 24.0825C11.2546 24.1316 11.0337 24.3334 10.5601 24.72C10.5601 24.36 10.5601 24.36 10.7251 24.165C11.1333 23.8196 11.477 23.852 12.0001 23.88Z" fill="#0A56F1"/>
<path id="Vector_12" d="M42.48 30.72C42.5368 30.756 42.5935 30.7921 42.652 30.8292C43.316 31.211 43.7766 31.2383 44.52 31.08C44.4804 31.1988 44.4408 31.3176 44.4 31.44C43.2389 31.5226 43.2389 31.5226 42.765 31.215C42.6709 31.1309 42.5769 31.0467 42.48 30.96C42.48 30.8808 42.48 30.8016 42.48 30.72Z" fill="#0A56F1"/>
<path id="Vector_13" d="M13.0801 42.12C13.1593 42.1596 13.2385 42.1992 13.3201 42.24C13.1659 42.4207 13.0108 42.6005 12.8551 42.78C12.7256 42.9304 12.7256 42.9304 12.5936 43.0837C12.5165 43.1617 12.4395 43.2397 12.3601 43.32C12.2809 43.32 12.2017 43.32 12.1201 43.32C12.2919 42.7187 12.5983 42.4866 13.0801 42.12Z" fill="#0A56F1"/>
<path id="Vector_14" d="M14.5199 27.12C14.5991 27.1596 14.6783 27.1992 14.7599 27.24C14.6484 27.3783 14.5357 27.5156 14.4224 27.6525C14.3285 27.7674 14.3285 27.7674 14.2326 27.8845C14.0399 28.08 14.0399 28.08 13.6799 28.2C13.8665 27.742 14.1642 27.457 14.5199 27.12Z" fill="#0A56F1"/>
<path id="Vector_15" d="M31.8001 18.96C31.8397 19.0788 31.8793 19.1976 31.9201 19.32C31.7253 19.5251 31.5249 19.7249 31.3201 19.92C31.2409 19.92 31.1617 19.92 31.0801 19.92C31.2532 19.5161 31.48 19.2587 31.8001 18.96Z" fill="#0A56F1"/>
<path id="Vector_16" d="M54.8401 39.12C54.8797 39.2388 54.9193 39.3576 54.9601 39.48C54.7621 39.678 54.5641 39.876 54.3601 40.08C54.3601 39.6 54.3601 39.6 54.6001 39.33C54.7189 39.226 54.7189 39.226 54.8401 39.12Z" fill="#0A56F1"/>
</g>
<defs>
<clipPath id="clip0_315_491">
<rect width="60" height="60" fill="white"/>
</clipPath>
</defs>
</svg>
