<svg width="60" height="60" viewBox="0 0 60 60" fill="none" xmlns="http://www.w3.org/2000/svg">
<g id="iteration-removebg-preview 1" clip-path="url(#clip0_315_512)">
<path id="Vector" d="M11.3668 -0.0595347C11.5003 -0.0597966 11.5003 -0.0597966 11.6366 -0.0600638C11.8243 -0.0598651 12.012 -0.0584814 12.1997 -0.0559897C12.487 -0.0525097 12.7742 -0.0535182 13.0616 -0.0550815C13.2441 -0.0543332 13.4267 -0.0533263 13.6093 -0.0520347C13.6952 -0.0523869 13.781 -0.0527392 13.8695 -0.0531022C14.2137 -0.0465637 14.4603 -0.040365 14.7501 0.15527C14.978 0.514297 15.0125 0.92921 15.0751 1.3425C15.0969 1.47394 15.0969 1.47394 15.1191 1.60804C15.214 2.19035 15.2898 2.77426 15.3601 3.36C15.7701 3.55083 16.1068 3.62991 16.5601 3.6C17.0388 3.37289 17.4447 3.03566 17.8562 2.70609C18.6971 2.03361 18.6971 2.03361 19.2396 2.05784C19.7523 2.17674 19.9415 2.33166 20.3091 2.70187C20.4196 2.81247 20.53 2.92307 20.6438 3.03703C20.7278 3.12401 20.7278 3.12401 20.8135 3.21275C20.985 3.38997 21.1596 3.56374 21.3348 3.73734C22.2819 4.6992 22.2819 4.6992 22.3201 5.28C22.1544 5.72194 21.9182 6.06335 21.6235 6.42609C21.5335 6.53712 21.5335 6.53712 21.4416 6.65039C21.3168 6.80235 21.1896 6.95237 21.0601 7.10039C20.8751 7.33352 20.7406 7.51932 20.6401 7.8C20.6955 8.193 20.8253 8.52519 21.0001 8.88C21.0891 8.89629 21.1781 8.91258 21.2697 8.92936C21.6726 9.00396 22.0751 9.0807 22.4776 9.1575C22.6176 9.1831 22.7577 9.2087 22.902 9.23507C23.0362 9.26099 23.1704 9.2869 23.3087 9.31359C23.4325 9.33684 23.5563 9.36009 23.6838 9.38405C24.0345 9.49044 24.1655 9.53032 24.3601 9.84C24.3997 10.1568 24.4393 10.4736 24.4801 10.8C25.5097 10.8 26.5393 10.8 27.6001 10.8C27.586 9.98518 27.586 9.98518 27.5676 9.17045C27.5575 7.99718 27.7567 7.06379 28.5793 6.20297C29.2521 5.58439 29.8313 5.38209 30.7415 5.38234C30.8298 5.3819 30.9181 5.38145 31.0091 5.381C31.3059 5.37967 31.6027 5.37921 31.8995 5.37876C32.112 5.378 32.3245 5.37721 32.537 5.37637C33.2356 5.37384 33.9341 5.3726 34.6327 5.3714C34.8732 5.37092 35.1137 5.37042 35.3542 5.36992C36.4842 5.36763 37.6142 5.36593 38.7442 5.36493C40.0483 5.36375 41.3525 5.3606 42.6566 5.35575C43.6648 5.35213 44.6729 5.35035 45.681 5.34995C46.283 5.34967 46.8851 5.3486 47.4871 5.34558C48.0538 5.34278 48.6204 5.34228 49.187 5.34351C49.3946 5.34357 49.6023 5.34281 49.8099 5.34116C50.9835 5.33237 51.8531 5.34318 52.8249 6.08109C53.5997 6.87094 53.8983 7.68445 53.8918 8.79609C53.8914 8.91327 53.891 9.03044 53.8906 9.15117C53.8896 9.27206 53.8886 9.39295 53.8876 9.5175C53.887 9.64071 53.8865 9.76391 53.8859 9.89086C53.8845 10.1939 53.8825 10.497 53.8801 10.8C53.9668 10.7978 54.0536 10.7956 54.143 10.7934C55.4324 10.7746 56.4759 11.031 57.4763 11.8828C58.6947 13.0684 59.1486 14.3332 59.1753 16.007C59.176 16.1925 59.1761 16.378 59.1756 16.5635C59.1759 16.7172 59.1759 16.7172 59.1762 16.8739C59.1768 17.2094 59.1764 17.5449 59.176 17.8805C59.1761 18.1165 59.1762 18.3525 59.1764 18.5885C59.1765 19.0824 59.1763 19.5763 59.1757 20.0703C59.175 20.6981 59.1754 21.326 59.1761 21.9538C59.1766 22.4413 59.1764 22.9288 59.1761 23.4163C59.176 23.6475 59.1761 23.8787 59.1764 24.1099C59.1792 27.0521 59.1768 29.611 57.0409 31.882C55.4727 33.4344 53.6914 33.9923 51.5272 33.9872C51.3313 33.986 51.1355 33.9847 50.9396 33.9834C50.7367 33.983 50.5337 33.9826 50.3308 33.9824C49.7999 33.9815 49.2691 33.9791 48.7382 33.9765C48.1952 33.974 47.6522 33.9729 47.1092 33.9717C46.0462 33.9692 44.9831 33.9651 43.9201 33.96C43.8873 34.1073 43.8546 34.2547 43.8209 34.4064C43.7774 34.6022 43.7339 34.7979 43.6904 34.9937C43.6689 35.0905 43.6474 35.1873 43.6252 35.287C43.2868 36.8103 43.2868 36.8103 43.1326 37.4775C43.1091 37.5829 43.0857 37.6883 43.0616 37.797C42.8227 38.8232 42.8227 38.8232 42.4801 39.24C41.9318 39.5388 41.3988 39.514 40.7915 39.5113C40.6267 39.512 40.6267 39.512 40.4586 39.5127C40.0904 39.5139 39.7222 39.5134 39.354 39.513C39.09 39.5135 38.8261 39.5141 38.5622 39.5148C37.8451 39.5164 37.1281 39.5165 36.4111 39.5162C35.8129 39.5161 35.2147 39.5166 34.6164 39.5172C33.1247 39.5186 31.633 39.5185 30.1413 39.5178C28.8458 39.5171 27.5504 39.5185 26.2549 39.5208C24.9245 39.5231 23.5941 39.524 22.2637 39.5236C21.5169 39.5234 20.7701 39.5237 20.0232 39.5254C19.3212 39.5269 18.6191 39.5267 17.917 39.5251C17.6591 39.5248 17.4013 39.5252 17.1434 39.5261C16.7918 39.5274 16.4402 39.5264 16.0887 39.5249C15.9862 39.5258 15.8838 39.5267 15.7783 39.5276C15.0755 39.5212 14.6695 39.3895 14.1601 38.88C14.0496 37.8225 14.3734 36.8257 14.6401 35.8125C14.6864 35.6325 14.7327 35.4524 14.7788 35.2723C14.8912 34.8345 15.0052 34.3971 15.1201 33.96C14.0674 33.9646 13.0148 33.9717 11.9622 33.9821C11.4732 33.9868 10.9843 33.9907 10.4953 33.9925C10.0222 33.9944 9.54921 33.9985 9.07614 34.0042C8.89691 34.006 8.71767 34.0069 8.53843 34.007C6.83247 34.009 5.28054 34.2737 3.99522 35.4708C2.56306 37.0117 2.60221 38.936 2.60397 40.9097C2.60351 41.1285 2.60299 41.3473 2.60241 41.5662C2.60152 42.0227 2.60155 42.4791 2.60219 42.9356C2.60288 43.5184 2.60084 44.1011 2.59806 44.6838C2.59629 45.1349 2.59619 45.5861 2.59657 46.0372C2.5965 46.252 2.59588 46.4668 2.59467 46.6816C2.53817 48.4624 2.53817 48.4624 3.28507 50.025C4.05287 50.6465 4.64347 50.7679 5.61991 50.798C5.77498 50.803 5.93006 50.808 6.08983 50.8132C6.25241 50.818 6.41499 50.8227 6.57757 50.8275C6.74249 50.8327 6.90741 50.8379 7.07233 50.8432C7.4749 50.8559 7.87747 50.8682 8.28007 50.88C8.2763 50.7531 8.2763 50.7531 8.27245 50.6236C8.26237 50.2341 8.2562 49.8446 8.25007 49.455C8.24604 49.322 8.24202 49.1889 8.23788 49.0519C8.22582 48.0265 8.36337 47.189 9.00522 46.3655C9.13261 46.2576 9.13261 46.2576 9.26257 46.1475C9.34594 46.0734 9.42932 45.9993 9.51522 45.923C10.2761 45.4475 11.0646 45.3063 11.9493 45.3143C12.0469 45.3137 12.1446 45.3132 12.2452 45.3126C12.5694 45.3112 12.8935 45.3123 13.2176 45.3134C13.4513 45.3129 13.685 45.3123 13.9187 45.3115C14.5511 45.3099 15.1836 45.3105 15.8161 45.3116C16.4791 45.3126 17.1421 45.3117 17.8051 45.3111C18.9184 45.3105 20.0316 45.3113 21.1449 45.3131C22.4305 45.315 23.7161 45.3144 25.0018 45.3124C26.1072 45.3108 27.2125 45.3105 28.3179 45.3115C28.9774 45.312 29.6369 45.3121 30.2964 45.3109C30.9166 45.3099 31.5367 45.3106 32.1568 45.3127C32.3839 45.3132 32.611 45.313 32.8381 45.3122C33.1491 45.3112 33.4599 45.3125 33.7709 45.3143C33.8599 45.3135 33.949 45.3127 34.0407 45.3118C35.0595 45.3231 35.8896 45.6259 36.6329 46.3233C37.2025 46.9741 37.4561 47.7155 37.4518 48.5714C37.4515 48.6923 37.4512 48.8132 37.4509 48.9378C37.4492 49.1678 37.4492 49.1678 37.4476 49.4025C37.4451 49.8901 37.4426 50.3776 37.4401 50.88C39.3409 50.88 41.2417 50.88 43.2001 50.88C43.1811 49.1406 43.1811 49.1406 43.1568 47.4014C43.1554 47.182 43.1542 46.9626 43.1532 46.7433C43.1507 46.631 43.1483 46.5187 43.1458 46.403C43.1454 45.6679 43.2526 45.2427 43.6801 44.64C43.9243 44.4047 43.9243 44.4047 44.1676 44.235C44.2482 44.1771 44.3288 44.1193 44.4118 44.0597C44.7841 43.8319 45.0935 43.7847 45.5198 43.7823C45.6259 43.7815 45.7321 43.7806 45.8414 43.7797C45.9576 43.7794 46.0737 43.7791 46.1934 43.7788C46.3159 43.778 46.4385 43.7772 46.5648 43.7764C46.9712 43.774 47.3776 43.7726 47.784 43.7714C47.9228 43.7709 48.0616 43.7704 48.2046 43.7699C48.9394 43.7674 49.6742 43.7657 50.4091 43.7646C51.1675 43.7632 51.926 43.7591 52.6844 43.7544C53.268 43.7512 53.8516 43.7502 54.4352 43.7498C54.7148 43.7492 54.9943 43.7478 55.2739 43.7456C55.6657 43.7427 56.0573 43.7428 56.4491 43.7436C56.6215 43.7413 56.6215 43.7413 56.7974 43.7389C57.6413 43.7455 58.3146 43.9187 58.9271 44.5242C58.9817 44.6045 59.0363 44.6848 59.0926 44.7675C59.1493 44.8481 59.2061 44.9287 59.2646 45.0117C59.4854 45.3838 59.5354 45.6919 59.5377 46.1152C59.539 46.2729 59.539 46.2729 59.5403 46.4337C59.5407 46.5488 59.541 46.6638 59.5413 46.7823C59.5421 46.9037 59.5429 47.0251 59.5437 47.1502C59.5461 47.5527 59.5475 47.9552 59.5487 48.3577C59.5492 48.4951 59.5496 48.6326 59.5501 48.7743C59.5527 49.5021 59.5544 50.2299 59.5555 50.9577C59.5568 51.7089 59.5609 52.4601 59.5657 53.2113C59.5689 53.7893 59.5699 54.3674 59.5703 54.9454C59.5709 55.2223 59.5723 55.4992 59.5745 55.776C59.5774 56.1641 59.5773 56.552 59.5765 56.9401C59.5788 57.1108 59.5788 57.1108 59.5811 57.2849C59.5746 58.1266 59.3854 58.7686 58.8221 59.407C58.753 59.4616 58.6838 59.5162 58.6126 59.5725C58.5431 59.6293 58.4737 59.686 58.4021 59.7445C58.0427 59.9855 57.7263 60.0155 57.3067 60.0185C57.1975 60.0195 57.0883 60.0205 56.9759 60.0216C56.8564 60.0221 56.7369 60.0226 56.6137 60.0231C56.4876 60.0241 56.3616 60.0251 56.2316 60.0261C55.8136 60.0291 55.3955 60.0311 54.9774 60.0328C54.8346 60.0334 54.6919 60.0341 54.5448 60.0347C53.7889 60.038 53.0331 60.0403 52.2773 60.042C51.497 60.044 50.7168 60.0494 49.9365 60.0555C49.3362 60.0595 48.736 60.0609 48.1357 60.0616C47.8481 60.0624 47.5605 60.0642 47.2729 60.0671C46.8699 60.0709 46.4671 60.0709 46.064 60.07C45.9458 60.072 45.8275 60.074 45.7056 60.076C44.9282 60.069 44.3965 59.9119 43.8001 59.4C43.3855 58.8685 43.1846 58.455 43.1864 57.7834C43.1865 57.6738 43.1865 57.5642 43.1865 57.4513C43.1871 57.3366 43.1877 57.2218 43.1884 57.1036C43.1885 56.9449 43.1885 56.9449 43.1887 56.783C43.1893 56.3878 43.191 55.9927 43.1926 55.5975C43.195 54.7139 43.1975 53.8303 43.2001 52.92C41.2993 52.92 39.3985 52.92 37.4401 52.92C37.4589 53.8533 37.4589 53.8533 37.4833 54.7865C37.4941 55.8558 37.3166 56.771 36.5851 57.585C35.4055 58.602 34.0593 58.5089 32.5887 58.5021C32.3529 58.5028 32.117 58.5036 31.8812 58.5047C31.2432 58.5068 30.6053 58.506 29.9674 58.5045C29.2983 58.5033 28.6293 58.5044 27.9603 58.5051C26.8369 58.506 25.7136 58.5049 24.5903 58.5026C23.2934 58.5 21.9965 58.5008 20.6996 58.5035C19.5841 58.5056 18.4687 58.5059 17.3532 58.5047C16.6879 58.5039 16.0225 58.5038 15.3572 58.5054C14.7315 58.5068 14.1059 58.5058 13.4802 58.5031C13.2513 58.5024 13.0223 58.5026 12.7933 58.5037C10.2132 58.5145 10.2132 58.5145 9.13507 57.585C8.28419 56.6383 8.21311 55.5673 8.25007 54.345C8.25223 54.2073 8.2544 54.0697 8.25663 53.9278C8.26223 53.5918 8.27008 53.2559 8.28007 52.92C8.16038 52.9231 8.04069 52.9263 7.91737 52.9295C7.46652 52.9405 7.01568 52.9473 6.56473 52.953C6.37085 52.9559 6.17697 52.96 5.98313 52.9653C4.48507 53.0047 3.15285 52.9001 1.99507 51.8175C1.15732 51.0094 0.488075 49.9939 0.447975 48.802C0.445831 48.5995 0.444991 48.397 0.445203 48.1945C0.444397 48.0834 0.443591 47.9722 0.442761 47.8577C0.440486 47.4912 0.440012 47.1248 0.439754 46.7583C0.438982 46.5021 0.438175 46.2459 0.437333 45.9897C0.435897 45.4525 0.435452 44.9154 0.435594 44.3782C0.435618 43.6934 0.432349 43.0086 0.428208 42.3238C0.425525 41.7943 0.425053 41.2649 0.42518 40.7354C0.424898 40.4831 0.423848 40.2309 0.421981 39.9786C0.405111 37.4632 0.831821 35.682 2.64007 33.84C2.71401 33.7631 2.78795 33.6862 2.86413 33.607C4.59831 31.9436 6.82989 31.7767 9.11093 31.791C9.36217 31.7925 9.61339 31.7933 9.86463 31.7939C10.3964 31.7952 10.9283 31.7975 11.4601 31.8C12.0802 31.8028 12.7004 31.8053 13.3206 31.8067C13.5678 31.8075 13.815 31.809 14.0622 31.8105C14.2864 31.8111 14.2864 31.8111 14.5151 31.8117C14.6468 31.8123 14.7785 31.813 14.9141 31.8136C15.2517 31.8146 15.2517 31.8146 15.6001 31.68C15.7125 31.3384 15.8011 31.0108 15.8808 30.6614C15.9183 30.5075 15.9183 30.5076 15.9566 30.3506C16.0637 29.9107 16.1673 29.4699 16.2709 29.0291C16.347 28.7079 16.4251 28.3871 16.5033 28.0664C16.5373 27.9171 16.5373 27.9171 16.572 27.7648C16.7048 27.2219 16.8178 26.8735 17.2801 26.52C17.6824 26.3188 18.1365 26.3818 18.579 26.3815C18.69 26.381 18.8011 26.3805 18.9154 26.3799C19.2897 26.3783 19.664 26.3776 20.0383 26.3769C20.3058 26.3759 20.5732 26.3749 20.8406 26.3739C21.7208 26.3707 22.601 26.3689 23.4812 26.3672C23.7837 26.3665 24.0863 26.3659 24.3889 26.3652C25.6472 26.3627 26.9054 26.3604 28.1637 26.3591C28.4902 26.3587 28.8168 26.3583 29.1434 26.358C29.2652 26.3579 29.2652 26.3579 29.3894 26.3577C30.7046 26.3562 32.0199 26.3522 33.3351 26.3472C34.6851 26.3421 36.035 26.3393 37.3849 26.3387C38.143 26.3382 38.9011 26.3368 39.6592 26.3329C40.3722 26.3293 41.0852 26.3285 41.7982 26.3299C42.0602 26.33 42.3221 26.329 42.5841 26.3269C42.9412 26.3242 43.2982 26.3251 43.6554 26.327C43.7595 26.3254 43.8635 26.3237 43.9708 26.322C44.4888 26.3288 44.6992 26.354 45.1251 26.676C45.4662 27.1464 45.4368 27.5282 45.3601 28.08C45.2395 28.7274 45.0924 29.367 44.9401 30.0075C44.8651 30.3272 44.7901 30.647 44.7153 30.9668C44.6781 31.1256 44.6409 31.2845 44.6036 31.4433C44.5761 31.561 44.5485 31.6787 44.5201 31.8C45.4809 31.8056 46.4417 31.8098 47.4026 31.8124C47.8489 31.8137 48.2952 31.8154 48.7415 31.8181C49.1733 31.8207 49.6051 31.8222 50.0369 31.8228C50.2794 31.8234 50.5218 31.8253 50.7643 31.8272C52.4759 31.8274 53.9625 31.6144 55.3651 30.5625C56.0699 29.8409 56.5124 29.0565 56.7601 28.08C56.7911 27.9605 56.7911 27.9605 56.8227 27.8386C56.9055 27.3208 56.9008 26.8089 56.9032 26.2853C56.9042 26.1654 56.9052 26.0455 56.9062 25.922C56.9092 25.5259 56.9111 25.1297 56.9129 24.7336C56.9135 24.598 56.9142 24.4623 56.9148 24.3226C56.918 23.6046 56.9203 22.8866 56.9221 22.1686C56.9237 21.5756 56.927 20.9826 56.9319 20.3896C56.9379 19.6723 56.9408 18.955 56.9417 18.2377C56.9425 17.9651 56.9443 17.6924 56.9472 17.4198C56.951 17.0372 56.951 16.6549 56.9501 16.2723C56.953 16.1052 56.953 16.1052 56.9561 15.9346C56.9483 15.1119 56.7253 14.4926 56.2801 13.8C55.74 13.2731 55.2578 13.0584 54.5101 13.005C54.3328 12.9915 54.3328 12.9915 54.1519 12.9778C54.0622 12.9719 53.9725 12.9661 53.8801 12.96C53.882 13.0337 53.8838 13.1074 53.8858 13.1833C53.8934 13.5239 53.898 13.8644 53.9026 14.205C53.9071 14.3788 53.9071 14.3788 53.9117 14.5561C53.9236 15.733 53.7363 16.6905 52.9084 17.557C52.1647 18.2182 51.4744 18.3743 50.4995 18.3785C50.4127 18.379 50.3259 18.3795 50.2365 18.3801C49.9456 18.3817 49.6547 18.3824 49.3638 18.3831C49.1553 18.3841 48.9467 18.3851 48.7381 18.3861C48.0531 18.3893 47.368 18.3911 46.6829 18.3928C46.4468 18.3935 46.2107 18.3941 45.9746 18.3947C44.9924 18.3973 44.0101 18.3996 43.0278 18.4009C41.6214 18.4029 40.2151 18.4069 38.8087 18.4137C37.8191 18.4184 36.8296 18.4207 35.84 18.4213C35.2493 18.4218 34.6587 18.4232 34.0681 18.4271C33.5119 18.4307 32.9559 18.4315 32.3997 18.4301C32.1963 18.43 31.9928 18.431 31.7894 18.4331C30.5522 18.4453 29.5125 18.3964 28.5446 17.5318C27.8145 16.8109 27.5848 15.9147 27.5649 14.9053C27.5669 14.6718 27.5715 14.4384 27.5776 14.205C27.585 13.7941 27.5924 13.3833 27.6001 12.96C26.5705 12.96 25.5409 12.96 24.4801 12.96C24.4405 13.2372 24.4009 13.5144 24.3601 13.8C24.0448 14.2451 23.772 14.4257 23.2501 14.5373C23.0604 14.5666 22.8704 14.5932 22.6801 14.6175C22.5371 14.6392 22.5371 14.6392 22.3913 14.6613C21.9247 14.7294 21.4728 14.7781 21.0001 14.76C20.9629 14.8714 20.9258 14.9827 20.8876 15.0975C20.8051 15.345 20.7226 15.5925 20.6401 15.84C20.7537 16.0662 20.7537 16.0662 20.9349 16.2919C20.9992 16.379 21.0635 16.4661 21.1297 16.5558C21.2669 16.7367 21.404 16.9177 21.5412 17.0986C21.9343 17.6311 22.2106 18.0614 22.3201 18.72C22.0653 19.3686 21.6861 19.7269 21.1543 20.1633C20.7285 20.5308 20.3513 20.9448 19.9674 21.3553C19.6503 21.6253 19.4936 21.7058 19.0801 21.72C18.4098 21.5541 17.8864 21.0382 17.3644 20.607C16.9454 20.2815 16.7736 20.1574 16.2254 20.1727C15.9752 20.2424 15.7265 20.3179 15.4801 20.4C15.2807 20.998 15.2111 21.5903 15.1351 22.215C15.0471 22.8612 14.9699 23.2829 14.5201 23.76C13.9237 23.9588 13.3037 23.9117 12.6791 23.9154C12.5168 23.9168 12.3546 23.9193 12.1924 23.9228C11.9574 23.9279 11.7223 23.9296 11.4873 23.9311C11.2767 23.9337 11.2767 23.9337 11.0619 23.9364C10.5987 23.868 10.4051 23.7321 10.0801 23.4C9.85571 22.734 9.77874 22.0569 9.70507 21.36C9.6947 21.267 9.68434 21.1741 9.67366 21.0783C9.64855 20.8522 9.62422 20.6261 9.60007 20.4C8.88142 20.152 8.88142 20.152 8.16007 20.28C7.82781 20.4835 7.51428 20.7098 7.20007 20.94C6.12621 21.7266 6.12621 21.7266 5.64007 21.72C5.15639 21.5004 4.8277 21.1699 4.46257 20.79C4.01668 20.3334 3.56128 19.9053 3.07132 19.4967C2.77457 19.2225 2.64685 19.0204 2.60163 18.6178C2.6465 18.1768 2.76773 17.9601 3.01507 17.595C3.09086 17.4811 3.16666 17.3673 3.24475 17.25C3.45429 16.9561 3.67355 16.6758 3.90007 16.395C4.16575 16.0594 4.16575 16.0594 4.19257 15.6375C4.13688 15.5001 4.13688 15.5001 4.08007 15.36C4.03791 15.1604 3.99763 14.9605 3.96007 14.76C3.82711 14.7512 3.82711 14.7512 3.69147 14.7422C3.06391 14.6959 2.43788 14.6408 1.81507 14.55C1.66332 14.5287 1.66332 14.5287 1.5085 14.5069C1.0868 14.3608 0.76604 14.1394 0.480066 13.8C0.390711 13.387 0.390711 13.387 0.392879 12.9183C0.392759 12.835 0.39264 12.7518 0.392516 12.666C0.393076 12.4908 0.395397 12.3156 0.399383 12.1405C0.405061 11.8728 0.404315 11.6056 0.402723 11.3379C0.412837 10.0477 0.412837 10.0477 0.699676 9.67347C1.05796 9.40726 1.37721 9.35527 1.81507 9.2775C1.89435 9.26306 1.97364 9.24863 2.05533 9.23376C2.68713 9.12238 3.32015 9.04366 3.96007 9C4.13928 8.46235 4.23936 8.10682 4.08007 7.56C3.93579 7.31291 3.93579 7.31291 3.74913 7.08468C3.68401 6.99837 3.61888 6.91205 3.55179 6.82312C3.41407 6.6445 3.27532 6.46668 3.13554 6.28968C2.80456 5.84734 2.64118 5.62848 2.63538 5.0625C2.75271 4.70256 2.83262 4.51392 3.09007 4.245C3.16509 4.16657 3.24011 4.08814 3.31741 4.00734C3.41069 3.91252 3.50396 3.81769 3.60007 3.72C3.72324 3.58565 3.84619 3.4511 3.96897 3.3164C4.10331 3.17325 4.23784 3.03028 4.37257 2.8875C4.43556 2.81787 4.49856 2.74824 4.56347 2.6765C4.95741 2.26988 5.29117 2.02854 5.86867 1.99719C6.38576 2.08523 6.76204 2.42501 7.16257 2.745C7.33735 2.88058 7.5128 3.0153 7.68897 3.14906C7.76519 3.20952 7.8414 3.26999 7.91992 3.33228C8.20535 3.50785 8.42761 3.56412 8.76007 3.6C9.20833 3.49628 9.20833 3.49628 9.60007 3.36C9.60888 3.24421 9.60888 3.24421 9.61788 3.12609C9.67092 2.48508 9.73601 1.84551 9.81757 1.2075C9.83319 1.08019 9.84881 0.952881 9.86491 0.821715C10.0904 0.0120012 10.6031 -0.0715564 11.3668 -0.0595347ZM11.8801 1.92C11.7098 2.64978 11.5793 3.37323 11.4793 4.11609C11.3892 4.48448 11.3126 4.65602 11.0401 4.92C10.6585 5.08547 10.6585 5.08547 10.2151 5.2275C9.60921 5.42123 9.60921 5.42123 9.05163 5.71828C8.6658 5.93228 8.47728 5.9526 8.04007 5.88C7.68956 5.69031 7.37596 5.45886 7.05757 5.22C6.88889 5.09551 6.71969 4.97173 6.54991 4.84875C6.47594 4.79345 6.40197 4.73815 6.32576 4.68117C6.10816 4.52954 6.10816 4.52954 5.76007 4.56C5.56146 4.68927 5.56146 4.68927 5.37757 4.86C5.26619 4.959 5.15482 5.058 5.04007 5.16C5.2174 5.68425 5.49005 6.06638 5.82757 6.5025C6.53868 7.42523 6.53868 7.42523 6.48007 8.16C6.37272 8.49456 6.23034 8.80906 6.08257 9.1275C6.04552 9.2108 6.00847 9.2941 5.9703 9.37992C5.89714 9.5421 5.82162 9.70325 5.74357 9.86314C5.62785 10.0975 5.62785 10.0975 5.51163 10.4227C5.11797 10.8601 4.57555 10.866 4.01257 10.95C3.78237 10.9879 3.55221 11.026 3.3221 11.0644C3.22007 11.08 3.11805 11.0957 3.01293 11.1118C2.75451 11.1492 2.75451 11.1492 2.52007 11.28C2.52007 11.676 2.52007 12.072 2.52007 12.48C2.69641 12.5105 2.87275 12.5409 3.05444 12.5723C3.28633 12.614 3.5182 12.6557 3.75007 12.6975C3.86624 12.7174 3.98241 12.7373 4.1021 12.7577C4.21425 12.7782 4.3264 12.7987 4.44194 12.8198C4.545 12.8381 4.64806 12.8563 4.75425 12.8751C5.07846 12.9714 5.27028 13.0934 5.52007 13.32C5.68554 13.6711 5.68554 13.6711 5.82757 14.0775C5.9722 14.4858 6.11143 14.8641 6.31835 15.2452C6.51046 15.6667 6.56109 15.862 6.48007 16.32C6.27144 16.6991 6.01993 17.0397 5.76007 17.385C5.69139 17.479 5.6227 17.5731 5.55194 17.67C5.3828 17.9012 5.21218 18.131 5.04007 18.36C5.25313 18.7247 5.44557 19.0355 5.76007 19.32C6.32414 19.0765 6.79391 18.6737 7.27249 18.2948C7.77864 17.9162 8.10863 17.7943 8.76007 17.88C9.09288 17.9944 9.09288 17.9944 9.40507 18.15C9.88973 18.3904 9.88973 18.3904 10.3923 18.5887C11.0781 18.83 11.0781 18.83 11.2983 19.1794C11.5294 19.8185 11.6109 20.5093 11.7085 21.1795C11.7449 21.4786 11.7449 21.4786 11.8801 21.72C12.2761 21.72 12.6721 21.72 13.0801 21.72C13.13 21.4534 13.13 21.4534 13.1808 21.1814C13.2247 20.9484 13.2686 20.7155 13.3126 20.4825C13.3345 20.3653 13.3563 20.2481 13.3789 20.1274C13.4002 20.0149 13.4214 19.9023 13.4433 19.7864C13.4726 19.6309 13.4726 19.6309 13.5024 19.4722C13.5601 19.2 13.5601 19.2 13.6801 18.84C13.9121 18.7472 13.9121 18.7472 14.2126 18.675C14.7866 18.5216 15.2643 18.2951 15.7777 17.9986C16.1901 17.8368 16.4796 17.8295 16.9201 17.88C17.2138 18.0433 17.4529 18.1952 17.7151 18.3975C18.1595 18.7261 18.5999 19.0442 19.0801 19.32C19.3573 19.0428 19.6345 18.7656 19.9201 18.48C19.5629 17.9358 19.2122 17.412 18.7951 16.9125C18.5097 16.5308 18.3772 16.2292 18.4168 15.735C18.52 15.3193 18.7115 14.9636 18.9207 14.5917C19.0838 14.2728 19.1658 13.9719 19.2601 13.6275C19.3754 13.328 19.3754 13.328 19.5601 13.08C20.0662 12.8581 20.5751 12.7916 21.1201 12.72C21.3529 12.6741 21.5855 12.6268 21.8176 12.5775C21.9834 12.5453 22.1492 12.5131 22.3201 12.48C22.3201 12.084 22.3201 11.688 22.3201 11.28C21.6345 11.0954 20.966 10.9813 20.2599 10.9027C19.7439 10.7468 19.4662 10.4485 19.1945 9.98651C19.0743 9.74845 18.9671 9.50781 18.8626 9.2625C18.8252 9.18167 18.7879 9.10085 18.7494 9.01758C18.4904 8.42275 18.3965 7.96833 18.4801 7.32C18.6404 6.99786 18.8465 6.72879 19.0726 6.45C19.5364 5.86121 19.5364 5.86121 19.8001 5.16C19.5229 4.9224 19.2457 4.6848 18.9601 4.44C18.8212 4.54395 18.6822 4.6479 18.5391 4.755C18.3545 4.89009 18.1698 5.02508 17.9851 5.16C17.8938 5.22868 17.8025 5.29736 17.7085 5.36812C17.3145 5.65342 17.0252 5.86166 16.5413 5.94609C15.987 5.83873 15.5267 5.58812 15.0244 5.33812C14.6999 5.18771 14.4305 5.10669 14.0851 5.0325C13.6801 4.8 13.6801 4.8 13.5507 4.47797C13.4518 4.06644 13.3819 3.65864 13.3201 3.24C13.2731 2.98739 13.2257 2.73488 13.1776 2.4825C13.1293 2.20406 13.1293 2.20406 13.0801 1.92C12.6841 1.92 12.2881 1.92 11.8801 1.92ZM29.8801 7.8C29.7164 8.12725 29.7439 8.38727 29.7426 8.75361C29.7419 8.9034 29.7411 9.05319 29.7403 9.20752C29.7401 9.37178 29.74 9.53605 29.7399 9.70031C29.7395 9.86831 29.7391 10.0363 29.7387 10.2043C29.738 10.5568 29.7378 10.9093 29.7378 11.2617C29.7378 11.7131 29.7362 12.1645 29.7341 12.6159C29.7328 12.963 29.7326 13.3102 29.7326 13.6573C29.7325 13.8237 29.732 13.9901 29.731 14.1565C29.7298 14.3894 29.7303 14.6224 29.7309 14.8553C29.7307 14.9878 29.7306 15.1204 29.7304 15.2569C29.76 15.5987 29.8118 15.7959 30.0001 16.08C30.3534 16.2567 30.6683 16.2168 31.0629 16.2185C31.1486 16.219 31.2342 16.2195 31.3224 16.2201C31.6107 16.2217 31.8991 16.2224 32.1874 16.2231C32.3936 16.2241 32.5997 16.2251 32.8059 16.2261C33.484 16.2293 34.1622 16.2311 34.8404 16.2328C35.0736 16.2335 35.3068 16.2341 35.54 16.2347C36.5097 16.2373 37.4794 16.2396 38.4491 16.2409C39.8403 16.2429 41.2315 16.2469 42.6227 16.2537C43.6001 16.2583 44.5775 16.2607 45.555 16.2613C46.1392 16.2618 46.7233 16.2632 47.3075 16.2671C47.857 16.2707 48.4063 16.2715 48.9557 16.2701C49.1576 16.27 49.3594 16.271 49.5612 16.2731C49.8365 16.2758 50.1115 16.2749 50.3867 16.273C50.5408 16.2734 50.6949 16.2738 50.8537 16.2742C51.2594 16.2331 51.2594 16.2331 51.5297 15.9174C51.7598 15.5338 51.7795 15.302 51.7784 14.8565C51.7791 14.7092 51.7798 14.5618 51.7806 14.41C51.7789 14.2518 51.7772 14.0937 51.7754 13.9308C51.7751 13.766 51.775 13.6012 51.775 13.4364C51.7747 13.0917 51.7727 12.7471 51.7695 12.4024C51.7654 11.9611 51.7645 11.5198 51.7647 11.0785C51.7646 10.7385 51.7633 10.3984 51.7615 10.0584C51.7604 9.81672 51.76 9.57503 51.7596 9.33333C51.758 9.18635 51.7565 9.03937 51.7549 8.88794C51.754 8.75864 51.7531 8.62935 51.7522 8.49613C51.7194 8.15326 51.6779 7.96033 51.4801 7.68C51.0536 7.39637 50.6704 7.40954 50.1674 7.40871C50.0836 7.40825 49.9998 7.40779 49.9135 7.40732C49.6328 7.40608 49.3521 7.40656 49.0714 7.40704C48.8702 7.40652 48.6689 7.40589 48.4676 7.40518C47.9209 7.40357 47.3743 7.4035 46.8276 7.40381C46.3713 7.40393 45.915 7.40335 45.4588 7.40277C44.3824 7.40144 43.3061 7.40139 42.2297 7.40212C41.119 7.40284 40.0084 7.40136 38.8977 7.39881C37.9443 7.39669 36.9909 7.39597 36.0376 7.39636C35.468 7.39658 34.8986 7.39626 34.3291 7.3946C33.7935 7.39309 33.258 7.39332 32.7225 7.39489C32.526 7.39517 32.3294 7.39484 32.1329 7.39385C31.8646 7.3926 31.5963 7.39357 31.328 7.39509C31.1779 7.39507 31.0277 7.39505 30.873 7.39503C30.4468 7.44381 30.2202 7.54314 29.8801 7.8ZM18.6001 28.56C17.1505 32.8939 17.1505 32.8939 16.4401 37.32C24.5185 37.32 32.5969 37.32 40.9201 37.32C41.6621 34.4585 41.6621 34.4585 42.3874 31.5929C42.4753 31.2418 42.5636 30.8908 42.6519 30.5398C42.7082 30.3147 42.7645 30.0896 42.8209 29.8645C42.8602 29.7084 42.8602 29.7084 42.9004 29.5491C43.0314 29.0606 43.0314 29.0606 43.0801 28.56C35.0017 28.56 26.9233 28.56 18.6001 28.56ZM45.2401 45.96C45.2267 46.3276 45.2212 46.6926 45.2207 47.0604C45.2201 47.1759 45.2195 47.2914 45.2189 47.4104C45.2172 47.7943 45.2164 48.1781 45.2157 48.562C45.215 48.8276 45.2143 49.0932 45.2136 49.3588C45.2124 49.9164 45.2117 50.474 45.2112 51.0316C45.2106 51.7476 45.2077 52.4636 45.2043 53.1796C45.2021 53.7284 45.2014 54.2772 45.2012 54.826C45.2009 55.09 45.1999 55.3541 45.1983 55.6182C45.1963 55.9868 45.1965 56.3554 45.1973 56.7241C45.1962 56.8341 45.1951 56.9442 45.1939 57.0576C45.1946 57.1577 45.1953 57.2578 45.196 57.3609C45.1958 57.4482 45.1956 57.5354 45.1954 57.6253C45.2243 57.8903 45.2243 57.8903 45.6001 58.08C45.9678 58.1047 46.3248 58.1152 46.6927 58.1149C46.8605 58.1161 46.8605 58.1161 47.0316 58.1173C47.4019 58.1196 47.7722 58.1201 48.1426 58.1203C48.3995 58.1211 48.6564 58.1219 48.9133 58.1227C49.452 58.1242 49.9906 58.1246 50.5293 58.1245C51.2206 58.1244 51.9118 58.1277 52.6031 58.1319C53.1337 58.1345 53.6642 58.135 54.1948 58.1349C54.4497 58.1352 54.7046 58.1362 54.9596 58.1381C55.3155 58.1404 55.6714 58.1397 56.0274 58.1383C56.1333 58.1396 56.2391 58.141 56.3482 58.1424C56.8926 58.1423 56.8926 58.1423 57.3656 57.9048C57.5406 57.4389 57.5291 56.9986 57.5247 56.5047C57.5252 56.3941 57.5256 56.2834 57.5261 56.1693C57.5271 55.8035 57.5254 55.4378 57.5237 55.072C57.5236 54.818 57.5237 54.5639 57.5238 54.3099C57.5238 53.7776 57.5226 53.2453 57.5204 52.713C57.5177 52.0299 57.5176 51.3469 57.5184 50.6638C57.5188 50.1393 57.518 49.6148 57.5169 49.0903C57.5164 48.8384 57.5163 48.5865 57.5164 48.3346C57.5165 47.983 57.515 47.6314 57.513 47.2797C57.5133 47.1752 57.5136 47.0706 57.5139 46.9629C57.5094 46.366 57.5094 46.366 57.2401 45.84C57.0188 45.7863 57.0188 45.7863 56.761 45.7959C56.6609 45.7952 56.5608 45.7946 56.4576 45.7939C56.3476 45.795 56.2375 45.7961 56.1242 45.7972C56.0085 45.797 55.8927 45.7967 55.7735 45.7965C55.3897 45.7961 55.0059 45.7983 54.6221 45.8006C54.3564 45.801 54.0907 45.8012 53.8249 45.8013C53.2676 45.8019 52.7102 45.8036 52.1529 45.8062C51.4367 45.8096 50.7205 45.811 50.0044 45.8115C49.4556 45.812 48.9068 45.8132 48.358 45.8146C48.0939 45.8153 47.8297 45.8158 47.5655 45.8163C47.1972 45.8171 46.8288 45.8188 46.4604 45.8207C46.3502 45.8208 46.2399 45.8209 46.1263 45.8211C45.6448 45.7759 45.6448 45.7759 45.2401 45.96ZM10.3201 48.12C10.2302 48.4794 10.2302 48.4794 10.2424 48.8726C10.2405 49.0219 10.2386 49.1713 10.2367 49.3252C10.2378 49.4872 10.239 49.6492 10.2404 49.8112C10.24 49.9785 10.2394 50.1457 10.2386 50.3129C10.2378 50.6627 10.239 51.0124 10.2418 51.3623C10.2453 51.8098 10.2433 52.2572 10.2397 52.7047C10.2375 53.0498 10.2382 53.3948 10.2398 53.7399C10.2402 53.9049 10.2397 54.0699 10.2383 54.2348C10.2368 54.4657 10.2395 54.6966 10.2424 54.9274C10.2429 55.0586 10.2434 55.1897 10.2439 55.3249C10.3485 55.8124 10.5312 55.9716 10.9201 56.28C11.269 56.3389 11.5474 56.3608 11.8956 56.3554C11.9933 56.3562 12.0909 56.3571 12.1916 56.358C12.5187 56.3601 12.8456 56.3579 13.1727 56.3557C13.4073 56.3563 13.6418 56.3572 13.8764 56.3583C14.5133 56.3606 15.1502 56.359 15.7872 56.3566C16.4533 56.3547 17.1195 56.3557 17.7857 56.3563C18.9043 56.3569 20.023 56.355 21.1416 56.3516C22.4356 56.3478 23.7295 56.3478 25.0235 56.3499C26.2676 56.3518 27.5117 56.3509 28.7558 56.3489C29.2856 56.3481 29.8154 56.3482 30.3452 56.3491C30.9688 56.35 31.5923 56.3486 32.2159 56.3453C32.445 56.3444 32.6741 56.3444 32.9032 56.3453C33.2155 56.3463 33.5276 56.3444 33.8398 56.3418C33.9309 56.3427 34.022 56.3437 34.1159 56.3448C34.5309 56.3382 34.7599 56.3101 35.0963 56.0581C35.3474 55.7054 35.3402 55.4661 35.3403 55.0352C35.3414 54.8802 35.3425 54.7253 35.3437 54.5656C35.3424 54.3969 35.3411 54.2282 35.3396 54.0595C35.3396 53.8862 35.3398 53.7129 35.3401 53.5395C35.3403 53.1767 35.3388 52.8139 35.3361 52.451C35.3326 51.9859 35.333 51.5208 35.3345 51.0557C35.3353 50.6979 35.3344 50.3402 35.3329 49.9825C35.3324 49.811 35.3323 49.6394 35.3328 49.4679C35.3332 49.2284 35.3309 48.9888 35.3286 48.7493C35.3276 48.5448 35.3276 48.5448 35.3266 48.3362C35.3082 47.9993 35.3082 47.9993 35.112 47.7807C34.6776 47.4624 34.272 47.5019 33.7532 47.5015C33.6564 47.501 33.5596 47.5005 33.4599 47.4999C33.1337 47.4983 32.8075 47.4976 32.4813 47.4969C32.2481 47.4959 32.015 47.4949 31.7818 47.4939C31.0146 47.4907 30.2474 47.4889 29.4802 47.4872C29.2164 47.4865 28.9526 47.4859 28.6888 47.4852C27.5918 47.4827 26.4947 47.4804 25.3977 47.4791C23.8238 47.4771 22.25 47.4731 20.6762 47.4663C19.5705 47.4616 18.4647 47.4593 17.359 47.4587C16.6981 47.4582 16.0373 47.4568 15.3764 47.4529C14.7548 47.4493 14.1333 47.4485 13.5116 47.4499C13.2834 47.45 13.0551 47.449 12.8268 47.4469C12.5153 47.4441 12.2041 47.4451 11.8926 47.447C11.8021 47.4454 11.7116 47.4437 11.6183 47.442C10.9809 47.4516 10.7055 47.6182 10.3201 48.12Z" fill="#0A56F1"/>
<path id="Vector_2" d="M15.5776 7.41001C16.7286 8.30766 17.5781 9.40627 17.8464 10.8713C18.0468 12.5859 17.6679 14.0744 16.5976 15.435C15.6388 16.492 14.3028 17.1811 12.8814 17.3086C11.2516 17.3511 9.74989 16.8033 8.55011 15.69C8.08758 15.1948 7.74897 14.6409 7.44011 14.04C7.39896 13.9605 7.35781 13.881 7.31542 13.7991C6.85878 12.7108 6.90272 11.1772 7.27511 10.0725C8.03605 8.33245 9.20397 7.32916 10.9201 6.60001C12.4489 6.06557 14.3 6.5294 15.5776 7.41001ZM9.96011 9.60001C9.32775 10.3772 9.08144 11.1704 9.12761 12.165C9.25879 13.2413 9.71703 14.0458 10.5634 14.7197C11.3069 15.2232 12.2134 15.3077 13.0801 15.1575C13.881 14.9717 14.6036 14.702 15.1084 14.0175C15.6631 13.1015 15.8592 12.2266 15.7201 11.16C15.5256 10.412 15.248 9.85484 14.6401 9.36001C14.577 9.30711 14.5139 9.25421 14.4489 9.1997C13.0596 8.10725 11.1852 8.39129 9.96011 9.60001Z" fill="#0A56F1"/>
<path id="Vector_3" d="M54.7199 48.72C55.0649 48.9675 55.0649 48.9675 55.3199 49.32C55.4016 49.8581 55.3452 50.1797 55.0377 50.6166C54.9089 50.7811 54.7778 50.9438 54.6449 51.105C54.5756 51.1923 54.5062 51.2796 54.4347 51.3695C54.212 51.6483 53.9863 51.9243 53.7599 52.2C53.6077 52.387 53.4556 52.5741 53.3034 52.7611C52.9582 53.1836 52.6109 53.6042 52.2609 54.0227C52.1418 54.1657 52.0236 54.3095 51.9065 54.4541C51.5286 54.9185 51.3974 55.0638 50.7899 55.1264C50.3195 55.1191 50.0754 54.9855 49.7351 54.6471C49.6775 54.5848 49.6198 54.5226 49.5604 54.4584C49.4981 54.3951 49.4358 54.3317 49.3717 54.2665C49.1746 54.0648 48.9811 53.86 48.7874 53.655C48.6543 53.5181 48.5209 53.3814 48.3874 53.2449C47.2982 52.1243 47.2982 52.1243 47.2424 51.6225C47.2896 51.1413 47.4061 50.9659 47.7599 50.64C48.1604 50.5037 48.3666 50.4659 48.7518 50.6499C49.1818 50.9515 49.5323 51.3067 49.8974 51.6825C49.9691 51.7553 50.0408 51.8281 50.1147 51.9031C50.2903 52.0815 50.4652 52.2607 50.6399 52.44C51.1383 51.9629 51.5677 51.449 51.9974 50.91C53.8439 48.6169 53.8439 48.6169 54.7199 48.72Z" fill="#0A56F1"/>
<path id="Vector_4" d="M31.054 31.7606C31.1432 31.7608 31.2325 31.7609 31.3245 31.7611C31.6171 31.7622 31.9096 31.7659 32.2021 31.77C32.4066 31.7719 32.6112 31.7736 32.8157 31.7753C33.2432 31.7793 33.6706 31.7848 34.0981 31.7912C34.6454 31.7992 35.1926 31.8027 35.7399 31.8051C36.1618 31.8076 36.5837 31.8128 37.0055 31.8188C37.2073 31.8213 37.4091 31.8228 37.6109 31.8234C37.8931 31.8245 38.1749 31.8293 38.4569 31.8352C38.5399 31.8347 38.6228 31.8342 38.7082 31.8338C39.1634 31.8476 39.3525 31.914 39.7117 32.2033C39.9599 32.52 39.9599 32.52 40.0349 32.8725C39.9383 33.3458 39.7308 33.6587 39.3599 33.96C39.013 34.032 38.7659 34.0567 38.4201 34.0494C38.3273 34.0502 38.2346 34.0511 38.139 34.052C37.8334 34.054 37.528 34.0507 37.2224 34.0472C37.0095 34.0471 36.7965 34.0472 36.5836 34.0476C36.1377 34.0475 35.6919 34.045 35.2461 34.0407C34.675 34.0353 34.1042 34.0351 33.5332 34.0367C33.0936 34.0375 32.654 34.036 32.2144 34.0336C32.0039 34.0327 31.7934 34.0324 31.5829 34.0328C31.2884 34.0329 30.9942 34.0298 30.6998 34.0259C30.6131 34.0265 30.5264 34.0271 30.4371 34.0277C29.8618 34.0156 29.5593 33.8949 29.1599 33.48C29.0355 33.0903 29.0254 32.8382 29.0999 32.4375C29.5269 31.7792 30.3338 31.7478 31.054 31.7606Z" fill="#0A56F1"/>
<path id="Vector_5" d="M14.2598 50.8179C14.3526 50.8171 14.4454 50.8162 14.5409 50.8154C14.8465 50.8132 15.1519 50.8146 15.4575 50.8163C15.6704 50.8159 15.8834 50.8155 16.0963 50.8149C16.5422 50.8142 16.988 50.8152 17.4339 50.8174C18.0049 50.8202 18.5758 50.8186 19.1468 50.8157C19.5863 50.814 20.0259 50.8145 20.4655 50.8158C20.676 50.8161 20.8865 50.8157 21.097 50.8146C21.3915 50.8134 21.6857 50.8152 21.9802 50.8179C22.0668 50.8169 22.1535 50.816 22.2428 50.815C22.6693 50.8221 22.9074 50.8721 23.2712 51.1019C23.59 51.4327 23.64 51.6229 23.64 52.08C23.4475 52.5035 23.311 52.6593 22.92 52.92C22.6073 52.9445 22.3073 52.9553 21.9945 52.9549C21.8534 52.9561 21.8534 52.9561 21.7094 52.9573C21.3981 52.9596 21.0868 52.9601 20.7755 52.9603C20.5592 52.9611 20.3429 52.9619 20.1267 52.9627C19.6732 52.9642 19.2198 52.9646 18.7664 52.9645C18.1851 52.9645 17.604 52.9677 17.0228 52.9719C16.5761 52.9745 16.1294 52.975 15.6827 52.9749C15.4684 52.9752 15.2541 52.9762 15.0399 52.9781C14.7402 52.9804 14.4407 52.9798 14.141 52.9783C14.0524 52.9797 13.9638 52.981 13.8726 52.9824C13.4574 52.9773 13.2387 52.9498 12.9054 52.693C12.6935 52.4039 12.6519 52.2556 12.6525 51.9C12.6499 51.8097 12.6472 51.7193 12.6445 51.6263C12.8614 50.8611 13.5765 50.8102 14.2598 50.8179Z" fill="#0A56F1"/>
<path id="Vector_6" d="M33.0797 10.7769C33.1619 10.7759 33.2441 10.7749 33.3287 10.7739C33.6012 10.7709 33.8736 10.7689 34.146 10.7672C34.239 10.7666 34.332 10.7659 34.4279 10.7653C34.9203 10.7621 35.4127 10.7597 35.9052 10.758C36.4136 10.756 36.922 10.7506 37.4304 10.7445C37.8215 10.7405 38.2126 10.7391 38.6037 10.7384C38.7911 10.7376 38.9785 10.7358 39.1659 10.7329C39.4285 10.7291 39.6909 10.7291 39.9535 10.73C40.1774 10.7285 40.1774 10.7285 40.4059 10.7271C40.9072 10.8199 41.0838 11.0092 41.3999 11.4C41.5088 11.7632 41.4556 11.97 41.3999 12.36C41.135 12.7162 40.9816 12.8194 40.5599 12.96C40.3 12.9726 40.0397 12.9778 39.7795 12.9793C39.6615 12.9802 39.6615 12.9802 39.5411 12.9812C39.281 12.9829 39.0209 12.9837 38.7608 12.9844C38.5798 12.9851 38.3988 12.9858 38.2178 12.9865C37.8383 12.9877 37.4589 12.9884 37.0794 12.9888C36.5937 12.9895 36.108 12.9924 35.6223 12.9958C35.2484 12.998 34.8745 12.9987 34.5006 12.9988C34.3216 12.9992 34.1426 13.0002 33.9635 13.0017C33.7128 13.0038 33.4621 13.0036 33.2114 13.0028C32.9975 13.0034 32.9975 13.0034 32.7794 13.0041C32.2438 12.9419 31.9359 12.736 31.5599 12.36C31.4774 11.5073 31.4774 11.5073 31.7849 11.1075C32.2354 10.7763 32.5213 10.7826 33.0797 10.7769Z" fill="#0A56F1"/>
<path id="Vector_7" d="M27.1875 50.8045C27.3344 50.8043 27.4813 50.804 27.6326 50.8037C27.9429 50.8038 28.2532 50.8054 28.5634 50.8084C29.0383 50.8125 29.5129 50.8109 29.9878 50.8085C30.2894 50.8094 30.591 50.8105 30.8925 50.812C31.0345 50.8114 31.1766 50.8109 31.3229 50.8102C32.3048 50.8243 32.3048 50.8243 32.7893 51.1076C33.0299 51.3958 33.0814 51.5277 33.075 51.9C33.0773 52.0355 33.0773 52.0355 33.0797 52.1738C32.9526 52.5985 32.7854 52.6946 32.4 52.92C31.898 52.9945 31.3993 52.9901 30.8925 52.988C30.7456 52.9887 30.5988 52.9895 30.4474 52.9902C30.1372 52.9911 29.8269 52.9907 29.5166 52.9892C29.0417 52.9875 28.5671 52.9916 28.0922 52.9962C27.7907 52.9963 27.4891 52.9961 27.1875 52.9955C27.0455 52.9971 26.9035 52.9987 26.7572 53.0003C25.7768 52.9892 25.7768 52.9892 25.2905 52.6415C25.0103 52.2135 24.9904 51.9822 25.08 51.48C25.6031 50.6809 26.3236 50.7949 27.1875 50.8045Z" fill="#0A56F1"/>
<path id="Vector_8" d="M21.2708 31.7898C21.3966 31.7906 21.5223 31.7915 21.6519 31.7924C21.787 31.7941 21.9221 31.7959 22.0614 31.7977C22.2007 31.7994 22.3401 31.8011 22.4836 31.8028C22.7782 31.8068 23.0727 31.8111 23.3672 31.8159C23.8184 31.8225 24.2694 31.8259 24.7206 31.8293C25.0067 31.8336 25.2928 31.838 25.5789 31.8427C25.714 31.8432 25.8491 31.8437 25.9884 31.8443C26.1141 31.847 26.2399 31.8498 26.3694 31.8526C26.4799 31.854 26.5904 31.8555 26.7042 31.8569C27.0899 31.9392 27.234 32.0982 27.4801 32.4C27.6089 32.7589 27.6143 32.9457 27.5176 33.315C27.3371 33.6417 27.1975 33.7664 26.8801 33.96C26.5759 34.0065 26.5759 34.0065 26.2293 34.0085C26.034 34.0108 26.034 34.0108 25.8348 34.0131C25.6948 34.0128 25.5548 34.0124 25.4106 34.012C25.2662 34.0127 25.1218 34.0133 24.973 34.0139C24.6677 34.0147 24.3624 34.0146 24.057 34.0135C23.5898 34.0125 23.1227 34.016 22.6555 34.0198C22.3589 34.02 22.0622 34.0199 21.7656 34.0195C21.5559 34.0216 21.5559 34.0216 21.3421 34.0236C20.3746 34.0153 20.3746 34.0153 19.892 33.7329C19.5812 33.362 19.6022 33.1209 19.629 32.655C19.7037 32.2822 19.8473 32.1286 20.1601 31.92C20.5356 31.7981 20.8776 31.7864 21.2708 31.7898Z" fill="#0A56F1"/>
<path id="Vector_9" d="M43.8774 10.7788C43.9931 10.7772 44.1089 10.7757 44.2282 10.7741C44.4164 10.7728 44.4164 10.7728 44.6085 10.7714C44.7372 10.7705 44.866 10.7695 44.9986 10.7685C45.2715 10.7668 45.5444 10.7655 45.8172 10.7646C46.2344 10.7625 46.6515 10.7573 47.0687 10.752C47.3336 10.7508 47.5986 10.7497 47.8635 10.7489C47.9882 10.7468 48.113 10.7447 48.2416 10.7426C49.1095 10.7452 49.1095 10.7452 49.5759 11.0282C49.8425 11.328 49.9117 11.4589 49.9649 11.8575C49.9052 12.3648 49.7046 12.5194 49.3199 12.84C49.036 12.9819 48.8611 12.9767 48.5444 12.9794C48.4335 12.9805 48.3225 12.9817 48.2082 12.9828C48.0278 12.9836 48.0278 12.9836 47.8438 12.9844C47.6587 12.9854 47.6587 12.9854 47.4698 12.9865C47.2082 12.9876 46.9466 12.9884 46.6851 12.9888C46.2853 12.99 45.8855 12.9937 45.4857 12.9975C45.2318 12.9983 44.9778 12.9989 44.7238 12.9994C44.5445 13.0016 44.5445 13.0016 44.3616 13.0039C43.3099 13.0005 43.3099 13.0005 42.8399 12.6C42.5589 12.1785 42.5403 12.0163 42.5999 11.52C42.9804 10.9493 43.2058 10.7865 43.8774 10.7788Z" fill="#0A56F1"/>
<path id="Vector_10" d="M18.0031 26.3695C18.1464 26.3684 18.1464 26.3684 18.2926 26.3673C18.3969 26.3678 18.5011 26.3683 18.6085 26.3687C18.7199 26.3683 18.8312 26.3678 18.9458 26.3673C19.3197 26.3661 19.6935 26.3666 20.0673 26.367C20.335 26.3665 20.6027 26.3659 20.8703 26.3652C21.598 26.3636 22.3257 26.3635 23.0533 26.3638C23.6602 26.3639 24.2671 26.3634 24.874 26.3628C26.3872 26.3614 27.9004 26.3615 29.4136 26.3622C30.7282 26.3629 32.0427 26.3615 33.3573 26.3592C34.7068 26.3569 36.0563 26.356 37.4058 26.3564C38.1636 26.3566 38.9213 26.3563 39.6791 26.3546C40.3914 26.3531 41.1037 26.3533 41.816 26.3549C42.0778 26.3552 42.3397 26.3548 42.6015 26.3539C42.9581 26.3526 43.3147 26.3536 43.6713 26.3551C43.7756 26.3542 43.8798 26.3533 43.9872 26.3524C44.6905 26.3588 44.6905 26.3588 45.068 26.5828C45.1247 26.6413 45.1815 26.6998 45.2399 26.76C45.2003 26.8392 45.1607 26.9184 45.1199 27C45.0011 26.8812 45.0011 26.8812 44.8799 26.76C44.521 26.7362 44.1731 26.7277 43.814 26.7295C43.7022 26.7292 43.5905 26.7288 43.4753 26.7284C43.0985 26.7274 42.7217 26.7282 42.3449 26.729C42.0757 26.7286 41.8065 26.7282 41.5373 26.7277C40.8045 26.7266 40.0716 26.727 39.3387 26.7278C38.5733 26.7284 37.8079 26.7278 37.0424 26.7274C35.6743 26.727 34.3063 26.7277 32.9382 26.7289C31.6969 26.73 30.4556 26.7298 29.2143 26.7287C27.774 26.7274 26.3338 26.727 24.8935 26.7277C24.1306 26.728 23.3678 26.7281 22.6049 26.7273C21.8879 26.7266 21.1709 26.7271 20.4538 26.7285C20.19 26.7288 19.9261 26.7287 19.6623 26.7282C19.3035 26.7275 18.9447 26.7283 18.5859 26.7295C18.4803 26.729 18.3747 26.7285 18.2659 26.7279C17.7155 26.7062 17.7155 26.7062 17.2799 27C17.1611 27 17.0423 27 16.9199 27C17.0399 26.64 17.0399 26.64 17.2572 26.4994C17.5272 26.3973 17.716 26.3698 18.0031 26.3695Z" fill="#0A56F1"/>
<path id="Vector_11" d="M33.0816 10.7807C33.164 10.7801 33.2464 10.7795 33.3312 10.7788C33.6042 10.7771 33.8772 10.7763 34.1502 10.7756C34.3397 10.7749 34.5293 10.7742 34.7188 10.7735C35.1165 10.7723 35.5141 10.7716 35.9118 10.7712C36.4213 10.7705 36.9308 10.7676 37.4403 10.7642C37.8319 10.762 38.2235 10.7613 38.6151 10.7612C38.8029 10.7608 38.9908 10.7598 39.1786 10.7583C39.4415 10.7562 39.7042 10.7564 39.9671 10.7572C40.1915 10.7566 40.1915 10.7566 40.4203 10.7559C40.8241 10.8028 40.9882 10.8848 41.2799 11.16C41.2403 11.2392 41.2007 11.3184 41.1599 11.4C41.0979 11.3414 41.036 11.2829 40.9722 11.2225C40.5791 10.977 40.3053 10.9967 39.8433 10.9991C39.7601 10.9991 39.677 10.999 39.5913 10.999C39.3172 10.9992 39.0433 11.002 38.7693 11.0048C38.5789 11.0055 38.3886 11.006 38.1983 11.0064C37.698 11.0077 37.1977 11.0113 36.6974 11.0153C36.1866 11.019 35.6758 11.0206 35.1651 11.0224C34.1633 11.0263 33.1616 11.0324 32.1599 11.04C31.9725 11.404 31.8309 11.7066 31.7999 12.12C31.9156 12.3904 31.9156 12.3904 32.1599 12.6C32.5494 12.6746 32.5494 12.6746 33.0049 12.6655C33.1331 12.6674 33.1331 12.6674 33.264 12.6693C33.5464 12.6728 33.8288 12.673 34.1113 12.6731C34.3072 12.6749 34.5031 12.6769 34.699 12.6791C35.2144 12.6844 35.7299 12.6868 36.2454 12.6886C36.7715 12.6909 37.2975 12.696 37.8236 12.7008C38.8557 12.7098 39.8878 12.7158 40.9199 12.72C40.4883 13.0077 40.2927 12.991 39.7795 12.9929C39.6615 12.9939 39.6615 12.9939 39.5411 12.9948C39.281 12.9965 39.0209 12.9964 38.7608 12.9961C38.5798 12.9965 38.3988 12.9971 38.2178 12.9976C37.8383 12.9985 37.4589 12.9985 37.0794 12.9979C36.5937 12.9972 36.108 12.9992 35.6223 13.002C35.2484 13.0038 34.8745 13.0039 34.5006 13.0035C34.3216 13.0036 34.1426 13.0042 33.9635 13.0054C33.7128 13.0069 33.4621 13.0061 33.2114 13.0047C32.9975 13.0048 32.9975 13.0048 32.7794 13.0049C32.2442 12.9416 31.9357 12.7358 31.5599 12.36C31.4774 11.5073 31.4774 11.5073 31.7849 11.1075C32.2368 10.7752 32.5214 10.7837 33.0816 10.7807Z" fill="#0A56F1"/>
<path id="Vector_12" d="M16.8 27C16.9645 27.5328 16.8331 27.9669 16.6997 28.4939C16.6758 28.5915 16.652 28.6891 16.6274 28.7896C16.5769 28.9954 16.5258 29.2011 16.4742 29.4066C16.3951 29.7223 16.3176 30.0384 16.2403 30.3546C16.191 30.5544 16.1417 30.7542 16.0922 30.9539C16.0688 31.0489 16.0454 31.1439 16.0213 31.2418C15.854 31.906 15.854 31.906 15.72 32.04C15.4097 32.055 15.1025 32.0623 14.7921 32.0646C14.6463 32.0664 14.6463 32.0664 14.4977 32.0682C14.175 32.072 13.8523 32.075 13.5295 32.078C13.3064 32.0804 13.0833 32.083 12.8601 32.0855C12.2717 32.0922 11.6832 32.0981 11.0947 32.1039C10.4947 32.1099 9.89464 32.1166 9.29462 32.1232C8.11642 32.1361 6.93822 32.1483 5.76001 32.16C6.72435 31.6145 8.0392 31.7843 9.11087 31.791C9.36211 31.7925 9.61334 31.7933 9.86458 31.7939C10.3964 31.7952 10.9282 31.7975 11.46 31.8C12.0802 31.8028 12.7003 31.8053 13.3205 31.8067C13.5677 31.8075 13.8149 31.809 14.0621 31.8105C14.2864 31.8111 14.2864 31.8111 14.5151 31.8117C14.6467 31.8123 14.7784 31.813 14.914 31.8136C15.2516 31.8146 15.2516 31.8146 15.6 31.68C15.7182 31.333 15.8125 30.9999 15.8977 30.6445C15.9238 30.5408 15.9499 30.4371 15.9768 30.3303C16.0602 29.998 16.1414 29.6653 16.2225 29.3325C16.2785 29.1075 16.3347 28.8826 16.391 28.6577C16.529 28.1055 16.665 27.5529 16.8 27Z" fill="#0A56F1"/>
<path id="Vector_13" d="M53.64 12.72C53.8325 12.7135 54.025 12.7089 54.2175 12.705C54.3247 12.7022 54.4319 12.6994 54.5424 12.6966C54.84 12.72 54.84 12.72 55.2 12.96C54.7644 12.96 54.3288 12.96 53.88 12.96C53.8842 13.1367 53.8884 13.3133 53.8927 13.4953C53.8961 13.7319 53.8993 13.9684 53.9025 14.205C53.9071 14.3788 53.9071 14.3788 53.9117 14.5561C53.9196 15.344 53.8472 16.0734 53.52 16.8C53.4012 16.8594 53.4012 16.8594 53.28 16.92C53.3181 16.7963 53.3561 16.6725 53.3953 16.545C53.5814 15.8008 53.5757 15.0432 53.595 14.28C53.5997 14.1298 53.6043 13.9796 53.6091 13.8248C53.6203 13.4566 53.6306 13.0883 53.64 12.72Z" fill="#0A56F1"/>
<path id="Vector_14" d="M44.2799 44.28C44.15 44.583 44.0354 44.7643 43.7924 44.9925C43.2967 45.5202 43.4145 46.3412 43.4019 47.0273C43.3994 47.141 43.3969 47.2547 43.3944 47.3718C43.3865 47.7337 43.3795 48.0956 43.3724 48.4575C43.3672 48.7034 43.362 48.9492 43.3567 49.1951C43.3439 49.7967 43.3317 50.3983 43.3199 51C43.2803 51 43.2407 51 43.1999 51C43.1877 50.2293 43.1793 49.4586 43.1735 48.6877C43.1711 48.4257 43.1678 48.1637 43.1637 47.9018C43.1578 47.5243 43.1551 47.147 43.153 46.7695C43.1505 46.6531 43.1481 46.5367 43.1455 46.4168C43.1452 45.5601 43.3178 45.0717 43.8749 44.4075C44.0399 44.28 44.0399 44.28 44.2799 44.28Z" fill="#0A56F1"/>
<path id="Vector_15" d="M54.72 48.72C54.9211 48.9037 54.9211 48.9037 55.08 49.08C55.0104 49.073 54.9408 49.0661 54.8691 49.0589C54.3354 49.0281 53.9915 49.0233 53.5725 49.38C53.4277 49.5285 53.4277 49.5285 53.28 49.68C53.28 49.32 53.28 49.32 53.595 48.9975C53.9728 48.7019 54.2365 48.634 54.72 48.72Z" fill="#0A56F1"/>
<path id="Vector_16" d="M29.88 5.64001C29.7092 5.68456 29.7092 5.68456 29.535 5.73001C29.0974 5.90501 29.1044 5.95652 28.92 6.36001C28.691 6.57717 28.4489 6.76516 28.2 6.96001C28.2 6.60001 28.2 6.60001 28.3668 6.38954C28.4773 6.28211 28.4773 6.28211 28.59 6.17251C28.6623 6.10058 28.7347 6.02865 28.8093 5.95454C29.3798 5.47331 29.3798 5.47331 29.88 5.64001Z" fill="#0A56F1"/>
<path id="Vector_17" d="M31.8001 11.04C31.9189 11.04 32.0377 11.04 32.1601 11.04C32.1044 11.1402 32.1044 11.1402 32.0476 11.2425C31.9036 11.5559 31.8166 11.7735 31.8001 12.12C32.0201 12.5151 32.0201 12.5151 32.2801 12.84C31.9839 12.7018 31.7943 12.5943 31.5601 12.36C31.5044 11.4835 31.5044 11.4835 31.8001 11.04Z" fill="#0A56F1"/>
<path id="Vector_18" d="M9.24004 7.44C9.31924 7.4796 9.39844 7.5192 9.48004 7.56C9.30841 7.75826 9.1357 7.95559 8.96254 8.1525C8.86648 8.26249 8.77042 8.37247 8.67145 8.48578C8.40004 8.76 8.40004 8.76 8.04004 8.88C8.2173 8.46576 8.45259 8.20205 8.77504 7.89C8.86197 7.80523 8.94891 7.72046 9.03848 7.63313C9.10499 7.5694 9.17151 7.50566 9.24004 7.44Z" fill="#0A56F1"/>
<path id="Vector_19" d="M44.28 44.28C44.1521 44.5782 44.0391 44.7608 43.8 44.985C43.5132 45.2897 43.429 45.5603 43.32 45.96C43.23 45.7725 43.23 45.7725 43.2 45.48C43.7894 44.28 43.7894 44.28 44.28 44.28Z" fill="#0A56F1"/>
<path id="Vector_20" d="M17.1599 18C17.6741 18.2769 18.0867 18.5196 18.4799 18.96C17.9037 18.827 17.5305 18.7144 17.1599 18.24C17.1599 18.1608 17.1599 18.0816 17.1599 18Z" fill="#0A56F1"/>
<path id="Vector_21" d="M2.51992 33.96C2.59912 34.0788 2.67832 34.1976 2.75992 34.32C2.48272 34.518 2.20552 34.716 1.91992 34.92C1.91992 34.56 1.91992 34.56 2.21992 34.2375C2.31892 34.1459 2.41792 34.0543 2.51992 33.96Z" fill="#0A56F1"/>
<path id="Vector_22" d="M18.2399 26.52C18.2399 26.5596 18.2399 26.5992 18.2399 26.64C17.3485 26.8971 17.3485 26.8971 16.9199 27C16.9595 26.8812 16.9991 26.7624 17.0399 26.64C17.4257 26.4471 17.8123 26.5131 18.2399 26.52Z" fill="#0A56F1"/>
</g>
<defs>
<clipPath id="clip0_315_512">
<rect width="60" height="60" fill="white"/>
</clipPath>
</defs>
</svg>
