<svg width="60" height="60" viewBox="0 0 60 60" fill="none" xmlns="http://www.w3.org/2000/svg">
<g id="mdi:nodejs">
<path id="Vector" d="M30 4.625C29.325 4.625 28.625 4.8 28.05 5.125L9.45 15.875C8.25 16.575 7.5 17.875 7.5 19.275V40.725C7.5 42.125 8.25 43.425 9.45 44.125L14.325 46.925C16.7 48.075 17.5 48.1 18.6 48.1C22.1 48.1 24.125 45.975 24.125 42.275V21.1C24.125 20.8 23.875 20.55 23.575 20.55H21.25C20.925 20.55 20.675 20.8 20.675 21.1V42.275C20.675 43.925 18.975 45.55 16.25 44.175L11.125 41.25C11.0408 41.1906 10.972 41.1119 10.9242 41.0207C10.8764 40.9294 10.8509 40.828 10.85 40.725V19.275C10.85 19.05 10.95 18.85 11.125 18.75L29.725 8.025C29.875 7.925 30.125 7.925 30.275 8.025L48.875 18.75C49.05 18.85 49.15 19.05 49.15 19.275V40.725C49.15 40.925 49.05 41.125 48.875 41.25L30.275 51.975C30.125 52.075 29.875 52.075 29.7 51.975L25 49.125C24.8 49.05 24.6 49.025 24.475 49.1C23.15 49.85 22.9 50 21.675 50.375C21.375 50.475 20.9 50.65 21.85 51.175L28.05 54.85C28.65 55.2 29.3 55.375 30 55.375C30.7 55.375 31.35 55.2 31.95 54.85L50.55 44.125C51.75 43.425 52.5 42.125 52.5 40.725V19.275C52.5 17.875 51.75 16.575 50.55 15.875L31.95 5.125C31.375 4.8 30.7 4.625 30 4.625ZM35 20C29.7 20 26.525 22.225 26.525 25.975C26.525 30 29.675 31.175 34.775 31.675C40.85 32.275 41.325 33.175 41.325 34.375C41.325 36.45 39.65 37.325 35.75 37.325C30.8 37.325 29.75 36.1 29.375 33.65C29.3487 33.5234 29.2797 33.4096 29.1796 33.3277C29.0795 33.2458 28.9543 33.2007 28.825 33.2H26.425C26.125 33.2 25.9 33.425 25.9 33.75C25.9 36.85 27.6 40.6 35.75 40.6C41.625 40.6 45 38.275 45 34.225C45 30.2 42.3 29.15 36.575 28.375C30.8 27.625 30.225 27.225 30.225 25.875C30.225 24.75 30.725 23.25 35 23.25C38.75 23.25 40.225 24.075 40.8 26.65C40.85 26.9 41.075 27.075 41.325 27.075H43.75C43.875 27.075 44.025 27.025 44.125 26.9C44.225 26.8 44.3 26.65 44.25 26.5C43.9 22.05 40.95 20 35 20Z" fill="#36454F"/>
</g>
</svg>
