<svg width="60" height="60" viewBox="0 0 60 60" fill="none" xmlns="http://www.w3.org/2000/svg">
<g id="mdi:docker">
<path id="Vector" d="M54.525 25.625C54.375 25.525 53.125 24.55 50.425 24.55C49.725 24.55 49.025 24.625 48.325 24.75C47.8 21.25 44.875 19.475 44.75 19.4L44.025 18.975L43.575 19.65C42.975 20.55 42.5 21.575 42.3 22.625C41.8 24.625 42.1 26.525 43.125 28.15C41.9 28.85 39.9 29.025 39.475 29.025H6.55C5.7 29.025 5 29.725 5 30.6C5 33.475 5.45 36.35 6.45 39.05C7.575 42.025 9.275 44.225 11.45 45.575C13.9 47.075 17.925 47.925 22.5 47.925C24.475 47.925 26.525 47.75 28.55 47.375C31.35 46.875 34.05 45.9 36.525 44.475C38.5748 43.3029 40.4095 41.7895 41.95 40C44.575 37.075 46.125 33.75 47.25 30.875H47.725C50.575 30.875 52.35 29.725 53.325 28.75C53.975 28.15 54.45 27.425 54.8 26.575L55 25.975L54.525 25.625ZM9.625 28.1H14.025C14.225 28.1 14.425 27.925 14.425 27.7V23.75C14.425 23.55 14.25 23.35 14.025 23.35H9.625C9.4 23.35 9.225 23.525 9.225 23.75V27.7C9.25 27.925 9.4 28.1 9.625 28.1ZM15.7 28.1H20.1C20.3 28.1 20.5 27.925 20.5 27.7V23.75C20.5 23.55 20.325 23.35 20.1 23.35H15.7C15.475 23.35 15.3 23.525 15.3 23.75V27.7C15.325 27.925 15.475 28.1 15.7 28.1ZM21.875 28.1H26.25C26.5 28.1 26.675 27.925 26.675 27.7V23.75C26.675 23.55 26.525 23.35 26.25 23.35H21.875C21.675 23.35 21.5 23.525 21.5 23.75V27.7C21.5 27.925 21.65 28.1 21.875 28.1ZM27.975 28.1H32.4C32.6 28.1 32.775 27.925 32.775 27.7V23.75C32.775 23.55 32.625 23.35 32.4 23.35H27.975C27.775 23.35 27.6 23.525 27.6 23.75V27.7C27.6 27.925 27.775 28.1 27.975 28.1ZM15.7 22.5H20.1C20.3 22.5 20.5 22.275 20.5 22.05V18.125C20.5 17.9 20.325 17.725 20.1 17.725H15.7C15.475 17.725 15.3 17.875 15.3 18.125V22.05C15.325 22.275 15.475 22.5 15.7 22.5ZM21.875 22.5H26.25C26.5 22.5 26.675 22.275 26.675 22.05V18.125C26.675 17.9 26.525 17.725 26.25 17.725H21.875C21.675 17.725 21.5 17.875 21.5 18.125V22.05C21.5 22.275 21.65 22.5 21.875 22.5ZM27.975 22.5H32.4C32.6 22.5 32.775 22.275 32.775 22.05V18.125C32.775 17.9 32.6 17.725 32.4 17.725H27.975C27.775 17.725 27.6 17.875 27.6 18.125V22.05C27.6 22.275 27.775 22.5 27.975 22.5ZM27.975 16.8H32.4C32.6 16.8 32.775 16.625 32.775 16.4V12.5C32.775 12.25 32.6 12.075 32.4 12.075H27.975C27.775 12.075 27.6 12.225 27.6 12.5V16.4C27.6 16.6 27.775 16.8 27.975 16.8ZM34.125 28.1H38.525C38.75 28.1 38.925 27.925 38.925 27.7V23.75C38.925 23.55 38.75 23.35 38.525 23.35H34.125C33.925 23.35 33.75 23.525 33.75 23.75V27.7C33.75 27.925 33.925 28.1 34.125 28.1Z" fill="#36454F"/>
</g>
</svg>
