<svg width="85" height="86" viewBox="0 0 85 86" fill="none" xmlns="http://www.w3.org/2000/svg">
<g id="payment-method-removebg-preview 1">
<path id="Vector" d="M21.4199 2.41197C22.1653 2.95958 22.8447 3.58603 23.5279 4.20801C23.8837 4.52711 24.2533 4.82552 24.6286 5.12134C25.364 5.70238 26.0912 6.29265 26.8174 6.88509C27.6772 7.58632 28.5438 8.27694 29.4205 8.95697C30.3849 9.70695 31.31 10.4959 32.2291 11.3004C33.7799 12.7139 33.7799 12.7139 35.4934 13.8996C36.0993 14.5632 35.9604 15.2766 35.923 16.1395C35.9173 16.3903 35.9173 16.3903 35.9114 16.6461C35.9014 17.0582 35.8862 17.4701 35.8699 17.882C35.0284 17.882 34.1869 17.882 33.3199 17.882C33.3075 19.2609 33.3017 20.6394 33.3071 22.0183C33.3094 22.6587 33.3089 23.2989 33.3018 23.9392C33.2952 24.5577 33.296 25.1758 33.3019 25.7943C33.3028 26.0298 33.3011 26.2653 33.2966 26.5007C33.2311 27.8367 33.2311 27.8367 33.837 28.9517C34.2462 29.2288 34.2462 29.2288 34.6752 29.4249C35.0199 29.612 35.0199 29.612 35.1899 30.122C35.3258 30.0543 35.4616 29.9865 35.6016 29.9168C36.8628 29.3084 38.0688 28.8722 39.4399 28.592C39.57 28.5628 39.7002 28.5337 39.8342 28.5037C43.8821 27.7774 47.8118 28.6789 51.1586 30.974C51.5782 31.2967 51.9701 31.6339 52.3599 31.992C52.5006 32.1171 52.6413 32.2422 52.7862 32.3711C55.169 34.6045 56.6501 37.6054 57.1199 40.832C57.1199 41.1125 57.1199 41.393 57.1199 41.682C59.2517 41.6259 61.3835 41.5698 63.5799 41.512C63.5779 40.5813 63.576 39.6506 63.5739 38.6917C63.5731 38.1037 63.5722 37.5156 63.5716 36.9276C63.5706 35.9933 63.5694 35.0591 63.5671 34.1248C63.5652 33.372 63.5642 32.6191 63.5638 31.8663C63.5634 31.5784 63.5628 31.2905 63.5619 31.0027C63.5607 30.6009 63.5605 30.1991 63.5606 29.7973C63.56 29.6771 63.5594 29.5569 63.5587 29.433C63.5605 28.6114 63.5605 28.6114 63.7499 28.422C64.6475 28.422 65.5451 28.422 66.4699 28.422C66.4699 33.6954 66.4699 38.9688 66.4699 44.402C63.3844 44.402 60.2989 44.402 57.1199 44.402C57.0638 44.963 57.0077 45.524 56.9499 46.102C56.4248 49.4783 54.2561 52.6453 51.6235 54.7487C50.5022 55.5656 49.348 56.1453 48.1099 56.812C48.0538 60.1219 47.9977 63.4318 47.9399 66.842C51.8669 66.842 55.7939 66.842 59.8399 66.842C59.8399 67.7957 59.8399 68.7494 59.8399 69.732C54.9592 69.732 50.0785 69.732 45.0499 69.732C45.0499 65.6928 45.0499 61.6536 45.0499 57.492C44.9377 57.5481 44.8255 57.6042 44.7099 57.662C44.3808 57.6785 44.0512 57.6842 43.7218 57.6845C43.525 57.6848 43.3282 57.685 43.1254 57.6852C42.919 57.6845 42.7126 57.6839 42.4999 57.6832C42.2935 57.6839 42.087 57.6845 41.8743 57.6852C41.5792 57.6849 41.5792 57.6849 41.278 57.6845C41.0062 57.6842 41.0062 57.6842 40.7288 57.684C40.2899 57.662 40.2899 57.662 39.9499 57.492C39.9499 62.3727 39.9499 67.2534 39.9499 72.282C36.8083 72.282 33.6667 72.282 30.4299 72.282C30.4299 71.3844 30.4299 70.4868 30.4299 69.562C32.6178 69.562 34.8057 69.562 37.0599 69.562C37.0599 65.2984 37.0599 61.0348 37.0599 56.642C36.7794 56.5859 36.4989 56.5298 36.2099 56.472C32.7166 54.7673 29.8889 51.8098 28.5599 48.142C28.1949 46.9125 27.8799 45.6887 27.8799 44.402C23.8968 44.402 19.9137 44.402 15.8099 44.402C15.8099 42.6068 15.8099 40.8116 15.8099 38.962C16.7636 38.962 17.7173 38.962 18.6999 38.962C18.6999 39.8596 18.6999 40.7572 18.6999 41.682C21.7293 41.682 24.7587 41.682 27.8799 41.682C27.936 41.121 27.9921 40.56 28.0499 39.982C28.1144 39.6364 28.1872 39.2922 28.273 38.9513C28.3109 38.7951 28.3488 38.6388 28.3879 38.4779C28.6155 37.7686 28.9374 37.0927 29.2399 36.412C19.9834 36.412 10.7269 36.412 1.18989 36.412C1.18989 30.7455 1.18989 30.7455 2.21587 29.5482C2.38647 29.4115 2.38647 29.4115 2.56052 29.272C2.67469 29.1773 2.78886 29.0826 2.9065 28.9851C3.22989 28.762 3.22989 28.762 3.73989 28.592C3.79599 25.0577 3.85209 21.5234 3.90989 17.882C3.01229 17.882 2.11469 17.882 1.18989 17.882C0.931588 14.7134 0.931588 14.7134 1.50267 13.8259C1.94694 13.4862 2.40031 13.2217 2.88989 12.952C3.20293 12.7066 3.51104 12.4549 3.81427 12.1976C4.28101 11.8146 4.74781 11.4318 5.2161 11.0508C5.96251 10.443 6.70384 9.83062 7.43548 9.20524C8.34392 8.4291 9.26816 7.68492 10.2203 6.9632C10.8892 6.45321 11.5362 5.92209 12.1761 5.37634C12.3133 5.25944 12.3133 5.25944 12.4532 5.14018C12.6342 4.98577 12.8151 4.83132 12.996 4.67683C15.4886 2.55278 18.1124 0.556965 21.4199 2.41197ZM16.5706 5.56161C16.4843 5.64072 16.3981 5.71983 16.3093 5.80134C16.1164 5.97151 15.9231 6.14127 15.7295 6.31068C15.5816 6.44081 15.5816 6.44081 15.4306 6.57356C14.9473 6.98887 14.4441 7.37745 13.9399 7.76697C13.1593 8.37316 12.3956 8.99406 11.6449 9.63697C10.8942 10.2799 10.1303 10.9005 9.34989 11.507C8.53626 12.14 7.73605 12.7859 6.94864 13.4513C6.85814 13.5276 6.76763 13.6039 6.67439 13.6824C6.18162 14.1017 5.72889 14.533 5.26989 14.992C14.0776 14.992 22.8853 14.992 31.9599 14.992C31.3954 14.4275 30.8751 13.934 30.2599 13.4407C29.5398 12.8583 28.8292 12.2668 28.1243 11.6663C27.3603 11.0171 26.5879 10.3813 25.802 9.75849C25.3196 9.37373 24.8409 8.98458 24.3627 8.59455C22.9974 7.4811 21.622 6.38177 20.2299 5.30197C20.1056 5.20357 19.9814 5.10518 19.8534 5.0038C18.7556 4.23751 17.4836 4.7575 16.5706 5.56161ZM6.62989 17.882C6.68599 21.3602 6.74209 24.8384 6.79989 28.422C7.58529 28.422 8.37069 28.422 9.17989 28.422C9.17989 24.9438 9.17989 21.4656 9.17989 17.882C8.33839 17.882 7.49689 17.882 6.62989 17.882ZM12.0699 17.882C12.0699 21.3602 12.0699 24.8384 12.0699 28.422C12.8553 28.422 13.6407 28.422 14.4499 28.422C14.506 24.9438 14.5621 21.4656 14.6199 17.882C13.7784 17.882 12.9369 17.882 12.0699 17.882ZM17.3399 17.882C17.3399 21.3602 17.3399 24.8384 17.3399 28.422C18.1814 28.422 19.0229 28.422 19.8899 28.422C19.8899 24.9438 19.8899 21.4656 19.8899 17.882C19.0484 17.882 18.2069 17.882 17.3399 17.882ZM22.6099 17.882C22.6099 21.3602 22.6099 24.8384 22.6099 28.422C23.4514 28.422 24.2929 28.422 25.1599 28.422C25.1599 24.9438 25.1599 21.4656 25.1599 17.882C24.3184 17.882 23.4769 17.882 22.6099 17.882ZM27.8799 17.882C27.936 21.3602 27.9921 24.8384 28.0499 28.422C28.8353 28.422 29.6207 28.422 30.4299 28.422C30.4299 24.9438 30.4299 21.4656 30.4299 17.882C29.5884 17.882 28.7469 17.882 27.8799 17.882ZM4.41989 31.482C4.08148 31.98 4.04118 32.3757 4.05864 32.9695C4.06171 33.1053 4.06478 33.2412 4.06794 33.3812C4.07189 33.4837 4.07583 33.5863 4.07989 33.692C7.57476 33.7317 11.0696 33.7617 14.5646 33.78C16.1876 33.7888 17.8103 33.8007 19.4332 33.8202C20.8481 33.8372 22.2629 33.8481 23.678 33.8519C24.4269 33.8541 25.1755 33.8593 25.9243 33.8717C26.6302 33.8833 27.3356 33.8868 28.0416 33.8842C28.2997 33.8847 28.5578 33.8881 28.8158 33.8946C29.8684 33.92 30.7659 33.94 31.6527 33.3005C32.0735 32.8831 32.4512 32.4633 32.8099 31.992C32.5874 31.4612 32.5874 31.4612 32.1299 31.142C31.7761 31.1252 31.4217 31.1197 31.0674 31.1192C30.9572 31.1188 30.847 31.1185 30.7335 31.1181C30.3626 31.117 29.9917 31.1171 29.6208 31.1173C29.3556 31.1168 29.0903 31.1162 28.8251 31.1155C28.1033 31.114 27.3815 31.1136 26.6597 31.1135C26.0576 31.1134 25.4556 31.1127 24.8536 31.1121C23.4334 31.1108 22.0133 31.1103 20.5931 31.1105C19.1271 31.1106 17.661 31.1088 16.1949 31.1061C14.9373 31.1039 13.6797 31.103 12.422 31.1031C11.6704 31.1031 10.9188 31.1026 10.1672 31.1008C9.46036 31.0992 8.7535 31.0992 8.04662 31.1004C7.78702 31.1006 7.52743 31.1002 7.26784 31.0991C6.91372 31.0978 6.55966 31.0986 6.20554 31.0999C5.90815 31.0998 5.90815 31.0998 5.60475 31.0997C5.10262 31.1417 4.82683 31.1896 4.41989 31.482ZM33.8299 34.882C31.5632 37.5173 30.3877 40.6441 30.6424 44.1343C31.0925 47.49 32.649 50.4315 35.328 52.5407C37.9312 54.383 41.0612 55.3033 44.2365 54.8137C47.4142 54.2349 50.2457 52.5823 52.164 49.9624C53.9949 47.2479 54.7828 44.0993 54.1827 40.8526C53.4014 37.4781 51.5832 34.6995 48.6199 32.842C43.7235 30.1712 37.7943 30.7367 33.8299 34.882Z" fill="#36454F"/>
<path id="Vector_2" d="M50.7506 1.68639C50.8781 1.68562 51.0056 1.68485 51.137 1.68406C51.5635 1.68191 51.9899 1.68219 52.4164 1.68247C52.7225 1.68145 53.0286 1.68029 53.3347 1.67901C54.1657 1.676 54.9968 1.67521 55.8278 1.67499C56.3472 1.67475 56.8666 1.67402 57.386 1.67312C59.1986 1.66997 61.0112 1.66859 62.8237 1.66885C64.5124 1.66906 66.201 1.66547 67.8897 1.6601C69.3402 1.65565 70.7908 1.65383 72.2413 1.65405C73.1073 1.65413 73.9733 1.65317 74.8393 1.64957C75.6541 1.64627 76.4688 1.64625 77.2836 1.64872C77.5821 1.64908 77.8806 1.64828 78.1791 1.64622C79.8526 1.63543 81.0997 1.64466 82.4853 2.69674C82.5753 2.78856 82.6654 2.88038 82.7582 2.97498C82.8505 3.06549 82.9427 3.15599 83.0378 3.24924C83.8232 4.30516 83.8854 5.28015 83.8815 6.55415C83.8829 6.72736 83.8843 6.90056 83.8858 7.07901C83.8898 7.64942 83.89 8.21975 83.8898 8.79018C83.891 9.18842 83.8923 9.58665 83.8937 9.98489C83.896 10.819 83.8962 11.6531 83.8952 12.4872C83.8942 13.5533 83.8994 14.6193 83.9063 15.6853C83.9107 16.5078 83.9112 17.3301 83.9106 18.1526C83.9109 18.5455 83.9125 18.9384 83.9155 19.3313C83.9193 19.8821 83.9176 20.4327 83.9147 20.9836C83.9169 21.1441 83.9192 21.3046 83.9215 21.47C83.9069 22.6324 83.6173 23.5453 82.9601 24.5119C81.9107 25.5109 80.9223 25.9235 79.4718 25.9185C79.3445 25.9193 79.2173 25.9202 79.0861 25.9212C78.6605 25.9237 78.2348 25.9238 77.8091 25.9239C77.5036 25.9252 77.1981 25.9267 76.8925 25.9282C76.0629 25.932 75.2332 25.9335 74.4035 25.9343C73.8848 25.9349 73.3661 25.936 72.8474 25.9372C71.0366 25.9414 69.2258 25.9436 67.4151 25.9442C65.7291 25.9448 64.0432 25.9499 62.3573 25.957C60.9084 25.9629 59.4596 25.9655 58.0108 25.9657C57.1461 25.9658 56.2815 25.9673 55.4168 25.9721C54.6028 25.9766 53.789 25.9769 52.975 25.9742C52.6772 25.9739 52.3794 25.975 52.0816 25.9778C49.0439 26.0038 49.0439 26.0038 47.7701 25.0219C46.6207 23.7969 46.3591 22.7322 46.358 21.0882C46.3566 20.915 46.3552 20.7418 46.3537 20.5634C46.3496 19.9912 46.3481 19.419 46.347 18.8467C46.3455 18.448 46.3439 18.0493 46.3423 17.6506C46.3395 16.8144 46.3382 15.9783 46.3377 15.1421C46.3368 14.0734 46.3304 13.0047 46.3226 11.936C46.3176 11.1121 46.3164 10.2883 46.3162 9.46437C46.3155 9.07052 46.3134 8.67668 46.3098 8.28285C46.3052 7.73033 46.3061 7.17807 46.3082 6.62554C46.3044 6.38396 46.3044 6.38396 46.3005 6.1375C46.3132 4.973 46.6012 4.05995 47.2601 3.09186C48.3105 2.09185 49.2988 1.67993 50.7506 1.68639ZM49.4701 5.13186C49.1734 5.66192 49.1734 5.66192 49.3001 7.17185C59.7347 7.17185 70.1693 7.17185 80.9201 7.17185C81.008 5.78955 81.008 5.78955 80.4101 4.79186C79.8154 4.59365 79.3492 4.59945 78.7215 4.59798C78.6009 4.59748 78.4802 4.59697 78.356 4.59645C77.9507 4.59497 77.5455 4.59472 77.1403 4.59446C76.8502 4.59368 76.5601 4.59282 76.2699 4.59191C75.4811 4.58967 74.6922 4.58858 73.9033 4.58782C73.4106 4.58733 72.9179 4.58663 72.4252 4.58587C70.8843 4.58354 69.3433 4.5819 67.8023 4.58124C66.0224 4.58048 64.2426 4.5775 62.4628 4.57257C61.0876 4.5689 59.7125 4.56718 58.3373 4.56696C57.5157 4.56678 56.6941 4.56577 55.8724 4.56274C55.0997 4.55994 54.327 4.55957 53.5542 4.56106C53.2706 4.56119 52.9869 4.56045 52.7033 4.55877C52.3161 4.55662 51.929 4.55761 51.5418 4.55938C51.3251 4.55913 51.1085 4.55888 50.8852 4.55863C50.276 4.62678 49.9552 4.76408 49.4701 5.13186ZM49.1301 9.89186C48.1231 17.0776 48.1231 17.0776 50.1501 22.9819C50.7288 23.1081 50.7288 23.1081 51.376 23.0875C51.4976 23.0886 51.6192 23.0897 51.7445 23.0908C52.1511 23.0934 52.5574 23.0899 52.964 23.0864C53.2559 23.087 53.5477 23.088 53.8396 23.0893C54.6316 23.0917 55.4236 23.0888 56.2157 23.0848C57.0445 23.0814 57.8734 23.0824 58.7023 23.0828C60.0942 23.0828 61.4861 23.0794 62.8781 23.074C64.4874 23.0677 66.0966 23.0662 67.7059 23.0674C69.254 23.0685 70.802 23.0667 72.3501 23.0633C73.0089 23.0619 73.6678 23.0615 74.3266 23.0618C75.1024 23.0619 75.8782 23.0595 76.654 23.0551C76.9388 23.0539 77.2235 23.0535 77.5083 23.0541C77.8969 23.0547 78.2855 23.0522 78.6741 23.0489C78.8916 23.0483 79.1091 23.0476 79.3332 23.047C79.9452 22.9767 80.2684 22.8511 80.7501 22.4719C82.0762 18.4933 80.9201 14.0856 80.9201 9.89186C70.4294 9.89186 59.9387 9.89186 49.1301 9.89186Z" fill="#36454F"/>
<path id="Vector_3" d="M66.9486 52.1728C67.0958 52.1716 67.243 52.1705 67.3946 52.1693C67.8793 52.1661 68.3639 52.1654 68.8486 52.1651C69.1869 52.164 69.5252 52.1628 69.8635 52.1616C70.572 52.1596 71.2805 52.159 71.989 52.1592C72.8948 52.1592 73.8006 52.1546 74.7064 52.1487C75.405 52.1449 76.1036 52.1442 76.8022 52.1444C77.1361 52.144 77.4699 52.1425 77.8038 52.1399C78.2716 52.1365 78.7393 52.1375 79.2072 52.1396C79.4121 52.1367 79.4121 52.1367 79.621 52.1338C80.796 52.1468 81.5805 52.5821 82.5668 53.1784C83.8759 54.5229 83.9329 56.052 83.9172 57.8412C83.9181 58.0955 83.9193 58.3498 83.9209 58.6041C83.924 59.2901 83.9218 59.976 83.9185 60.6619C83.9157 61.3821 83.9172 62.1023 83.918 62.8224C83.9188 64.0311 83.9161 65.2397 83.9114 66.4484C83.9059 67.8434 83.9059 69.2384 83.9089 70.6334C83.9116 71.979 83.9104 73.3245 83.9075 74.6701C83.9063 75.2412 83.9065 75.8123 83.9078 76.3834C83.9091 77.0563 83.907 77.7291 83.9024 78.4019C83.9012 78.6481 83.9012 78.8942 83.9024 79.1404C83.9093 80.7118 83.8118 81.7541 82.845 83.0274C82.7532 83.1174 82.6614 83.2075 82.5668 83.3003C82.431 83.4387 82.431 83.4387 82.2925 83.5799C81.3161 84.3062 80.4165 84.4279 79.2373 84.4236C79.0906 84.425 78.9439 84.4264 78.7928 84.4279C78.3107 84.4319 77.8287 84.4321 77.3466 84.4319C77.0093 84.4331 76.6721 84.4344 76.3348 84.4358C75.6287 84.4381 74.9227 84.4383 74.2166 84.4373C73.3152 84.4363 72.4139 84.4415 71.5125 84.4484C70.8161 84.4528 70.1197 84.4533 69.4232 84.4527C69.0911 84.453 68.7589 84.4546 68.4268 84.4576C64.858 84.4867 64.858 84.4867 63.4806 83.2629C62.2495 81.928 62.3153 80.4892 62.3212 78.7754C62.3202 78.5195 62.319 78.2636 62.3177 78.0077C62.3146 77.3151 62.3148 76.6225 62.3158 75.9298C62.3163 75.3506 62.3153 74.7714 62.3142 74.1922C62.3119 72.8254 62.3121 71.4586 62.3141 70.0918C62.316 68.6838 62.3136 67.2758 62.3091 65.8677C62.3053 64.6568 62.3042 63.4459 62.3052 62.235C62.3057 61.5127 62.3053 60.7904 62.3024 60.068C62.2998 59.3886 62.3005 58.7092 62.3036 58.0298C62.3043 57.7812 62.3038 57.5326 62.302 57.284C62.2916 55.7177 62.3439 54.5957 63.3979 53.371C63.5071 53.2794 63.6162 53.1878 63.7286 53.0934C63.8369 52.9992 63.9452 52.905 64.0567 52.8079C64.9749 52.2034 65.8877 52.1716 66.9486 52.1728ZM65.2799 55.7922C65.0472 56.4007 65.0472 56.4007 65.1099 57.4922C70.3272 57.4922 75.5445 57.4922 80.9199 57.4922C80.9844 56.2143 80.9844 56.2143 80.4099 55.2822C79.7954 55.0774 79.2313 55.0844 78.5914 55.0821C78.3919 55.0804 78.3919 55.0804 78.1884 55.0787C77.7482 55.0753 77.308 55.0734 76.8678 55.0717C76.6422 55.0706 76.6422 55.0706 76.4121 55.0696C75.6163 55.066 74.8206 55.0636 74.0249 55.062C73.2031 55.0601 72.3813 55.0543 71.5594 55.0475C70.9274 55.0431 70.2953 55.0416 69.6632 55.041C69.3602 55.0402 69.0573 55.0382 68.7543 55.0351C68.3303 55.0309 67.9064 55.0311 67.4823 55.0323C67.3574 55.0301 67.2325 55.0279 67.1038 55.0257C66.2803 55.034 65.8503 55.1961 65.2799 55.7922ZM65.1099 60.3822C65.1099 65.5995 65.1099 70.8168 65.1099 76.1922C70.3272 76.1922 75.5445 76.1922 80.9199 76.1922C80.9199 70.9749 80.9199 65.7576 80.9199 60.3822C75.7026 60.3822 70.4853 60.3822 65.1099 60.3822ZM65.1099 78.9122C65.0486 80.1929 65.0486 80.1929 65.6199 81.1222C66.2458 81.5395 66.7172 81.5101 67.441 81.5062C67.641 81.5071 67.641 81.5071 67.8449 81.508C68.286 81.5095 68.7269 81.5085 69.168 81.5073C69.4743 81.5076 69.7807 81.5079 70.0871 81.5083C70.7295 81.5088 71.3718 81.5081 72.0142 81.5065C72.8376 81.5046 73.6609 81.5057 74.4843 81.5077C75.1171 81.5089 75.7499 81.5085 76.3827 81.5077C76.6863 81.5074 76.9899 81.5077 77.2934 81.5085C77.7179 81.5094 78.1423 81.5081 78.5667 81.5062C78.6923 81.5069 78.8178 81.5075 78.9471 81.5082C79.8207 81.5038 79.8207 81.5038 80.5799 81.1222C81.0339 80.3408 81.0339 80.3408 80.9199 78.9122C75.7026 78.9122 70.4853 78.9122 65.1099 78.9122Z" fill="#36454F"/>
<path id="Vector_4" d="M22.4739 59.9185C22.9323 60.2849 23.3684 60.6646 23.8001 61.062C23.9578 61.1964 23.9578 61.1964 24.1188 61.3336C26.5435 63.5282 27.9258 66.9079 28.0926 70.1231C28.2259 73.954 27.0933 77.2634 24.4801 80.102C24.3904 80.2072 24.3008 80.3124 24.2085 80.4207C22.7839 81.9946 20.695 83.1859 18.7001 83.842C18.5396 83.8959 18.3792 83.9498 18.214 84.0053C14.7371 84.9871 11.0693 84.3879 7.93959 82.6878C7.01774 82.1568 6.22045 81.5018 5.44006 80.782C5.3329 80.6884 5.22574 80.5948 5.11533 80.4984C2.73991 78.307 1.30509 75.0871 1.12432 71.8816C0.996995 67.8428 2.24441 64.5829 4.93006 61.5248C9.52077 56.7027 17.0928 56.0945 22.4739 59.9185ZM8.67006 62.252C8.50176 62.5044 8.50176 62.5044 8.33006 62.762C9.08741 63.5193 9.08741 63.5193 9.86006 64.292C9.31254 64.939 8.77164 65.5739 8.16006 66.162C7.61347 65.9225 7.25535 65.6344 6.84256 65.2057C6.73825 65.0984 6.63394 64.991 6.52646 64.8803C6.44845 64.7984 6.37044 64.7164 6.29006 64.632C5.06835 66.0652 4.49611 67.7166 4.25006 69.562C5.09156 69.562 5.93306 69.562 6.80006 69.562C6.80006 70.4596 6.80006 71.3572 6.80006 72.282C5.95856 72.282 5.11706 72.282 4.25006 72.282C4.44364 74.0242 5.13303 75.3511 5.95006 76.872C6.00616 76.9842 6.06226 77.0964 6.12006 77.212C6.60744 76.9935 6.96599 76.7749 7.31006 76.362C7.31006 76.2498 7.31006 76.1376 7.31006 76.022C7.42226 76.022 7.53446 76.022 7.65006 76.022C7.70616 75.9098 7.76226 75.7976 7.82006 75.682C8.4069 75.9331 8.78049 76.2664 9.22256 76.7232C9.34265 76.8464 9.46274 76.9695 9.58646 77.0964C9.67675 77.1907 9.76704 77.2849 9.86006 77.382C9.62579 77.9286 9.36942 78.2273 8.90381 78.5932C8.58429 78.8375 8.58429 78.8375 8.33006 79.082C8.33006 79.1942 8.33006 79.3064 8.33006 79.422C10.6517 80.7923 10.6517 80.7923 13.2601 81.292C13.2601 80.4505 13.2601 79.609 13.2601 78.742C14.1577 78.742 15.0553 78.742 15.9801 78.742C15.9801 79.5835 15.9801 80.425 15.9801 81.292C17.645 81.107 19.6889 80.4731 20.9101 79.252C20.4052 78.7471 19.9003 78.2422 19.3801 77.722C19.6918 77.0985 19.9327 76.7924 20.4213 76.3195C20.5445 76.1994 20.6676 76.0793 20.7945 75.9556C20.8887 75.8653 20.983 75.775 21.0801 75.682C21.1581 75.7497 21.2361 75.8174 21.3165 75.8872C21.4729 76.0223 21.4729 76.0223 21.6326 76.1601C21.7351 76.2489 21.8377 76.3376 21.9433 76.4291C22.2707 76.7025 22.6067 76.9591 22.9501 77.212C24.0889 75.6062 24.6935 74.2344 24.9901 72.282C24.1486 72.282 23.3071 72.282 22.4401 72.282C22.4401 71.3844 22.4401 70.4868 22.4401 69.562C23.2816 69.562 24.1231 69.562 24.9901 69.562C24.8527 68.3258 24.5322 67.3394 23.9807 66.2364C23.9215 66.1169 23.8623 65.9975 23.8014 65.8744C23.5075 65.3067 23.3209 64.9925 22.7801 64.632C22.0227 65.3893 22.0227 65.3893 21.2501 66.162C20.5439 65.5781 19.926 65.0344 19.3801 64.292C20.1374 63.5346 20.1374 63.5346 20.9101 62.762C19.5915 61.329 17.8668 60.8036 15.9801 60.552C15.9801 61.3935 15.9801 62.235 15.9801 63.102C15.0825 63.102 14.1849 63.102 13.2601 63.102C13.2601 62.2605 13.2601 61.419 13.2601 60.552C11.676 60.552 9.95872 61.3718 8.67006 62.252Z" fill="#36454F"/>
<path id="Vector_5" d="M41.14 33.6919C42.0376 33.6919 42.9352 33.6919 43.86 33.6919C43.86 34.1232 43.86 34.5544 43.86 34.9988C43.8791 35.9398 43.8791 35.9398 44.3142 36.7459C44.6644 36.9491 44.6644 36.9491 45.038 37.1038C45.7346 37.4167 46.1009 38.0302 46.4631 38.6856C46.58 39.1319 46.58 39.1319 46.58 40.4919C45.6263 40.4919 44.6726 40.4919 43.69 40.4919C43.5778 40.1553 43.4656 39.8187 43.35 39.4719C42.4915 39.3125 42.4915 39.3125 41.65 39.4719C41.5044 39.948 41.5044 39.948 41.48 40.4919C42.1178 41.3613 43.2357 41.7371 44.1854 42.1813C45.1994 42.6851 45.8407 43.2448 46.41 44.2319C46.7669 45.3027 46.7858 46.6667 46.3144 47.7063C45.8714 48.4519 45.1863 49.188 44.3408 49.4435C43.9549 49.6713 43.9549 49.6713 43.9264 50.3001C43.9145 50.551 43.9073 50.802 43.9025 51.0531C43.8885 51.4949 43.8744 51.9367 43.86 52.3919C42.9624 52.3919 42.0648 52.3919 41.14 52.3919C41.14 51.9606 41.14 51.5294 41.14 51.085C41.1209 50.144 41.1209 50.144 40.6858 49.3379C40.3356 49.1347 40.3356 49.1347 39.9619 48.9799C39.2824 48.6748 38.9066 48.0844 38.5687 47.4333C38.3726 46.7986 38.3836 46.1952 38.3987 45.5388C38.4058 45.1075 38.4128 44.6762 38.42 44.2319C39.3737 44.2319 40.3274 44.2319 41.31 44.2319C41.3681 44.9375 41.3681 44.9375 41.4262 45.643C41.4661 46.1178 41.4661 46.1178 41.65 46.6119C42.5085 46.7713 42.5085 46.7713 43.35 46.6119C43.4956 46.1358 43.4956 46.1358 43.52 45.5919C42.8822 44.7225 41.7643 44.3467 40.8146 43.9025C39.8006 43.3987 39.1593 42.839 38.59 41.8519C38.2356 40.7886 38.2131 39.4238 38.675 38.3881C39.1922 37.515 40.0041 36.7339 40.97 36.4119C41.0261 35.5143 41.0822 34.6167 41.14 33.6919Z" fill="#36454F"/>
<path id="Vector_6" d="M70.3799 12.4419C73.0166 12.4419 75.6533 12.4419 78.3699 12.4419C78.3699 15.1347 78.3699 17.8275 78.3699 20.6019C75.7332 20.6019 73.0965 20.6019 70.3799 20.6019C70.3799 17.9091 70.3799 15.2163 70.3799 12.4419ZM73.0999 15.1619C73.0999 16.0034 73.0999 16.8449 73.0999 17.7119C73.9414 17.7119 74.7829 17.7119 75.6499 17.7119C75.6499 16.8704 75.6499 16.0289 75.6499 15.1619C74.8084 15.1619 73.9669 15.1619 73.0999 15.1619Z" fill="#36454F"/>
<path id="Vector_7" d="M77.1799 63.272C77.7711 63.5296 78.1924 63.8801 78.6674 64.3132C78.8033 64.4364 78.9391 64.5595 79.0791 64.6864C79.1817 64.7807 79.2842 64.8749 79.3899 64.972C79.1489 65.5248 78.8586 65.8753 78.423 66.2895C77.9706 66.721 77.5515 67.1674 77.144 67.6408C76.4568 68.4329 75.7236 69.1733 74.9805 69.9126C74.7867 70.1074 74.7867 70.1074 74.5891 70.3061C73.8755 71.0184 73.1463 71.6996 72.3823 72.3574C71.9807 72.7087 71.6042 73.0812 71.2299 73.4613C71.1002 73.5926 70.9704 73.7239 70.8368 73.8591C70.7421 73.9558 70.6474 74.0524 70.5499 74.152C70.0669 73.933 69.7239 73.706 69.3559 73.3252C69.2165 73.183 69.2165 73.183 69.0743 73.038C68.9792 72.9393 68.8841 72.8406 68.7861 72.7388C68.1002 72.0312 67.408 71.3704 66.6399 70.752C66.9011 70.1263 67.2827 69.7341 67.7661 69.2645C67.9051 69.1286 68.044 68.9927 68.1872 68.8528C68.2937 68.7502 68.4002 68.6476 68.5099 68.542C69.0565 68.7814 69.4146 69.0696 69.8274 69.4982C69.9317 69.6056 70.036 69.713 70.1435 69.8236C70.2215 69.9056 70.2995 69.9875 70.3799 70.072C70.496 69.9558 70.6122 69.8397 70.7318 69.72C72.8812 67.5707 75.0305 65.4213 77.1799 63.272Z" fill="#36454F"/>
<path id="Vector_8" d="M51.6799 12.4419C56.1118 12.4419 60.5437 12.4419 65.1099 12.4419C65.1099 13.3395 65.1099 14.2371 65.1099 15.1619C60.678 15.1619 56.2461 15.1619 51.6799 15.1619C51.6799 14.2643 51.6799 13.3667 51.6799 12.4419Z" fill="#36454F"/>
<path id="Vector_9" d="M13.26 65.4819C14.1576 65.4819 15.0552 65.4819 15.98 65.4819C15.9599 65.9803 15.9599 65.9803 15.9395 66.4887C15.7792 68.9797 15.7792 68.9797 16.6533 71.1935C17.1697 71.7023 17.732 72.0929 18.36 72.4519C18.0988 73.0777 17.7171 73.4699 17.2337 73.9394C17.0253 74.1432 17.0253 74.1432 16.8127 74.3512C16.7062 74.4537 16.5997 74.5563 16.49 74.6619C15.1337 74 13.8887 73.1978 13.26 71.7719C12.8503 69.7453 13.1176 67.5245 13.26 65.4819Z" fill="#36454F"/>
<path id="Vector_10" d="M51.6799 17.7119C52.6336 17.7119 53.5873 17.7119 54.5699 17.7119C54.5699 18.6656 54.5699 19.6193 54.5699 20.6019C53.6162 20.6019 52.6625 20.6019 51.6799 20.6019C51.6799 19.6482 51.6799 18.6945 51.6799 17.7119Z" fill="#36454F"/>
<path id="Vector_11" d="M56.95 17.7119C57.9037 17.7119 58.8574 17.7119 59.84 17.7119C59.84 18.6656 59.84 19.6193 59.84 20.6019C59.172 20.6072 59.172 20.6072 58.4906 20.6125C58.3501 20.6141 58.2097 20.6156 58.065 20.6172C57.7499 20.6184 57.4349 20.6105 57.12 20.6019C56.95 20.4319 56.95 20.4319 56.9333 19.8203C56.9343 19.5673 56.9365 19.3143 56.9393 19.0613C56.9428 18.616 56.9463 18.1707 56.95 17.7119Z" fill="#36454F"/>
<path id="Vector_12" d="M62.3899 17.7119C63.2875 17.7119 64.1851 17.7119 65.1099 17.7119C65.1099 18.6656 65.1099 19.6193 65.1099 20.6019C64.2123 20.6019 63.3147 20.6019 62.3899 20.6019C62.3899 19.6482 62.3899 18.6945 62.3899 17.7119Z" fill="#36454F"/>
<path id="Vector_13" d="M32.4699 31.312C32.6382 31.3681 32.8065 31.4242 32.9799 31.482C33.0427 32.035 33.0183 32.275 32.7032 32.7436C31.6443 33.7803 30.7935 34.0554 29.3315 34.0524C29.0791 34.047 28.8268 34.0414 28.5744 34.0357C28.3045 34.0353 28.0346 34.0355 27.7647 34.0364C27.0366 34.0368 26.3088 34.0279 25.5807 34.0171C24.8182 34.0075 24.0557 34.0067 23.2931 34.0049C21.8511 34.0001 20.4093 33.9876 18.9674 33.9722C17.3249 33.9551 15.6825 33.9467 14.04 33.939C10.6632 33.923 7.28657 33.8962 3.90991 33.862C3.89612 33.5611 3.88624 33.26 3.87804 32.9589C3.87212 32.7912 3.8662 32.6236 3.86011 32.4509C3.90991 31.992 3.90991 31.992 4.41991 31.482C4.30771 32.2113 4.19551 32.9406 4.07991 33.692C7.57779 33.7052 11.0756 33.7104 14.5735 33.7048C16.1977 33.7024 17.8218 33.7029 19.446 33.7101C20.8621 33.7163 22.278 33.7172 23.694 33.7117C24.4435 33.709 25.1928 33.7089 25.9423 33.7153C26.6486 33.7212 27.3545 33.7199 28.0608 33.7132C28.3192 33.7119 28.5777 33.7133 28.8361 33.7176C30.1118 33.737 31.0749 33.7034 32.0515 32.7877C32.4213 32.4088 32.4213 32.4088 32.6399 31.992C32.6106 31.6106 32.6106 31.6106 32.4699 31.312Z" fill="#36454F"/>
<path id="Vector_14" d="M21.08 75.5122C21.1922 75.6244 21.3044 75.7366 21.42 75.8522C21.3075 75.9508 21.1951 76.0494 21.0793 76.151C20.9358 76.2838 20.7922 76.4166 20.6443 76.5535C20.5004 76.6836 20.3564 76.8138 20.208 76.9479C19.8285 77.3684 19.8285 77.3684 19.9278 77.944C19.9714 78.0952 20.015 78.2464 20.06 78.4022C19.7795 78.1778 19.499 77.9534 19.21 77.7222C19.4712 77.0965 19.8528 76.7043 20.3362 76.2347C20.4751 76.0988 20.6141 75.963 20.7572 75.823C20.917 75.6692 20.917 75.6692 21.08 75.5122Z" fill="#36454F"/>
<path id="Vector_15" d="M5.95 60.5518C6.0622 60.6079 6.1744 60.664 6.29 60.7218C6.01486 61.0345 5.73849 61.3459 5.46125 61.6568C5.38302 61.7459 5.30478 61.8351 5.22418 61.927C5.01981 62.1551 4.80548 62.3742 4.59 62.5918C4.4778 62.5918 4.3656 62.5918 4.25 62.5918C4.50113 62.0049 4.83445 61.6313 5.29125 61.1893C5.41441 61.0692 5.53756 60.9491 5.66445 60.8254C5.75868 60.7351 5.85291 60.6448 5.95 60.5518Z" fill="#36454F"/>
<path id="Vector_16" d="M63.9201 52.9019C64.0323 52.958 64.1445 53.0141 64.2601 53.0719C63.9854 53.4189 63.7015 53.7588 63.4101 54.0919C63.2979 54.0919 63.1857 54.0919 63.0701 54.0919C63.2899 53.6015 63.5222 53.2636 63.9201 52.9019Z" fill="#36454F"/>
<path id="Vector_17" d="M21.0799 75.5122C21.1921 75.6244 21.3043 75.7366 21.4199 75.8522C20.915 76.273 20.915 76.273 20.3999 76.7022C20.4957 76.1464 20.6548 75.8818 21.0799 75.5122Z" fill="#36454F"/>
</g>
</svg>
