<svg width="60" height="60" viewBox="0 0 60 60" fill="none" xmlns="http://www.w3.org/2000/svg">
<g id="ph:code">
<path id="Vector" d="M16.1999 22.0664L6.67961 30L16.1999 37.9336C16.3946 38.0894 16.5562 38.2825 16.6753 38.5015C16.7944 38.7205 16.8687 38.9611 16.8937 39.2092C16.9187 39.4572 16.894 39.7078 16.821 39.9462C16.7481 40.1846 16.6283 40.406 16.4687 40.5976C16.3091 40.7891 16.1129 40.9469 15.8916 41.0617C15.6702 41.1765 15.4283 41.246 15.1798 41.2662C14.9312 41.2864 14.6812 41.2568 14.4443 41.1791C14.2074 41.1015 13.9883 40.9774 13.7999 40.8141L2.54993 31.4391C2.33883 31.2631 2.169 31.0429 2.05245 30.794C1.9359 30.5451 1.87549 30.2737 1.87549 29.9988C1.87549 29.724 1.9359 29.4525 2.05245 29.2037C2.169 28.9548 2.33883 28.7346 2.54993 28.5586L13.7999 19.1836C14.1822 18.8653 14.6753 18.712 15.1706 18.7572C15.666 18.8025 16.1231 19.0427 16.4413 19.425C16.7596 19.8073 16.913 20.3003 16.8677 20.7957C16.8224 21.2911 16.5822 21.7481 16.1999 22.0664ZM57.4499 28.5586L46.1999 19.1836C46.0106 19.026 45.7922 18.9072 45.557 18.8341C45.3218 18.7609 45.0745 18.7348 44.8292 18.7572C44.584 18.7797 44.3455 18.8502 44.1275 18.9647C43.9094 19.0793 43.7161 19.2357 43.5585 19.425C43.2403 19.8073 43.0869 20.3003 43.1322 20.7957C43.1774 21.2911 43.4176 21.7481 43.7999 22.0664L53.3202 30L43.7999 37.9336C43.6053 38.0894 43.4437 38.2825 43.3246 38.5015C43.2054 38.7205 43.1312 38.9611 43.1062 39.2092C43.0811 39.4572 43.1058 39.7078 43.1788 39.9462C43.2518 40.1846 43.3716 40.406 43.5312 40.5976C43.6908 40.7891 43.887 40.9469 44.1083 41.0617C44.3296 41.1765 44.5716 41.246 44.8201 41.2662C45.0686 41.2864 45.3186 41.2568 45.5556 41.1791C45.7925 41.1015 46.0115 40.9774 46.1999 40.8141L57.4499 31.4391C57.661 31.2631 57.8309 31.0429 57.9474 30.794C58.064 30.5451 58.1244 30.2737 58.1244 29.9988C58.1244 29.724 58.064 29.4525 57.9474 29.2037C57.8309 28.9548 57.661 28.7346 57.4499 28.5586ZM38.1398 7.6125C37.9083 7.52847 37.6626 7.49085 37.4166 7.50179C37.1706 7.51273 36.9292 7.57202 36.7061 7.67627C36.483 7.78052 36.2826 7.92769 36.1164 8.10937C35.9502 8.29106 35.8214 8.5037 35.7374 8.73516L20.7374 49.9852C20.653 50.2168 20.6151 50.4627 20.6259 50.709C20.6367 50.9552 20.6959 51.1969 20.8001 51.4203C20.9044 51.6436 21.0517 51.8442 21.2336 52.0106C21.4155 52.177 21.6283 52.3058 21.8601 52.3898C22.0655 52.4628 22.2819 52.5001 22.4999 52.5C22.885 52.5 23.2607 52.3815 23.576 52.1605C23.8914 51.9395 24.131 51.6268 24.2624 51.2648L39.2624 10.0148C39.3465 9.78339 39.3841 9.53765 39.3731 9.29166C39.3622 9.04566 39.3029 8.80423 39.1987 8.58115C39.0944 8.35808 38.9472 8.15771 38.7656 7.99151C38.5839 7.82531 38.3712 7.69652 38.1398 7.6125Z" fill="#36454F"/>
</g>
</svg>
