<svg width="85" height="86" viewBox="0 0 85 86" fill="none" xmlns="http://www.w3.org/2000/svg">
<g id="quality-assurance-removebg-preview 1">
<path id="Vector" d="M20.0599 1.73193C23.482 1.73193 26.9041 1.73193 30.4299 1.73193C31.1099 4.45193 31.1099 4.45193 31.1099 5.30193C31.32 5.3256 31.32 5.3256 31.5343 5.34975C32.2467 5.49588 32.8441 5.7617 33.5006 6.06693C34.5614 6.60946 34.5614 6.60946 35.6999 6.83193C36.1548 6.62119 36.5609 6.34814 36.9749 6.06693C37.1947 5.91764 37.4161 5.77057 37.639 5.626C37.7845 5.52689 37.7845 5.52689 37.9328 5.42578C38.3829 5.25 38.6392 5.33767 39.0999 5.47193C39.455 5.73721 39.455 5.73721 39.8077 6.08366C39.941 6.21309 40.0742 6.34252 40.2114 6.47588C40.3526 6.61683 40.4938 6.75777 40.6392 6.90299C40.7856 7.04749 40.932 7.19199 41.0828 7.34087C41.3914 7.64682 41.6991 7.95367 42.006 8.26137C42.4772 8.73236 42.9532 9.19814 43.4296 9.66383C43.7288 9.96158 44.0276 10.2596 44.3261 10.558C44.4693 10.6972 44.6126 10.8364 44.7602 10.9799C44.8902 11.112 45.0202 11.2441 45.1541 11.3802C45.3275 11.5527 45.3275 11.5527 45.5044 11.7287C45.7299 12.1019 45.7299 12.1019 45.7009 12.6248C45.4736 13.4262 44.9667 14.0074 44.4749 14.6685C44.1471 15.2568 44.1978 15.3834 44.3699 16.0119C44.4679 16.2841 44.5729 16.5537 44.684 16.8208C44.7753 17.0433 44.7753 17.0433 44.8683 17.2703C44.997 17.5803 45.1259 17.8902 45.2548 18.2C45.3154 18.3479 45.376 18.4959 45.4384 18.6483C45.5223 18.8498 45.5223 18.8498 45.6078 19.0554C45.7299 19.4119 45.7299 19.4119 45.7299 19.9219C45.9403 19.9395 46.1507 19.957 46.3674 19.9751C47.3718 20.084 48.3244 20.344 49.2999 20.6019C49.356 21.4995 49.4121 22.3971 49.4699 23.3219C52.8098 22.2684 56.0759 21.218 58.9474 19.1622C59.3299 18.9019 59.3299 18.9019 59.8399 18.7319C60.1614 18.8783 60.1614 18.8783 60.5259 19.1138C60.6619 19.1994 60.7979 19.2851 60.938 19.3733C61.084 19.4667 61.2301 19.5601 61.3806 19.6563C67.1818 23.2406 73.4036 24.1763 80.1124 24.2782C80.4737 24.2847 80.8349 24.2913 81.1962 24.2981C82.0674 24.3142 82.9387 24.3285 83.8099 24.3419C83.8219 26.81 83.8309 29.2782 83.8364 31.7463C83.839 32.8927 83.8425 34.039 83.8484 35.1854C83.854 36.2943 83.857 37.4032 83.8583 38.5121C83.8593 38.9325 83.8611 39.3529 83.8639 39.7734C83.9105 47.1333 81.9352 53.8286 77.6899 59.8719C77.6338 59.928 77.5777 59.9841 77.5199 60.0419C77.6019 61.3013 77.8902 62.4793 78.2106 63.6969C78.2945 64.0208 78.2945 64.0208 78.3802 64.3512C78.8161 66.0172 79.2822 67.6745 79.7512 69.3315C79.8135 69.5519 79.8758 69.7723 79.9381 69.9927C80.2213 70.9944 80.5055 71.9959 80.7928 72.9964C80.9425 73.5188 81.0908 74.0416 81.2393 74.5643C81.2954 74.7578 81.3515 74.9513 81.4092 75.1507C81.4594 75.3278 81.5095 75.505 81.5611 75.6875C81.6057 75.8429 81.6503 75.9984 81.6963 76.1586C81.7699 76.5319 81.7699 76.5319 81.5999 76.8719C80.6924 76.773 79.8396 76.6202 78.9543 76.3878C78.7817 76.3429 78.7817 76.3429 78.6057 76.2971C78.2435 76.2026 77.8817 76.107 77.5199 76.0113C77.2723 75.9465 77.0246 75.8817 76.7768 75.8171C76.1743 75.6596 75.572 75.5011 74.9699 75.3419C74.9214 75.4694 74.8728 75.5968 74.8227 75.7281C74.66 76.1197 74.4892 76.4549 74.2654 76.8128C74.1574 76.9872 74.1574 76.9872 74.0472 77.1651C73.9695 77.2892 73.8918 77.4134 73.8118 77.5413C72.9457 78.9406 72.1043 80.3534 71.2709 81.7723C71.1372 81.9997 71.1372 81.9997 71.0008 82.2316C70.9219 82.3661 70.843 82.5007 70.7617 82.6393C70.586 82.9319 70.3993 83.2179 70.2099 83.5019C70.0977 83.5019 69.9855 83.5019 69.8699 83.5019C69.3149 81.8708 68.7607 80.2394 68.2075 78.6077C67.9507 77.85 67.6935 77.0925 67.4357 76.3352C67.187 75.6046 66.9391 74.8738 66.6917 74.1428C66.5971 73.8636 66.5022 73.5846 66.407 73.3056C66.274 72.9155 66.1419 72.5251 66.0101 72.1346C65.9703 72.0188 65.9306 71.903 65.8896 71.7837C65.7282 71.3028 65.6199 70.9233 65.6199 70.4119C65.5044 70.4556 65.3888 70.4993 65.2697 70.5443C64.7384 70.7449 64.207 70.945 63.6756 71.1451C63.4938 71.2138 63.312 71.2825 63.1247 71.3532C62.7646 71.4887 62.4039 71.6227 62.0427 71.7551C61.7326 71.8703 61.4242 71.9902 61.1188 72.1175C59.5276 72.7448 58.1643 72.0272 56.6524 71.4319C56.4962 71.3715 56.3399 71.311 56.179 71.2486C55.4709 70.974 54.7649 70.6945 54.0599 70.4119C53.9588 70.7168 53.9588 70.7168 53.8555 71.0279C52.4725 75.1936 51.0792 79.3552 49.6399 83.5019C49.5277 83.5019 49.4155 83.5019 49.2999 83.5019C49.0733 83.1645 48.8701 82.8304 48.6704 82.4773C48.6092 82.3715 48.5479 82.2657 48.4848 82.1567C48.2878 81.816 48.0925 81.4743 47.8974 81.1326C47.6422 80.6879 47.3863 80.2437 47.1298 79.7998C47.0677 79.6923 47.0056 79.5848 46.9417 79.474C46.4569 78.6401 45.9359 77.8371 45.3899 77.0419C44.5399 75.7385 44.5399 75.7385 44.5399 75.3419C44.3641 75.3883 44.1884 75.4346 44.0072 75.4824C43.3533 75.6545 42.6989 75.8253 42.0445 75.9956C41.7616 76.0695 41.4789 76.1437 41.1962 76.2182C40.7892 76.3256 40.3819 76.4315 39.9745 76.5372C39.7859 76.5874 39.7859 76.5874 39.5934 76.6387C38.9573 76.8023 38.3945 76.8869 37.7399 76.8719C38.1484 75.2079 38.5761 73.5513 39.0378 71.9011C39.1355 71.5517 39.2327 71.2022 39.3298 70.8527C39.5708 69.9858 39.8126 69.1192 40.0544 68.2525C40.26 67.5153 40.4653 66.7781 40.6702 66.0407C40.7645 65.7021 40.8591 65.3636 40.9538 65.0251C41.0717 64.601 41.1883 64.1766 41.3036 63.7518C41.3952 63.4141 41.4871 63.0766 41.5827 62.7401C41.687 62.3732 41.7875 62.0054 41.8875 61.6373C41.9203 61.5253 41.9531 61.4132 41.9869 61.2977C42.1824 60.5595 42.156 60.1387 41.7907 59.4682C41.5959 59.2001 41.3927 58.938 41.1824 58.6819C40.9713 58.3936 40.7612 58.1045 40.5522 57.8147C40.3966 57.6045 40.3966 57.6045 40.2377 57.3902C39.5552 56.422 39.0809 55.3358 38.5899 54.2619C38.4999 54.0713 38.4098 53.8806 38.317 53.6842C37.0528 50.8958 36.1747 47.79 35.8699 44.7419C34.9849 44.8415 34.286 45.1343 33.4899 45.5069C32.6939 45.8795 31.995 46.1724 31.1099 46.2719C31.0836 46.5928 31.0836 46.5928 31.0568 46.9201C30.795 49.3069 30.795 49.3069 30.2599 49.8419C29.9417 49.8579 29.6229 49.8619 29.3043 49.8612C29.1001 49.8612 28.8959 49.8612 28.6855 49.8612C28.4633 49.8603 28.2411 49.8594 28.0121 49.8585C27.7836 49.8582 27.5552 49.858 27.3268 49.8578C26.7245 49.8572 26.1222 49.8555 25.5199 49.8536C24.9058 49.8519 24.2916 49.8511 23.6774 49.8502C22.4716 49.8484 21.2658 49.8455 20.0599 49.8419C19.9454 49.4066 19.8322 48.971 19.7199 48.5351C19.6875 48.4124 19.6551 48.2898 19.6217 48.1635C19.4567 47.5183 19.3375 46.9441 19.3799 46.2719C19.2397 46.2562 19.0994 46.2404 18.9549 46.2241C18.1238 46.0534 17.4116 45.6996 16.6467 45.3416C15.672 44.8897 15.672 44.8897 14.6199 44.7419C14.178 44.9777 13.8087 45.2043 13.4087 45.4963C12.323 46.2719 12.323 46.2719 11.5599 46.2719C11.5599 46.1597 11.5599 46.0475 11.5599 45.9319C11.4127 45.8688 11.4127 45.8688 11.2624 45.8044C10.8239 45.5608 10.5295 45.2886 10.1999 44.9119C10.1999 44.7997 10.1999 44.6875 10.1999 44.5719C10.048 44.503 10.048 44.503 9.89305 44.4326C9.52305 44.2336 9.28442 44.0376 8.99018 43.7408C8.89153 43.6421 8.79288 43.5434 8.69124 43.4418C8.58691 43.3357 8.48259 43.2296 8.3751 43.1203C8.26663 43.0113 8.15817 42.9024 8.04642 42.7902C7.70095 42.4428 7.35669 42.0943 7.01244 41.7457C6.77811 41.5096 6.54369 41.2737 6.3092 41.0378C5.73521 40.4601 5.1623 39.8813 4.58994 39.3019C4.90443 38.4762 5.34598 37.7743 5.83805 37.0458C6.19916 36.5249 6.19916 36.5249 6.24138 35.9189C6.10888 35.5294 5.96308 35.15 5.80584 34.7697C5.71462 34.5463 5.71462 34.5463 5.62156 34.3185C5.49307 34.0062 5.36424 33.6941 5.23508 33.3821C5.17449 33.2335 5.11389 33.0848 5.05146 32.9316C4.99557 32.7961 4.93968 32.6607 4.88209 32.5212C4.75994 32.1619 4.75994 32.1619 4.75994 31.6519C4.44438 31.6256 4.44438 31.6256 4.12244 31.5988C3.13132 31.469 2.15968 31.2144 1.18994 30.9719C1.18994 27.5498 1.18994 24.1277 1.18994 20.6019C3.90994 19.9219 3.90994 19.9219 4.75994 19.9219C4.7915 19.7256 4.82305 19.5292 4.85557 19.3269C5.06119 18.3648 5.47412 17.5036 5.89885 16.6215C6.19055 15.9954 6.35213 15.6475 6.11994 14.9919C5.90031 14.6128 5.67672 14.2443 5.43994 13.8763C4.78111 12.8455 4.78111 12.8455 4.58994 12.2719C6.94614 9.91573 9.30234 7.55953 11.7299 5.13193C12.6905 5.61223 13.4099 6.01714 14.2335 6.64932C14.7797 6.90744 15.06 6.82131 15.6399 6.66193C16.1021 6.48182 16.5508 6.27716 16.9999 6.06693C17.796 5.69433 18.4949 5.40151 19.3799 5.30193C19.3975 5.09156 19.415 4.88118 19.4331 4.66443C19.5629 3.67331 19.8175 2.70167 20.0599 1.73193ZM22.4399 4.62193C22.0758 5.39496 22.0758 5.39496 22.0807 5.95936C22.0375 6.61097 21.953 6.96217 21.5899 7.51193C20.6374 8.05413 19.5217 8.27453 18.4726 8.56314C17.8258 8.76145 17.2366 9.03657 16.6387 9.35006C16.4559 9.44582 16.2732 9.54159 16.0849 9.64025C15.6219 9.89497 15.6219 9.89497 15.1299 10.2319C14.3166 10.1682 13.6745 9.54791 13.0315 9.09307C12.6097 8.82102 12.6097 8.82102 12.2647 8.97723C11.7985 9.2772 11.4423 9.63162 11.0526 10.0261C10.9352 10.1442 10.9352 10.1442 10.8154 10.2647C10.5669 10.5151 10.3197 10.7666 10.0724 11.0182C9.90363 11.1887 9.73473 11.3591 9.56576 11.5295C9.15291 11.9461 8.74115 12.3637 8.32994 12.7819C8.62275 13.5459 9.00542 14.1224 9.49537 14.7741C9.68994 15.1619 9.68994 15.1619 9.674 15.5637C9.47859 16.1322 9.19299 16.6311 8.89307 17.1488C8.34185 18.138 7.9203 19.1338 7.56494 20.2088C7.52162 20.339 7.4783 20.4692 7.43366 20.6034C7.24368 21.2009 7.13994 21.6695 7.13994 22.3019C6.79131 22.3296 6.44268 22.3573 6.09404 22.3849C5.40484 22.5088 4.74425 22.7605 4.07994 22.9819C4.07994 24.8332 4.07994 26.6845 4.07994 28.5919C4.83285 28.8071 5.51771 28.9915 6.27932 29.1232C6.52355 29.1659 6.52355 29.1659 6.77271 29.2095C6.8939 29.2301 7.01508 29.2507 7.13994 29.2719C7.15901 29.43 7.15901 29.43 7.17846 29.5913C7.49484 31.7223 8.37621 33.5915 9.49869 35.4085C9.68994 35.9019 9.68994 35.9019 9.58502 36.4232C9.36049 36.8996 9.11953 37.3191 8.81869 37.7507C8.72709 37.8835 8.63549 38.0163 8.54111 38.1531C8.47143 38.2517 8.40174 38.3503 8.32994 38.4519C8.59562 39.0922 8.99402 39.4951 9.48408 39.9793C9.56284 40.0576 9.6416 40.1358 9.72274 40.2165C9.9731 40.4649 10.2246 40.7122 10.4762 40.9594C10.6467 41.1283 10.8172 41.2971 10.9875 41.4661C11.4041 41.879 11.8217 42.2907 12.2399 42.7019C13.0039 42.4091 13.5804 42.0265 14.2321 41.5365C14.6199 41.3419 14.6199 41.3419 15.0237 41.3579C15.4728 41.5129 15.8621 41.7173 16.2704 41.9588C17.9398 42.9454 19.7202 43.4229 21.5899 43.8919C21.6606 44.2019 21.6606 44.2019 21.7327 44.5181C21.7949 44.7875 21.8571 45.0569 21.9193 45.3263C21.9503 45.4627 21.9813 45.5991 22.0133 45.7397C22.1164 46.3994 22.1164 46.3994 22.4399 46.9519C22.8562 46.967 23.2675 46.9715 23.6837 46.9685C23.808 46.9683 23.9323 46.9681 24.0603 46.9678C24.4587 46.9669 24.8572 46.9647 25.2556 46.9626C25.5251 46.9617 25.7946 46.9609 26.0641 46.9602C26.726 46.9584 27.388 46.9554 28.0499 46.9519C28.3032 46.1254 28.3032 46.1254 28.4092 45.2725C28.4536 44.6737 28.5366 44.3773 28.8999 43.8919C29.5616 43.5702 30.2776 43.4262 30.9911 43.2613C32.7461 42.8469 34.1312 42.0581 35.6999 41.1719C35.6999 40.106 35.6999 39.0401 35.6999 37.9419C35.5246 38.0822 35.3493 38.2224 35.1687 38.3669C33.7136 39.4474 32.1866 40.2875 30.4831 40.8957C30.3702 40.9362 30.2574 40.9768 30.1411 41.0185C28.5505 41.5559 26.9608 41.745 25.2874 41.7351C25.1169 41.7341 24.9465 41.7331 24.7708 41.7322C20.294 41.6595 16.5295 39.7161 13.4299 36.5819C13.3131 36.4669 13.1963 36.3518 13.076 36.2333C10.1646 33.1642 9.19895 28.7924 9.29018 24.7085C9.46518 20.6142 11.4359 16.8444 14.349 14.0211C18.1002 10.7105 22.4229 9.61224 27.3699 9.89193C31.3934 10.3371 35.0165 12.6473 37.6496 15.6387C39.6832 18.2085 40.6883 21.1586 41.3099 24.3419C43.0401 24.3961 44.6981 24.2316 46.4099 24.0019C46.4099 23.6653 46.4099 23.3287 46.4099 22.9819C46.1872 22.9029 45.964 22.8253 45.7406 22.7482C45.6163 22.7048 45.4921 22.6614 45.364 22.6167C44.7005 22.4183 44.0271 22.2758 43.3499 22.1319C43.3271 22.0389 43.3042 21.9459 43.2806 21.8501C42.8084 19.973 42.2816 18.2593 41.2774 16.5934C40.9999 16.1218 40.799 15.7789 40.8039 15.2237C41.0058 14.7352 41.263 14.345 41.5756 13.9188C41.6845 13.7687 41.7934 13.6186 41.9056 13.4639C41.9895 13.3511 42.0735 13.2382 42.1599 13.1219C41.8943 12.4817 41.4959 12.0787 41.0058 11.5946C40.927 11.5163 40.8483 11.438 40.7671 11.3574C40.5168 11.1089 40.2653 10.8617 40.0137 10.6144C39.8432 10.4456 39.6727 10.2767 39.5024 10.1078C39.0858 9.69491 38.6681 9.28314 38.2499 8.87193C37.4624 9.17479 36.8208 9.5799 36.1249 10.054C35.6999 10.2319 35.6999 10.2319 35.3168 10.1376C35.1627 10.0566 35.0087 9.97547 34.8499 9.89193C34.6149 9.77674 34.3796 9.66214 34.144 9.54795C34.0131 9.4834 33.8822 9.41885 33.7473 9.35234C31.3458 8.13835 31.3458 8.13835 28.7299 7.68193C28.7093 7.5465 28.6887 7.41108 28.6675 7.27154C28.639 7.09141 28.6105 6.91128 28.5812 6.72568C28.5536 6.54818 28.526 6.37068 28.4975 6.18779C28.3846 5.55409 28.3846 5.55409 28.0499 4.62193C26.1986 4.62193 24.3473 4.62193 22.4399 4.62193ZM15.6399 16.6919C15.5337 16.7943 15.4274 16.8966 15.3179 17.0021C13.155 19.2528 12.1075 22.6324 12.0274 25.6913C12.0896 27.8347 12.5806 29.7028 13.4299 31.6519C13.5031 31.8202 13.5763 31.9885 13.6517 32.1619C15.0332 34.9738 17.7104 37.0226 20.5972 38.1192C21.8799 38.5515 23.1256 38.8807 24.4799 38.9619C24.5899 38.9709 24.7 38.9799 24.8133 38.9892C27.7434 39.1183 30.6207 38.0842 32.9799 36.4119C33.1167 36.3153 33.2534 36.2187 33.3943 36.1191C33.784 35.8301 34.1512 35.5491 34.5099 35.2219C34.6069 35.1381 34.7039 35.0543 34.8038 34.968C35.4933 34.2967 35.7806 33.804 35.835 32.8336C35.8348 32.4379 35.8282 32.0422 35.8162 31.6466C35.8145 31.4372 35.8128 31.2279 35.811 31.0121C35.8044 30.3469 35.7895 29.6821 35.7743 29.0169C35.7677 28.5645 35.7629 28.1121 35.758 27.6596C35.745 26.5535 35.7244 25.4478 35.6999 24.3419C36.5414 24.3419 37.3829 24.3419 38.2499 24.3419C38.0638 20.805 36.1875 17.8914 33.6739 15.5365C31.6529 13.8768 28.769 12.7817 26.1799 12.6119C26.0493 12.6032 25.9187 12.5944 25.7842 12.5854C21.9353 12.4471 18.3508 13.9905 15.6399 16.6919ZM59.6699 22.1319C59.2412 22.3279 58.8761 22.5306 58.4799 22.7801C53.9888 25.4428 48.8536 27.0073 43.6202 27.1157C43.4027 27.121 43.4027 27.121 43.1808 27.1264C42.7237 27.1374 42.2665 27.1475 41.8093 27.1576C41.4969 27.1649 41.1844 27.1723 40.872 27.1798C40.1113 27.1979 39.3506 27.2151 38.5899 27.2319C38.582 29.0543 38.576 30.8767 38.5723 32.6991C38.5706 33.5457 38.5682 34.3923 38.5643 35.2389C38.5605 36.059 38.5585 36.8791 38.5577 37.6992C38.5571 38.0089 38.5559 38.3187 38.554 38.6284C38.5375 41.4889 38.6294 44.3972 39.3231 47.1857C39.3606 47.3416 39.3982 47.4976 39.4369 47.6582C39.5468 48.1041 39.6616 48.5482 39.7799 48.9919C39.8103 49.1061 39.8407 49.2203 39.872 49.3379C40.6758 52.2419 42.0301 55.2634 43.8599 57.6619C43.9959 57.8458 44.1319 58.0298 44.2677 58.2138C45.1459 59.3906 46.0801 60.5054 47.0899 61.5719C47.1704 61.6597 47.2508 61.7475 47.3337 61.838C50.21 64.9662 53.8925 67.2724 57.8318 68.8288C58.0545 68.9185 58.0545 68.9185 58.2817 69.01C59.848 69.5975 60.9248 69.1795 62.4006 68.5313C62.5592 68.462 62.7178 68.3927 62.8813 68.3213C66.806 66.5776 70.5244 64.0506 73.2699 60.7219C73.4005 60.5703 73.5312 60.4186 73.6657 60.2624C79.0829 53.9147 80.9607 46.4758 80.9365 38.2886C80.9362 37.968 80.936 37.6474 80.9358 37.3269C80.9352 36.4913 80.9335 35.6556 80.9316 34.82C80.9299 33.9641 80.9291 33.1082 80.9282 32.2522C80.9264 30.5788 80.9235 28.9054 80.9199 27.2319C80.6419 27.2259 80.6419 27.2259 80.3583 27.2197C79.6617 27.2043 78.9651 27.1878 78.2685 27.171C77.9687 27.1639 77.6689 27.1571 77.369 27.1506C75.1789 27.1029 73.0407 27 70.8899 26.5519C70.7524 26.5239 70.6148 26.4959 70.4731 26.467C66.9785 25.7318 63.8168 24.3784 60.6982 22.6606C60.5833 22.5983 60.4683 22.5361 60.3499 22.4719C60.234 22.4026 60.1181 22.3332 59.9987 22.2618C59.836 22.1975 59.836 22.1975 59.6699 22.1319ZM44.5399 63.2719C43.9331 65.1461 43.3961 67.0322 42.8995 68.9385C42.7847 69.3787 42.6688 69.8186 42.5527 70.2585C42.4791 70.5394 42.4055 70.8203 42.3319 71.1012C42.2974 71.2322 42.2629 71.3633 42.2273 71.4983C42.0522 72.1366 42.0522 72.1366 41.9899 72.7919C43.3067 72.5661 43.3067 72.5661 44.6037 72.2501C45.2212 72.1116 45.4843 72.0749 46.0699 72.2819C46.3795 72.6704 46.3795 72.6704 46.6616 73.1791C46.7647 73.3611 46.8678 73.5431 46.9741 73.7306C47.0789 73.9222 47.1838 74.1139 47.2918 74.3113C47.5028 74.6885 47.7142 75.0655 47.926 75.4422C48.0648 75.6943 48.0648 75.6943 48.2064 75.9515C48.4346 76.3746 48.4346 76.3746 48.7899 76.7019C49.3296 75.4249 49.7596 74.129 50.1606 72.8026C50.2181 72.6151 50.2756 72.4276 50.3349 72.2345C50.6913 71.0658 51.0259 69.8927 51.3399 68.7119C51.1653 68.5824 50.9906 68.4529 50.8107 68.3195C48.9178 66.9113 47.0761 65.4752 45.3549 63.8589C45.0016 63.4514 45.0016 63.4514 44.5399 63.2719ZM74.7999 63.2719C74.6947 63.3801 74.6947 63.3801 74.5874 63.4904C72.6469 65.4612 70.4541 67.1584 68.1699 68.7119C68.5993 70.4239 69.1689 72.0875 69.7318 73.7588C69.8278 74.0451 69.9238 74.3314 70.0197 74.6178C70.2526 75.3127 70.4861 76.0074 70.7199 76.7019C71.0866 76.3591 71.3444 76.0349 71.5845 75.5949C71.6477 75.4807 71.7108 75.3664 71.7758 75.2486C71.8738 75.0687 71.8738 75.0687 71.9737 74.8851C72.4942 73.9428 73.0257 73.0166 73.6099 72.1119C74.6248 72.2095 75.5638 72.4258 76.5451 72.7029C77.0172 72.7933 77.2399 72.753 77.6899 72.6219C77.6308 72.4103 77.5717 72.1986 77.5108 71.9806C77.2892 71.1876 77.0678 70.3945 76.8464 69.6015C76.7509 69.2597 76.6555 68.9179 76.56 68.5762C76.4219 68.082 76.284 67.5878 76.146 67.0936C76.104 66.9434 76.062 66.7931 76.0187 66.6383C75.9779 66.4921 75.9371 66.3459 75.8951 66.1953C75.8549 66.0523 75.8148 65.9094 75.7734 65.7622C75.6849 65.4393 75.6 65.1155 75.5176 64.791C75.4739 64.6211 75.4302 64.4512 75.3852 64.2762C75.3463 64.1207 75.3074 63.9652 75.2673 63.805C75.1763 63.4108 75.1763 63.4108 74.7999 63.2719Z" fill="#36454F"/>
<path id="Vector_2" d="M60.35 25.1918C60.7748 25.3927 61.1886 25.5998 61.6038 25.8187C66.1546 28.144 70.8747 29.15 75.9595 29.4604C76.195 29.4754 76.4306 29.4904 76.6661 29.5055C77.234 29.5416 77.802 29.577 78.37 29.6118C78.3819 31.3928 78.391 33.1738 78.3965 34.9548C78.3991 35.7822 78.4027 36.6095 78.4085 37.4369C78.4141 38.2382 78.4171 39.0396 78.4184 39.8409C78.4193 40.1437 78.4212 40.4465 78.424 40.7492C78.4482 43.4855 78.24 46.2445 77.3925 48.8643C77.3488 49.0037 77.305 49.1432 77.2599 49.2869C76.2529 52.4042 74.7454 55.3505 72.59 57.8318C72.4264 58.0262 72.2631 58.2208 72.0999 58.4155C68.9819 62.1216 65.4456 64.552 61.03 66.5018C60.8871 66.5737 60.7443 66.6456 60.5971 66.7196C59.5404 67.0292 58.5384 66.5314 57.5875 66.098C57.3901 66.0086 57.3901 66.0086 57.1886 65.9173C54.7114 64.7676 52.5 63.421 50.49 61.5718C50.3222 61.4241 50.1543 61.2764 49.9814 61.1242C49.0582 60.3062 48.2034 59.4727 47.43 58.5118C47.2308 58.2653 47.2308 58.2653 47.0276 58.0138C44.8236 55.2422 43.1871 52.2101 42.1813 48.8112C42.1347 48.6549 42.0881 48.4985 42.0401 48.3375C41.2946 45.6741 41.065 43.088 41.0902 40.3364C41.0912 40.0244 41.0919 39.7125 41.0924 39.4005C41.0943 38.5906 41.0993 37.7807 41.105 36.9708C41.1103 36.1399 41.1126 35.309 41.1151 34.4781C41.1205 32.8559 41.1292 31.2339 41.14 29.6118C41.3541 29.5988 41.3541 29.5988 41.5724 29.5855C42.1134 29.5521 42.6543 29.518 43.1953 29.4835C43.4272 29.4688 43.6592 29.4544 43.8911 29.4403C49.0405 29.127 54.2174 28.1127 58.6917 25.4214C59.3234 25.055 59.659 24.9357 60.35 25.1918ZM58.5053 28.7578C58.3482 28.8293 58.1912 28.9008 58.0295 28.9745C57.8626 29.0516 57.6957 29.1286 57.5238 29.2081C53.1225 31.1732 48.6384 32.0182 43.86 32.5018C43.8513 33.6985 43.8454 34.8952 43.8414 36.0919C43.8397 36.4974 43.8374 36.9029 43.8344 37.3085C43.8124 40.3867 43.8024 43.5085 44.5507 46.5162C44.5861 46.661 44.6215 46.8059 44.658 46.9552C45.3329 49.5398 46.5093 52.0127 47.94 54.2618C48.0592 54.4507 48.1785 54.6396 48.3013 54.8342C50.7278 58.5181 54.3703 61.3586 58.2994 63.2824C58.4039 63.3354 58.5084 63.3884 58.6161 63.4429C59.3346 63.7806 59.7637 63.8472 60.52 63.6118C61.105 63.3585 61.6677 63.071 62.2307 62.7724C62.3893 62.6886 62.5479 62.6048 62.7113 62.5185C64.0243 61.8083 65.1694 61.0162 66.3 60.0418C66.4431 59.9202 66.5862 59.7986 66.7337 59.6732C67.1653 59.2953 67.5835 58.9064 68 58.5118C68.0859 58.4323 68.1718 58.3529 68.2603 58.271C72.9207 53.9425 75.2634 47.7794 75.65 41.5118C75.6701 40.7882 75.67 40.0655 75.6666 39.3416C75.6664 39.1445 75.6661 38.9474 75.6659 38.7444C75.665 38.1227 75.6628 37.501 75.6607 36.8793C75.6598 36.4545 75.659 36.0297 75.6583 35.605C75.6565 34.5706 75.6536 33.5362 75.65 32.5018C75.5265 32.4883 75.4029 32.4748 75.2756 32.4609C74.7049 32.3981 74.1342 32.3341 73.5635 32.27C73.2722 32.2382 73.2722 32.2382 72.9749 32.2058C68.872 31.7422 64.8574 30.6372 61.1351 28.8363C60.1248 28.3552 59.5197 28.2848 58.5053 28.7578Z" fill="#36454F"/>
<path id="Vector_3" d="M67.8545 34.54C68.2088 34.733 68.4615 34.9363 68.7492 35.2197C68.8586 35.3264 68.968 35.4331 69.0808 35.543C69.1968 35.659 69.3128 35.775 69.4323 35.8945C69.5525 36.0134 69.6727 36.1323 69.7965 36.2548C70.0499 36.5064 70.3027 36.7586 70.5548 37.0115C70.9422 37.3991 71.3331 37.7829 71.7243 38.1666C71.9699 38.4113 72.2153 38.6562 72.4605 38.9014C72.5782 39.0163 72.6959 39.1313 72.8172 39.2497C72.924 39.358 73.0307 39.4663 73.1407 39.5779C73.2356 39.6726 73.3306 39.7672 73.4284 39.8647C73.6099 40.1518 73.6099 40.1518 73.5759 40.4663C73.402 40.9338 73.1598 41.1747 72.8064 41.5267C72.6703 41.6635 72.5341 41.8003 72.3939 41.9413C72.2435 42.0899 72.0931 42.2385 71.9381 42.3915C71.7806 42.5491 71.623 42.7068 71.4607 42.8692C71.0288 43.3012 70.5953 43.7317 70.1616 44.1619C69.7085 44.6118 69.2568 45.0632 68.805 45.5144C67.9493 46.3685 67.0923 47.2213 66.2348 48.0737C65.2586 49.0442 64.2839 50.0161 63.3093 50.9882C61.3044 52.9877 59.2978 54.9853 57.29 56.9818C56.671 56.6911 56.27 56.345 55.7837 55.8595C55.704 55.7805 55.6243 55.7014 55.5422 55.6199C55.2801 55.3593 55.0193 55.0975 54.7585 54.8356C54.5766 54.6539 54.3946 54.4722 54.2126 54.2906C53.832 53.9105 53.4519 53.5297 53.0723 53.1485C52.5849 52.6591 52.0959 52.1713 51.6065 51.6839C51.2308 51.3094 50.8559 50.9342 50.4813 50.5586C50.3012 50.3784 50.1209 50.1983 49.9404 50.0186C49.6888 49.7679 49.4384 49.5161 49.1882 49.2641C48.9739 49.0493 48.9739 49.0493 48.7552 48.8302C48.45 48.4818 48.45 48.4818 48.45 48.1418C48.6817 47.92 48.6817 47.92 49.0131 47.6531C49.6229 47.1354 50.1687 46.5793 50.7025 45.9849C51.6709 44.9084 52.6891 43.8883 53.72 42.8718C53.8901 42.702 54.0602 42.5321 54.23 42.3618C54.9652 42.6438 55.436 43.1899 55.9725 43.7431C56.0667 43.8388 56.1609 43.9346 56.258 44.0333C56.4894 44.2687 56.7198 44.5051 56.95 44.7418C57.6395 44.4681 58.0945 43.977 58.6015 43.4554C58.7442 43.3107 58.7442 43.3107 58.8899 43.163C59.096 42.9539 59.3017 42.7444 59.5071 42.5346C59.832 42.203 60.1581 41.8727 60.4847 41.5428C61.4129 40.6048 62.3394 39.6651 63.2634 38.723C63.8289 38.1465 64.3965 37.5721 64.9654 36.999C65.182 36.7799 65.3978 36.5601 65.6128 36.3395C65.9128 36.0318 66.2152 35.7268 66.5184 35.4222C66.6515 35.2838 66.6515 35.2838 66.7872 35.1426C67.3924 34.5423 67.3924 34.5423 67.8545 34.54ZM66.9807 39.1099C66.8843 39.2069 66.788 39.3038 66.6887 39.4037C66.5875 39.5049 66.4864 39.606 66.3821 39.7102C66.046 40.0465 65.7105 40.3834 65.3749 40.7202C65.1427 40.9528 64.9104 41.1853 64.6781 41.4177C64.0654 42.0311 63.4532 42.645 62.8411 43.2589C62.217 43.8848 61.5924 44.5102 60.9679 45.1356C59.7414 46.3639 58.5155 47.5927 57.29 48.8218C56.8147 48.5928 56.4672 48.3803 56.0973 48.0024C56.0074 47.9114 55.9176 47.8205 55.825 47.7268C55.6876 47.5851 55.6876 47.5851 55.5475 47.4406C55.4532 47.3448 55.359 47.249 55.2619 47.1504C55.0305 46.9149 54.8001 46.6785 54.57 46.4418C54.3884 46.5894 54.208 46.7385 54.0281 46.8881C53.9275 46.9709 53.8269 47.0537 53.7233 47.1391C53.287 47.5492 52.9133 48.0218 52.53 48.4818C53.9886 49.9404 55.4472 51.399 56.95 52.9018C57.5183 52.7124 57.6402 52.5661 58.0125 52.1156C58.7676 51.2274 59.5633 50.4122 60.4509 49.6559C61.3083 48.9088 62.1086 48.1081 62.9106 47.3024C63.0566 47.157 63.2027 47.0116 63.3532 46.8618C63.993 46.221 64.621 45.5791 65.2096 44.8906C65.8383 44.1587 66.5349 43.5124 67.2456 42.8612C68.125 42.0549 68.9411 41.2437 69.6999 40.3218C69.3923 40.0096 69.0841 39.6981 68.7756 39.3868C68.6878 39.2976 68.6 39.2084 68.5096 39.1165C68.2863 38.8917 68.0584 38.6714 67.83 38.4518C67.4617 38.4518 67.2275 38.8638 66.9807 39.1099Z" fill="#36454F"/>
<path id="Vector_4" d="M30.1696 19.2489C31.7014 20.4356 33.07 22.3756 33.3199 24.3422C33.4757 26.8181 33.1695 28.7842 31.6199 30.8022C31.5452 30.9067 31.4704 31.0113 31.3934 31.119C30.2683 32.5814 28.4789 33.5115 26.6899 33.8622C24.1295 34.1486 21.9475 33.5862 19.8899 31.9922C18.4908 30.7557 17.2826 28.8026 17.1469 26.9125C17.0129 24.1573 17.4857 22.2012 19.3799 20.0922C22.3852 17.1262 26.7415 16.9142 30.1696 19.2489ZM21.1536 22.3972C20.3752 23.3661 20.1238 24.5854 19.9961 25.7978C20.192 27.5935 20.8711 28.874 22.2593 30.0299C23.3907 30.8763 24.6956 31.0454 26.0763 30.9417C27.4906 30.6993 28.6636 29.8487 29.5434 28.735C30.3479 27.5166 30.5816 26.0036 30.3236 24.576C29.9415 23.1481 29.0668 22.1345 27.8799 21.2822C25.6095 20.0043 22.9563 20.6035 21.1536 22.3972Z" fill="#36454F"/>
<path id="Vector_5" d="M51.6799 33.8618C51.7658 34.2158 51.8506 34.57 51.9349 34.9243C51.9822 35.1215 52.0296 35.3188 52.0783 35.522C52.1899 36.0718 52.1899 36.0718 52.1899 36.7518C51.804 36.8375 51.4179 36.9223 51.0318 37.0068C50.8168 37.0542 50.6018 37.1015 50.3803 37.1503C49.8099 37.2618 49.8099 37.2618 49.2999 37.2618C49.2999 38.7765 49.2999 40.2912 49.2999 41.8518C47.9399 42.0218 47.9399 42.0218 46.4099 42.0218C46.4099 39.6095 46.4099 37.1972 46.4099 34.7118C47.2163 34.5716 48.0228 34.4313 48.8537 34.2868C49.1079 34.2424 49.3622 34.1981 49.6242 34.1523C49.9232 34.1006 49.9232 34.1006 50.2283 34.0478C50.433 34.0121 50.6378 33.9765 50.8488 33.9398C51.3399 33.8618 51.3399 33.8618 51.6799 33.8618Z" fill="#36454F"/>
<path id="Vector_6" d="M56.7799 32.502C56.9458 32.8572 57.0958 33.2199 57.2368 33.5857C57.3146 33.7834 57.3924 33.9811 57.4725 34.1847C57.6299 34.712 57.6299 34.712 57.4599 35.222C57.0641 35.4205 57.0641 35.4205 56.5674 35.5939C56.4052 35.6524 56.2431 35.7109 56.076 35.7712C55.605 35.8979 55.2245 35.9276 54.7399 35.902C54.3218 35.0088 54.0764 34.1495 53.8899 33.182C54.3073 33.0352 54.7252 32.8903 55.1436 32.7464C55.3218 32.6834 55.3218 32.6834 55.5036 32.6192C56.4014 32.3127 56.4014 32.3127 56.7799 32.502Z" fill="#36454F"/>
<path id="Vector_7" d="M15.1301 13.4619C14.8615 14.1128 14.4466 14.5308 13.9507 15.0238C13.7275 15.2483 13.7275 15.2483 13.4998 15.4773C13.0901 15.8419 13.0901 15.8419 12.5801 16.0119C12.8542 15.3267 13.3387 14.8628 13.8551 14.3544C13.9399 14.2683 14.0247 14.1822 14.1121 14.0934C14.747 13.4619 14.747 13.4619 15.1301 13.4619Z" fill="#36454F"/>
<path id="Vector_8" d="M20.23 19.582C20.0116 20.0694 19.7929 20.428 19.38 20.772C19.2678 20.772 19.1556 20.772 19.04 20.772C19.5735 19.582 19.5735 19.582 20.23 19.582Z" fill="#36454F"/>
<path id="Vector_9" d="M58.65 19.582C58.65 19.6942 58.65 19.8064 58.65 19.922C58.4817 19.922 58.3134 19.922 58.14 19.922C58.0278 20.1464 57.9156 20.3708 57.8 20.602C57.6317 20.4898 57.4634 20.3776 57.29 20.262C58.2675 19.582 58.2675 19.582 58.65 19.582Z" fill="#36454F"/>
<path id="Vector_10" d="M16.4899 12.4419C16.3777 12.7224 16.2655 13.0029 16.1499 13.2919C15.8099 13.2919 15.4699 13.2919 15.1299 13.2919C16.1074 12.4419 16.1074 12.4419 16.4899 12.4419Z" fill="#36454F"/>
</g>
</svg>
