<svg width="85" height="86" viewBox="0 0 85 86" fill="none" xmlns="http://www.w3.org/2000/svg">
<g id="report-removebg-preview 1" clip-path="url(#clip0_315_308)">
<path id="Vector" d="M45.0914 0.475037C45.2385 0.473107 45.3855 0.471178 45.537 0.46919C45.7783 0.469937 45.7783 0.469937 46.0244 0.4707C46.1941 0.46926 46.3639 0.46782 46.5388 0.466337C47.1013 0.462351 47.6637 0.46219 48.2261 0.462399C48.6163 0.461192 49.0066 0.459884 49.3968 0.458477C50.2152 0.456188 51.0337 0.455926 51.8521 0.45692C52.9019 0.457923 53.9516 0.452723 55.0014 0.445851C55.8075 0.44146 56.6135 0.440962 57.4195 0.441582C57.8066 0.441294 58.1937 0.439647 58.5808 0.436628C59.1218 0.432873 59.6625 0.434496 60.2034 0.437497C60.4442 0.434115 60.4442 0.434115 60.6898 0.430664C61.7763 0.444697 61.7763 0.444697 62.3082 0.944521C62.3912 1.09222 62.4743 1.23991 62.5599 1.39209C62.6472 1.54575 62.7345 1.6994 62.8244 1.85772C62.9063 2.02203 62.9882 2.18635 63.0726 2.35564C63.1624 2.53545 63.2523 2.71525 63.3448 2.9005C63.4364 3.08645 63.528 3.27239 63.6224 3.46396C63.7638 3.74583 63.7638 3.74583 63.908 4.03339C64.5999 5.42667 64.5999 5.42667 64.5999 5.81209C64.6964 5.81058 64.7928 5.80907 64.8922 5.80751C65.896 5.79247 66.8997 5.78221 67.9036 5.77473C68.2783 5.77131 68.6529 5.76667 69.0275 5.76079C69.566 5.75254 70.1044 5.74868 70.6429 5.74568C70.8942 5.74042 70.8942 5.74042 71.1506 5.73504C72.2973 5.73467 72.2973 5.73467 72.8683 6.09514C73.1573 6.59051 73.1695 6.89965 73.1424 7.46959C73.1363 7.63701 73.1301 7.80443 73.1238 7.97693C73.1159 8.10403 73.108 8.23113 73.0999 8.36209C73.3724 8.35808 73.3724 8.35808 73.6503 8.35399C74.3315 8.34468 75.0127 8.33888 75.6939 8.33407C75.9874 8.33152 76.2808 8.32806 76.5743 8.32361C79.0527 8.28704 81.2106 8.43564 83.1312 10.2069C84.3347 11.5145 85.0201 12.8093 85.0227 14.5897C85.0231 14.7034 85.0235 14.817 85.0239 14.9341C85.0251 15.3166 85.025 15.6992 85.0249 16.0817C85.0255 16.358 85.0261 16.6344 85.0268 16.9108C85.0285 17.6716 85.0292 18.4324 85.0296 19.1932C85.0303 20.0132 85.0319 20.8332 85.0334 21.6532C85.0367 23.6342 85.0385 25.6152 85.04 27.5962C85.0407 28.5289 85.0416 29.4617 85.0425 30.3944C85.0454 33.4948 85.0479 36.5953 85.0491 39.6957C85.0494 40.5003 85.0497 41.3049 85.0501 42.1096C85.0502 42.3096 85.0502 42.5096 85.0503 42.7156C85.0517 45.9557 85.0561 49.1958 85.0616 52.436C85.0672 55.7621 85.0703 59.0881 85.0708 62.4142C85.0712 64.2819 85.0727 66.1496 85.077 68.0172C85.0807 69.6077 85.0821 71.1982 85.0804 72.7887C85.0796 73.6001 85.08 74.4114 85.0833 75.2228C85.0863 75.9661 85.0861 76.7094 85.0834 77.4527C85.083 77.7211 85.0838 77.9895 85.0858 78.2579C85.1015 80.493 84.7247 82.2017 83.1299 83.8421C81.4334 85.2886 79.8862 85.619 77.6955 85.608C77.3675 85.6094 77.3675 85.6094 77.0329 85.6108C76.4294 85.6132 75.826 85.6125 75.2225 85.6112C74.5703 85.6104 73.9181 85.6126 73.2659 85.6143C71.9894 85.6172 70.7131 85.6174 69.4366 85.6165C68.3988 85.6158 67.361 85.616 66.3232 85.617C66.1014 85.6171 66.1014 85.6171 65.8751 85.6173C65.5747 85.6176 65.2742 85.6179 64.9738 85.6181C62.1582 85.6204 59.3426 85.6195 56.527 85.6176C53.9532 85.6159 51.3795 85.6181 48.8057 85.6222C46.1606 85.6263 43.5155 85.6279 40.8703 85.6268C39.3863 85.6262 37.9022 85.6266 36.4181 85.6296C35.1547 85.6321 33.8913 85.6322 32.6279 85.6292C31.9838 85.6278 31.3398 85.6274 30.6957 85.63C29.9962 85.6328 29.2969 85.6303 28.5975 85.6273C28.3956 85.6289 28.1937 85.6305 27.9857 85.6322C26.0147 85.6149 24.3687 85.0775 22.9499 83.6721C21.4029 81.8272 21.172 80.2104 21.1629 77.8781C21.16 77.5868 21.1569 77.2955 21.1536 77.0041C21.1452 76.1837 21.1403 75.3633 21.136 74.5428C21.133 74.009 21.1291 73.4751 21.1249 72.9413C21.0245 60.1506 21.0496 47.3583 21.0747 34.5674C21.0776 33.1013 21.0803 31.6353 21.0819 30.1692C21.0849 27.4282 21.0912 24.6874 21.1062 21.9464C21.1103 21.1791 21.1125 20.4118 21.1131 19.6445C21.1138 18.7736 21.1184 17.9028 21.1264 17.0319C21.1285 16.7248 21.1294 16.4177 21.1286 16.1106C21.1238 13.7663 21.4848 11.8575 23.1644 10.1072C24.6922 8.84319 26.3556 8.33255 28.3189 8.34548C28.5265 8.34585 28.5265 8.34585 28.7383 8.34621C29.1782 8.34716 29.6181 8.34929 30.058 8.35146C30.3572 8.35231 30.6564 8.35309 30.9555 8.35379C31.687 8.35565 32.4184 8.35859 33.1499 8.36209C33.142 8.23498 33.1341 8.10788 33.126 7.97693C33.1199 7.80951 33.1137 7.64208 33.1074 7.46959C33.0995 7.30392 33.0916 7.13825 33.0835 6.96755C33.1499 6.49209 33.1499 6.49209 33.3815 6.09514C34.0911 5.64723 34.7856 5.72847 35.6069 5.74568C35.7796 5.74664 35.9522 5.7476 36.13 5.7486C36.6809 5.7524 37.2316 5.76093 37.7824 5.76959C38.1561 5.773 38.5297 5.7761 38.9033 5.77888C39.8189 5.78638 40.7344 5.79775 41.6499 5.81209C41.6973 5.66234 41.7446 5.5126 41.7934 5.35832C42.092 4.49796 42.5065 3.70316 42.9143 2.89021C42.9977 2.72071 43.0811 2.5512 43.167 2.37656C43.2482 2.21407 43.3293 2.05157 43.413 1.88416C43.4865 1.73663 43.56 1.58911 43.6357 1.43712C44.0267 0.765525 44.2968 0.478979 45.0914 0.475037ZM46.0699 3.26209C46.0229 3.35192 45.9758 3.44175 45.9273 3.53431C45.7094 3.95013 45.4912 4.3658 45.273 4.78146C45.1621 4.99332 45.1621 4.99332 45.0489 5.20945C44.674 5.92316 44.2958 6.63503 43.9097 7.34275C43.8095 7.52668 43.8095 7.52668 43.7073 7.71433C43.5199 8.02209 43.5199 8.02209 43.1799 8.36209C42.8615 8.40943 42.8615 8.40943 42.4703 8.41629C42.3219 8.4197 42.1735 8.42311 42.0207 8.42662C41.8646 8.42856 41.7085 8.43049 41.5476 8.43248C41.3326 8.43698 41.3326 8.43698 41.1132 8.44157C40.5767 8.4523 40.0402 8.46014 39.5037 8.46834C38.3045 8.48937 37.1054 8.51041 35.8699 8.53209C35.8699 11.1127 35.8699 13.6933 35.8699 16.3521C47.2582 16.3521 58.6465 16.3521 70.3799 16.3521C70.3799 13.7715 70.3799 11.1909 70.3799 8.53209C68.0048 8.50984 68.0048 8.50984 65.6297 8.49677C65.3316 8.49227 65.0335 8.48746 64.7354 8.48228C64.581 8.48296 64.4267 8.48364 64.2676 8.48434C63.1782 8.45974 63.1782 8.45974 62.6575 7.99017C62.3892 7.51077 62.1245 7.03626 61.8832 6.54255C61.7941 6.36198 61.7051 6.18141 61.6133 5.99537C61.5225 5.80866 61.4316 5.62195 61.338 5.42959C61.1553 5.05669 60.9722 4.68392 60.7889 4.31131C60.6685 4.06436 60.6685 4.06436 60.5457 3.81243C60.382 3.44687 60.382 3.44687 60.1799 3.26209C59.7402 3.24592 59.3051 3.24074 58.8654 3.24279C58.7277 3.24276 58.5901 3.24274 58.4482 3.24271C57.9911 3.24283 57.5339 3.24416 57.0767 3.24548C56.7606 3.2458 56.4445 3.24604 56.1284 3.24621C55.2947 3.24686 54.4611 3.24854 53.6274 3.25041C52.7773 3.25215 51.9273 3.25293 51.0773 3.25379C49.4081 3.25561 47.739 3.25851 46.0699 3.26209ZM24.6499 12.9521C24.0489 13.9215 23.9489 14.8036 23.9471 15.9277C23.9467 16.0369 23.9463 16.1461 23.9459 16.2586C23.9447 16.625 23.9448 16.9913 23.9449 17.3577C23.9443 17.6229 23.9437 17.8881 23.943 18.1532C23.9413 18.8823 23.9407 19.6114 23.9402 20.3404C23.9395 21.1266 23.9379 21.9128 23.9364 22.699C23.9331 24.5977 23.9314 26.4964 23.9299 28.3952C23.9291 29.2894 23.9282 30.1837 23.9273 31.078C23.9244 34.051 23.9219 37.0239 23.9207 39.9969C23.9204 40.7682 23.9201 41.5396 23.9197 42.311C23.9197 42.5027 23.9196 42.6944 23.9195 42.8919C23.9181 45.9978 23.9138 49.1037 23.9082 52.2095C23.9026 55.3987 23.8996 58.5878 23.899 61.7769C23.8986 63.5673 23.8972 65.3577 23.8928 67.1482C23.8891 68.6729 23.8878 70.1976 23.8894 71.7223C23.8902 72.5 23.8899 73.2776 23.8866 74.0553C23.8836 74.768 23.8837 75.4806 23.8864 76.1933C23.8868 76.4504 23.886 76.7075 23.884 76.9645C23.8723 78.5578 23.8847 80.2202 24.9673 81.4962C26.1223 82.638 27.4917 82.8787 29.0695 82.8903C29.2631 82.8892 29.4567 82.888 29.6562 82.8868C29.97 82.888 29.97 82.888 30.2901 82.8893C30.8671 82.8909 31.4441 82.8903 32.0211 82.8887C32.6448 82.8876 33.2685 82.8894 33.8922 82.8908C35.1126 82.893 36.333 82.8926 37.5533 82.8911C38.5454 82.8899 39.5375 82.8898 40.5296 82.8903C40.671 82.8904 40.8124 82.8905 40.958 82.8906C41.2452 82.8907 41.5325 82.8909 41.8197 82.8911C44.5109 82.8925 47.2021 82.8908 49.8934 82.8881C52.201 82.8858 54.5087 82.8862 56.8163 82.8886C59.4982 82.8913 62.18 82.8924 64.8618 82.8908C65.1479 82.8906 65.434 82.8905 65.7202 82.8903C65.8609 82.8903 66.0017 82.8902 66.1468 82.8901C67.1373 82.8896 68.1279 82.8904 69.1184 82.8916C70.3261 82.893 71.5337 82.8926 72.7414 82.8899C73.3572 82.8886 73.973 82.888 74.5888 82.8897C75.2571 82.8915 75.9253 82.8894 76.5936 82.8868C76.7872 82.888 76.9808 82.8891 77.1803 82.8903C78.8471 82.878 80.0894 82.5934 81.3177 81.4335C82.1934 80.4672 82.3009 79.3979 82.3022 78.1455C82.3026 78.0362 82.3029 77.9269 82.3033 77.8143C82.3043 77.4476 82.304 77.0809 82.3038 76.7141C82.3042 76.4487 82.3047 76.1833 82.3053 75.9179C82.3067 75.1882 82.307 74.4585 82.3071 73.7287C82.3074 72.9419 82.3087 72.155 82.3099 71.3681C82.3122 69.6474 82.3132 67.9267 82.3139 66.206C82.3144 65.1316 82.3151 64.0573 82.3159 62.9829C82.318 60.0085 82.3197 57.0341 82.3203 54.0597C82.3203 53.8693 82.3204 53.6789 82.3204 53.4828C82.3204 53.292 82.3205 53.1012 82.3205 52.9046C82.3206 52.5179 82.3207 52.1312 82.3207 51.7445C82.3208 51.5527 82.3208 51.3609 82.3209 51.1633C82.3215 48.055 82.3245 44.9467 82.3285 41.8384C82.3325 38.6473 82.3346 35.4563 82.3348 32.2653C82.335 30.4735 82.3359 28.6818 82.339 26.89C82.3416 25.3644 82.3425 23.8388 82.3411 22.3132C82.3404 21.5349 82.3406 20.7566 82.343 19.9783C82.3452 19.2654 82.3449 18.5526 82.3429 17.8397C82.3426 17.5822 82.3431 17.3247 82.3446 17.0672C82.3549 15.1526 82.2486 13.6515 80.8913 12.2143C79.8672 11.2862 78.7183 11.2257 77.3997 11.2355C77.2764 11.2357 77.1531 11.236 77.026 11.2362C76.6346 11.2372 76.2432 11.2393 75.8518 11.2415C75.5854 11.2423 75.319 11.2431 75.0526 11.2438C74.4017 11.2455 73.7508 11.2488 73.0999 11.2521C73.0999 12.0936 73.0999 12.9351 73.0999 13.8021C73.2775 13.8046 73.455 13.807 73.638 13.8096C74.2967 13.8195 74.9554 13.8326 75.614 13.8467C75.8991 13.8524 76.1842 13.8571 76.4693 13.861C76.8791 13.8667 77.2888 13.8756 77.6985 13.8851C77.8261 13.8862 77.9536 13.8873 78.085 13.8884C78.9614 13.9131 78.9614 13.9132 79.3387 14.1643C79.6634 14.6308 79.6238 14.9951 79.6241 15.5603C79.6248 15.6706 79.6256 15.781 79.6263 15.8947C79.6282 16.2671 79.6264 16.6394 79.6247 17.0118C79.6253 17.2805 79.6261 17.5491 79.6271 17.8177C79.6292 18.558 79.6282 19.2982 79.6266 20.0384C79.6254 20.8359 79.6272 21.6334 79.6286 22.4309C79.6309 23.9941 79.6304 25.5572 79.6289 27.1203C79.6278 28.3903 79.6276 29.6602 79.6282 30.9302C79.6282 31.1107 79.6283 31.2912 79.6284 31.4771C79.6286 31.8437 79.6287 32.2103 79.6289 32.577C79.6303 36.0177 79.6287 39.4585 79.6259 42.8993C79.6236 45.8541 79.624 48.8089 79.6264 51.7636C79.6291 55.1918 79.6302 58.6199 79.6286 62.0481C79.6285 62.4134 79.6283 62.7787 79.6282 63.144C79.6281 63.3237 79.628 63.5035 79.6279 63.6887C79.6275 64.9577 79.6282 66.2266 79.6294 67.4956C79.6308 69.0413 79.6305 70.587 79.6277 72.1327C79.6264 72.9219 79.6259 73.711 79.6276 74.5002C79.6291 75.2219 79.6283 75.9435 79.6255 76.6651C79.625 76.927 79.6253 77.1889 79.6265 77.4507C79.628 77.8052 79.6265 78.1595 79.6241 78.5139C79.624 78.8099 79.624 78.8099 79.6238 79.1118C79.5599 79.5921 79.5599 79.5921 79.3447 79.9103C78.984 80.1449 78.7773 80.1666 78.3485 80.1682C78.205 80.1699 78.0615 80.1717 77.9137 80.1735C77.756 80.1728 77.5983 80.1721 77.4359 80.1714C77.1847 80.1733 77.1847 80.1733 76.9284 80.1753C76.3646 80.1789 75.8009 80.1789 75.2371 80.1789C74.8339 80.1807 74.4307 80.1827 74.0275 80.1849C72.9302 80.1901 71.8329 80.192 70.7356 80.193C70.0503 80.1936 69.365 80.1951 68.6797 80.1968C66.782 80.2014 64.8843 80.2052 62.9865 80.2056C62.8043 80.2057 62.8043 80.2057 62.6184 80.2057C62.3722 80.2058 62.1259 80.2058 61.8797 80.2058C61.7574 80.2059 61.6352 80.2059 61.5092 80.2059C61.3868 80.2059 61.2645 80.206 61.1384 80.206C59.1561 80.2065 57.174 80.2127 55.1917 80.2215C53.1562 80.2304 51.1207 80.2349 49.0851 80.2348C47.9424 80.2348 46.7998 80.2367 45.6571 80.2435C44.5819 80.2496 43.5069 80.25 42.4318 80.246C42.0373 80.2455 41.6428 80.2471 41.2484 80.2508C40.7094 80.2556 40.1709 80.253 39.6319 80.2486C39.3982 80.2533 39.3982 80.2533 39.1598 80.2581C38.1081 80.2387 37.5858 79.9547 36.8387 79.2169C36.6957 79.066 36.6957 79.066 36.5499 78.9121C36.3737 78.742 36.197 78.5723 36.0196 78.4034C35.8489 78.2337 35.6786 78.0635 35.5087 77.8929C35.4143 77.7987 35.3198 77.7046 35.2225 77.6076C34.9157 77.3015 34.6095 76.9949 34.3034 76.6881C34.0885 76.4734 33.8736 76.2586 33.6587 76.0439C33.2111 75.5965 32.7637 75.1489 32.3166 74.701C31.7429 74.1263 31.1684 73.5523 30.5937 72.9786C30.151 72.5366 29.7088 72.0942 29.2667 71.6516C29.0549 71.4397 28.8429 71.2279 28.6309 71.0162C28.3359 70.7216 28.0414 70.4266 27.7471 70.1313C27.6153 70 27.6153 70 27.4809 69.8661C26.8261 69.2074 26.6688 68.9138 26.6676 67.9921C26.6669 67.8022 26.6663 67.6124 26.6656 67.4168C26.6657 67.2064 26.6659 66.9961 26.666 66.7794C26.6655 66.5573 26.665 66.3352 26.6645 66.1064C26.6631 65.4879 26.6628 64.8695 26.6627 64.251C26.6624 63.5847 26.6611 62.9185 26.66 62.2523C26.6576 60.7947 26.6566 59.3371 26.6559 57.8795C26.6554 56.97 26.6547 56.0605 26.6539 55.151C26.6518 52.6346 26.6501 50.1183 26.6495 47.6019C26.6495 47.4408 26.6494 47.2797 26.6494 47.1137C26.6494 46.9522 26.6493 46.7906 26.6493 46.6242C26.6492 46.2969 26.6491 45.9696 26.6491 45.6423C26.649 45.3987 26.649 45.3987 26.649 45.1503C26.6483 42.5178 26.6453 39.8853 26.6414 37.2528C26.6373 34.5524 26.6352 31.852 26.635 29.1516C26.6349 27.6345 26.6339 26.1174 26.6308 24.6003C26.6282 23.3087 26.6273 22.0172 26.6287 20.7257C26.6294 20.0663 26.6292 19.4069 26.6268 18.7475C26.6243 18.0338 26.6257 17.3201 26.6274 16.6064C26.6261 16.3964 26.6247 16.1865 26.6233 15.9701C26.625 15.6847 26.625 15.6847 26.6267 15.3935C26.6266 15.2286 26.6265 15.0637 26.6264 14.8938C26.6899 14.4821 26.6899 14.4821 26.9111 14.1747C27.4022 13.8302 27.9718 13.89 28.5513 13.8851C28.6826 13.882 28.814 13.879 28.9493 13.8758C29.3684 13.8666 29.7876 13.8609 30.2068 13.8552C30.4911 13.8496 30.7754 13.8437 31.0598 13.8376C31.7565 13.8232 32.4531 13.8118 33.1499 13.8021C33.1499 12.9606 33.1499 12.1191 33.1499 11.2521C32.3516 11.2403 31.5535 11.2302 30.7551 11.2241C30.4841 11.2215 30.213 11.2181 29.942 11.2136C29.5503 11.2074 29.1588 11.2045 28.7671 11.2023C28.588 11.1983 28.588 11.1983 28.4052 11.1943C26.8559 11.1938 25.6939 11.8239 24.6499 12.9521ZM29.2399 16.5221C29.2399 33.1277 29.2399 49.7333 29.2399 66.8421C32.4937 66.8982 35.7475 66.9543 39.0999 67.0121C41.5923 69.5044 39.8891 74.0279 39.9499 77.5521C52.1797 77.5521 64.4095 77.5521 77.0099 77.5521C77.0099 57.4122 77.0099 37.2723 77.0099 16.5221C75.7196 16.5221 74.4293 16.5221 73.0999 16.5221C73.0859 16.8482 73.0719 17.1742 73.0574 17.5102C73.0163 18.4649 73.0163 18.4649 72.679 18.844C72.035 19.1863 71.4394 19.1424 70.7206 19.1368C70.4861 19.138 70.4861 19.138 70.247 19.1393C69.722 19.1413 69.1972 19.1397 68.6723 19.1381C68.2964 19.1388 67.9206 19.1397 67.5448 19.1408C66.523 19.1431 65.5013 19.1422 64.4796 19.1406C63.4115 19.1393 62.3434 19.1405 61.2753 19.1413C59.3665 19.1423 57.4577 19.1407 55.5489 19.1381C53.8179 19.1358 52.087 19.1362 50.356 19.1386C48.3463 19.1413 46.3365 19.1423 44.3267 19.1408C43.2627 19.14 42.1988 19.1399 41.1348 19.1416C40.1346 19.1431 39.1344 19.1421 38.1342 19.1391C37.7666 19.1384 37.399 19.1386 37.0314 19.1397C36.5307 19.1411 36.03 19.1394 35.5292 19.1368C35.3096 19.1386 35.3096 19.1386 35.0856 19.1403C34.491 19.1344 34.1021 19.1264 33.5708 18.844C33.0348 18.2417 33.1826 17.2814 33.1499 16.5221C31.8596 16.5221 30.5693 16.5221 29.2399 16.5221ZM31.4499 69.7321C32.1263 70.5212 32.797 71.2746 33.5304 72.0052C33.6267 72.1016 33.7229 72.198 33.8221 72.2974C34.0232 72.4985 34.2245 72.6995 34.4259 72.9003C34.7358 73.2092 35.0447 73.5191 35.3536 73.829C35.5498 74.0251 35.746 74.2211 35.9423 74.417C36.0349 74.51 36.1275 74.6029 36.2229 74.6987C36.5814 75.142 36.5814 75.142 37.0599 75.3421C37.0599 73.4908 37.0599 71.6395 37.0599 69.7321C35.2086 69.7321 33.3573 69.7321 31.4499 69.7321Z" fill="#36454F"/>
<path id="Vector_2" d="M13.26 5.72699C13.3722 5.72524 13.4844 5.72349 13.6 5.72168C14.145 5.86646 14.308 6.01309 14.62 6.49199C14.6534 6.94808 14.6315 7.39039 14.6104 7.84718C14.4832 10.9671 15.9076 13.0397 17.6984 15.4805C18.6877 16.9202 18.8955 18.0633 18.8692 19.8241C18.8705 20.0821 18.8722 20.34 18.8746 20.598C18.8792 21.3008 18.8755 22.0034 18.8703 22.7063C18.8661 23.4665 18.8699 24.2266 18.8726 24.9868C18.8767 26.4733 18.8735 27.9596 18.8678 29.4461C18.8614 31.1774 18.862 32.9088 18.8628 34.6401C18.8639 37.7285 18.8584 40.8169 18.8493 43.9053C18.8404 46.9022 18.8368 49.8991 18.8388 52.896C18.841 56.1616 18.8405 59.4271 18.8353 62.6927C18.835 62.8652 18.8347 63.0378 18.8344 63.2156C18.8339 63.5622 18.8333 63.9088 18.8327 64.2554C18.8309 65.4626 18.8309 66.6697 18.8314 67.8768C18.832 69.3466 18.8295 70.8163 18.823 72.2861C18.8197 73.0361 18.8178 73.7861 18.8196 74.5361C18.8212 75.2223 18.8188 75.9084 18.8133 76.5945C18.812 76.8431 18.8122 77.0916 18.8139 77.3401C18.8159 77.6774 18.8123 78.0146 18.8084 78.3519C18.808 78.5393 18.8075 78.7268 18.8071 78.92C18.6642 79.5894 18.3786 79.8514 17.85 80.272C17.6817 80.272 17.5134 80.272 17.34 80.272C17.3435 80.4075 17.3471 80.5429 17.3508 80.6825C17.3649 81.2965 17.3738 81.9104 17.3825 82.5245C17.3882 82.7377 17.3939 82.9509 17.3997 83.1706C17.403 83.478 17.403 83.478 17.4064 83.7915C17.4117 84.0746 17.4117 84.0746 17.4172 84.3634C17.34 84.862 17.34 84.862 17.0915 85.2629C16.4509 85.6773 15.8785 85.6427 15.13 85.6383C14.9816 85.6393 14.8333 85.6404 14.6804 85.6415C14.3672 85.6427 14.054 85.6421 13.7408 85.64C13.2615 85.6376 12.7829 85.6434 12.3037 85.6499C11.9991 85.65 11.6946 85.6497 11.39 85.6489C11.2469 85.6511 11.1038 85.6534 10.9563 85.6557C10.2702 85.6448 9.96525 85.6313 9.4285 85.1759C9.14072 84.6155 9.10121 84.2696 9.11357 83.6421C9.11576 83.4454 9.11796 83.2487 9.12021 83.0461C9.12591 82.8424 9.13161 82.6387 9.13748 82.4289C9.14055 82.2219 9.14362 82.0149 9.14678 81.8017C9.15478 81.2916 9.16595 80.7819 9.17998 80.272C9.04604 80.2491 8.91211 80.2263 8.77411 80.2028C8.32998 80.102 8.32998 80.102 8.02385 79.8496C7.71078 79.1929 7.76626 78.5664 7.7881 77.8495C7.79041 77.7066 7.79271 77.5637 7.79508 77.4165C7.80107 77.065 7.81022 76.7135 7.81998 76.362C7.67622 76.3699 7.53247 76.3778 7.38435 76.3859C6.15231 76.4251 5.27746 76.3833 4.24998 75.682C4.09921 75.5908 3.94844 75.4997 3.7931 75.4057C2.43994 74.016 2.42752 72.3918 2.44057 70.5605C2.43941 70.2867 2.43788 70.0128 2.436 69.739C2.43196 69.0001 2.43306 68.2612 2.43506 67.5222C2.43623 66.7475 2.43247 65.9728 2.42919 65.1981C2.42371 63.7323 2.42237 62.2665 2.42266 60.8007C2.42291 58.6474 2.41721 56.494 2.41114 54.3407C2.41026 54.023 2.40937 53.7052 2.40848 53.3875C2.40804 53.2324 2.4076 53.0773 2.40714 52.9175C2.40465 51.9955 2.40347 51.0736 2.40344 50.1517C2.40333 49.5792 2.40259 49.0067 2.40175 48.4343C2.40151 48.1686 2.40158 47.903 2.40196 47.6374C2.40245 47.2752 2.40192 46.913 2.40116 46.5508C2.40117 46.2466 2.40117 46.2466 2.40118 45.9363C2.38339 45.5049 2.33729 45.152 2.20998 44.742C2.07893 44.7111 1.94789 44.6802 1.81287 44.6484C1.64238 44.6056 1.47189 44.5629 1.29623 44.5189C1.12661 44.4774 0.956999 44.436 0.782244 44.3934C0.339979 44.232 0.339979 44.232 -2.148e-05 43.722C-0.110427 42.5627 -0.110427 42.5627 0.233729 41.937C0.945068 41.5305 1.58194 41.5507 2.37998 41.682C3.74791 42.1472 4.5631 42.8082 5.20294 44.1054C5.44942 44.7673 5.50353 45.2364 5.50319 45.9389C5.50416 46.1105 5.50416 46.1105 5.50516 46.2856C5.50672 46.6656 5.5047 47.0455 5.50269 47.4256C5.50311 47.6993 5.50376 47.9731 5.50463 48.2468C5.50605 48.8347 5.50592 49.4225 5.5046 50.0103C5.50263 50.9396 5.5047 51.8689 5.50743 52.7983C5.51357 55.1057 5.51464 57.4131 5.51421 59.7205C5.51392 61.5156 5.51512 63.3107 5.52101 65.1058C5.52386 66.0298 5.52355 66.9538 5.52086 67.8779C5.51988 68.4521 5.5217 69.0262 5.52431 69.6004C5.52494 69.8668 5.52441 70.1333 5.52263 70.3997C5.52036 70.7632 5.52226 71.1264 5.52518 71.4898C5.52515 71.6932 5.52511 71.8966 5.52508 72.1062C5.57663 72.6256 5.57663 72.6256 5.85965 73.0221C6.4814 73.4265 7.09092 73.4408 7.81998 73.472C7.8194 73.3543 7.81882 73.2366 7.81822 73.1154C7.78394 66.1338 7.75771 59.1522 7.74185 52.1705C7.73994 51.3313 7.73796 50.4921 7.73593 49.6529C7.73553 49.4858 7.73513 49.3188 7.73472 49.1467C7.72807 46.4453 7.71601 43.7439 7.70194 41.0426C7.6876 38.2686 7.67912 35.4947 7.67602 32.7207C7.67393 31.0103 7.66733 29.3001 7.65487 27.5899C7.64675 26.4154 7.64434 25.2411 7.64632 24.0666C7.6473 23.39 7.64585 22.7136 7.63759 22.037C7.57792 16.8949 7.57792 16.8949 9.34998 14.652C9.57269 14.3291 9.7943 14.0054 10.014 13.6805C10.1158 13.5345 10.2175 13.3885 10.3223 13.2381C11.6653 11.2618 11.9765 9.72003 11.8801 7.35062C11.861 6.55179 11.861 6.55179 12.1962 6.03711C12.5927 5.80455 12.8043 5.71987 13.26 5.72699ZM13.26 14.142C12.8288 14.6844 12.4539 15.2656 12.07 15.842C11.9521 16.0165 11.8343 16.1911 11.7129 16.3709C10.7806 17.8563 10.5149 18.9796 10.5464 20.7606C10.5458 21.0074 10.5446 21.2542 10.5429 21.5009C10.5399 22.1721 10.5453 22.843 10.5521 23.5142C10.558 24.2405 10.556 24.9668 10.555 25.6931C10.5543 26.9492 10.5585 28.2052 10.5662 29.4613C10.5773 31.2773 10.5808 33.0933 10.5825 34.9094C10.5855 37.8563 10.5945 40.8032 10.6074 43.75C10.6199 46.6114 10.6295 49.4728 10.6353 52.3342C10.6356 52.5108 10.636 52.6874 10.6364 52.8693C10.6381 53.7553 10.6398 54.6413 10.6415 55.5273C10.6556 62.8689 10.6799 70.2104 10.71 77.552C12.393 77.552 14.076 77.552 15.81 77.552C15.8485 70.0458 15.8789 62.5396 15.8968 55.0334C15.8989 54.1461 15.9011 53.2588 15.9034 52.3716C15.9038 52.1949 15.9043 52.0183 15.9047 51.8363C15.9121 48.9807 15.9255 46.1251 15.9411 43.2696C15.9571 40.3369 15.9665 37.4043 15.9699 34.4716C15.9723 32.6637 15.9796 30.8559 15.9934 29.048C16.0025 27.8062 16.0051 26.5646 16.0029 25.3228C16.0019 24.6076 16.0034 23.8926 16.0126 23.1774C16.0837 19.0711 16.0837 19.0711 14.3217 15.4397C14.108 15.1594 13.9163 14.8712 13.7256 14.575C13.628 14.4321 13.5305 14.2892 13.43 14.142C13.3739 14.142 13.3178 14.142 13.26 14.142ZM12.07 80.272C12.07 81.1135 12.07 81.955 12.07 82.822C12.9115 82.822 13.753 82.822 14.62 82.822C14.62 81.9805 14.62 81.139 14.62 80.272C13.7785 80.272 12.937 80.272 12.07 80.272Z" fill="#36454F"/>
<path id="Vector_3" d="M62.6348 34.964C62.8197 34.9619 63.0047 34.9597 63.1952 34.9575C63.4936 34.9596 63.4936 34.9596 63.7979 34.9617C64.0029 34.961 64.2078 34.9604 64.419 34.9597C64.8522 34.9593 65.2855 34.9605 65.7188 34.9634C66.3826 34.967 67.0461 34.9634 67.7099 34.959C68.1307 34.9595 68.5515 34.9604 68.9723 34.9617C69.1712 34.9603 69.37 34.9589 69.5749 34.9575C69.7599 34.9597 69.9448 34.9618 70.1354 34.964C70.3792 34.9648 70.3792 34.9648 70.6279 34.9657C71.2181 35.0836 71.4031 35.2317 71.7401 35.732C71.8036 36.2421 71.8262 36.6887 71.8173 37.1981C71.8174 37.3458 71.8175 37.4934 71.8176 37.6456C71.8171 38.1332 71.8118 38.6206 71.8065 39.1081C71.8052 39.4463 71.8043 39.7846 71.8036 40.1228C71.801 41.0127 71.7943 41.9025 71.7868 42.7924C71.7798 43.7006 71.7767 44.6088 71.7733 45.517C71.766 47.2987 71.7544 49.0803 71.7401 50.862C71.8568 50.8593 71.9734 50.8566 72.0937 50.8538C72.2467 50.8517 72.3998 50.8496 72.5575 50.8474C72.7093 50.8447 72.861 50.842 73.0174 50.8392C73.5602 50.8685 73.8757 51.0244 74.2901 51.372C74.5569 51.9056 74.5199 52.3136 74.4601 52.902C74.121 53.3781 73.8503 53.698 73.2632 53.83C72.8261 53.862 72.3964 53.8652 71.9582 53.8599C71.7071 53.8619 71.7071 53.8619 71.4508 53.864C70.8892 53.8673 70.3278 53.8647 69.7662 53.862C69.3638 53.8631 68.9614 53.8647 68.559 53.8665C67.4656 53.8704 66.3723 53.8689 65.2789 53.8662C64.5961 53.8647 63.9134 53.865 63.2306 53.8657C63.1173 53.8659 63.0039 53.866 62.8872 53.8661C62.6569 53.8664 62.4266 53.8667 62.1964 53.867C60.0373 53.8694 57.8783 53.8666 55.7192 53.862C53.8667 53.8582 52.0143 53.8589 50.1618 53.8628C48.0104 53.8674 45.8591 53.8692 43.7078 53.8665C43.4784 53.8663 43.2489 53.866 43.0195 53.8657C42.9067 53.8656 42.7938 53.8655 42.6775 53.8653C41.8821 53.8646 41.0868 53.8659 40.2915 53.8679C39.2209 53.8703 38.1505 53.8686 37.0799 53.8637C36.6866 53.8626 36.2933 53.8629 35.9 53.8648C35.3639 53.8671 34.8281 53.8642 34.292 53.8599C34.1356 53.8618 33.9792 53.8637 33.8182 53.8657C33.0622 53.854 32.7384 53.8264 32.1185 53.3574C31.7901 52.902 31.7901 52.902 31.6838 52.307C31.7901 51.712 31.7901 51.712 32.0982 51.2126C32.7018 50.8221 32.9115 50.8231 33.609 50.8401C33.7776 50.8433 33.9463 50.8464 34.1201 50.8497C34.3131 50.8558 34.3131 50.8558 34.5101 50.862C34.5056 50.6853 34.5012 50.5086 34.4966 50.3266C34.4812 49.6702 34.4714 49.0138 34.4634 48.3572C34.4591 48.0733 34.4533 47.7893 34.446 47.5054C34.4356 47.0969 34.4308 46.6886 34.4271 46.28C34.4227 46.1533 34.4183 46.0267 34.4138 45.8962C34.4135 45.312 34.4686 44.9693 34.8138 44.4925C35.6564 44.0907 36.4618 44.1316 37.3842 44.1357C37.6793 44.1341 37.6793 44.1341 37.9804 44.1325C38.3959 44.1313 38.8115 44.1319 39.227 44.134C39.8629 44.1364 40.4983 44.1306 41.1341 44.1241C41.5381 44.1239 41.9421 44.1242 42.346 44.1251C42.5361 44.1228 42.7261 44.1206 42.9219 44.1183C43.7319 44.128 44.2231 44.1385 44.9164 44.5795C45.297 45.2093 45.3288 45.7153 45.3031 46.4294C45.3019 46.5565 45.3007 46.6836 45.2994 46.8145C45.2947 47.2182 45.2841 47.6215 45.2732 48.0251C45.2689 48.2997 45.2651 48.5743 45.2616 48.8489C45.253 49.5202 45.2363 50.1907 45.2201 50.862C46.0616 50.862 46.9031 50.862 47.7701 50.862C47.7647 50.4193 47.7647 50.4193 47.7593 49.9677C47.7483 48.992 47.7405 48.0162 47.7349 47.0405C47.7313 46.4489 47.7265 45.8575 47.7188 45.2659C47.71 44.5857 47.7067 43.9056 47.7037 43.2253C47.7002 43.0131 47.6967 42.801 47.693 42.5824C47.693 42.2863 47.693 42.2863 47.6929 41.9843C47.6914 41.8107 47.6899 41.637 47.6883 41.4581C47.7943 40.8672 47.9666 40.6716 48.4501 40.322C48.8822 40.2357 48.8822 40.2357 49.3748 40.234C49.5597 40.2319 49.7447 40.2297 49.9352 40.2275C50.2336 40.2296 50.2336 40.2296 50.5379 40.2317C50.8453 40.2307 50.8453 40.2307 51.159 40.2297C51.5923 40.2293 52.0255 40.2305 52.4588 40.2333C53.1226 40.237 53.7861 40.2334 54.4499 40.229C54.8707 40.2295 55.2915 40.2304 55.7123 40.2317C55.9111 40.2303 56.11 40.2289 56.3149 40.2275C56.4999 40.2297 56.6848 40.2318 56.8754 40.234C57.1192 40.2348 57.1192 40.2348 57.3679 40.2357C57.9411 40.3502 58.1388 40.5313 58.4801 41.002C58.5619 41.4581 58.5619 41.4581 58.5573 41.9843C58.5572 42.1817 58.5572 42.379 58.5571 42.5824C58.5536 42.7945 58.5501 43.0067 58.5465 43.2253C58.5455 43.4432 58.5446 43.6611 58.5436 43.8856C58.541 44.4636 58.5343 45.0415 58.5268 45.6194C58.5198 46.2097 58.5167 46.8 58.5133 47.3903C58.506 48.5476 58.494 49.7048 58.4801 50.862C59.3216 50.862 60.1631 50.862 61.0301 50.862C61.0286 50.674 61.0271 50.4859 61.0255 50.2922C61.0117 48.5212 61.0015 46.7502 60.9949 44.9791C60.9913 44.0686 60.9865 43.1581 60.9788 42.2475C60.9714 41.369 60.9673 40.4906 60.9656 39.612C60.9643 39.2767 60.9619 38.9413 60.9582 38.6059C60.9533 38.1366 60.9526 37.6674 60.9529 37.1981C60.9504 37.0591 60.948 36.92 60.9455 36.7768C60.9498 36.1826 60.9813 35.8045 61.3171 35.3059C61.7944 34.9975 62.0687 34.9659 62.6348 34.964ZM63.7501 37.772C63.7501 42.0917 63.7501 46.4114 63.7501 50.862C65.4892 50.862 67.2283 50.862 69.0201 50.862C69.0201 46.5423 69.0201 42.2226 69.0201 37.772C67.281 37.772 65.5419 37.772 63.7501 37.772ZM50.4901 43.212C50.4901 45.7365 50.4901 48.261 50.4901 50.862C52.2292 50.862 53.9683 50.862 55.7601 50.862C55.7601 48.3375 55.7601 45.813 55.7601 43.212C54.021 43.212 52.2819 43.212 50.4901 43.212ZM37.2301 47.122C37.2301 48.3562 37.2301 49.5904 37.2301 50.862C38.9692 50.862 40.7083 50.862 42.5001 50.862C42.5001 49.6278 42.5001 48.3936 42.5001 47.122C40.761 47.122 39.0219 47.122 37.2301 47.122Z" fill="#36454F"/>
<path id="Vector_4" d="M60.9237 22.869C61.1793 22.8678 61.1793 22.8678 61.4399 22.8665C61.7995 22.8659 62.159 22.8675 62.5185 22.8711C63.0682 22.8756 63.6173 22.8711 64.167 22.8657C64.5167 22.8662 64.8665 22.8673 65.2162 22.869C65.3802 22.8673 65.5442 22.8655 65.7132 22.8638C66.4463 22.8765 66.873 22.9167 67.5082 23.3037C67.973 24.0667 67.9521 24.7173 67.9429 25.5956C67.9437 25.766 67.9445 25.9363 67.9453 26.1118C67.9459 26.4714 67.9443 26.8309 67.9408 27.1904C67.9362 27.7401 67.9407 28.2892 67.9462 28.8389C67.9456 29.1886 67.9445 29.5384 67.9429 29.8881C67.9446 30.0521 67.9463 30.2161 67.9481 30.3851C67.9344 31.1682 67.9153 31.5376 67.4351 32.1805C66.98 32.5019 66.98 32.5019 66.385 32.6081C65.614 32.4704 65.4119 32.274 64.94 31.6519C64.815 31.0959 64.8057 30.5521 64.8018 29.9837C64.7976 29.8335 64.7933 29.6833 64.7889 29.5285C64.7789 29.1597 64.774 28.7908 64.77 28.4219C64.7 28.4893 64.6301 28.5568 64.5581 28.6263C62.9942 30.1288 61.4053 31.5416 59.67 32.8419C59.4694 32.9948 59.2689 33.1478 59.0683 33.3007C56.4758 35.2584 53.6976 36.9308 50.83 38.4519C50.7195 38.5105 50.6091 38.5691 50.4953 38.6295C47.7727 40.0605 44.9474 41.2955 42.0325 42.2769C41.8688 42.3323 41.7051 42.3878 41.5364 42.4449C38.6643 43.381 38.6643 43.381 37.7293 42.9994C37.0649 42.3992 37.0649 42.3992 36.9856 41.7987C37.08 41.0027 37.3059 40.8314 37.91 40.3219C38.4126 40.0963 38.4126 40.0963 38.9711 39.9268C39.2821 39.829 39.2821 39.829 39.5994 39.7292C39.7085 39.696 39.8177 39.6628 39.9301 39.6286C40.5085 39.4517 41.0837 39.2647 41.6586 39.0768C41.7741 39.039 41.8897 39.0012 42.0087 38.9623C43.5391 38.4553 45.0046 37.8083 46.4665 37.1314C46.9151 36.9241 47.3659 36.7222 47.8171 36.5208C51.8284 34.7022 55.5428 32.2763 58.9156 29.4485C59.3308 29.1012 59.7541 28.7666 60.18 28.4325C61.1269 27.6789 62.0131 26.8647 62.9 26.0419C62.7911 26.0412 62.6823 26.0405 62.5701 26.0398C62.0743 26.0341 61.5788 26.0221 61.0831 26.01C60.8262 26.0085 60.8262 26.0085 60.5641 26.007C59.2922 25.9692 59.2922 25.9692 58.6214 25.4754C58.2069 24.8718 58.1818 24.5498 58.31 23.8319C59.0304 22.8117 59.7723 22.8569 60.9237 22.869Z" fill="#36454F"/>
<path id="Vector_5" d="M40.63 21.7921C40.9909 22.1725 41.2462 22.5146 41.48 22.9821C41.8446 23.1124 41.8446 23.1124 42.2768 23.2158C43.5286 23.5742 44.2829 24.162 45.05 25.1921C45.2794 25.8803 45.3137 26.5124 45.22 27.2321C44.8963 27.7115 44.6686 27.8613 44.1362 28.0714C43.5024 28.0865 43.1856 27.9387 42.67 27.5721C42.6139 27.3722 42.5578 27.1724 42.5 26.9664C42.4158 26.6772 42.4158 26.6772 42.33 26.3821C41.9934 26.2699 41.6568 26.1577 41.31 26.0421C41.31 26.8275 41.31 27.6129 41.31 28.4221C41.5098 28.4641 41.7097 28.5062 41.9156 28.5496C43.3686 28.9211 44.2893 29.6853 45.0739 30.9428C45.4321 31.8483 45.4017 33.0323 45.0652 33.9391C44.4177 35.0301 43.4949 35.7463 42.33 36.2421C42.1792 36.2596 42.0284 36.2771 41.8731 36.2952C41.4219 36.3794 41.4219 36.3794 41.2037 36.9114C41.1266 37.0832 41.0494 37.2551 40.97 37.4321C40.3324 37.8571 40.025 37.8632 39.27 37.7721C38.7706 37.3789 38.7706 37.3789 38.42 36.9221C38.42 36.7538 38.42 36.5855 38.42 36.4121C38.2595 36.39 38.2595 36.39 38.0959 36.3676C36.7911 36.1534 35.8527 35.7527 34.9456 34.7758C34.4384 34.0048 34.3947 33.2296 34.51 32.3321C34.8556 31.8003 35.0884 31.6845 35.6893 31.4927C36.3295 31.4796 36.5759 31.5752 37.06 31.9921C37.1126 32.1604 37.1651 32.3287 37.2193 32.5021C37.3828 33.1509 37.3828 33.1509 38.42 33.5221C38.3358 32.344 38.3358 32.344 38.25 31.1421C37.966 31.0509 37.6819 30.9597 37.3893 30.8658C36.1951 30.4283 35.224 29.7874 34.6215 28.6239C34.3123 27.5931 34.3636 26.4518 34.7225 25.4471C34.8697 25.2367 34.8697 25.2367 35.02 25.0221C35.1111 24.8783 35.2023 24.7346 35.2962 24.5864C35.9924 23.872 36.846 23.4287 37.8037 23.1627C38.4202 22.9132 38.48 22.5464 38.76 21.9621C39.4076 21.5595 39.9101 21.5623 40.63 21.7921ZM37.4 26.7221C37.3439 26.8904 37.2878 27.0587 37.23 27.2321C37.5059 27.5226 37.7898 27.8057 38.08 28.0821C38.1922 28.0821 38.3044 28.0821 38.42 28.0821C38.42 27.4089 38.42 26.7357 38.42 26.0421C38.0262 26.0421 37.6759 26.4806 37.4 26.7221ZM41.31 31.4821C41.31 32.0992 41.31 32.7163 41.31 33.3521C42.0893 33.1051 42.0893 33.1051 42.33 32.8421C42.4009 32.4315 42.4009 32.4315 42.33 31.9921C41.9824 31.6561 41.8 31.4821 41.31 31.4821Z" fill="#36454F"/>
<path id="Vector_6" d="M34.1155 56.2157C34.2843 56.2147 34.4531 56.2136 34.627 56.2125C35.1942 56.2098 35.7613 56.212 36.3286 56.2141C36.7345 56.2132 37.1405 56.212 37.5465 56.2105C38.5357 56.2077 39.5249 56.2081 40.5141 56.2101C41.318 56.2116 42.1218 56.2118 42.9257 56.2111C43.0972 56.2109 43.0972 56.2109 43.2722 56.2108C43.5046 56.2105 43.7369 56.2103 43.9692 56.2101C46.1482 56.2082 48.3272 56.2104 50.5062 56.214C52.3763 56.2171 54.2464 56.2166 56.1165 56.2134C58.2877 56.2098 60.4588 56.2084 62.6299 56.2104C62.8614 56.2107 63.0929 56.2109 63.3243 56.2111C63.4952 56.2112 63.4952 56.2112 63.6695 56.2114C64.4725 56.212 65.2755 56.211 66.0785 56.2094C67.159 56.2074 68.2395 56.2088 69.3201 56.2127C69.7173 56.2136 70.1145 56.2134 70.5117 56.2119C71.0527 56.21 71.5936 56.2123 72.1345 56.2157C72.372 56.2135 72.372 56.2135 72.6142 56.2111C73.6749 56.2241 73.6749 56.2241 74.2172 56.6262C74.4796 57.0108 74.5522 57.201 74.545 57.6621C74.5477 57.8304 74.5477 57.8304 74.5503 58.0021C74.4111 58.5264 74.2185 58.697 73.78 59.0221C73.2326 59.1255 72.6903 59.1138 72.1345 59.1084C71.9657 59.1095 71.797 59.1105 71.623 59.1116C71.0558 59.1144 70.4887 59.1122 69.9215 59.1101C69.5155 59.111 69.1095 59.1122 68.7035 59.1137C67.7143 59.1165 66.7251 59.116 65.7359 59.1141C64.9321 59.1125 64.1282 59.1123 63.3243 59.1131C63.1528 59.1132 63.1528 59.1132 62.9778 59.1134C62.7455 59.1136 62.5132 59.1138 62.2808 59.114C60.1019 59.116 57.9229 59.1138 55.7439 59.1101C53.8737 59.1071 52.0036 59.1076 50.1335 59.1107C47.9624 59.1144 45.7912 59.1158 43.6201 59.1137C43.3886 59.1135 43.1572 59.1133 42.9257 59.1131C42.7549 59.1129 42.7549 59.1129 42.5806 59.1128C41.7776 59.1122 40.9746 59.1132 40.1716 59.1148C39.091 59.1167 38.0105 59.1154 36.9299 59.1114C36.5327 59.1105 36.1355 59.1108 35.7383 59.1123C35.1973 59.1141 34.6565 59.1118 34.1155 59.1084C33.9572 59.1099 33.7989 59.1115 33.6358 59.113C32.5752 59.1 32.5752 59.1 32.0328 58.6979C31.7704 58.3134 31.6978 58.1232 31.705 57.6621C31.7024 57.4938 31.7024 57.4938 31.6997 57.3221C32.0248 56.0982 33.0738 56.2057 34.1155 56.2157Z" fill="#36454F"/>
<path id="Vector_7" d="M34.0403 61.4844C34.1806 61.4832 34.321 61.482 34.4656 61.4808C34.9356 61.4777 35.4054 61.4794 35.8754 61.4812C36.2125 61.48 36.5495 61.4785 36.8866 61.4767C37.8019 61.4729 38.7172 61.4734 39.6325 61.4749C40.3964 61.4758 41.1602 61.4746 41.9241 61.4733C43.7258 61.4704 45.5275 61.471 47.3291 61.4739C49.1888 61.4768 51.0483 61.4741 52.9079 61.4686C54.504 61.464 56.1 61.4628 57.6961 61.4642C58.6496 61.4651 59.6031 61.4647 60.5566 61.4612C61.453 61.4581 62.3493 61.4591 63.2457 61.4633C63.5748 61.4641 63.904 61.4635 64.2331 61.4614C64.6822 61.4587 65.1309 61.4612 65.5799 61.4651C65.7105 61.4631 65.841 61.4611 65.9755 61.459C66.6454 61.4707 66.9516 61.5497 67.4866 61.9657C67.8301 62.4219 67.8301 62.4219 67.9257 63.0275C67.8163 63.6959 67.6865 63.8934 67.1501 64.2919C66.5256 64.5 65.9504 64.4865 65.3002 64.4857C65.1622 64.4863 65.0242 64.4868 64.882 64.4873C64.4181 64.4888 63.9541 64.489 63.4902 64.4893C63.1582 64.4901 62.8262 64.4909 62.4942 64.4918C61.5912 64.4941 60.6881 64.4952 59.7851 64.4959C59.2212 64.4964 58.6574 64.4971 58.0935 64.4979C56.3301 64.5002 54.5667 64.5018 52.8034 64.5025C50.7662 64.5032 48.729 64.5062 46.6918 64.5112C45.1181 64.5148 43.5444 64.5165 41.9707 64.5168C41.0303 64.517 40.0899 64.518 39.1495 64.521C38.2652 64.5238 37.3808 64.5242 36.4965 64.5227C36.1717 64.5225 35.8469 64.5233 35.5222 64.525C35.0791 64.5271 34.6362 64.5261 34.1932 64.5243C34 64.5264 34 64.5264 33.8029 64.5285C33.0468 64.5214 32.5607 64.4203 31.9601 63.9519C31.6937 63.4191 31.6453 62.8245 31.7901 62.2519C32.4802 61.5346 33.0898 61.4742 34.0403 61.4844Z" fill="#36454F"/>
<path id="Vector_8" d="M44.1188 66.7953C44.3183 66.7937 44.5178 66.792 44.7233 66.7902C44.9433 66.7901 45.1633 66.79 45.3899 66.7899C45.6231 66.7886 45.8562 66.7871 46.0894 66.7856C46.7237 66.7818 47.3581 66.7804 47.9925 66.7795C48.3887 66.7789 48.7849 66.7778 49.1812 66.7766C50.5633 66.7724 51.9454 66.7702 53.3275 66.7696C54.6161 66.769 55.9046 66.7639 57.1932 66.7568C58.2991 66.7509 59.405 66.7483 60.5109 66.7482C61.1716 66.748 61.8322 66.7465 62.4929 66.7417C63.1146 66.7372 63.7361 66.7369 64.3578 66.7396C64.6944 66.7401 65.0311 66.7363 65.3677 66.7324C67.0133 66.746 67.0133 66.746 67.5407 67.2361C67.9264 67.8437 67.9563 68.1751 67.8301 68.882C67.5486 69.3228 67.4265 69.4898 66.9801 69.732C66.2305 69.861 65.4868 69.8462 64.7279 69.8392C64.4963 69.8401 64.2648 69.8414 64.0332 69.8429C63.4055 69.8461 62.778 69.8439 62.1503 69.8405C61.4929 69.8377 60.8356 69.8392 60.1783 69.8401C59.0744 69.8409 57.9706 69.8382 56.8668 69.8334C55.5912 69.828 54.3157 69.828 53.0402 69.8309C51.8123 69.8336 50.5845 69.8325 49.3567 69.8296C48.8345 69.8284 48.3123 69.8286 47.7901 69.8298C47.175 69.8311 46.56 69.8291 45.9449 69.8244C45.6119 69.8227 45.2789 69.8243 44.946 69.826C44.6478 69.8228 44.6478 69.8228 44.3436 69.8194C44.0851 69.8187 44.0851 69.8187 43.8213 69.818C43.2195 69.7081 42.9335 69.4763 42.5001 69.052C42.288 68.4291 42.2684 68.1612 42.5532 67.5645C43.0679 66.8782 43.2698 66.7992 44.1188 66.7953Z" fill="#36454F"/>
<path id="Vector_9" d="M44.3371 72.0266C44.6331 72.024 44.6331 72.024 44.9351 72.0215C45.1501 72.0231 45.3651 72.0248 45.5865 72.0265C45.8164 72.0258 46.0463 72.0249 46.2762 72.0237C46.8993 72.0213 47.5223 72.0232 48.1454 72.026C48.798 72.0284 49.4506 72.0273 50.1032 72.0267C51.199 72.0262 52.2948 72.0285 53.3906 72.0324C54.6569 72.037 55.9231 72.0373 57.1894 72.0353C58.4084 72.0334 59.6273 72.0345 60.8462 72.0369C61.3646 72.0379 61.883 72.0379 62.4014 72.037C63.012 72.0362 63.6226 72.038 64.2332 72.0416C64.5638 72.043 64.8943 72.0419 65.2249 72.0407C65.4222 72.0424 65.6195 72.0441 65.8229 72.0458C65.994 72.0463 66.1651 72.0467 66.3414 72.0471C66.8915 72.123 67.2134 72.2967 67.66 72.6218C67.9268 73.1553 67.8898 73.5633 67.83 74.1518C67.5494 74.5989 67.4317 74.7602 66.98 75.0018C66.2243 75.1307 65.4745 75.116 64.7095 75.109C64.476 75.1099 64.2425 75.1112 64.009 75.1127C63.3761 75.1159 62.7432 75.1137 62.1103 75.1103C61.4476 75.1075 60.785 75.109 60.1224 75.1099C59.0098 75.1107 57.8973 75.108 56.7848 75.1032C55.4986 75.0978 54.2124 75.0978 52.9262 75.1007C51.6886 75.1034 50.451 75.1023 49.2133 75.0994C48.6867 75.0982 48.1602 75.0984 47.6336 75.0996C47.0136 75.1009 46.3937 75.0989 45.7737 75.0942C45.4376 75.0925 45.1016 75.0941 44.7655 75.0958C44.5656 75.0936 44.3656 75.0915 44.1596 75.0892C43.9858 75.0888 43.812 75.0883 43.633 75.0878C43.0601 74.979 42.8584 74.7724 42.5 74.3218C42.4037 73.9446 42.4037 73.9446 42.4044 73.5568C42.4006 73.4288 42.3969 73.3008 42.3931 73.1689C42.6554 72.2435 43.4683 72.0267 44.3371 72.0266Z" fill="#36454F"/>
<path id="Vector_10" d="M49.3747 5.72402C49.5597 5.72188 49.7446 5.71974 49.9352 5.71753C50.2335 5.71959 50.2335 5.71959 50.5378 5.7217C50.8452 5.72072 50.8452 5.72072 51.1589 5.71973C51.5922 5.71927 52.0254 5.72052 52.4587 5.72336C53.1225 5.727 53.786 5.7234 54.4498 5.71904C54.8706 5.71949 55.2914 5.72036 55.7122 5.7217C55.9111 5.72032 56.1099 5.71895 56.3148 5.71753C56.4998 5.71967 56.6847 5.72182 56.8753 5.72402C57.1191 5.72484 57.1191 5.72484 57.3678 5.72566C57.9243 5.83684 58.1279 6.05682 58.48 6.49201C58.5703 6.83201 58.5703 6.83201 58.565 7.17201C58.5668 7.28421 58.5685 7.39641 58.5703 7.51201C58.4386 8.00776 58.192 8.20786 57.8 8.53201C57.3678 8.61836 57.3678 8.61836 56.8753 8.62C56.6903 8.62214 56.5054 8.62429 56.3148 8.6265C56.116 8.62512 55.9171 8.62374 55.7122 8.62233C55.4048 8.6233 55.4048 8.6233 55.0911 8.6243C54.6578 8.62476 54.2246 8.62351 53.7913 8.62067C53.1275 8.61703 52.464 8.62063 51.8002 8.62498C51.3794 8.62453 50.9586 8.62366 50.5378 8.62233C50.2395 8.62439 50.2395 8.62439 49.9352 8.6265C49.7502 8.62435 49.5653 8.62221 49.3747 8.62C49.1309 8.61919 49.1309 8.61919 48.8822 8.61836C48.3257 8.50718 48.1221 8.28721 47.77 7.85201C47.6797 7.51201 47.6797 7.51201 47.685 7.17201C47.6824 7.00371 47.6824 7.00371 47.6797 6.83201C47.9129 5.95406 48.5383 5.72681 49.3747 5.72402Z" fill="#36454F"/>
<path id="Vector_11" d="M71.74 72.0056C71.9911 72.0006 71.9911 72.0006 72.2473 71.9956C73.0581 72.0011 73.4788 72.0152 74.1452 72.5063C74.563 73.1109 74.5887 73.4313 74.46 74.1518C74.1512 74.608 74.1512 74.608 73.61 75.0018C72.9524 75.1236 72.3112 75.1128 71.6444 75.0974C71.4674 75.0993 71.2905 75.1012 71.1081 75.1031C69.8138 75.0906 69.8138 75.0906 69.3102 74.6976C68.9609 74.2453 68.9322 73.8827 68.9131 73.3184C69.334 71.9144 70.5169 71.9816 71.74 72.0056Z" fill="#36454F"/>
<path id="Vector_12" d="M71.7401 66.7462C71.9913 66.7401 71.9913 66.7401 72.2475 66.7339C73.0591 66.7355 73.4775 66.7442 74.1454 67.2356C74.5628 67.8406 74.5888 68.1611 74.4601 68.8818C74.1055 69.3957 73.8298 69.6892 73.2035 69.8106C72.713 69.8403 72.2313 69.8393 71.7401 69.8274C71.5727 69.8293 71.4053 69.8311 71.2328 69.8331C70.4849 69.8255 69.9962 69.802 69.3349 69.4336C68.9858 69.0101 68.9046 68.8293 68.9139 68.2868C68.9117 68.1588 68.9095 68.0308 68.9072 67.899C69.298 66.5935 70.6247 66.7338 71.7401 66.7462Z" fill="#36454F"/>
<path id="Vector_13" d="M70.5919 61.4817C70.7623 61.4808 70.9327 61.4799 71.1082 61.479C71.2852 61.4816 71.4621 61.4843 71.6445 61.487C71.9089 61.483 71.9089 61.483 72.1787 61.479C72.9527 61.483 73.4681 61.4926 74.152 61.8748C74.5694 62.3858 74.5734 62.6531 74.5331 63.2886C74.4212 63.7844 74.1862 64.0019 73.7801 64.292C73.0761 64.5267 72.4138 64.5 71.6763 64.5045C71.5317 64.508 71.3871 64.5115 71.2381 64.5151C70.4169 64.5202 69.8525 64.4956 69.1901 63.952C68.9241 63.42 68.9016 62.8281 69.0201 62.252C69.512 61.6449 69.8148 61.4855 70.5919 61.4817Z" fill="#36454F"/>
</g>
<defs>
<clipPath id="clip0_315_308">
<rect width="85" height="85" fill="white" transform="translate(0 0.541992)"/>
</clipPath>
</defs>
</svg>
