<svg width="85" height="86" viewBox="0 0 85 86" fill="none" xmlns="http://www.w3.org/2000/svg">
<g id="satisfaction-removebg-preview 1" clip-path="url(#clip0_315_358)">
<path id="Vector" d="M35.9525 0.492606C36.0876 0.491464 36.2227 0.490322 36.3619 0.489146C36.8029 0.485949 37.2438 0.485254 37.6848 0.484886C37.9936 0.483793 38.3023 0.482649 38.611 0.481457C39.2553 0.47943 39.8996 0.478791 40.5438 0.478993C41.3695 0.479028 42.1951 0.474365 43.0207 0.46853C43.657 0.464754 44.2933 0.46406 44.9296 0.46424C45.2341 0.463839 45.5387 0.462336 45.8432 0.459707C46.268 0.45638 46.6926 0.457351 47.1174 0.459403C47.3056 0.456537 47.3056 0.456537 47.4977 0.453613C48.0869 0.460857 48.3938 0.497936 48.8639 0.866572C49.1438 1.24043 49.2718 1.4371 49.3 1.902C49.1163 2.54477 49.0206 2.71154 48.45 3.092C47.9453 3.13705 47.9453 3.13705 47.3191 3.1408C47.2049 3.14197 47.0906 3.14313 46.9729 3.14432C46.7247 3.14663 46.4765 3.14817 46.2283 3.14904C45.8334 3.15045 45.4386 3.15394 45.0438 3.15797C44.2029 3.16617 43.3621 3.17175 42.5212 3.177C41.552 3.18309 40.5828 3.1903 39.6136 3.20011C39.2282 3.20347 38.8429 3.20492 38.4575 3.20628C35.141 3.23018 32.1295 3.86051 29.6225 6.1945C27.635 8.34364 26.9592 10.969 26.69 13.802C26.9003 13.8406 27.1107 13.8791 27.3275 13.9189C28.7648 14.2455 30.0204 14.7728 31.1843 15.6826C32.0153 16.3228 32.7663 16.5724 33.7702 16.8407C36.4332 17.7346 38.4032 19.8817 39.6843 22.3126C40.5176 24.1248 40.6865 25.8844 40.8266 27.8508C40.9097 28.8948 41.0893 29.7368 41.5092 30.7004C41.9063 31.9462 41.762 33.3774 41.4056 34.6164C41.2947 35.0108 41.2947 35.0108 41.31 35.392C41.5585 35.7856 41.8445 36.0752 42.1785 36.3987C43.6209 37.9841 43.4463 40.4278 43.3797 42.4114C43.2673 44.153 42.6128 45.79 41.48 47.122C40.5716 47.8984 39.7516 48.3427 38.5475 48.3226C38.2319 48.3174 38.2319 48.3174 37.91 48.312C37.8874 48.4533 37.8648 48.5947 37.8416 48.7403C37.8115 48.9251 37.7815 49.1098 37.7506 49.3001C37.721 49.4835 37.6914 49.667 37.6609 49.8559C37.57 50.352 37.57 50.352 37.4 50.862C37.5812 50.8609 37.7625 50.8597 37.9493 50.8586C39.6577 50.8482 41.3661 50.8406 43.0745 50.8356C43.9529 50.8329 44.8312 50.8293 45.7095 50.8235C46.5571 50.818 47.4047 50.8149 48.2524 50.8136C48.5758 50.8127 48.8992 50.8108 49.2225 50.8081C49.6755 50.8044 50.1284 50.8039 50.5814 50.8041C50.7819 50.8014 50.7819 50.8014 50.9864 50.7985C51.7589 50.8029 52.2551 50.8943 52.87 51.372C53.6898 52.5608 53.5108 54.5691 53.38 55.962C53.2328 56.7238 52.9812 57.45 52.7 58.172C54.0835 57.7508 55.0065 57.0685 55.7586 55.8299C56.2463 54.7543 56.3604 53.6548 56.4609 52.4956C56.5527 51.6218 56.5527 51.6218 56.8444 51.2153C57.5473 50.7478 58.3215 50.8374 59.1299 50.8379C59.3602 50.837 59.3601 50.837 59.5951 50.8361C59.929 50.8348 60.2629 50.8339 60.5968 50.8333C61.1275 50.8321 61.6581 50.8294 62.1887 50.8263C63.6976 50.8174 65.2066 50.8092 66.7156 50.8066C67.6388 50.8049 68.5619 50.7998 69.4851 50.7928C69.8351 50.7907 70.1851 50.7898 70.535 50.7902C73.9112 50.793 76.8433 50.3846 79.39 47.972C81.8993 45.152 82.306 42.0708 82.3046 38.4429C82.3052 38.1682 82.3057 37.8935 82.3064 37.6189C82.3079 36.8763 82.3083 36.1338 82.3084 35.3912C82.3085 34.9262 82.3089 34.4613 82.3093 33.9963C82.3109 32.3712 82.3116 30.7462 82.3115 29.1211C82.3114 27.6111 82.3131 26.1011 82.3158 24.5911C82.3181 23.2907 82.319 21.9902 82.3189 20.6898C82.3188 19.9149 82.3193 19.14 82.3211 18.3651C82.3228 17.6356 82.3227 16.9061 82.3215 16.1766C82.3213 15.9105 82.3217 15.6445 82.3228 15.3784C82.336 11.7356 81.7297 8.76055 79.1881 6.03512C76.7614 3.71109 73.8032 3.23628 70.5856 3.23788C70.2934 3.237 70.2934 3.237 69.9953 3.23609C69.5749 3.23485 69.1544 3.23394 68.7339 3.23332C68.0688 3.2321 67.4037 3.22943 66.7385 3.22629C66.5101 3.22522 66.2816 3.22414 66.0532 3.22307C65.9389 3.22253 65.8246 3.22199 65.7068 3.22144C64.1605 3.2143 62.6141 3.20867 61.0678 3.20659C59.9097 3.20501 58.7517 3.19991 57.5937 3.19276C57.1525 3.19067 56.7113 3.1898 56.2701 3.19018C55.6548 3.19058 55.0396 3.18683 54.4243 3.1821C54.1502 3.18378 54.1502 3.18378 53.8706 3.1855C52.6392 3.16992 52.6392 3.16992 52.0815 2.77226C51.8049 2.3419 51.6925 2.07587 51.68 1.562C51.874 1.17385 52.0523 0.849674 52.36 0.541996C52.6436 0.524539 52.928 0.519011 53.2121 0.518121C53.3968 0.51715 53.5815 0.516179 53.7717 0.515179C53.9762 0.514989 54.1806 0.514799 54.3912 0.514603C54.6052 0.513759 54.8191 0.512915 55.0396 0.512046C55.6287 0.509809 56.2178 0.508718 56.807 0.507964C57.1756 0.507466 57.5442 0.506768 57.9127 0.506008C59.0673 0.50368 60.2219 0.502039 61.3765 0.501384C62.7064 0.500625 64.0363 0.497655 65.3662 0.492714C66.3953 0.489024 67.4244 0.487323 68.4536 0.487097C69.0674 0.486919 69.6813 0.485933 70.2951 0.482877C70.9824 0.479523 71.6695 0.480301 72.3567 0.4814C72.5574 0.479834 72.758 0.478267 72.9647 0.476653C74.7562 0.485583 76.4203 0.825573 78.0193 1.647C78.1334 1.70536 78.2475 1.76372 78.3651 1.82384C81.4335 3.46551 83.7049 6.34136 84.7561 9.64826C85.1291 11.0501 85.074 12.4675 85.0713 13.9074C85.0726 14.2248 85.0741 14.5422 85.0757 14.8597C85.0795 15.7175 85.08 16.5752 85.0797 17.433C85.0796 18.1515 85.0811 18.87 85.0825 19.5886C85.0858 21.2854 85.0863 22.9822 85.0851 24.679C85.084 26.4234 85.0879 28.1679 85.0942 29.9123C85.0994 31.4152 85.1013 32.918 85.1007 34.4209C85.1003 35.3162 85.1012 36.2115 85.1054 37.1068C85.1092 37.9498 85.1089 38.7926 85.1054 39.6356C85.1049 39.9429 85.1057 40.2501 85.1081 40.5574C85.1349 44.156 84.1031 47.1725 81.6 49.842C79.0252 52.368 75.6046 53.7884 71.994 53.7713C71.8545 53.7713 71.7151 53.7714 71.5714 53.7714C71.1143 53.7713 70.6571 53.7699 70.2 53.7686C69.8815 53.7683 69.5631 53.768 69.2446 53.7679C68.4093 53.7672 67.5739 53.7656 66.7386 53.7637C65.885 53.7619 65.0315 53.7612 64.1779 53.7603C62.5053 53.7585 60.8326 53.7556 59.16 53.752C59.1283 53.959 59.1283 53.959 59.096 54.1702C59.0672 54.3524 59.0383 54.5345 59.0085 54.7222C58.9804 54.9023 58.9523 55.0824 58.9234 55.2679C58.547 57.175 57.3378 58.9295 55.76 60.042C53.7949 61.2621 51.6444 61.7895 49.3531 61.8376C49.1607 61.8445 49.1607 61.8445 48.9645 61.8515C48.2914 61.8468 47.9719 61.7665 47.4333 61.3529C47.0559 60.8463 46.9636 60.5031 47.0089 59.87C47.1896 59.1161 47.6552 58.6873 48.2873 58.2982C49.1821 57.832 49.1821 57.832 49.64 57.832C50.0606 56.8104 50.3582 55.9035 50.4262 54.7933C50.4389 54.5973 50.4516 54.4014 50.4647 54.1996C50.473 54.0519 50.4814 53.9042 50.49 53.752C48.6486 53.7269 46.8075 53.7129 44.966 53.7128C44.1108 53.7124 43.2559 53.7083 42.4008 53.6955C41.5751 53.6832 40.7498 53.681 39.924 53.6856C39.6094 53.6856 39.2949 53.682 38.9804 53.6748C37.5718 53.6222 37.5718 53.6222 36.21 53.922C35.598 54.5329 35.3238 55.1633 35.02 55.962C33.3361 58.5734 30.211 60.9769 27.2 61.742C27.2 62.4713 27.2 63.2006 27.2 63.952C27.4524 64.0186 27.7049 64.0852 27.965 64.1539C28.8195 64.3875 29.6682 64.6374 30.515 64.8976C30.633 64.9333 30.751 64.9689 30.8726 65.0057C31.4118 65.1732 31.8264 65.3363 32.3 65.652C32.3 65.7642 32.3 65.8764 32.3 65.992C32.4998 66.0499 32.4998 66.0499 32.7037 66.1089C35.1384 66.9904 37.6195 68.7729 39.1 70.922C39.3079 71.5589 39.3313 71.8106 39.0468 72.4201C38.76 72.792 38.76 72.792 38.42 72.962C37.7726 73.0231 37.3699 73.046 36.805 72.707C36.4578 72.3598 36.1515 72.0101 35.8381 71.6339C34.9489 70.591 33.8053 69.9186 32.64 69.222C32.6466 69.4625 32.6466 69.4625 32.6534 69.7079C32.668 70.3051 32.6786 70.9022 32.6866 71.4995C32.6909 71.7576 32.6967 72.0157 32.7041 72.2737C32.7144 72.6455 32.7192 73.017 32.723 73.389C32.7274 73.6124 32.7319 73.8359 32.7365 74.0661C32.6161 74.8091 32.3659 75.0455 31.79 75.512C31.5511 75.6501 31.3104 75.785 31.0675 75.9158C30.5325 76.2975 30.4406 76.4752 30.3171 77.1343C30.2837 77.5848 30.2816 78.0241 30.2825 78.477C30.2596 79.0905 30.2309 79.4079 29.92 79.932C28.7237 80.9573 27.4504 81.8903 26.18 82.822C30.668 82.8781 35.156 82.9342 39.78 82.992C39.5839 80.0921 39.5839 80.0921 39.0349 77.4345C38.8855 76.8759 38.8366 76.4237 38.93 75.852C39.3458 75.2772 39.5918 75.0412 40.29 74.8958C40.9801 75.0395 41.1986 75.3159 41.65 75.852C41.8757 76.439 41.8757 76.439 42.0325 77.0845C42.0859 77.2958 42.1394 77.507 42.1945 77.7247C42.5215 79.2558 42.5409 80.7935 42.5531 82.3545C42.558 82.5675 42.5629 82.7805 42.568 83C42.5694 83.2051 42.5709 83.4102 42.5723 83.6215C42.5761 83.8994 42.5761 83.8994 42.5798 84.1828C42.4753 84.8489 42.3181 85.0845 41.82 85.542C41.2857 85.6699 40.7603 85.6559 40.2132 85.6488C40.0486 85.65 39.8839 85.6512 39.7143 85.6525C39.1612 85.6554 38.6082 85.6524 38.055 85.6493C37.6591 85.6502 37.2632 85.6514 36.8672 85.653C35.7907 85.6561 34.7142 85.6539 33.6377 85.6506C32.6264 85.6481 31.6151 85.6491 30.6038 85.6499C28.6 85.6514 26.5961 85.6485 24.5923 85.6435C22.6474 85.6386 20.7025 85.6374 18.7576 85.64C16.6403 85.6428 14.523 85.6435 12.4056 85.6406C11.2846 85.639 10.1636 85.6383 9.04261 85.6399C7.98883 85.6412 6.93511 85.6391 5.88134 85.6345C5.494 85.6333 5.10666 85.6333 4.71932 85.6345C4.19172 85.636 3.6643 85.6333 3.13671 85.6295C2.98239 85.6309 2.82807 85.6323 2.66907 85.6337C1.63892 85.62 1.63892 85.62 1.09503 85.2305C0.744871 84.704 0.761916 84.3049 0.759641 83.676C0.758705 83.5607 0.75777 83.4453 0.756806 83.3265C0.755412 82.9528 0.759691 82.5794 0.764953 82.2058C0.765838 82.0788 0.766724 81.9518 0.767635 81.8209C0.783662 79.8708 0.93449 78.0567 1.52995 76.192C1.58956 75.9869 1.64917 75.7818 1.71058 75.5704C2.99669 71.5335 5.98078 68.3878 9.68995 66.4383C9.90239 66.3305 10.1149 66.223 10.3275 66.1155C10.8578 65.8559 10.8578 65.8559 11.193 65.5704C11.6295 65.2631 12.0353 65.125 12.5441 64.9647C12.7321 64.905 12.9201 64.8453 13.1139 64.7837C13.3093 64.7231 13.5048 64.6626 13.7062 64.6001C14.0014 64.5063 14.0014 64.5063 14.3025 64.4105C15.759 63.952 15.759 63.952 16.15 63.952C16.15 63.2227 16.15 62.4934 16.15 61.742C15.9361 61.6789 15.7222 61.6158 15.5018 61.5508C13.7943 60.9753 12.4055 60.0192 11.05 58.852C10.8974 58.7262 10.7449 58.6004 10.5878 58.4708C7.64889 55.953 5.74974 52.1843 5.43995 48.312C5.14543 48.3278 5.14543 48.3278 4.84495 48.3439C3.73038 48.3399 2.77805 47.9755 1.94499 47.2196C-0.0830613 45.0047 -0.102472 42.4143 -0.0224588 39.5625C0.0647518 37.8874 0.700729 36.7312 1.86995 35.562C1.82275 35.1641 1.76392 34.7676 1.69995 34.372C1.6708 33.8619 1.66851 33.3529 1.66808 32.842C1.666 32.7114 1.66391 32.5808 1.66177 32.4462C1.65963 31.6067 1.8051 30.9328 2.03995 30.122C2.05042 29.7042 2.04612 29.2858 2.02933 28.8682C1.95858 25.179 3.2094 21.9479 5.74542 19.2393C6.28152 18.7565 6.5886 18.6036 7.30995 18.562C7.81877 18.7832 8.08046 18.913 8.32995 19.412C8.41781 20.1397 8.39637 20.5953 7.95077 21.1731C7.78536 21.3671 7.61768 21.5592 7.44808 21.7495C6.63417 22.7249 6.02982 23.6402 5.60995 24.852C5.55626 24.9984 5.50257 25.1448 5.44726 25.2956C5.04813 26.5859 5.08152 27.8262 5.11008 29.1609C5.1241 30.159 5.00904 30.9716 4.6962 31.9236C4.39899 33.066 4.64568 34.1014 5.2062 35.1157C5.69545 35.8615 6.20909 36.2955 6.96995 36.752C7.45781 36.2906 7.82852 35.8279 8.19183 35.2645C9.12941 33.9212 10.2038 33.0451 11.645 32.2895C11.7444 32.2356 11.8439 32.1816 11.9464 32.1261C14.1698 31.0289 16.6605 30.8662 19.0931 30.7914C21.7933 30.703 24.4446 30.5552 26.52 28.592C26.6883 28.3561 26.8547 28.1187 27.0193 27.8801C27.3705 27.3975 27.488 27.2522 28.0606 27.0301C28.6823 27.0698 28.9177 27.1875 29.41 27.572C29.6715 28.0085 29.8553 28.4723 30.0475 28.9426C30.677 30.3785 31.4719 31.3964 32.6253 32.4628C33.8029 33.5704 34.4501 34.9662 35.0107 36.4665C35.1705 36.7777 35.1705 36.7777 35.5087 36.9034C36.1181 36.9348 36.4277 36.5997 36.8853 36.2307C37.9068 35.2564 38.7151 33.9016 38.7759 32.4655C38.7262 31.7592 38.5543 31.2144 38.25 30.5789C37.8666 29.7008 37.8426 28.8765 37.8143 27.9332C37.7352 25.4645 37.2071 23.192 35.53 21.282C34.3238 20.2159 32.96 19.7337 31.45 19.242C30.7685 19.0064 30.2331 18.7289 29.6968 18.2432C27.163 15.9835 23.682 16.0105 20.4884 16.1433C17.7843 16.3181 15.0917 17.0647 12.6178 18.1636C11.982 18.4287 11.5621 18.4821 10.88 18.392C10.3626 18.038 10.2266 17.8035 10.0512 17.202C10.0281 16.6486 10.0728 16.4671 10.37 16.012C14.1044 13.4832 19.6297 13.1421 23.97 13.292C23.9651 13.113 23.9651 13.113 23.9602 12.9304C23.9055 9.38814 25.4494 6.481 27.8268 3.91012C30.0046 1.83195 32.9345 0.488849 35.9525 0.492606ZM27.1362 31.5989C24.831 33.3288 22.2622 33.5371 19.4756 33.607C16.5073 33.6857 13.5308 33.8961 11.1609 35.8993C10.5664 36.5526 10.1052 37.3023 9.66405 38.0655C9.34545 38.4575 9.08222 38.6233 8.65937 38.8887C8.14926 39.2675 8.14926 39.2675 7.86728 39.819C7.82703 40.2293 7.8279 40.6199 7.84519 41.0319C7.84631 41.1821 7.84742 41.3322 7.84858 41.487C7.85391 41.9667 7.86883 42.4456 7.8837 42.9251C7.88762 43.24 7.89094 43.5549 7.89366 43.8698C7.96056 48.9193 8.97246 53.0985 12.6809 56.7343C15.3095 59.0343 18.8138 60.2244 22.2925 60.0048C26.0811 59.6867 29.6417 58.0324 32.1818 55.1824C33.1586 53.9166 33.852 52.4822 34.51 51.032C34.5715 50.8979 34.6331 50.7638 34.6966 50.6256C35.6122 48.2881 35.4057 45.4002 35.3812 42.9357C35.3795 42.6303 35.3779 42.3248 35.3766 42.0193C35.3729 41.2835 35.367 40.5478 35.36 39.812C35.2574 39.7791 35.1548 39.7463 35.0492 39.7124C34.8454 39.646 34.8454 39.646 34.6375 39.5783C34.4363 39.5132 34.4363 39.5132 34.231 39.4468C33.2266 39.0842 33.2266 39.0842 32.9713 38.6771C32.9181 38.5467 32.8648 38.4163 32.81 38.282C31.8888 36.1943 30.9196 34.6633 29.2659 33.0605C28.791 32.5563 28.428 32.0113 28.0659 31.4229C28.0045 31.3302 27.9432 31.2375 27.88 31.142C27.5761 31.142 27.3639 31.4144 27.1362 31.5989ZM39.44 37.602C38.7824 37.9612 38.3331 38.34 37.91 38.962C37.6462 40.0344 37.7665 41.184 37.8143 42.277C37.822 42.582 37.829 42.887 37.8352 43.1921C37.852 43.9358 37.8784 44.6787 37.91 45.422C38.705 45.4811 38.705 45.4811 39.4214 45.2155C40.5123 43.833 40.9131 42.2282 40.7515 40.4767C40.6165 39.5592 40.468 38.7294 39.95 37.942C39.7817 37.8298 39.6134 37.7176 39.44 37.602ZM3.56995 37.772C2.68299 38.7747 2.56506 40.0513 2.54995 41.342C2.66634 42.807 3.01685 43.9791 3.87808 45.167C4.39839 45.5238 4.82243 45.4392 5.43995 45.422C5.48222 44.5512 5.51293 43.6809 5.53334 42.8093C5.54185 42.5134 5.55342 42.2176 5.5682 41.922C5.70618 40.1762 5.70618 40.1762 5.05994 38.6266C4.39027 38.0377 4.39027 38.0377 3.56995 37.772ZM18.87 62.592C18.87 63.4896 18.87 64.3872 18.87 65.312C20.7213 65.312 22.5726 65.312 24.48 65.312C24.48 64.4144 24.48 63.5168 24.48 62.592C22.6287 62.592 20.7774 62.592 18.87 62.592ZM27.2 66.842C27.1505 67.0492 27.1505 67.0492 27.1001 67.2607C26.7877 68.571 26.4751 69.8813 26.1624 71.1915C26.0018 71.8649 25.8411 72.5383 25.6805 73.2118C25.5252 73.8632 25.3698 74.5147 25.2143 75.1661C25.1553 75.413 25.0965 75.66 25.0376 75.9069C24.7221 77.231 24.4025 78.5534 24.0588 79.8705C23.9516 80.2865 23.9516 80.2865 23.97 80.782C25.9377 79.8393 25.9377 79.8393 27.54 78.402C27.7475 77.7237 27.7235 77.0631 27.6171 76.3667C27.5679 75.9044 27.5578 75.615 27.71 75.172C28.0416 74.8963 28.3654 74.6534 28.7187 74.4097C29.3577 73.9523 29.7851 73.592 29.9341 72.7961C30.0122 72.022 29.9898 71.252 29.9625 70.4758C29.9604 70.205 29.9593 69.9343 29.9591 69.6636C29.9567 69.0058 29.9418 68.3494 29.92 67.692C29.5306 67.5497 29.141 67.4081 28.7512 67.267C28.6405 67.2265 28.5299 67.1859 28.4159 67.1441C27.8231 66.9187 27.8231 66.9187 27.2 66.842ZM14.5987 67.267C14.4867 67.3075 14.3747 67.3481 14.2594 67.3899C13.9827 67.4901 13.7063 67.591 13.43 67.692C13.3791 68.4871 13.3423 69.2811 13.3179 70.0774C13.3077 70.3475 13.2938 70.6174 13.2761 70.8871C13.131 72.3871 13.131 72.3871 13.634 73.7458C14.1824 74.2706 14.8133 74.6253 15.47 75.002C15.64 75.342 15.64 75.342 15.5862 75.9669C15.4742 77.4594 15.4742 77.4594 16.1094 78.7596C17.0567 79.595 18.1752 80.3804 19.38 80.782C19.1611 79.3337 18.8598 77.9212 18.5041 76.5008C18.4274 76.1904 18.4274 76.1904 18.3491 75.8737C18.2143 75.3286 18.0789 74.7837 17.9431 74.2388C17.7526 73.4739 17.5633 72.7086 17.3739 71.9434C17.2735 71.538 17.1728 71.1327 17.0719 70.7275C16.7509 69.4353 16.4455 68.1402 16.15 66.842C15.6005 66.842 15.1093 67.0799 14.5987 67.267ZM19.21 68.032C19.4939 69.2934 19.7781 70.5548 20.0629 71.8161C20.1596 72.245 20.2562 72.6738 20.3527 73.1027C20.4917 73.7202 20.631 74.3375 20.7705 74.9549C20.8348 75.2413 20.8348 75.2413 20.9004 75.5335C21.106 76.4416 21.3212 77.3404 21.59 78.232C21.6461 78.232 21.7022 78.232 21.76 78.232C21.7898 78.0982 21.8196 77.9643 21.8503 77.8265C22.581 74.5531 23.3456 71.2906 24.14 68.032C22.5131 68.032 20.8862 68.032 19.21 68.032ZM7.29269 71.5814C4.3289 74.6461 3.56995 78.8942 3.56995 82.992C8.17015 82.992 12.7704 82.992 17.51 82.992C16.9949 82.58 16.4816 82.1725 15.9567 81.7741C15.7675 81.6301 15.7675 81.6301 15.5745 81.4833C15.3117 81.2835 15.0487 81.0838 14.7856 80.8843C14.6602 80.7887 14.5347 80.6932 14.4055 80.5947C14.2916 80.5083 14.1777 80.4218 14.0604 80.3327C13.5638 79.9382 13.3576 79.7069 13.26 79.082C13.2659 78.8938 13.2718 78.7055 13.2779 78.5116C13.3222 77.1623 13.3222 77.1623 12.6311 76.0366C12.1315 75.6483 11.59 75.3309 11.05 75.002C10.7997 74.5015 10.8395 73.9883 10.8262 73.4388C10.8226 73.3185 10.8191 73.1983 10.8155 73.0744C10.8043 72.6898 10.7943 72.3053 10.7843 71.9208C10.777 71.6602 10.7696 71.3997 10.7621 71.1392C10.7439 70.5001 10.7267 69.8611 10.71 69.222C9.54503 69.222 8.09375 70.8021 7.29269 71.5814Z" fill="#36454F"/>
<path id="Vector_2" d="M62.39 6.32179C62.9301 7.03262 63.2716 7.7711 63.578 8.60285C63.671 8.84668 63.7641 9.09051 63.8572 9.33431C64 9.71257 64.1421 10.0911 64.2833 10.4699C65.3027 13.1936 66.5505 15.2831 68.8393 17.1148C73.9451 21.3023 73.9451 21.3023 74.3843 24.0905C74.4183 24.7464 74.4231 25.3981 74.4135 26.0544C74.4133 26.2956 74.4135 26.5367 74.414 26.7779C74.414 27.2796 74.4105 27.7811 74.4043 28.2827C74.3965 28.9218 74.3964 29.5605 74.3987 30.1996C74.3998 30.6962 74.3975 31.1928 74.3942 31.6895C74.3929 31.925 74.3925 32.1605 74.393 32.396C74.3938 34.3492 74.0835 35.6919 72.7327 37.1283C71.2318 38.5847 69.5009 38.8705 67.4553 38.8578C67.2751 38.8587 67.0949 38.8596 66.9093 38.8605C66.3197 38.8627 65.7301 38.8613 65.1405 38.8595C64.7276 38.8599 64.3147 38.8604 63.9017 38.861C63.039 38.8618 62.1762 38.8607 61.3134 38.8583C60.21 38.8554 59.1067 38.857 58.0033 38.8601C57.1515 38.8619 56.2998 38.8614 55.4481 38.86C55.0413 38.8597 54.6345 38.8601 54.2277 38.8613C53.6587 38.8626 53.0897 38.8606 52.5206 38.8578C52.271 38.8593 52.271 38.8593 52.0163 38.8609C50.7836 38.8496 49.7313 38.6371 48.6625 38.0055C47.9303 37.2327 47.4247 36.5601 47.4366 35.4589C47.4596 35.1311 47.4596 35.1311 47.4831 34.7968C47.5311 33.8541 47.5311 33.8541 47.0727 33.0656C46.7679 32.8121 46.4579 32.5647 46.143 32.3238C45.651 31.9283 45.4393 31.6321 45.2578 31.0349C45.2061 30.4842 45.2824 29.9692 45.3475 29.4205C45.458 28.6169 45.458 28.6169 45.1562 27.9078C44.8414 27.6529 44.8414 27.6529 44.5041 27.4357C43.8987 27.0299 43.7423 26.4743 43.605 25.7855C43.4539 24.6557 43.6121 23.8565 44.03 22.8118C44.1537 22.465 44.1537 22.465 44.2 22.1318C43.9696 21.7005 43.9696 21.7005 43.69 21.2818C43.3381 20.3541 43.4234 19.3737 43.775 18.4662C44.3678 17.2575 45.2899 16.5778 46.5387 16.1212C47.1653 15.9414 47.7725 15.9368 48.4207 15.9368C48.6308 15.9336 48.6308 15.9336 48.845 15.9303C49.1418 15.9259 49.4386 15.9225 49.7355 15.9201C50.4997 15.9135 51.2638 15.8992 52.0279 15.8843C52.1762 15.8815 52.3245 15.8787 52.4773 15.8758C54.0354 15.8421 55.5759 15.7111 57.12 15.5018C57.0951 15.3992 57.0702 15.2966 57.0446 15.1908C55.7096 9.63463 55.7096 9.63463 56.7162 7.55429C57.2695 6.67108 58.1787 6.20683 59.16 5.92867C60.3292 5.69071 61.3259 5.70793 62.39 6.32179ZM59.16 8.87179C58.4186 10.2305 59.1213 12.0304 59.5106 13.4405C60.1158 15.6383 60.1158 15.6383 59.8293 16.6493C59.4057 17.3599 58.9278 17.7336 58.1326 17.9968C57.7401 18.0953 57.3473 18.1771 56.95 18.2537C56.8205 18.2816 56.6909 18.3095 56.5575 18.3383C54.8562 18.6833 53.1278 18.7356 51.3971 18.7617C51.2723 18.7637 51.1476 18.7658 51.0191 18.7679C50.506 18.7761 49.9931 18.7842 49.48 18.7872C49.0989 18.7898 48.7181 18.7966 48.3371 18.8042C48.0019 18.8079 48.0019 18.8079 47.66 18.8117C47.082 18.8584 47.082 18.8584 46.6714 19.2094C46.3496 19.5901 46.3496 19.5901 46.4206 20.198C46.5247 20.8152 46.5247 20.8152 47.09 21.1118C47.5067 21.1632 47.5067 21.1632 47.9712 21.1583C48.1429 21.1618 48.3146 21.1653 48.4915 21.1689C48.8527 21.1733 49.214 21.1764 49.5752 21.1782C49.7471 21.1821 49.919 21.1861 50.0962 21.1902C50.2532 21.1915 50.4102 21.1929 50.5719 21.1944C51.1287 21.3081 51.3338 21.5191 51.68 21.9618C51.7402 22.5525 51.6979 22.928 51.51 23.4918C51.0062 23.687 50.5049 23.6848 49.9693 23.6917C49.8059 23.6957 49.6424 23.6998 49.4739 23.704C49.1313 23.7113 48.7887 23.7166 48.446 23.7199C47.482 23.7349 47.482 23.7349 46.6324 24.1406C46.3559 24.5278 46.3559 24.5278 46.4206 25.128C46.5247 25.7452 46.5247 25.7452 47.09 26.0418C47.5399 26.0961 47.5399 26.0961 48.0455 26.0943C48.3261 26.1007 48.3261 26.1007 48.6123 26.1072C49.0063 26.1132 49.4003 26.1185 49.7944 26.1231C49.9816 26.1276 50.1689 26.1321 50.3618 26.1368C50.533 26.139 50.7043 26.1413 50.8807 26.1437C51.4077 26.2218 51.6412 26.3518 52.02 26.7218C52.1822 27.2664 52.2414 27.5953 52.0518 28.1349C51.85 28.4218 51.85 28.4218 51.51 28.5918C50.8695 28.6259 50.23 28.646 49.5888 28.6642C48.8869 28.7731 48.5964 28.9322 48.11 29.4418C48.0233 29.9728 47.9942 30.2878 48.2972 30.7434C48.907 31.175 49.6908 31.0446 50.4143 31.0561C51.0955 31.1558 51.3766 31.329 51.85 31.8218C51.9562 32.4062 51.9562 32.4062 51.85 33.0118C51.4535 33.4989 51.0282 33.84 50.5325 34.223C50.1074 34.5204 50.1074 34.5204 49.98 35.0518C50.0826 35.5333 50.0826 35.5333 50.49 35.9018C51.0929 36.0361 51.6926 36.0177 52.308 36.0118C52.4952 36.0133 52.6824 36.0148 52.8752 36.0163C53.496 36.02 54.1165 36.0175 54.7373 36.0147C55.1682 36.0153 55.5992 36.0161 56.0301 36.0171C56.9344 36.0184 57.8387 36.0167 58.7431 36.0126C59.7867 36.008 60.8302 36.0095 61.8738 36.0142C62.8791 36.0185 63.8843 36.018 64.8896 36.0155C65.3166 36.015 65.7436 36.0157 66.1706 36.0176C66.7685 36.0198 67.3661 36.0165 67.9639 36.0118C68.1401 36.0135 68.3162 36.0152 68.4977 36.017C69.6304 36.0004 70.2183 35.825 71.06 35.0518C71.7022 33.9925 71.6469 32.8145 71.6437 31.6106C71.6446 31.4128 71.6455 31.215 71.6464 31.0112C71.6475 30.5943 71.6472 30.1774 71.6458 29.7605C71.6443 29.1262 71.6492 28.4922 71.6546 27.858C71.6549 27.4514 71.6548 27.0447 71.6543 26.6381C71.6572 26.3565 71.6572 26.3565 71.6601 26.0691C71.6463 24.5193 71.3206 23.1032 70.21 21.9618C69.7681 21.5513 69.31 21.1617 68.85 20.7718C68.6599 20.6092 68.47 20.4465 68.2802 20.2837C68.179 20.1969 68.0777 20.1102 67.9734 20.0208C67.7638 19.8409 67.5542 19.6608 67.3448 19.4805C66.923 19.1177 66.5013 18.7571 66.0682 18.4077C63.0781 15.9629 61.8657 12.0042 60.52 8.53179C59.9555 8.53179 59.6554 8.605 59.16 8.87179Z" fill="#36454F"/>
<path id="Vector_3" d="M15.47 48.482C15.9366 48.8553 16.2393 49.1658 16.5006 49.7039C16.7116 50.1118 16.9282 50.1547 17.34 50.352C17.7541 50.6073 18.1653 50.8666 18.5758 51.1276C20.186 51.9753 22.3369 51.9913 24.0822 51.5573C25.4438 51.0219 26.3867 50.3119 27.1894 49.0983C27.605 48.5177 27.605 48.5177 28.052 48.3658C28.6777 48.3276 29.0213 48.4429 29.5056 48.8326C29.8379 49.5117 29.7975 49.7969 29.58 50.522C28.4845 52.678 26.6492 53.7668 24.4401 54.5701C22.148 55.2098 19.3199 54.8715 17.2231 53.8158C15.7782 52.9627 14.2841 51.7572 13.6 50.182C13.5898 49.5485 13.6462 49.2053 13.9612 48.6626C14.4898 48.3631 14.8764 48.4001 15.47 48.482Z" fill="#36454F"/>
<path id="Vector_4" d="M31.1101 40.4919C31.6132 40.8954 31.6175 40.982 31.7051 41.6713C31.6788 42.1984 31.6288 42.3495 31.3119 42.7976C30.4895 43.1684 29.7753 42.9863 28.9001 42.8719C28.1198 42.8231 27.4157 42.8396 26.6582 43.0419C26.0453 43.2027 25.6147 43.3091 24.9901 43.2119C24.4183 42.7893 24.174 42.5465 24.0444 41.8413C24.1625 41.2247 24.3514 41.0681 24.8201 40.6619C26.632 39.6192 29.2418 39.6222 31.1101 40.4919Z" fill="#36454F"/>
<path id="Vector_5" d="M18.7106 40.7576C19.04 41.002 19.04 41.002 19.21 41.342C19.2996 42.0141 19.2584 42.2887 18.8806 42.8614C18.2329 43.2976 17.9352 43.2495 17.1913 43.121C16.929 43.0636 16.6669 43.0053 16.405 42.9464C15.4216 42.7743 14.4558 42.8696 13.4725 42.9995C12.8512 43.0579 12.6209 43.0604 12.0381 42.7976C11.6687 42.2754 11.605 41.9551 11.6483 41.3247C11.73 41.002 11.73 41.002 12.0806 40.5982C14.0822 39.491 16.726 39.745 18.7106 40.7576Z" fill="#36454F"/>
<path id="Vector_6" d="M32.3 68.8818C32.5244 68.9379 32.7488 68.994 32.98 69.0518C32.8117 69.136 32.8117 69.136 32.64 69.2218C32.6427 69.3831 32.6454 69.5443 32.6481 69.7104C32.6568 70.3099 32.6632 70.9092 32.6681 71.5087C32.6706 71.7679 32.6741 72.0271 32.6785 72.2863C32.6847 72.6594 32.6876 73.0323 32.6898 73.4054C32.6938 73.7419 32.6938 73.7419 32.6979 74.0853C32.6378 74.6844 32.5413 74.915 32.13 75.3418C32.0178 75.2857 31.9056 75.2296 31.79 75.1718C31.9022 75.0596 32.0144 74.9474 32.13 74.8318C32.1718 74.3817 32.1935 73.948 32.2004 73.4971C32.2037 73.3655 32.207 73.2339 32.2104 73.0983C32.2206 72.6774 32.2285 72.2565 32.2363 71.8356C32.2428 71.5505 32.2494 71.2654 32.2562 70.9803C32.2726 70.2808 32.2868 69.5814 32.3 68.8818Z" fill="#36454F"/>
<path id="Vector_7" d="M29.5801 74.1522C29.4469 74.2573 29.3136 74.3625 29.1764 74.4709C28.7355 74.8149 28.7355 74.8149 28.3901 75.1722C28.1657 75.2283 27.9413 75.2844 27.7101 75.3422C27.7101 76.4081 27.7101 77.474 27.7101 78.5722C27.4296 78.6844 27.1491 78.7966 26.8601 78.9122C27.0284 78.6597 27.0284 78.6597 27.2001 78.4022C27.3123 78.4022 27.4245 78.4022 27.5401 78.4022C27.5243 78.1828 27.5086 77.9634 27.4923 77.7374C27.377 75.456 27.377 75.456 27.819 74.6867C28.4158 74.1507 28.7879 73.8595 29.5801 74.1522Z" fill="#36454F"/>
<path id="Vector_8" d="M6.97001 68.3721C6.70954 68.9893 6.3379 69.3898 5.86501 69.8596C5.66252 70.0634 5.66252 70.0634 5.45595 70.2713C5.10001 70.5821 5.10001 70.5821 4.76001 70.5821C5.02048 69.9649 5.39212 69.5644 5.86501 69.0946C6 68.9587 6.13499 68.8228 6.27407 68.6829C6.63001 68.3721 6.63001 68.3721 6.97001 68.3721Z" fill="#36454F"/>
<path id="Vector_9" d="M11.22 15.502C11.3883 15.5581 11.5566 15.6142 11.73 15.672C11.6248 15.686 11.5197 15.7 11.4113 15.7145C11.0336 15.8081 11.0336 15.8081 10.8588 16.1182C10.6658 16.642 10.5151 17.1731 10.37 17.712C10.2578 17.5998 10.1456 17.4876 10.03 17.372C10.0569 16.7534 10.1285 16.4373 10.5294 15.9588C10.88 15.672 10.88 15.672 11.22 15.502Z" fill="#36454F"/>
<path id="Vector_10" d="M15.4701 48.4818C15.4701 48.5379 15.4701 48.594 15.4701 48.6518C15.1335 48.6518 14.7969 48.6518 14.4501 48.6518C14.3712 48.8096 14.3712 48.8096 14.2907 48.9705C14.1738 49.2043 14.057 49.438 13.9401 49.6718C13.9334 49.955 13.9326 50.2385 13.9401 50.5218C13.8279 50.4096 13.7157 50.2974 13.6001 50.1818C13.6311 49.6131 13.6724 49.16 13.9613 48.6624C14.4554 48.3825 14.9156 48.4504 15.4701 48.4818Z" fill="#36454F"/>
<path id="Vector_11" d="M28.5601 3.26221C28.6723 3.31831 28.7845 3.37441 28.9001 3.43221C27.6907 4.89947 27.6907 4.89947 26.8601 5.30221C27.1112 4.71536 27.4446 4.34177 27.9014 3.89971C28.0245 3.77962 28.1477 3.65953 28.2746 3.5358C28.3688 3.44551 28.463 3.35523 28.5601 3.26221Z" fill="#36454F"/>
<path id="Vector_12" d="M29.2825 74.0353C29.4298 74.0931 29.4298 74.0931 29.58 74.1522C29.4468 74.2574 29.3136 74.3625 29.1763 74.4709C28.7354 74.8149 28.7354 74.8149 28.39 75.1722C28.2778 75.1722 28.1656 75.1722 28.05 75.1722C28.1138 74.7099 28.1932 74.519 28.5282 74.184C28.9 73.9822 28.9 73.9822 29.2825 74.0353Z" fill="#36454F"/>
<path id="Vector_13" d="M26.86 28.082C26.9981 28.3689 26.9981 28.3689 27.03 28.762C26.6581 29.2402 26.6581 29.2402 26.18 29.612C25.7869 29.5802 25.7869 29.5802 25.5 29.442C25.7546 29.2373 26.0091 29.0325 26.2637 28.8278C26.563 28.5712 26.563 28.5712 26.86 28.082Z" fill="#36454F"/>
<path id="Vector_14" d="M9.00991 34.2021C9.13741 34.4996 9.13741 34.4996 9.17991 34.8821C8.87179 35.2646 8.87179 35.2646 8.49991 35.5621C8.38771 35.5621 8.27551 35.5621 8.15991 35.5621C8.3615 34.9884 8.54679 34.6021 9.00991 34.2021Z" fill="#36454F"/>
<path id="Vector_15" d="M6.46002 18.9019C6.20655 19.547 5.82133 19.8556 5.27002 20.2619C5.27002 19.7519 5.27002 19.7519 5.67377 19.295C6.12002 18.9019 6.12002 18.9019 6.46002 18.9019Z" fill="#36454F"/>
<path id="Vector_16" d="M52.6999 0.541992C52.5877 0.766392 52.4755 0.990792 52.3599 1.22199C52.2477 1.22199 52.1355 1.22199 52.0199 1.22199C52.0199 1.61469 52.0199 2.00739 52.0199 2.41199C51.9077 2.29979 51.7955 2.18759 51.6799 2.07199C51.7146 1.52855 51.7595 1.16999 52.0943 0.733242C52.3599 0.541992 52.3599 0.541992 52.6999 0.541992Z" fill="#36454F"/>
</g>
<defs>
<clipPath id="clip0_315_358">
<rect width="85" height="85" fill="white" transform="translate(0 0.541992)"/>
</clipPath>
</defs>
</svg>
