<svg width="85" height="86" viewBox="0 0 85 86" fill="none" xmlns="http://www.w3.org/2000/svg">
<g id="social-media-removebg-preview 1" clip-path="url(#clip0_315_338)">
<path id="Vector" d="M27.376 0.670664C27.6972 0.670481 28.0184 0.670151 28.3395 0.669686C29.207 0.668867 30.0744 0.670158 30.9418 0.671888C31.8569 0.673394 32.7721 0.673082 33.6872 0.673017C35.2271 0.673176 36.767 0.674647 38.3069 0.676973C40.0722 0.679629 41.8374 0.680543 43.6027 0.680418C45.4981 0.680301 47.3936 0.681491 49.289 0.683043C49.8267 0.683401 50.3644 0.683526 50.9021 0.683594C53.1448 0.684182 55.3873 0.691753 57.6299 0.71196C57.7709 0.713107 57.9118 0.714253 58.0571 0.715434C58.8503 0.722226 59.6433 0.732748 60.4364 0.749331C60.7786 0.755936 61.1209 0.759627 61.4632 0.763174C64.0341 0.829863 66.0196 1.68747 67.798 3.55946C69.296 5.39591 69.7887 7.40317 69.6999 9.72196C69.9898 9.74694 69.9898 9.74694 70.2856 9.77243C74.9389 10.2075 78.7301 12.1385 81.8509 15.6334C82.5942 16.5657 83.1746 17.546 83.693 18.6151C83.7463 18.7236 83.7996 18.8321 83.8545 18.9439C84.7538 20.9054 85.1155 22.8726 85.0885 25.0185C85.0849 25.3621 85.0885 25.705 85.0929 26.0486C85.1011 29.9928 83.4489 33.4271 80.7499 36.242C80.6502 36.3504 80.5505 36.4589 80.4477 36.5707C77.9842 39.1734 74.1928 40.8567 70.6302 41.0219C70.3201 41.023 70.0098 41.0139 69.6999 41.002C69.6999 41.7874 69.6999 42.5728 69.6999 43.382C69.9769 43.3679 70.2539 43.3539 70.5393 43.3395C74.4649 43.3441 77.9788 45.3153 80.7499 47.972C83.6566 51.0018 85.0766 54.6075 85.0636 58.7776C85.0634 58.8991 85.0632 59.0206 85.063 59.1458C85.0458 62.8991 83.9853 65.9493 81.5999 68.882C81.487 69.0246 81.3742 69.1673 81.2579 69.3143C78.7969 72.2483 74.9909 74.0095 71.2299 74.492C70.7195 74.5049 70.2103 74.5022 69.6999 74.492C69.7026 74.5894 69.7052 74.6869 69.708 74.7873C69.7846 78.0106 69.5429 80.6751 67.2263 83.1181C66.5751 83.7184 65.8974 84.1261 65.1099 84.5219C64.9921 84.5844 64.8744 84.6468 64.7531 84.7111C63.0468 85.4713 61.1606 85.2985 59.333 85.2926C58.936 85.2938 58.539 85.2953 58.142 85.2971C57.0676 85.3009 55.9931 85.3004 54.9187 85.2989C53.9062 85.2979 52.8938 85.2996 51.8814 85.301C49.7536 85.3038 47.6258 85.3023 45.498 85.2995C43.5554 85.297 41.6129 85.2994 39.6704 85.3043C37.6711 85.3093 35.6719 85.3112 33.6726 85.3096C32.552 85.3087 31.4315 85.3091 30.3109 85.3126C29.2568 85.3157 28.2028 85.3147 27.1487 85.3105C26.7631 85.3097 26.3775 85.3103 25.9919 85.3124C23.0758 85.3275 20.7811 85.0573 18.5299 82.992C17.2285 81.5088 16.2935 79.8762 16.3033 77.8787C16.3041 77.5828 16.3041 77.5828 16.3049 77.281C16.3071 76.9733 16.3071 76.9733 16.3093 76.6595C16.31 76.4517 16.3108 76.244 16.3116 76.0299C16.3136 75.5173 16.3164 75.0046 16.3199 74.492C16.1713 74.4998 16.0227 74.5077 15.8697 74.5159C13.3378 74.5902 10.952 74.0801 8.66989 72.962C8.51737 72.889 8.36485 72.816 8.2077 72.7408C4.52323 70.8615 1.84516 67.7013 0.509889 63.782C0.0546777 62.0524 -0.0887481 60.3861 -0.0744858 58.597C-0.0735407 58.4242 -0.0735407 58.4242 -0.0725766 58.2479C-0.0449264 54.6928 1.01311 51.6611 3.39989 48.992C3.51472 48.853 3.62955 48.7141 3.74786 48.5709C6.5832 45.2285 10.3509 43.666 14.6466 43.298C15.733 43.212 15.733 43.212 15.9799 43.212C16.1482 42.118 16.1482 42.118 16.3199 41.002C16.1235 41.0125 15.9272 41.023 15.7249 41.0338C11.5502 41.0207 7.85133 38.9084 4.88739 36.1145C1.92592 33.0424 0.587803 28.8761 0.643366 24.6753C0.731725 21.816 1.72387 18.8487 3.39989 16.522C3.91286 16.1421 4.12927 16.012 4.77051 16.012C5.41415 16.2311 5.62564 16.4353 5.94989 17.032C5.90055 18.0139 5.5771 18.7159 5.12114 19.5607C3.66525 22.363 3.08635 25.8542 4.05266 28.9419C5.10714 31.6154 6.35288 34.1227 8.83989 35.732C8.99154 35.8328 9.14318 35.9336 9.29942 36.0374C12.2187 37.8639 15.7205 38.4312 19.1116 37.8317C21.6313 37.2098 23.9012 35.9402 25.6699 34.032C25.7582 33.9465 25.8465 33.861 25.9375 33.773C28.1675 31.4779 29.0205 28.1055 28.98 24.981C28.8502 21.8193 27.7987 19.0597 25.6699 16.692C25.5798 16.5861 25.4898 16.4803 25.397 16.3712C23.4078 14.1856 20.1306 12.8895 17.2197 12.7275C14.5697 12.6385 12.3407 13.1224 10.0035 14.3877C9.21257 14.7991 8.71508 14.8976 7.81989 14.652C7.31533 14.2105 7.15435 13.9719 7.09739 13.3026C7.64206 11.9682 9.27625 11.393 10.5279 10.8449C12.3141 10.1093 14.2442 9.79996 16.1499 9.55196C16.1543 9.40185 16.1587 9.25174 16.1632 9.09708C16.2775 6.67721 17.0047 4.51239 18.7955 2.79446C21.3739 0.728788 24.2164 0.660143 27.376 0.670664ZM19.9802 5.62802C19.0231 7.06648 19.005 8.36834 19.0399 10.062C20.1338 10.3144 20.1338 10.3144 21.2499 10.572C21.2639 10.2634 21.2779 9.95486 21.2924 9.63696C21.3766 8.69523 21.4882 7.91627 22.0999 7.17196C23.1963 6.26591 24.079 5.95541 25.4926 5.94743C25.6253 5.94646 25.758 5.94549 25.8947 5.94449C26.1755 5.94289 26.4563 5.94178 26.7371 5.94112C27.1647 5.93947 27.5921 5.9342 28.0197 5.92883C28.2929 5.92772 28.5662 5.92683 28.8395 5.92618C29.03 5.92303 29.03 5.92303 29.2243 5.91982C30.0377 5.92325 30.5907 6.05874 31.2799 6.49196C31.851 7.17733 32.1133 7.88487 32.3656 8.72653C32.4433 9.04085 32.4433 9.04085 32.6399 9.21196C32.9054 9.22974 33.1717 9.2357 33.4378 9.23698C33.6967 9.2388 33.6967 9.2388 33.9608 9.24066C34.2472 9.24135 34.2472 9.24135 34.5394 9.24205C34.8391 9.24373 34.8391 9.24373 35.1449 9.24543C35.6946 9.24822 36.2443 9.25019 36.794 9.25159C37.1372 9.25246 37.4804 9.2535 37.8235 9.25457C38.8965 9.25781 39.9695 9.26023 41.0425 9.26164C42.2825 9.2633 43.5224 9.26778 44.7623 9.27465C45.7198 9.27977 46.6773 9.28229 47.6348 9.28285C48.2071 9.28325 48.7794 9.28479 49.3517 9.28905C49.99 9.29317 50.6281 9.29304 51.2664 9.29185C51.4567 9.29403 51.6469 9.29621 51.8429 9.29845C52.0165 9.29727 52.19 9.29609 52.3688 9.29488C52.5953 9.29549 52.5953 9.29549 52.8264 9.29611C53.2374 9.24405 53.2374 9.24406 53.5116 8.88765C53.7214 8.52932 53.8026 8.26919 53.8686 7.86258C54.0533 7.03606 54.4922 6.59958 55.1937 6.13332C55.7664 5.91451 56.3302 5.92329 56.9353 5.91887C57.0661 5.91734 57.197 5.9158 57.3318 5.91422C57.6087 5.91176 57.8856 5.91025 58.1626 5.90962C58.5813 5.90761 58.9996 5.89926 59.4182 5.89065C60.8914 5.87535 62.1911 5.88346 63.4099 6.83196C64.4699 7.96045 64.4886 9.09332 64.5999 10.572C65.3292 10.4037 66.0585 10.2354 66.8099 10.062C66.8848 8.15094 66.803 6.77782 65.5986 5.24884C64.6915 4.27884 63.3812 3.62392 62.0533 3.57914C61.7609 3.57754 61.4686 3.57688 61.1763 3.57694C61.0153 3.57632 60.8543 3.57569 60.6884 3.57505C60.1466 3.57317 59.6047 3.57252 59.0629 3.57187C58.6753 3.57081 58.2878 3.56968 57.9002 3.56848C56.8454 3.56552 55.7906 3.56373 54.7358 3.56233C54.0768 3.56145 53.4178 3.56042 52.7588 3.55935C50.9334 3.55648 49.108 3.554 47.2826 3.55277C46.8089 3.55244 46.3352 3.55211 45.8616 3.55178C45.7439 3.5517 45.6261 3.55162 45.5048 3.55153C43.5993 3.55012 41.6937 3.54582 39.7881 3.54029C37.8306 3.53466 35.873 3.53167 33.9155 3.53107C32.8169 3.53067 31.7183 3.52914 30.6197 3.52487C29.5856 3.52091 28.5515 3.52019 27.5174 3.52194C27.1384 3.52202 26.7595 3.52095 26.3805 3.51861C25.8618 3.5156 25.3433 3.51681 24.8246 3.51904C24.6758 3.51718 24.527 3.51531 24.3737 3.51339C22.6083 3.53165 21.0621 4.21524 19.9802 5.62802ZM24.162 8.75044C23.6588 9.51411 23.7577 10.7193 23.8733 11.5996C24.0392 12.1705 24.3829 12.379 24.873 12.6863C25.1527 12.8352 25.1527 12.8352 25.4381 12.9872C28.1455 14.4305 30.117 17.6752 31.0256 20.5223C31.4182 21.8335 31.7557 23.1372 31.7899 24.512C31.7998 24.7049 31.7998 24.7049 31.8098 24.9018C31.9371 29.2373 30.2454 33.0841 27.3818 36.2665C26.6682 37.016 25.8992 37.6139 25.0404 38.1897C24.8471 38.3195 24.8471 38.3195 24.6499 38.452C24.5322 38.51 24.4146 38.5681 24.2934 38.6279C23.7718 39.1665 23.8528 39.7651 23.8437 40.4886C23.8406 40.6394 23.8376 40.7902 23.8344 40.9455C23.8295 41.2648 23.8265 41.5842 23.8252 41.9036C23.8212 42.3896 23.8045 42.8741 23.7873 43.3597C23.7172 44.9815 23.7172 44.9815 24.3256 46.4257C24.7573 46.7685 25.1851 47.0315 25.6699 47.292C28.5011 49.587 30.3293 53.2247 30.7699 56.812C31.1127 61.2166 30.2372 65.2728 27.4243 68.7717C25.6584 70.7874 25.6584 70.7874 24.9788 71.0657C24.5398 71.2579 24.2838 71.406 23.9699 71.772C23.8075 72.5382 23.8098 73.2817 23.8393 74.0596C23.853 74.4284 23.8567 74.7963 23.8587 75.1653C23.8008 76.3108 23.8008 76.3108 24.19 77.326C24.6949 77.7196 25.3237 77.6217 25.9383 77.6167C26.089 77.6175 26.2397 77.6183 26.395 77.6191C26.9021 77.6212 27.409 77.6195 27.9161 77.6179C28.2788 77.6186 28.6415 77.6195 29.0042 77.6207C29.9908 77.623 30.9774 77.6221 31.964 77.6205C32.9949 77.6192 34.0259 77.6204 35.0569 77.6212C36.7884 77.6221 38.5199 77.6209 40.2515 77.6184C42.2553 77.6157 44.2591 77.6166 46.263 77.6194C47.9813 77.6217 49.6997 77.622 51.418 77.6207C52.4452 77.6199 53.4725 77.6198 54.4997 77.6215C55.4653 77.6229 56.4308 77.6219 57.3964 77.619C57.7514 77.6183 58.1065 77.6185 58.4616 77.6196C58.9449 77.621 59.4282 77.6193 59.9115 77.6167C60.0532 77.6179 60.1949 77.619 60.3409 77.6202C61.0467 77.6334 61.0467 77.6334 61.6541 77.3248C62.4969 76.269 62.2906 74.181 62.1652 72.9165C62.0079 72.2827 61.7616 72.0179 61.2322 71.6533C60.7724 71.3974 60.3059 71.1598 59.832 70.9312C57.2724 69.55 55.5605 65.9587 54.6854 63.2979C53.9476 60.7882 53.611 57.0367 54.7399 54.602C55.0659 54.2912 55.0659 54.2912 55.4199 54.092C55.9486 54.1135 56.304 54.1804 56.7586 54.4532C57.1147 55.0467 57.0029 55.711 56.8644 56.3667C56.708 57.1905 56.7413 58.0264 56.7374 58.8626C56.7339 59.0444 56.7304 59.2261 56.7268 59.4134C56.718 61.2306 57.0742 62.8701 57.9168 64.4832C57.9759 64.5985 58.0351 64.7138 58.0961 64.8325C58.6236 65.8288 59.247 66.6905 60.0099 67.522C60.1227 67.6504 60.2356 67.7788 60.3519 67.9111C62.6662 70.4009 65.6899 71.5755 69.0438 71.8091C72.6976 71.9171 75.9942 70.6027 78.6521 68.1043C80.7364 65.9435 82.2674 62.892 82.4499 59.872C82.4589 59.7243 82.4679 59.5766 82.4771 59.4244C82.5855 55.8901 81.189 52.4693 78.7898 49.8937C76.4565 47.5127 73.2876 46.1374 69.9646 46.0211C66.046 45.9834 62.9142 47.4219 60.0899 50.0972C59.7508 50.4427 59.4587 50.8216 59.1599 51.202C58.6823 51.4407 58.3289 51.4143 57.7999 51.372C57.3961 51.1913 57.3961 51.1913 57.1199 50.862C57.0543 50.2039 57.0509 49.7983 57.3709 49.2124C58.5457 47.8197 59.9355 46.5019 61.5646 45.6535C62.1094 45.2851 62.1094 45.2851 62.1981 44.6189C62.2116 44.3653 62.219 44.1114 62.2212 43.8574C62.2246 43.722 62.228 43.5866 62.2315 43.447C62.2367 43.1607 62.2391 42.8744 62.2389 42.588C62.2411 42.1523 62.2596 41.7194 62.279 41.2842C62.3342 39.7635 62.3342 39.7635 61.6192 38.491C61.0971 38.1474 60.5729 37.8719 60.0099 37.602C56.9699 35.3986 54.9909 31.7674 54.3105 28.1114C53.6692 23.8174 54.6313 19.8313 57.0455 16.267C57.2372 16.0096 57.4318 15.7544 57.6299 15.502C57.716 15.388 57.8021 15.2741 57.8909 15.1566C58.8805 13.9312 60.2339 12.8898 61.6023 12.1199C62.0982 11.7996 62.0982 11.7996 62.1674 11.242C62.1566 10.9577 62.1566 10.9577 62.1455 10.6676C62.1422 10.4785 62.1389 10.2893 62.1356 10.0945C62.0356 9.46156 61.8275 8.98953 61.3699 8.53196C61.0051 8.51704 60.6399 8.51378 60.2749 8.51536C60.053 8.51591 59.8311 8.51645 59.6025 8.51702C59.3664 8.51844 59.1303 8.51988 58.8943 8.52133C58.6575 8.52219 58.4208 8.52296 58.1841 8.52366C57.6027 8.52567 57.0213 8.52847 56.4399 8.53196C56.3947 8.65906 56.3496 8.78616 56.3031 8.91712C56.243 9.08454 56.183 9.25196 56.1211 9.42446C56.062 9.59013 56.0028 9.7558 55.9418 9.92649C55.5263 11.0124 55.5263 11.0124 55.1436 11.2626C55.0104 11.3152 54.8772 11.3678 54.7399 11.422C54.5495 11.508 54.3591 11.5941 54.1629 11.6828C53.229 12.0298 52.3134 12.0034 51.3276 11.998C51.1256 11.9988 50.9237 11.9997 50.7156 12.0007C50.1652 12.0025 49.6148 12.0021 49.0644 12.0005C48.4863 11.9992 47.9082 12.0004 47.33 12.0012C46.3594 12.0021 45.3889 12.0009 44.4183 11.9984C43.2989 11.9957 42.1795 11.9966 41.0601 11.9994C40.0961 12.0017 39.132 12.002 38.168 12.0007C37.5935 11.9999 37.0191 11.9998 36.4446 12.0015C35.8037 12.0028 35.163 12.0008 34.5222 11.998C34.2394 11.9995 34.2394 11.9995 33.951 12.0011C32.7474 11.9912 31.716 11.8961 30.7347 11.1284C30.6446 11.0219 30.5546 10.9154 30.4618 10.8057C30.3695 10.7018 30.2772 10.598 30.1822 10.4909C29.8066 9.87672 29.6158 9.21875 29.4099 8.53196C28.7171 8.51935 28.0244 8.51009 27.3316 8.50394C27.0959 8.50138 26.8603 8.4979 26.6247 8.49349C26.2859 8.48729 25.947 8.48468 25.6081 8.48215C25.3023 8.47815 25.3023 8.47815 24.9903 8.47406C24.4866 8.49071 24.4866 8.49071 24.162 8.75044ZM59.484 17.2763C57.1232 20.4498 56.3468 24.051 56.8282 27.9648C57.2483 30.2196 58.4921 32.3491 60.0099 34.032C60.1105 34.1483 60.2111 34.2647 60.3147 34.3846C62.2325 36.4659 65.1289 37.9202 67.9534 38.1496C71.7228 38.2997 75.2291 37.6108 78.1607 35.0818C80.8027 32.5046 82.4276 29.1481 82.4924 25.4363C82.4482 21.5338 80.7319 18.3547 78.0299 15.672C75.6635 13.4285 72.2875 12.4931 69.0933 12.5323C65.3369 12.6705 61.9159 14.4059 59.484 17.2763ZM64.5999 40.152C64.5999 41.4423 64.5999 42.7326 64.5999 44.062C65.3292 43.8937 66.0585 43.7254 66.8099 43.552C66.8099 42.5983 66.8099 41.6446 66.8099 40.662C66.0806 40.4937 65.3513 40.3254 64.5999 40.152ZM20.0493 40.407C19.5496 40.5332 19.5496 40.5332 19.0399 40.662C19.0399 41.6718 19.0399 42.6816 19.0399 43.722C19.3414 43.8377 19.643 43.9534 19.9536 44.0726C20.2081 44.1702 20.2081 44.1702 20.4676 44.2698C20.9018 44.4545 20.9018 44.4545 21.2499 44.232C21.2499 42.8856 21.2499 41.5392 21.2499 40.152C20.8514 40.152 20.4315 40.3104 20.0493 40.407ZM5.41266 50.7995C3.41769 53.3663 2.254 56.5928 2.54989 59.872C3.0149 63.4514 4.59079 66.7646 7.42079 69.1051C10.4231 71.2632 13.8797 72.1769 17.5588 71.6321C20.8366 71.0914 23.8142 69.419 25.7915 66.701C28.0028 63.5142 28.8025 59.9568 28.1136 56.1054C27.134 52.2916 24.7954 49.5304 21.4697 47.5244C16.0246 44.5598 9.34742 46.1486 5.41266 50.7995ZM20.0493 73.642C19.8615 73.7051 19.6737 73.7682 19.4802 73.8332C19.3349 73.8823 19.1896 73.9314 19.0399 73.982C19.0249 74.6584 19.016 75.3348 19.008 76.0113C19.0037 76.2012 18.9995 76.3911 18.9951 76.5867C18.9781 78.5181 19.3726 79.8893 20.7399 81.292C21.977 82.2735 23.1863 82.5329 24.7349 82.5274C24.8963 82.5282 25.0577 82.529 25.224 82.5297C25.7643 82.5319 26.3045 82.5316 26.8448 82.5313C27.2324 82.5324 27.6201 82.5335 28.0077 82.5348C29.0604 82.5378 30.113 82.5386 31.1657 82.5388C31.8236 82.5391 32.4815 82.5398 33.1394 82.5407C35.3167 82.5437 37.494 82.5452 39.6712 82.545C39.7885 82.545 39.9058 82.545 40.0267 82.545C40.2028 82.5449 40.2028 82.5449 40.3825 82.5449C42.2848 82.5448 44.187 82.548 46.0893 82.5528C48.0445 82.5577 49.9998 82.56 51.955 82.5598C53.0519 82.5597 54.1488 82.5606 55.2457 82.5642C56.2777 82.5675 57.3097 82.5676 58.3417 82.5651C58.7198 82.5647 59.098 82.5655 59.4761 82.5676C59.9937 82.5702 60.511 82.5686 61.0286 82.566C61.2513 82.5686 61.2513 82.5686 61.4785 82.5713C63.0277 82.5541 64.3561 82.0254 65.4911 80.9639C66.3512 79.9508 66.8332 78.7419 66.8265 77.4225C66.8257 77.1373 66.8257 77.1373 66.8248 76.8464C66.8234 76.648 66.822 76.4495 66.8205 76.2451C66.8194 75.9445 66.8194 75.9445 66.8182 75.6378C66.8162 75.1425 66.8131 74.6472 66.8099 74.152C66.0806 73.9837 65.3513 73.8154 64.5999 73.642C64.5955 73.9084 64.5911 74.1749 64.5866 74.4495C64.577 74.8036 64.5673 75.1578 64.5574 75.512C64.555 75.687 64.5526 75.8621 64.5501 76.0425C64.5154 77.1321 64.404 78.0146 63.7499 78.912C63.3667 79.2619 63.3667 79.2619 62.9743 79.4963C62.7793 79.617 62.7793 79.617 62.5805 79.74C61.8067 80.1519 61.0874 80.1276 60.2337 80.1281C60.081 80.1289 59.9284 80.1296 59.7711 80.1304C59.2575 80.1327 58.7438 80.1337 58.2302 80.1347C57.8627 80.1361 57.4952 80.1375 57.1278 80.139C55.919 80.1434 54.7102 80.146 53.5014 80.1484C53.0854 80.1493 52.6693 80.1503 52.2532 80.1512C50.5223 80.1549 48.7914 80.158 47.0605 80.16C44.5799 80.1627 42.0994 80.1684 39.6188 80.178C37.8748 80.1846 36.1307 80.1879 34.3867 80.1888C33.345 80.1895 32.3035 80.1915 31.2619 80.197C30.2813 80.2021 29.3009 80.2032 28.3203 80.2012C27.9611 80.2012 27.6019 80.2026 27.2427 80.2056C23.6337 80.234 23.6337 80.234 22.4399 79.252C21.6757 78.4329 21.4053 77.6765 21.3661 76.5725C21.359 76.3824 21.3519 76.1923 21.3445 75.9964C21.3378 75.798 21.3312 75.5995 21.3243 75.3951C21.3169 75.1947 21.3096 74.9943 21.302 74.7878C21.284 74.2925 21.2666 73.7973 21.2499 73.302C20.8522 73.302 20.4191 73.5174 20.0493 73.642Z" fill="#36454F"/>
<path id="Vector_2" d="M51.2218 35.2517C53.4222 37.5574 54.3201 40.3515 54.2894 43.4908C54.2093 46.376 53.0354 48.9779 51 51.0318C48.7123 53.1125 45.9721 54.4281 42.84 54.4318C40.7582 54.3159 38.8088 53.9279 37.0919 52.6681C36.5959 52.316 36.3019 52.1507 35.6894 52.2112C35.2237 52.3122 34.8009 52.476 34.3613 52.6575C33.5682 52.9734 32.8034 53.0339 31.96 52.9018C31.3385 52.5392 31.0442 52.1967 30.77 51.5418C30.77 50.453 31.0896 49.5805 31.4713 48.5775C31.8963 47.4479 32.0674 46.6176 31.79 45.4218C31.2761 42.238 31.7482 39.0668 33.66 36.4118C35.7443 33.8366 38.4523 32.1754 41.7456 31.6731C45.3999 31.4512 48.6155 32.7035 51.2218 35.2517ZM36.3548 37.3575C35.0744 39.043 34.4486 40.9321 34.4675 43.0312C34.4662 43.1766 34.4649 43.322 34.4635 43.4718C34.4664 44.4091 34.6091 45.1982 34.85 46.1018C34.8823 47.0591 34.6084 47.9425 34.2756 48.8311C34.1442 49.1849 34.1442 49.1849 34.17 49.6718C34.3033 49.6438 34.4365 49.6157 34.5738 49.5868C36.0738 49.3799 36.9505 49.4472 38.2713 50.2389C40.3171 51.4231 42.4561 51.884 44.7924 51.4256C47.0189 50.7838 49.0041 49.7285 50.1952 47.6743C50.884 46.4053 51.4048 45.178 51.51 43.7218C51.5216 43.5976 51.5332 43.4733 51.5452 43.3453C51.6499 41.2002 50.8303 38.9699 49.5125 37.2937C47.9649 35.637 45.8601 34.6673 43.6203 34.498C40.7935 34.4103 38.3217 35.2853 36.3548 37.3575Z" fill="#36454F"/>
<path id="Vector_3" d="M13.4513 16.4543C13.6817 16.454 13.9122 16.4535 14.1427 16.4528C14.6233 16.4521 15.1039 16.4531 15.5846 16.4555C16.1967 16.4585 16.8088 16.4568 17.4209 16.4537C17.8961 16.4519 18.3713 16.4525 18.8465 16.4538C19.1806 16.4543 19.5148 16.4528 19.8489 16.4512C21.606 16.4649 22.8988 16.6839 24.1978 17.9106C25.0581 18.8599 25.1796 19.9154 25.1874 21.1474C25.1891 21.3568 25.1907 21.5662 25.1924 21.782C25.1932 22.0094 25.1939 22.2367 25.1946 22.4641C25.1953 22.6373 25.1953 22.6373 25.196 22.814C25.1986 23.4253 25.2001 24.0366 25.2009 24.6479C25.2018 25.2757 25.2059 25.9034 25.2107 26.5312C25.2139 27.0172 25.2148 27.5031 25.215 27.9891C25.2158 28.3319 25.219 28.6748 25.2222 29.0176C25.2188 30.4341 25.1454 31.7302 24.2675 32.8952C23.2413 33.8981 22.2591 34.221 20.8445 34.2294C20.6243 34.2311 20.4041 34.2327 20.1772 34.2344C19.9372 34.2352 19.6971 34.2359 19.4571 34.2366C19.2097 34.2375 18.9624 34.2385 18.7151 34.2395C18.1966 34.2413 17.6782 34.2423 17.1597 34.2429C16.4982 34.2438 15.8367 34.2479 15.1752 34.2527C14.6642 34.2559 14.1531 34.2568 13.6421 34.257C13.3984 34.2576 13.1546 34.2589 12.9109 34.2612C11.2921 34.275 9.82342 34.2818 8.56324 33.1145C7.38615 31.7391 7.35561 30.2175 7.37312 28.4951C7.37298 28.2416 7.37256 27.9881 7.37188 27.7346C7.3714 27.2062 7.37387 26.6779 7.37856 26.1495C7.38436 25.4754 7.38332 24.8015 7.38015 24.1274C7.37834 23.6049 7.37987 23.0825 7.38242 22.5601C7.3833 22.3116 7.38323 22.0632 7.38216 21.8147C7.37798 20.2591 7.44152 19.0913 8.47015 17.8468C8.57468 17.7568 8.67921 17.6667 8.78691 17.5739C8.94042 17.4355 8.94042 17.4355 9.09703 17.2943C10.4652 16.446 11.8803 16.4469 13.4513 16.4543ZM10.5636 19.6056C10.2815 20.0668 10.3052 20.432 10.304 20.9706C10.3024 21.1867 10.3008 21.4029 10.2992 21.6256C10.3001 21.8617 10.3011 22.0978 10.3023 22.3339C10.302 22.5759 10.3015 22.8179 10.3008 23.0599C10.3001 23.5669 10.3012 24.0739 10.3035 24.5809C10.3065 25.2309 10.3048 25.8808 10.3017 26.5308C10.2999 27.0305 10.3005 27.5301 10.3018 28.0298C10.3021 28.2694 10.3017 28.5091 10.3005 28.7488C10.2992 29.0837 10.3016 29.4186 10.304 29.7535C10.3045 29.9441 10.3049 30.1347 10.3053 30.3311C10.3371 30.7957 10.3371 30.7957 10.5636 31.1184C11.0248 31.4006 11.39 31.3769 11.9286 31.378C12.2528 31.3804 12.2528 31.3804 12.5836 31.3829C12.8197 31.382 13.0558 31.3809 13.2919 31.3798C13.5339 31.3801 13.7759 31.3806 14.0179 31.3812C14.5249 31.382 15.0319 31.3809 15.5389 31.3785C16.1889 31.3756 16.8388 31.3773 17.4888 31.3803C17.9885 31.3822 18.4881 31.3816 18.9878 31.3803C19.2274 31.3799 19.4671 31.3804 19.7068 31.3815C20.0417 31.3828 20.3766 31.3805 20.7115 31.378C20.9021 31.3776 21.0927 31.3772 21.2891 31.3768C21.7537 31.345 21.7537 31.345 22.0764 31.1184C22.3586 30.6573 22.3349 30.292 22.336 29.7535C22.3384 29.4293 22.3384 29.4293 22.3409 29.0985C22.34 28.8624 22.3389 28.6263 22.3378 28.3902C22.3381 28.1482 22.3386 27.9062 22.3392 27.6642C22.34 27.1572 22.3389 26.6502 22.3365 26.1431C22.3336 25.4931 22.3353 24.8432 22.3383 24.1932C22.3402 23.6936 22.3396 23.194 22.3383 22.6943C22.3379 22.4546 22.3384 22.215 22.3395 21.9753C22.3408 21.6404 22.3385 21.3055 22.336 20.9706C22.3354 20.6847 22.3354 20.6847 22.3348 20.393C22.303 19.9284 22.303 19.9284 22.0764 19.6056C21.6153 19.3235 21.25 19.3472 20.7115 19.346C20.3873 19.3436 20.3873 19.3436 20.0565 19.3412C19.8204 19.3421 19.5843 19.3431 19.3482 19.3443C19.1062 19.344 18.8642 19.3435 18.6222 19.3428C18.1152 19.3421 17.6082 19.3432 17.1011 19.3455C16.4511 19.3485 15.8012 19.3468 15.1512 19.3437C14.6516 19.3419 14.152 19.3425 13.6523 19.3438C13.4126 19.3441 13.173 19.3437 12.9333 19.3425C12.5984 19.3412 12.2635 19.3436 11.9286 19.346C11.738 19.3464 11.5474 19.3469 11.351 19.3473C10.8864 19.3791 10.8864 19.3791 10.5636 19.6056Z" fill="#36454F"/>
<path id="Vector_4" d="M20.0214 51.692C20.5846 51.9746 20.9711 51.9593 21.5899 51.882C21.7021 51.8259 21.8143 51.7698 21.9299 51.712C22.7412 51.6443 23.1343 51.6313 23.8636 52.0095C24.3802 52.4522 24.6037 52.7708 24.707 53.4445C24.7305 54.8683 24.4065 56.1684 23.4705 57.2688C22.9559 57.8956 22.745 58.5617 22.5249 59.3301C21.7146 62.1327 20.2043 64.0575 17.6553 65.4877C15.1416 66.7968 11.9287 67.3498 9.17989 66.502C8.38978 66.1931 7.69147 65.8956 7.12926 65.2482C6.86952 64.5209 6.72687 63.904 6.91676 63.1445C7.29849 62.4901 7.83896 62.2369 8.49989 61.912C8.42385 61.8355 8.3478 61.759 8.26946 61.6802C6.76065 60.0749 6.25932 58.4165 6.24739 56.2701C6.24388 56.1157 6.24038 55.9613 6.23676 55.8022C6.22976 54.5801 6.41408 53.5103 7.07614 52.4663C7.60436 52.1466 7.9963 52.096 8.60946 52.123C9.22831 52.2759 9.56602 52.642 10.0126 53.0806C10.9357 53.9367 12.0349 54.5057 13.2599 54.772C13.2669 54.6037 13.2739 54.4354 13.2811 54.262C13.4266 53.2377 14.1382 52.5176 14.8643 51.8288C16.5493 50.7192 18.268 50.6811 20.0214 51.692ZM16.3199 54.262C15.7544 54.9284 15.7396 55.5796 15.7089 56.4202C15.6256 56.8932 15.514 57.0401 15.1299 57.322C13.1782 57.7773 11.2058 57.1952 9.5325 56.1671C9.19891 55.9335 9.19891 55.9335 8.83989 55.962C8.87272 57.365 9.17591 58.5823 10.1209 59.6595C10.6852 60.1718 11.2959 60.5184 11.9636 60.8813C12.5788 61.2401 12.7181 61.3233 12.9943 62.0076C12.8973 62.7693 12.6611 62.9664 12.0699 63.442C11.9121 63.5717 11.7543 63.7014 11.5918 63.8351C11.469 63.9297 11.3463 64.0244 11.2199 64.122C13.7406 64.2583 15.9015 63.6275 17.8924 62.0607C19.1959 60.8371 19.7832 59.2843 20.2547 57.6065C20.4995 56.7705 20.8199 56.1649 21.3966 55.517C21.6259 55.2889 21.6259 55.2889 21.5899 54.942C21.4402 54.9253 21.2905 54.9086 21.1363 54.8915C20.9389 54.8661 20.7414 54.8406 20.538 54.8145C20.2451 54.779 20.2451 54.779 19.9463 54.7427C19.3136 54.5855 19.0199 54.3395 18.5299 53.922C17.6904 53.631 17.01 53.6704 16.3199 54.262Z" fill="#36454F"/>
<path id="Vector_5" d="M67.1499 52.2219C67.5825 52.4137 67.951 52.6043 68.3506 52.8488C68.4654 52.9162 68.5803 52.9836 68.6986 53.053C68.9523 53.2024 69.2053 53.353 69.4577 53.5046C69.896 53.7676 70.3363 54.027 70.7771 54.2858C71.4134 54.6599 72.0486 55.0359 72.6829 55.4134C73.277 55.7664 73.8733 56.1145 74.4732 56.4573C74.606 56.5337 74.7389 56.6101 74.8757 56.6888C75.1224 56.8304 75.3697 56.9709 75.6177 57.1101C76.2062 57.4494 76.6829 57.7347 77.0099 58.3419C77.0717 58.6819 77.0717 58.6819 77.0631 59.0219C77.0624 59.1341 77.0618 59.2463 77.0611 59.3619C76.9803 59.8994 76.8112 60.2697 76.3813 60.6113C76.2655 60.6792 76.1497 60.747 76.0305 60.8169C75.8982 60.8954 75.766 60.9739 75.6297 61.0548C75.4856 61.1378 75.3415 61.2208 75.1931 61.3063C75.0435 61.3942 74.8939 61.4821 74.7399 61.5727C73.4107 62.3502 72.0712 63.1104 70.7267 63.861C69.7087 64.4293 69.7087 64.4293 68.7132 65.0357C67.8463 65.5827 67.1645 66.0008 66.114 65.9056C65.5863 65.7693 65.2995 65.5451 64.9399 65.1419C64.6203 64.4924 64.5564 63.9641 64.5533 63.2441C64.5516 63.0364 64.55 62.8288 64.5483 62.6148C64.5485 62.3918 64.5487 62.1689 64.5488 61.9392C64.5482 61.7065 64.5474 61.4739 64.5466 61.2412C64.5453 60.7544 64.5454 60.2675 64.5463 59.7807C64.5473 59.1585 64.5444 58.5365 64.5404 57.9144C64.5379 57.4341 64.5378 56.9539 64.5383 56.4736C64.5382 56.1333 64.5358 55.793 64.5334 55.4527C64.5345 55.2445 64.5356 55.0363 64.5367 54.8218C64.5365 54.6394 64.5364 54.457 64.5363 54.269C64.632 53.491 64.8877 52.9171 65.4924 52.4132C66.0933 52.1674 66.5018 52.1702 67.1499 52.2219ZM67.4899 55.7919C67.4899 57.9798 67.4899 60.1677 67.4899 62.4219C68.0936 62.1805 68.6003 61.9512 69.1561 61.6324C69.3083 61.5453 69.4605 61.4581 69.6173 61.3684C69.7743 61.2778 69.9313 61.1872 70.0931 61.0938C70.2481 61.0052 70.4032 60.9165 70.5629 60.8252C71.0134 60.5665 71.4621 60.3051 71.9099 60.0419C72.0474 59.9616 72.1849 59.8814 72.3266 59.7986C72.451 59.724 72.5753 59.6493 72.7035 59.5724C72.8133 59.507 72.9232 59.4415 73.0363 59.3741C73.1134 59.314 73.1905 59.2539 73.2699 59.1919C73.2699 59.0797 73.2699 58.9675 73.2699 58.8519C73.1354 58.7774 73.0008 58.7028 72.8621 58.6259C72.3599 58.3476 71.8577 58.0691 71.3556 57.7905C71.1388 57.6702 70.922 57.55 70.7051 57.4299C70.3924 57.2566 70.0797 57.0831 69.767 56.9096C69.4853 56.7533 69.4853 56.7533 69.1978 56.5939C68.864 56.4057 68.5337 56.2111 68.2083 56.009C67.8535 55.7637 67.8535 55.7637 67.4899 55.7919Z" fill="#36454F"/>
<path id="Vector_6" d="M72.2393 16.2987C72.5435 16.2913 72.5435 16.2913 72.8539 16.2838C73.0488 16.2824 73.2438 16.281 73.4446 16.2795C73.623 16.277 73.8013 16.2745 73.9851 16.272C74.5804 16.3721 74.7737 16.5612 75.1399 17.0319C75.2969 17.57 75.3606 17.8998 75.1824 18.4344C74.9699 18.7319 74.9699 18.7319 74.4599 19.0719C74.0512 19.118 74.0512 19.118 73.5728 19.1243C73.4003 19.1286 73.2278 19.1329 73.0501 19.1373C72.6867 19.1433 72.3232 19.1486 71.9597 19.1532C71.7873 19.1577 71.6148 19.1622 71.4371 19.1668C71.2003 19.1703 71.2003 19.1703 70.9587 19.1738C70.5472 19.2136 70.5472 19.2136 70.2449 19.445C69.9677 19.86 69.9667 20.1598 69.953 20.657C69.9469 20.8317 69.9409 21.0065 69.9347 21.1866C69.9309 21.3688 69.927 21.551 69.9231 21.7387C69.9173 21.9229 69.9115 22.1071 69.9055 22.2969C69.8914 22.7519 69.8797 23.2068 69.8699 23.6619C70.1158 23.65 70.1158 23.65 70.3667 23.638C70.5814 23.6318 70.7962 23.6257 71.0174 23.6194C71.337 23.6075 71.337 23.6075 71.6629 23.5955C72.2499 23.6619 72.2499 23.6619 72.6577 23.9726C73.0061 24.4451 73.0756 24.7779 73.0999 25.3619C72.9095 25.9332 72.7692 26.0357 72.2499 26.3819C71.6795 26.4151 71.6795 26.4151 71.0281 26.4031C70.8118 26.4 70.5955 26.397 70.3726 26.3938C70.2067 26.3899 70.0409 26.3859 69.8699 26.3819C69.8728 26.5324 69.8728 26.5324 69.8757 26.6859C69.8945 27.7311 69.9073 28.7762 69.9166 29.8215C69.9209 30.2115 69.9267 30.6015 69.9341 30.9914C69.9444 31.5523 69.9492 32.1129 69.953 32.6739C69.9573 32.848 69.9617 33.0221 69.9662 33.2014C69.9666 34.0105 69.9665 34.41 69.4776 35.0776C68.8777 35.4895 68.5434 35.5086 67.8299 35.3919C67.4576 35.1639 67.4576 35.1639 67.1499 34.7119C67.054 34.0822 67.0711 33.4589 67.0835 32.8233C67.0845 32.6393 67.0855 32.4554 67.0865 32.2659C67.0903 31.6786 67.0988 31.0916 67.1074 30.5044C67.1109 30.1062 67.114 29.7079 67.1167 29.3097C67.1242 28.3337 67.1356 27.3578 67.1499 26.3819C66.9848 26.3861 66.8196 26.3902 66.6495 26.3946C66.4338 26.3978 66.2181 26.4011 65.9958 26.4044C65.7816 26.4086 65.5673 26.4128 65.3466 26.4171C64.7699 26.3819 64.7699 26.3819 64.1962 26.0206C63.8685 25.4408 63.7972 25.1667 63.9199 24.5119C64.1836 24.0583 64.1836 24.0583 64.5999 23.6619C65.0781 23.5983 65.4459 23.5798 65.9174 23.6087C66.0953 23.6145 66.0953 23.6145 66.2767 23.6204C66.5679 23.6303 66.859 23.6456 67.1499 23.6619C67.1419 23.4667 67.1419 23.4667 67.1338 23.2675C67.1124 22.6694 67.0992 22.0714 67.0862 21.4731C67.0776 21.2684 67.0691 21.0638 67.0603 20.8529C67.0374 19.4489 67.2394 18.4559 68.1699 17.3719C69.4689 16.3363 70.6224 16.3118 72.2393 16.2987Z" fill="#36454F"/>
<path id="Vector_7" d="M17.9323 21.7709C18.891 22.3357 19.653 23.1559 20.1237 24.1615C20.3685 25.3611 20.2779 26.3177 19.72 27.4022C19.137 28.2683 18.5166 28.8251 17.51 29.1022C16.2483 29.2305 15.222 29.2521 14.11 28.5922C13.2957 27.8537 12.6339 27.1983 12.5395 26.0667C12.5133 24.8902 12.5154 23.9351 13.26 22.9822C14.542 21.6526 16.1023 21.1264 17.9323 21.7709ZM15.385 24.7034C15.0716 25.183 15.0716 25.183 15.2256 25.734C15.442 26.2535 15.442 26.2535 15.98 26.5522C16.503 26.5382 16.503 26.5382 17 26.3822C17.3932 25.7924 17.4122 25.5454 17.34 24.8522C17.17 24.5122 17.17 24.5122 16.83 24.3422C16.1524 24.2268 15.9143 24.2535 15.385 24.7034Z" fill="#36454F"/>
<path id="Vector_8" d="M40.6087 38.5581C41.115 38.5738 41.2923 38.6108 41.7349 38.8875C42.0854 39.457 42.0593 39.8329 41.9899 40.4919C41.9338 40.6286 41.8777 40.7653 41.8199 40.9062C41.5796 41.5221 41.6276 42.0431 41.6499 42.7019C41.7656 42.7439 41.8813 42.786 42.0006 42.8294C42.4999 43.0419 42.4999 43.0419 43.0737 43.4031C43.6985 43.7617 44.1551 43.8561 44.8799 43.7219C45.3457 43.2423 45.3457 43.2423 45.7299 42.7019C46.2045 42.338 46.403 42.3615 47.0156 42.3937C47.8147 42.5826 47.8147 42.5826 48.1099 43.0419C48.2693 43.4244 48.2693 43.4244 48.2799 43.8919C47.7552 45.1238 46.8031 46.08 45.5599 46.6012C44.3869 46.9671 43.4865 46.86 42.403 46.3276C40.9293 45.5221 39.4091 44.6792 38.7599 43.0419C38.5756 41.5012 38.7287 40.2544 39.6099 38.9619C39.9499 38.6219 39.9499 38.6219 40.6087 38.5581Z" fill="#36454F"/>
<path id="Vector_9" d="M43.52 5.13202C43.9344 5.38702 43.9344 5.38702 44.2 5.81202C44.2876 6.3064 44.257 6.6589 44.2 7.17202C43.9294 7.54613 43.7802 7.66536 43.3235 7.74975C43.1262 7.74778 43.1262 7.74778 42.925 7.74577C42.7935 7.74708 42.6621 7.7484 42.5266 7.74975C42.0698 7.66536 41.9206 7.54613 41.65 7.17202C41.5217 6.0173 41.5217 6.0173 41.9157 5.38702C42.4913 5.03275 42.856 5.03716 43.52 5.13202Z" fill="#36454F"/>
<path id="Vector_10" d="M67.1499 52.2218C67.5801 52.4155 67.9427 52.6424 68.3399 52.9018C68.1716 52.986 68.1716 52.986 67.9999 53.0718C67.7725 52.96 67.546 52.8465 67.3199 52.7318C66.9195 52.6556 66.9195 52.6556 66.5124 52.6256C66.3766 52.6129 66.2407 52.6002 66.1007 52.5871C65.9982 52.5787 65.8956 52.5704 65.7899 52.5618C65.7444 52.6705 65.6988 52.7792 65.6518 52.8912C65.4499 53.2418 65.4499 53.2418 64.9399 53.4118C64.9399 57.1705 64.9399 60.9292 64.9399 64.8018C64.5462 64.2112 64.5562 63.9797 64.5533 63.2826C64.5516 63.0749 64.55 62.8672 64.5483 62.6532C64.5484 62.4262 64.5486 62.1992 64.5488 61.9723C64.5482 61.7391 64.5474 61.506 64.5466 61.2728C64.5453 60.784 64.5454 60.2951 64.5463 59.8062C64.5473 59.1814 64.5444 58.5567 64.5404 57.9319C64.5379 57.4502 64.5378 56.9685 64.5383 56.4867C64.5382 56.1449 64.5358 55.8031 64.5334 55.4613C64.5345 55.252 64.5356 55.0427 64.5367 54.8271C64.5365 54.6436 64.5364 54.4602 64.5363 54.2712C64.6318 53.492 64.8867 52.9178 65.4924 52.4131C66.0998 52.1646 66.4972 52.143 67.1499 52.2218Z" fill="#36454F"/>
<path id="Vector_11" d="M59.84 46.6118C59.9522 46.6679 60.0644 46.724 60.18 46.7818C59.2748 47.8233 58.3565 48.7943 57.29 49.6718C57.29 48.737 58.1928 48.1023 58.82 47.4618C59.1509 47.1597 59.4846 46.8852 59.84 46.6118Z" fill="#36454F"/>
<path id="Vector_12" d="M69.3601 7.00195C69.4162 7.00195 69.4723 7.00195 69.5301 7.00195C69.723 7.91842 69.7127 8.78958 69.7001 9.72195C70.7099 9.83415 71.7197 9.94635 72.7601 10.062C72.7601 10.1181 72.7601 10.1742 72.7601 10.232C72.2252 10.2085 71.6905 10.1832 71.1557 10.1576C71.0031 10.1509 70.8505 10.1442 70.6932 10.1373C70.4754 10.1266 70.4754 10.1266 70.2533 10.1157C70.1188 10.1095 69.9844 10.1033 69.8459 10.0969C69.5301 10.062 69.5301 10.062 69.3601 9.89195C69.3476 9.4053 69.3444 8.92283 69.3495 8.43633C69.3502 8.29926 69.351 8.16218 69.3518 8.02096C69.3538 7.68128 69.3569 7.34162 69.3601 7.00195Z" fill="#36454F"/>
<path id="Vector_13" d="M67.1501 52.2222C67.5803 52.4159 67.9428 52.6427 68.3401 52.9022C68.1718 52.9863 68.1718 52.9863 68.0001 53.0722C67.7727 52.9604 67.5461 52.8468 67.3201 52.7322C66.9196 52.656 66.9196 52.656 66.5126 52.6259C66.3767 52.6132 66.2409 52.6005 66.1009 52.5874C65.9983 52.5791 65.8958 52.5708 65.7901 52.5622C65.741 52.6709 65.6919 52.7796 65.6414 52.8915C65.4501 53.2422 65.4501 53.2422 65.1101 53.4122C65.1101 53.1878 65.1101 52.9634 65.1101 52.7322C65.7618 52.1792 66.3163 52.1215 67.1501 52.2222Z" fill="#36454F"/>
<path id="Vector_14" d="M19.8899 2.24219C19.6442 2.81567 19.3451 3.1969 18.8699 3.60219C18.4874 3.72969 18.4874 3.72969 18.1899 3.77219C18.4428 3.08941 19.1134 2.24219 19.8899 2.24219Z" fill="#36454F"/>
<path id="Vector_15" d="M68.8501 16.8618C68.9623 16.8618 69.0745 16.8618 69.1901 16.8618C68.921 17.5884 68.4241 17.9269 67.8301 18.3918C67.8301 17.8818 67.8301 17.8818 68.2445 17.4356C68.3882 17.3023 68.532 17.1691 68.6801 17.0318C68.7362 16.9757 68.7923 16.9196 68.8501 16.8618Z" fill="#36454F"/>
<path id="Vector_16" d="M80.5799 31.8218C80.718 32.1087 80.718 32.1087 80.7499 32.5018C80.3355 32.9693 80.3355 32.9693 79.8999 33.3518C79.8999 32.6719 80.1933 32.3654 80.5799 31.8218Z" fill="#36454F"/>
<path id="Vector_17" d="M14.1101 22.1318C14.2223 22.1879 14.3345 22.244 14.4501 22.3018C14.2012 23.0484 13.7738 23.1313 13.0901 23.4918C13.3353 22.9196 13.6566 22.5551 14.1101 22.1318Z" fill="#36454F"/>
<path id="Vector_18" d="M77.69 35.2222C77.8022 35.2783 77.9144 35.3344 78.03 35.3922C77.7495 35.7288 77.469 36.0654 77.18 36.4122C76.9556 36.3 76.7312 36.1878 76.5 36.0722C76.8927 35.7917 77.2854 35.5112 77.69 35.2222Z" fill="#36454F"/>
</g>
<defs>
<clipPath id="clip0_315_338">
<rect width="85" height="85" fill="white" transform="translate(0 0.541992)"/>
</clipPath>
</defs>
</svg>
