<svg width="85" height="86" viewBox="0 0 85 86" fill="none" xmlns="http://www.w3.org/2000/svg">
<g id="technical-support__1_-removebg-preview 1" clip-path="url(#clip0_315_289)">
<path id="Vector" d="M27.3554 5.10436C27.5023 5.10351 27.6493 5.10267 27.8007 5.1018C28.2836 5.09933 28.7665 5.09816 29.2494 5.09722C29.4152 5.09674 29.581 5.09626 29.7518 5.09576C30.6287 5.09322 31.5057 5.09165 32.3827 5.09091C33.2856 5.08998 34.1885 5.08589 35.0915 5.08105C35.7886 5.07788 36.4857 5.077 37.1829 5.07674C37.5156 5.07623 37.8484 5.07487 38.1812 5.07263C38.6477 5.06971 39.1142 5.07005 39.5808 5.07115C39.7165 5.06959 39.8522 5.06802 39.992 5.06641C41.7647 5.0794 43.262 5.76253 44.5368 6.98448C45.4586 8.04195 45.7632 9.23176 46.0701 10.5717C46.1853 10.5845 46.3006 10.5972 46.4194 10.6103C48.0578 10.8417 49.4107 11.4711 50.4482 12.7937C51.0935 13.7929 51.5329 14.873 51.5288 16.0692C51.5289 16.2853 51.5289 16.2853 51.5291 16.5059C51.5287 16.6601 51.5284 16.8144 51.528 16.9733C51.5303 17.3011 51.5328 17.629 51.5356 17.9568C51.5395 18.4728 51.5419 18.9886 51.5398 19.5046C51.5383 20.0033 51.5432 20.5016 51.5493 21.0002C51.5461 21.2316 51.5461 21.2316 51.543 21.4676C51.551 21.8837 51.5671 22.2411 51.6801 22.6417C52.1569 23.0787 52.1569 23.0787 52.7001 23.3217C52.9737 23.6319 52.9737 23.6319 53.1676 23.9486C53.2662 24.1021 53.2662 24.1021 53.3668 24.2587C53.9444 25.5918 53.9403 26.9571 53.9352 28.3839C53.9356 28.589 53.9359 28.7941 53.9362 29.0054C53.9364 29.4374 53.9358 29.8693 53.9344 30.3012C53.9326 30.9585 53.9344 31.6157 53.9366 32.273C53.9363 32.6943 53.9359 33.1157 53.9352 33.537C53.9359 33.7317 53.9366 33.9264 53.9373 34.1269C53.9254 36.1838 53.6511 37.8545 52.2585 39.4412C51.1115 40.5204 49.919 40.8502 48.3756 40.8429C46.9733 40.7971 46.9733 40.7971 45.76 41.3849C45.4268 41.8661 45.1526 42.3544 44.8801 42.8717C44.6038 43.2124 44.6038 43.2124 44.3169 43.4986C44.2227 43.5942 44.1285 43.6897 44.0314 43.7882C43.6901 44.0617 43.6901 44.0617 43.2 44.2928C42.5696 44.6185 42.2358 44.8389 41.8201 45.4217C41.4695 47.1185 41.5331 48.9864 42.3301 50.5217C42.5091 50.5224 42.6881 50.523 42.8725 50.5236C44.5657 50.5299 46.2587 50.5398 47.9518 50.553C48.8221 50.5597 49.6924 50.5652 50.5627 50.5678C51.4037 50.5704 52.2447 50.5763 53.0858 50.5844C53.4054 50.5869 53.7251 50.5882 54.0448 50.5884C56.2439 50.5904 58.2057 50.6246 59.8879 52.2344C60.7269 53.1745 61.3593 54.2368 61.379 55.524C61.3653 55.7342 61.3516 55.9444 61.3375 56.161C61.3259 56.3976 61.315 56.6342 61.3047 56.8709C61.2994 56.9932 61.2941 57.1155 61.2886 57.2415C61.1969 59.6942 61.462 61.3132 63.0039 63.2857C65.1471 66.2447 65.762 70.6567 65.8346 74.1949C65.8375 74.3347 65.8404 74.4745 65.8435 74.6185C65.857 75.3268 65.8651 76.0347 65.8659 76.7431C65.8687 77.0084 65.8716 77.2738 65.8744 77.5391C65.873 77.6598 65.8716 77.7804 65.8701 77.9048C65.8841 78.8363 66.1501 79.34 66.6401 80.1018C67.0393 81.2929 66.8651 82.4772 66.3678 83.6093C65.7488 84.6571 64.9017 85.213 63.7501 85.5417C63.2336 85.5848 63.2336 85.5848 62.6752 85.5855C62.3546 85.5871 62.3546 85.5871 62.0274 85.5888C61.7915 85.5883 61.5556 85.5878 61.3196 85.5872C61.068 85.5878 60.8163 85.5886 60.5647 85.5895C59.8738 85.5916 59.1829 85.5916 58.492 85.5912C57.7466 85.5911 57.0012 85.593 56.2558 85.5946C54.7958 85.5974 53.3358 85.5984 51.8757 85.5985C50.689 85.5987 49.5023 85.5994 48.3156 85.6005C44.9513 85.6035 41.5869 85.605 38.2226 85.6048C37.9505 85.6048 37.9505 85.6048 37.673 85.6048C37.4914 85.6047 37.3098 85.6047 37.1227 85.6047C34.1792 85.6046 31.2357 85.6078 28.2922 85.6126C25.27 85.6175 22.2478 85.6199 19.2256 85.6196C17.5288 85.6194 15.832 85.6204 14.1352 85.624C12.6907 85.6271 11.2461 85.6279 9.80159 85.6256C9.06461 85.6245 8.32767 85.6244 7.59069 85.6274C6.91577 85.6301 6.24093 85.6296 5.56601 85.6266C5.32212 85.6261 5.07821 85.6267 4.83432 85.6286C3.32052 85.6396 2.20202 85.5883 1.01609 84.5649C0.940266 84.47 0.864444 84.3751 0.786323 84.2774C0.707871 84.1829 0.629419 84.0885 0.548589 83.9912C0.0208507 83.1827 -0.0619029 82.432 -0.0636768 81.483C-0.0678404 81.3671 -0.0720041 81.2512 -0.0762939 81.1317C-0.0769514 81.0167 -0.0776088 80.9016 -0.0782861 80.7831C-0.0803817 80.6296 -0.0803817 80.6296 -0.0825195 80.473C7.32467e-05 80.1018 7.32467e-05 80.1018 0.339617 79.5627C0.776662 78.8287 0.774005 78.1731 0.765737 77.3353C0.767339 77.1853 0.768941 77.0354 0.770591 76.8809C0.775437 76.4032 0.775986 75.9257 0.775698 75.448C0.7795 72.5595 0.938939 69.852 1.89132 67.0967C1.94196 66.9481 1.99259 66.7994 2.04476 66.6462C2.62424 65.0105 3.3585 63.3451 4.43294 61.9702C5.4845 60.5819 5.58253 59.6324 5.39757 57.9274C5.19386 55.8085 5.26933 54.0385 6.63007 52.3068C7.54439 51.2639 8.89696 50.7177 10.2645 50.6141C11.1427 50.5754 12.0206 50.583 12.8995 50.5895C13.2231 50.5885 13.5468 50.5872 13.8704 50.5854C14.7162 50.5815 15.5619 50.5822 16.4077 50.5843C17.7666 50.5874 19.1254 50.5857 20.4842 50.5799C20.958 50.5789 21.4318 50.5811 21.9056 50.5836C22.1945 50.5831 22.4835 50.5825 22.7725 50.5818C22.9041 50.5833 23.0358 50.5849 23.1715 50.5865C23.8614 50.5854 23.8614 50.5854 24.4699 50.2949C25.254 49.0626 25.081 46.7997 24.8201 45.4217C24.315 44.705 23.7275 44.435 22.9501 44.0617C20.4876 42.1251 19.1634 38.8774 18.5301 35.9017C18.5301 35.6773 18.5301 35.4529 18.5301 35.2217C18.3618 35.2296 18.1935 35.2375 18.0201 35.2457C16.3259 35.3021 15.2529 35.1482 13.9719 33.9893C13.2213 33.2689 12.9047 32.2721 12.8514 31.253C12.8469 30.9895 12.8454 30.726 12.8464 30.4624C12.8455 30.3208 12.8446 30.1792 12.8437 30.0333C12.8426 29.7357 12.8428 29.4381 12.8442 29.1406C12.8457 28.6891 12.8408 28.238 12.8354 27.7866C12.8218 24.8652 12.8218 24.8652 13.6001 23.8317C13.8292 23.6508 14.0618 23.4743 14.2972 23.3016C14.8299 22.8433 15.0544 22.5629 15.1193 21.8578C15.1216 21.5628 15.1168 21.2677 15.1062 20.973C15.1065 20.7349 15.1065 20.7349 15.1069 20.4921C15.1068 19.9865 15.0978 19.4816 15.0876 18.9761C15.0379 15.2499 15.4521 12.1307 18.0201 9.21175C18.1277 9.08618 18.2353 8.96061 18.3461 8.83124C20.6743 6.30209 23.9682 5.10908 27.3554 5.10436ZM20.2301 10.9117C17.9436 13.6716 17.7918 16.5419 17.8057 19.9794C17.8076 20.5202 17.8057 21.061 17.8036 21.6018C17.8038 21.9467 17.8042 22.2916 17.8049 22.6364C17.8042 22.7976 17.8035 22.9587 17.8028 23.1248C17.8039 23.2747 17.805 23.4246 17.8061 23.5791C17.8064 23.7103 17.8066 23.8416 17.8069 23.9768C17.8561 24.3926 17.9727 24.6656 18.1901 25.0217C18.4716 25.2046 18.4716 25.2046 18.8063 25.3113C18.9264 25.3551 19.0465 25.3989 19.1702 25.4441C19.3583 25.5085 19.3583 25.5085 19.5501 25.5742C19.6754 25.6198 19.8008 25.6654 19.9299 25.7124C20.5739 25.9563 20.5739 25.9563 21.2501 26.0417C21.2517 25.8601 21.2533 25.6785 21.2549 25.4913C21.2617 24.8101 21.2729 24.1289 21.2854 23.4478C21.2901 23.1543 21.2937 22.8608 21.2961 22.5674C21.3157 20.3102 21.4512 18.5747 23.0703 16.8584C24.5774 15.5567 26.2582 15.391 28.1642 15.4668C28.7806 15.5212 29.3573 15.6767 29.9519 15.8417C32.3026 16.4731 34.7009 16.383 37.0369 15.7468C38.7166 15.305 40.6974 15.1683 42.2949 15.9467C43.7162 16.8372 44.6783 17.9321 45.1422 19.5662C45.2693 20.1464 45.261 20.7353 45.2739 21.3269C45.2774 21.4618 45.2809 21.5967 45.2846 21.7356C45.2957 22.1652 45.3057 22.5947 45.3157 23.0243C45.323 23.316 45.3305 23.6077 45.3379 23.8995C45.3561 24.6136 45.3733 25.3276 45.3901 26.0417C45.6856 25.9649 45.9808 25.887 46.2759 25.8087C46.4404 25.7654 46.6048 25.7221 46.7742 25.6776C47.4471 25.4756 48.0109 25.2015 48.6201 24.8517C48.8316 24.4287 48.8151 24.1383 48.8202 23.6649C48.8223 23.4884 48.8245 23.3119 48.8268 23.13C48.828 22.9384 48.8293 22.7468 48.8306 22.5494C48.8326 22.2544 48.8326 22.2544 48.8347 21.9534C48.8371 21.5363 48.8389 21.1191 48.8403 20.702C48.8432 20.0654 48.8506 19.429 48.8581 18.7925C48.8599 18.3873 48.8613 17.9821 48.8625 17.5769C48.8669 17.2921 48.8669 17.2921 48.8715 17.0016C48.8684 15.8931 48.7736 15.2117 48.1101 14.3117C47.4306 13.6681 46.8265 13.567 45.9107 13.398C44.8684 13.1955 44.1823 12.9485 43.5201 12.1017C43.2054 11.5623 43.134 11.0095 43.0207 10.4017C42.8051 9.28385 42.423 8.68182 41.4801 8.02175C40.8391 7.80808 40.2391 7.8253 39.5713 7.82436C39.3572 7.82309 39.3572 7.82309 39.1388 7.8218C38.6657 7.81931 38.1926 7.81816 37.7195 7.81722C37.3897 7.81624 37.0599 7.81526 36.7301 7.81428C36.0374 7.81249 35.3447 7.8115 34.6521 7.81091C33.769 7.80998 32.8859 7.80591 32.0028 7.80105C31.3207 7.79787 30.6386 7.797 29.9564 7.79674C29.6312 7.79623 29.3059 7.79488 28.9807 7.79263C25.5621 7.77072 22.6696 8.29436 20.2301 10.9117ZM24.6713 19.0505C24.0256 20.0001 23.9222 20.7576 23.9236 21.892C23.9201 22.179 23.9166 22.466 23.913 22.753C23.9091 23.2025 23.9063 23.652 23.9053 24.1015C23.9037 24.5374 23.898 24.9731 23.8917 25.4089C23.8926 25.5423 23.8934 25.6756 23.8943 25.8131C23.8785 26.7013 23.7041 27.2054 23.1201 27.9117C22.4675 28.4225 21.8637 28.6829 21.0801 28.9317C21.0132 33.8117 21.026 38.0147 24.5525 41.7807C27.0914 44.1656 30.4084 45.3242 33.8619 45.2876C36.2366 45.1562 38.5237 44.4365 40.4601 43.0417C40.4601 42.9856 40.4601 42.9296 40.4601 42.8717C40.2658 42.8527 40.2658 42.8527 40.0676 42.8332C38.6766 42.6561 37.5536 42.3335 36.645 41.2083C36.1055 40.2928 36.0466 39.317 36.2101 38.2817C36.4948 37.3562 36.9365 36.7496 37.7939 36.2882C38.8965 35.7672 39.9508 35.7887 41.1507 35.8167C41.4605 35.8161 41.4605 35.8161 41.7766 35.8154C42.9748 35.8284 43.9382 35.9617 45.0501 36.4117C45.7643 34.8882 45.5806 33.1248 45.5707 31.4817C45.5698 31.2341 45.5691 30.9864 45.5684 30.7387C45.5665 30.1364 45.5636 29.5341 45.5601 28.9317C45.4434 28.8877 45.3267 28.8437 45.2065 28.7983C45.0534 28.7391 44.9003 28.68 44.7426 28.619C44.5909 28.5609 44.4391 28.5029 44.2828 28.443C43.7295 28.1927 43.3861 27.8748 43.0101 27.4017C42.8167 26.8218 42.7835 26.3232 42.7444 25.7124C42.7369 25.5946 42.7293 25.4768 42.7215 25.3554C42.682 24.6656 42.6675 23.9807 42.6774 23.2899C42.6794 23.1415 42.6814 22.9931 42.6834 22.8403C42.6885 22.5526 42.696 22.2649 42.7062 21.9774C42.7259 20.9341 42.6247 19.807 41.9372 18.9706C41.0207 18.1512 40.1195 18.0009 38.9301 18.0517C38.442 18.138 37.9648 18.2571 37.4851 18.3811C34.3455 19.1759 31.4073 19.0204 28.2944 18.1899C26.973 17.8775 25.6087 17.9808 24.6713 19.0505ZM15.6401 26.2118C15.6232 26.974 15.6109 27.7362 15.6027 28.4986C15.5993 28.7578 15.5947 29.0171 15.5888 29.2762C15.5805 29.6493 15.5767 30.0222 15.5737 30.3953C15.5701 30.6197 15.5665 30.844 15.5629 31.0752C15.5925 31.6596 15.5925 31.6596 15.9523 32.0597C16.7742 32.6678 17.2267 32.5017 18.3601 32.5017C18.3601 31.0431 18.3601 29.5845 18.3601 28.0817C17.743 27.7451 17.1259 27.4085 16.4901 27.0617C15.9482 26.573 15.9482 26.573 15.6401 26.2118ZM50.8301 26.2118C50.7529 26.331 50.6758 26.4502 50.5963 26.573C50.1501 27.0617 50.1501 27.0617 48.2801 28.0817C48.2801 29.5403 48.2801 30.9989 48.2801 32.5017C49.665 32.5913 49.665 32.5913 50.6601 31.9917C51.0641 31.3858 51.0393 30.8448 51.0333 30.1297C51.0326 29.9614 51.0326 29.9614 51.0318 29.7896C51.0299 29.4328 51.0257 29.076 51.0213 28.7192C51.0196 28.4766 51.0181 28.234 51.0167 27.9914C51.0129 27.3982 51.0071 26.805 51.0001 26.2118C50.944 26.2118 50.8879 26.2118 50.8301 26.2118ZM49.4488 35.1367C49.1221 35.1604 49.1221 35.1604 48.7887 35.1846C48.537 35.203 48.537 35.203 48.2801 35.2217C48.0122 36.1211 47.7957 37.0241 47.6001 37.9417C48.8676 38.0246 48.8676 38.0246 50.0651 37.6655C50.7449 37.0197 50.9865 36.522 51.0319 35.583C51.0214 35.4077 51.0109 35.2324 51.0001 35.0518C50.4811 35.0518 49.9663 35.0991 49.4488 35.1367ZM38.8869 38.8489C38.7111 39.3137 38.7111 39.3137 38.9301 39.8117C39.3623 40.0279 39.6692 40.0037 40.1526 40.0043C40.4144 40.0047 40.4144 40.0047 40.6815 40.005C40.8644 40.0043 41.0473 40.0037 41.2357 40.003C41.511 40.004 41.511 40.004 41.7919 40.005C41.9662 40.0048 42.1405 40.0046 42.3201 40.0043C42.4809 40.0041 42.6416 40.0039 42.8072 40.0037C43.1761 40.0234 43.1761 40.0234 43.3501 39.8117C43.357 39.4151 43.3573 39.0183 43.3501 38.6217C42.6885 38.291 41.8784 38.3981 41.1507 38.388C40.8918 38.3785 40.8918 38.3785 40.6278 38.3687C39.6495 38.3215 39.6495 38.3215 38.8869 38.8489ZM38.3497 47.0885C35.1433 48.1573 32.1529 48.1707 28.9333 47.2645C28.4015 47.1001 28.4015 47.1001 27.8801 47.1217C27.7679 48.2999 27.6557 49.478 27.5401 50.6917C31.3549 50.6917 35.1697 50.6917 39.1001 50.6917C39.044 49.4576 38.9879 48.2234 38.9301 46.9517C38.7149 46.9428 38.7149 46.9428 38.3497 47.0885ZM8.42097 54.5614C7.9248 55.5432 7.93073 56.3671 8.01132 57.4492C8.0215 57.6291 8.03168 57.8089 8.04216 57.9941C8.06526 58.396 8.09008 58.7977 8.11633 59.1994C8.19046 60.3388 8.25371 61.4789 8.31782 62.6189C8.34002 63.005 8.36365 63.391 8.3876 63.7769C8.46461 65.0474 8.52182 66.3181 8.54191 67.5908C8.54558 67.7129 8.54925 67.835 8.55303 67.9608C8.559 68.799 8.559 68.799 8.26769 69.2081C7.87888 69.4653 7.60716 69.5395 7.14007 69.5618C6.67257 69.3493 6.67257 69.3493 6.29007 69.0518C6.04468 68.3156 6.05986 67.5637 6.03208 66.7936C6.02135 66.0591 6.02135 66.0591 5.61007 65.4818C3.83714 69.448 3.53733 73.2591 3.57007 77.5518C4.52377 77.5518 5.47747 77.5518 6.46007 77.5518C6.45613 77.2774 6.45218 77.003 6.44812 76.7203C6.44493 76.36 6.44184 75.9996 6.43882 75.6393C6.43597 75.4585 6.43313 75.2777 6.43019 75.0914C6.42909 74.9172 6.428 74.743 6.42687 74.5635C6.42509 74.4032 6.42331 74.243 6.42147 74.0779C6.46211 73.6188 6.55125 73.3472 6.80007 72.9617C7.28302 72.7203 7.62538 72.7383 8.16007 72.7917C8.84007 73.4717 8.84007 73.4717 9.18007 77.5518C15.5755 77.5518 21.9709 77.5518 28.5601 77.5518C28.0346 75.8 27.4916 74.6884 26.3394 73.3124C24.7294 71.3483 24.3079 69.1581 24.4801 66.6717C24.8417 64.1984 26.1462 62.1608 28.08 60.5916C28.7792 60.1191 29.3999 59.8717 30.2601 59.8717C30.8441 60.0739 31.1745 60.2487 31.5592 60.7335C31.8715 61.4075 31.8681 61.9875 31.8711 62.7219C31.8751 62.9346 31.8751 62.9346 31.8791 63.1515C31.8872 63.6024 31.8919 64.0533 31.8963 64.5042C31.9025 64.9576 31.9094 65.4109 31.9172 65.8642C31.9218 66.1459 31.9254 66.4276 31.928 66.7094C31.877 67.3371 31.877 67.3371 32.1301 67.8617C32.5264 67.8786 32.9233 67.8838 33.3201 67.883C33.5375 67.8834 33.7548 67.8839 33.9788 67.8843C34.4874 67.9227 34.4874 67.9227 34.6801 67.6917C34.701 67.2527 34.7117 66.8175 34.7159 66.3782C34.7207 66.1053 34.7256 65.8324 34.7305 65.5594C34.7375 65.1286 34.7438 64.6978 34.7483 64.2669C34.753 63.8515 34.7608 63.4361 34.7691 63.0207C34.7696 62.8935 34.7702 62.7663 34.7707 62.6353C34.7908 61.7683 34.9515 61.1512 35.3601 60.3817C35.9182 59.9759 36.2547 59.8741 36.9432 59.8611C37.7965 60.107 38.4053 60.5173 39.1001 61.0617C39.2743 61.1975 39.2743 61.1975 39.452 61.336C41.0908 62.7852 42.0476 65.1004 42.2012 67.2468C42.2991 70.0507 41.4138 72.0949 39.6738 74.2367C38.9047 75.2003 38.2501 76.3002 38.2501 77.5518C44.5894 77.5518 50.9287 77.5518 57.4601 77.5518C57.7125 72.9445 57.7125 72.9445 57.9701 68.2443C58.0499 66.7996 58.0499 66.7996 58.1314 65.3259C58.1791 64.4483 58.1791 64.4483 58.2264 63.5707C58.2474 63.1855 58.2686 62.8003 58.2902 62.4151C58.3629 61.1143 58.4287 59.8136 58.4801 58.5117C58.4901 58.2607 58.4901 58.2607 58.5003 58.0045C58.5169 57.5345 58.5279 57.0647 58.5365 56.5944C58.5414 56.4581 58.5462 56.3217 58.5512 56.1812C58.5584 55.2932 58.4022 54.786 57.8001 54.0918C56.9815 53.4024 56.0757 53.5101 55.0605 53.5158C54.8675 53.5149 54.6746 53.514 54.4757 53.5131C53.8276 53.5106 53.1796 53.5119 52.5314 53.5131C52.0674 53.5124 51.6033 53.5109 51.1392 53.5095C50.0087 53.5066 48.8781 53.5065 47.7476 53.5073C46.8287 53.508 45.9099 53.5078 44.991 53.5069C44.8603 53.5068 44.7295 53.5066 44.5948 53.5065C44.3292 53.5062 44.0636 53.506 43.7979 53.5057C41.3067 53.5034 38.8155 53.5043 36.3243 53.5063C34.0451 53.5079 31.7659 53.5057 29.4866 53.5017C27.1464 53.4975 24.8062 53.4959 22.466 53.497C21.1521 53.4976 19.8382 53.4972 18.5243 53.4943C17.4058 53.4918 16.2874 53.4916 15.1689 53.4946C14.5982 53.4961 14.0277 53.4961 13.457 53.4938C12.8383 53.4916 12.2198 53.4935 11.6012 53.4965C11.4208 53.4949 11.2405 53.4933 11.0547 53.4916C9.8968 53.5032 9.18987 53.6365 8.42097 54.5614ZM37.4001 63.2718C37.3976 63.4209 37.3951 63.5701 37.3926 63.7237C37.3821 64.2808 37.3695 64.8377 37.3555 65.3947C37.3498 65.635 37.3451 65.8754 37.3412 66.1158C37.3354 66.4628 37.3265 66.8096 37.3171 67.1565C37.3126 67.3648 37.3082 67.5732 37.3036 67.7878C37.1966 68.638 36.8948 69.3367 36.2101 69.8699C35.2925 70.5389 34.4452 70.4486 33.3519 70.4542C33.1844 70.4578 33.0169 70.4613 32.8443 70.4649C31.6414 70.4713 30.9121 70.2962 29.9626 69.5192C29.0439 68.3964 29.1701 66.9624 29.1338 65.5774C29.1272 65.3719 29.1207 65.1665 29.1139 64.9548C29.098 64.4505 29.0834 63.9462 29.0701 63.4417C28.501 63.9755 28.0881 64.4475 27.7526 65.1524C27.6833 65.2946 27.6141 65.4368 27.5427 65.5834C26.9571 66.9686 27.0003 68.6381 27.4763 70.0505C27.7707 70.7591 28.14 71.3317 28.6205 71.9265C29.9951 73.6733 30.6949 75.4061 31.2801 77.5518C32.6265 77.5518 33.9729 77.5518 35.3601 77.5518C35.4512 77.2011 35.5424 76.8505 35.6363 76.4893C36.1592 74.6189 36.9852 73.1703 38.2414 71.6881C39.3019 70.3912 39.6828 68.856 39.5782 67.1818C39.3347 65.6163 38.7001 64.3844 37.5701 63.2718C37.514 63.2718 37.4579 63.2718 37.4001 63.2718ZM60.8601 65.3117C60.6568 67.9879 60.479 70.6646 60.3288 73.3442C60.3175 73.5424 60.3175 73.5424 60.306 73.7447C60.2844 74.1256 60.2633 74.5066 60.2425 74.8875C60.2304 75.1065 60.2183 75.3255 60.2059 75.5511C60.179 76.2175 60.1801 76.8848 60.1801 77.5518C61.1338 77.5518 62.0875 77.5518 63.0701 77.5518C63.1516 73.1377 62.8251 69.3878 61.0301 65.3117C60.974 65.3117 60.9179 65.3117 60.8601 65.3117ZM2.72007 80.9518C2.53551 81.265 2.53551 81.265 2.55007 81.6318C2.82125 82.3604 2.82125 82.3604 3.40007 82.8217C3.72456 82.8383 4.04964 82.8437 4.37455 82.8441C4.58326 82.8447 4.79196 82.8454 5.00699 82.8461C5.24071 82.8459 5.47442 82.8458 5.70814 82.8456C5.95478 82.8461 6.20142 82.8466 6.44805 82.8472C7.12824 82.8485 7.80843 82.8488 8.48862 82.849C9.22124 82.8493 9.95387 82.8506 10.6865 82.8517C12.2895 82.854 13.8926 82.855 15.4956 82.8558C16.4959 82.8563 17.4961 82.857 18.4964 82.8577C21.264 82.8598 24.0317 82.8616 26.7993 82.8621C26.9765 82.8622 27.1537 82.8622 27.3363 82.8622C27.514 82.8623 27.6916 82.8623 27.8747 82.8624C28.2347 82.8624 28.5947 82.8625 28.9548 82.8626C29.2227 82.8626 29.2227 82.8626 29.496 82.8627C32.3911 82.8634 35.2862 82.8663 38.1813 82.8703C41.1512 82.8743 44.1211 82.8764 47.091 82.8766C48.7595 82.8768 50.428 82.8778 52.0964 82.8809C53.5169 82.8835 54.9374 82.8844 56.3579 82.8829C57.0831 82.8823 57.8083 82.8825 58.5334 82.8848C59.1968 82.887 59.8601 82.8868 60.5235 82.8847C60.764 82.8844 61.0044 82.8849 61.2449 82.8864C61.5709 82.8883 61.8968 82.8867 62.2228 82.885C62.4041 82.8851 62.5855 82.8852 62.7723 82.8853C63.304 82.8131 63.538 82.6828 63.9201 82.3118C64.0271 81.9436 64.0271 81.9436 64.0051 81.5468C64.0068 81.4153 64.0086 81.2838 64.0104 81.1483C63.9495 80.7619 63.9495 80.7619 63.638 80.5079C63.1339 80.2088 62.8085 80.2077 62.2238 80.2071C62.0144 80.2057 61.805 80.2042 61.5893 80.2028C61.3565 80.2037 61.1238 80.2048 60.8911 80.2058C60.6442 80.2051 60.3973 80.2042 60.1503 80.2031C59.4709 80.2006 58.7915 80.2013 58.1121 80.2026C57.3797 80.2034 56.6473 80.2013 55.9149 80.1995C54.4798 80.1966 53.0447 80.1965 51.6096 80.1973C50.4436 80.198 49.2775 80.1978 48.1115 80.1969C47.9457 80.1968 47.7799 80.1966 47.6091 80.1965C47.2723 80.1962 46.9355 80.196 46.5988 80.1957C43.4389 80.1934 40.279 80.1943 37.1191 80.1963C34.2262 80.1979 31.3334 80.1957 28.4405 80.1917C25.4721 80.1875 22.5037 80.1859 19.5353 80.187C17.868 80.1876 16.2007 80.1872 14.5333 80.1843C13.1141 80.1818 11.6948 80.1816 10.2756 80.1846C9.55108 80.1861 8.82662 80.1864 8.10213 80.1838C7.43939 80.1815 6.77674 80.1823 6.11401 80.1856C5.87377 80.1862 5.63354 80.1857 5.39331 80.1839C5.06768 80.1817 4.74202 80.1841 4.41639 80.1867C4.23524 80.1867 4.05408 80.1867 3.86744 80.1867C3.28413 80.2928 3.08747 80.4969 2.72007 80.9518Z" fill="#36454F"/>
<path id="Vector_2" d="M58.9246 0.517041C59.1191 0.515825 59.3135 0.514609 59.5138 0.513355C59.7265 0.512898 59.9392 0.512441 60.1583 0.51197C60.3851 0.510905 60.6119 0.509775 60.8387 0.508585C61.5829 0.505014 62.3272 0.503247 63.0714 0.501553C63.3282 0.500864 63.585 0.500164 63.8418 0.499453C65.0486 0.496215 66.2555 0.493796 67.4624 0.492379C68.8526 0.49072 70.2428 0.48625 71.633 0.479374C72.7094 0.474235 73.7857 0.471728 74.862 0.471166C75.504 0.470768 76.146 0.469261 76.7879 0.464968C77.3927 0.460989 77.9974 0.460299 78.6022 0.462037C78.9275 0.462161 79.2528 0.45893 79.5781 0.455566C81.0501 0.464373 82.3244 0.70478 83.5232 1.60456C84.9171 3.03086 85.0382 4.29402 85.0532 6.22644C85.0582 6.43736 85.0631 6.64828 85.0682 6.8656C85.0696 7.06819 85.071 7.27079 85.0725 7.47952C85.0762 7.75775 85.0762 7.75775 85.08 8.04161C84.9813 8.64751 84.8028 8.8441 84.3201 9.21206C83.701 9.31745 83.4006 9.26695 82.8492 8.96569C82.2662 8.33222 82.3362 7.78161 82.3439 6.94894C82.3439 5.6937 82.3041 4.74532 81.4599 3.74415C80.6036 3.24905 79.7517 3.33755 78.7799 3.34407C78.5625 3.34288 78.3452 3.34169 78.1212 3.34046C77.5262 3.33737 76.9313 3.33856 76.3362 3.34072C75.7128 3.34244 75.0893 3.34084 74.4659 3.33978C73.4188 3.33854 72.3717 3.34017 71.3246 3.34341C70.1153 3.34711 68.906 3.34591 67.6967 3.34217C66.6573 3.33908 65.618 3.33865 64.5786 3.34042C63.9583 3.34148 63.3381 3.34163 62.7178 3.33938C62.0259 3.33704 61.3342 3.34028 60.6423 3.34407C60.4375 3.3427 60.2327 3.34132 60.0216 3.3399C58.9573 3.3507 58.2494 3.36082 57.4601 4.11206C57.0386 4.6804 57.0761 5.24025 57.0734 5.93255C57.0725 6.04569 57.0717 6.15883 57.0708 6.2754C57.0684 6.64846 57.0686 7.02146 57.069 7.39452C57.0683 7.6545 57.0676 7.91448 57.0668 8.17446C57.0655 8.71907 57.0656 9.26366 57.0664 9.80826C57.0674 10.5053 57.0646 11.2023 57.0606 11.8993C57.0581 12.4361 57.058 12.9729 57.0585 13.5098C57.0584 13.7667 57.0575 14.0237 57.0558 14.2806C57.0537 14.6403 57.0548 14.9999 57.0568 15.3596C57.0567 15.564 57.0566 15.7685 57.0565 15.9791C57.1423 16.7118 57.4085 17.1549 57.9303 17.6662C58.4305 17.9505 58.8906 18.0142 59.4576 18.1052C60.5526 18.3272 61.289 18.5867 62.0501 19.4121C62.8643 20.6465 62.8415 21.9842 62.8576 23.4177C62.8626 23.6378 62.8677 23.8579 62.8729 24.0847C62.8848 24.6239 62.8938 25.1628 62.9001 25.7021C62.959 25.5961 63.018 25.4901 63.0787 25.3809C65.0643 21.818 65.0643 21.818 65.9495 20.4108C66.0597 20.2351 66.1699 20.0593 66.2835 19.8782C66.8875 19.0886 67.5496 18.5292 68.5101 18.2221C69.0561 18.1782 69.0561 18.1782 69.6801 18.1759C69.8515 18.1746 69.8515 18.1746 70.0264 18.1733C70.2734 18.1715 70.5204 18.1705 70.7674 18.1702C71.1592 18.1696 71.5509 18.1667 71.9426 18.1633C73.056 18.1539 74.1694 18.1487 75.2828 18.1445C75.965 18.1418 76.6472 18.1366 77.3293 18.1301C77.5884 18.1281 77.8474 18.1271 78.1064 18.1271C78.4697 18.127 78.8329 18.1239 79.1961 18.1202C79.5054 18.1189 79.5054 18.1189 79.821 18.1176C80.5236 18.0394 80.9723 17.8642 81.6001 17.5421C82.378 16.5307 82.324 15.4009 82.3532 14.1759C82.3837 13.4504 82.4138 12.9507 82.9601 12.4421C83.5876 12.2374 83.8604 12.2135 84.4582 12.5058C84.8301 12.7821 84.8301 12.7821 85.0001 12.9521C85.058 13.6554 85.0554 14.3611 85.0639 15.0664C85.0734 15.3601 85.0734 15.3601 85.0831 15.6598C85.0991 17.2205 84.782 18.3108 83.7802 19.5176C83.6604 19.6195 83.5405 19.7214 83.417 19.8264C83.2984 19.9314 83.1799 20.0364 83.0577 20.1445C81.7289 21.0177 80.4394 21.0151 78.8966 21.0119C78.4985 21.0111 78.1006 21.0135 77.7026 21.0167C76.7154 21.024 75.7282 21.0259 74.7411 21.028C73.9038 21.0299 73.0666 21.0339 72.2294 21.0407C71.8373 21.043 71.4453 21.0423 71.0533 21.0414C70.8137 21.043 70.574 21.0448 70.3344 21.0466C70.1252 21.047 69.916 21.0473 69.7005 21.0477C69.1961 21.069 69.1961 21.069 68.8842 21.3387C68.5515 21.8007 68.2631 22.2864 67.9775 22.7782C67.9102 22.8926 67.8428 23.007 67.7735 23.1248C67.5579 23.4912 67.3433 23.8581 67.1289 24.2252C66.3107 25.6232 65.4911 27.0193 64.6227 28.3869C64.5037 28.5743 64.3848 28.7617 64.2622 28.9548C63.8118 29.5964 63.4828 30.0412 62.7301 30.2921C61.9094 30.371 61.3094 30.3065 60.6245 29.8528C60.0616 29.3589 59.8818 28.5839 59.7912 27.8628C59.7683 27.4414 59.7607 27.0225 59.7591 26.6005C59.7564 26.4482 59.7538 26.2958 59.7511 26.1388C59.743 25.6567 59.7383 25.1748 59.7339 24.6927C59.7277 24.2064 59.7208 23.7201 59.713 23.2338C59.7084 22.9323 59.7047 22.6307 59.7022 22.3291C59.759 21.6672 59.759 21.6672 59.5001 21.1121C59.1854 21.0657 58.8701 21.0241 58.5545 20.9846C56.9088 20.7207 55.8679 19.9016 54.8782 18.5727C54.3301 17.6466 54.1871 16.8588 54.1807 15.7884C54.1796 15.6683 54.1784 15.5482 54.1773 15.4244C54.174 15.0297 54.1734 14.6351 54.173 14.2403C54.1719 13.9638 54.1708 13.6873 54.1696 13.4108C54.1675 12.8318 54.1669 12.2528 54.1671 11.6737C54.1671 10.9356 54.1625 10.1976 54.1566 9.45952C54.1528 8.88837 54.1522 8.31725 54.1524 7.74608C54.152 7.47418 54.1505 7.20228 54.1478 6.93039C54.1297 4.87921 54.3223 3.23089 55.7827 1.6796C56.7265 0.824653 57.67 0.522437 58.9246 0.517041Z" fill="#36454F"/>
<path id="Vector_3" d="M61.4243 12.3989C61.6492 12.3975 61.6492 12.3975 61.8786 12.396C62.0426 12.3967 62.2066 12.3974 62.3756 12.3981C62.5487 12.3975 62.7218 12.3969 62.9001 12.3963C63.4736 12.3948 64.047 12.3958 64.6205 12.397C65.0184 12.3967 65.4162 12.3964 65.814 12.396C66.6485 12.3955 67.4829 12.3962 68.3174 12.3978C69.3877 12.3997 70.4581 12.3986 71.5284 12.3966C72.3502 12.3953 73.172 12.3957 73.9938 12.3966C74.3885 12.3968 74.7832 12.3966 75.1779 12.3958C75.7293 12.3949 76.2808 12.3962 76.8322 12.3981C76.9959 12.3974 77.1596 12.3967 77.3282 12.396C77.4786 12.397 77.629 12.398 77.7839 12.3989C77.9794 12.3991 77.9794 12.3991 78.1789 12.3993C78.5929 12.4484 78.8644 12.5674 79.2199 12.7821C79.5738 13.2371 79.5592 13.4821 79.5387 14.0677C79.3899 14.6521 79.3899 14.6521 79.0882 14.9397C78.6639 15.1892 78.4364 15.2258 77.9486 15.2257C77.797 15.2269 77.6455 15.2281 77.4893 15.2293C77.3243 15.228 77.1593 15.2268 76.9893 15.2254C76.8146 15.226 76.6398 15.2267 76.4597 15.2273C75.8816 15.2287 75.3036 15.2264 74.7255 15.2239C74.3241 15.2238 73.9227 15.2239 73.5213 15.2241C72.6799 15.2241 71.8384 15.2223 70.997 15.2193C69.9177 15.2154 68.8384 15.2153 67.7591 15.2165C66.9301 15.217 66.1012 15.2159 65.2723 15.2142C64.8743 15.2136 64.4763 15.2134 64.0783 15.2137C63.5223 15.2137 62.9664 15.2116 62.4105 15.2088C62.163 15.2094 62.163 15.2094 61.9105 15.2101C61.759 15.2089 61.6074 15.2077 61.4512 15.2064C61.3199 15.2061 61.1885 15.2057 61.0531 15.2054C60.6308 15.1551 60.3652 15.0559 60.0099 14.8221C59.7655 14.259 59.7655 14.259 59.6699 13.6321C60.0301 12.779 60.4977 12.3999 61.4243 12.3989Z" fill="#36454F"/>
<path id="Vector_4" d="M67.9881 6.57677C68.1032 6.57585 68.2183 6.57493 68.3369 6.57398C68.7154 6.57186 69.0937 6.57466 69.4722 6.57772C69.7362 6.57769 70.0001 6.57744 70.2641 6.57697C70.8164 6.57674 71.3687 6.57887 71.921 6.58274C72.6285 6.58757 73.3359 6.5871 74.0435 6.58494C74.5882 6.58375 75.1329 6.58508 75.6776 6.58719C75.9385 6.58796 76.1994 6.58802 76.4602 6.58735C76.8249 6.58685 77.1893 6.58966 77.5539 6.59337C77.8649 6.59475 77.8649 6.59475 78.1822 6.59615C78.7549 6.66766 78.9909 6.76119 79.39 7.17206C79.56 7.74581 79.56 7.74581 79.56 8.36206C79.2053 8.94472 79.0203 9.16527 78.37 9.38206C78.0131 9.39979 77.6556 9.40732 77.2983 9.40945C76.9664 9.4119 76.9664 9.4119 76.6277 9.4144C76.3857 9.41522 76.1437 9.41595 75.9017 9.41659C75.6533 9.41757 75.4049 9.41854 75.1565 9.41952C74.6356 9.42131 74.1147 9.4223 73.5938 9.4229C72.9279 9.42383 72.262 9.42791 71.5961 9.43275C71.0828 9.43592 70.5696 9.4368 70.0564 9.43706C69.811 9.43758 69.5655 9.43894 69.3201 9.44117C68.976 9.44409 68.6318 9.44344 68.2876 9.44265C67.9944 9.44358 67.9944 9.44358 67.6952 9.44453C67.0735 9.37329 66.663 9.19514 66.13 8.87206C65.8641 8.34019 65.8994 7.92753 65.96 7.34206C66.6022 6.66757 67.0745 6.57689 67.9881 6.57677Z" fill="#36454F"/>
<path id="Vector_5" d="M61.7843 6.59811C62.1206 6.59087 62.1206 6.59087 62.4636 6.5835C63.0699 6.66186 63.0699 6.66186 63.4796 6.98061C63.8059 7.41662 63.9199 7.64442 63.9199 8.19186C63.3993 9.15873 63.3993 9.15873 62.7299 9.38186C61.901 9.44858 61.1254 9.47939 60.3393 9.19061C59.9015 8.76691 59.7776 8.44992 59.6699 7.85186C59.9647 6.67283 60.6958 6.60019 61.7843 6.59811Z" fill="#36454F"/>
<path id="Vector_6" d="M60.5201 64.8018C60.6884 64.8018 60.8567 64.8018 61.0301 64.8018C61.0241 64.8968 61.018 64.9919 61.0118 65.0898C60.9482 66.0967 60.8848 67.1037 60.8215 68.1107C60.798 68.4844 60.7744 68.8581 60.7508 69.2318C60.7164 69.7749 60.6823 70.3181 60.6482 70.8613C60.637 71.0398 60.6258 71.2182 60.6143 71.402C60.5371 72.6481 60.4679 73.8944 60.4119 75.1417C60.4033 75.3205 60.4033 75.3205 60.3945 75.5029C60.39 75.6039 60.3854 75.7048 60.3808 75.8088C60.334 76.3918 60.2526 76.9715 60.1801 77.5518C61.1338 77.5518 62.0875 77.5518 63.0701 77.5518C63.0701 75.981 63.0701 74.4102 63.0701 72.7918C63.1262 72.7918 63.1823 72.7918 63.2401 72.7918C63.2401 74.4187 63.2401 76.0456 63.2401 77.7218C62.1742 77.7218 61.1083 77.7218 60.0101 77.7218C59.974 74.9871 60.1156 72.2706 60.2651 69.5405C60.2898 69.0794 60.3143 68.6184 60.3388 68.1573C60.3984 67.0387 60.4588 65.9202 60.5201 64.8018Z" fill="#36454F"/>
<path id="Vector_7" d="M51.17 34.8819C51.17 35.3307 51.17 35.7795 51.17 36.2419C51.1139 36.2419 51.0578 36.2419 51 36.2419C51 35.8492 51 35.4565 51 35.0519C50.8317 35.1361 50.8317 35.1361 50.66 35.2219C50.2569 35.2611 49.8529 35.2918 49.4488 35.3175C49.2309 35.3318 49.0131 35.346 48.7887 35.3607C48.6208 35.371 48.453 35.3813 48.28 35.3919C48.2452 35.5475 48.2103 35.7031 48.1744 35.8634C48.1286 36.0654 48.0828 36.2675 48.0356 36.4757C47.9903 36.6768 47.9449 36.878 47.8982 37.0853C47.77 37.6019 47.77 37.6019 47.6 37.9419C47.8976 37.9178 48.1951 37.8928 48.4925 37.8675C48.6582 37.8537 48.8239 37.8399 48.9945 37.8257C49.396 37.7803 49.7622 37.7118 50.15 37.6019C49.81 38.1119 49.81 38.1119 49.5099 38.2281C48.7629 38.3339 48.0129 38.2909 47.26 38.2819C47.5966 36.6831 47.5966 36.6831 47.94 35.0519C50.3762 34.8698 50.3762 34.8698 51.17 34.8819Z" fill="#36454F"/>
<path id="Vector_8" d="M60.5201 64.8018C60.6884 64.8018 60.8567 64.8018 61.0301 64.8018C60.8618 67.4946 60.6935 70.1874 60.5201 72.9618C60.464 72.9618 60.4079 72.9618 60.3501 72.9618C60.3289 70.2357 60.3674 67.5238 60.5201 64.8018Z" fill="#36454F"/>
<path id="Vector_9" d="M29.24 62.9321C29.2961 62.9321 29.3522 62.9321 29.41 62.9321C29.4133 63.0916 29.4167 63.251 29.4202 63.4153C29.4335 64.0104 29.4482 64.6053 29.4639 65.2003C29.4704 65.4572 29.4763 65.7141 29.4817 65.971C29.4895 66.3415 29.4994 66.712 29.5096 67.0825C29.5149 67.3051 29.5203 67.5276 29.5258 67.757C29.5784 68.3546 29.7049 68.8345 29.92 69.3921C29.378 69.0308 29.2887 68.8734 29.136 68.2623C28.986 67.3537 28.9726 66.4328 28.9425 65.514C28.933 65.3033 28.9236 65.0926 28.9139 64.8755C28.9067 64.6749 28.8995 64.4743 28.892 64.2676C28.8853 64.0846 28.8785 63.9017 28.8716 63.7132C28.9 63.2721 28.9 63.2721 29.24 62.9321Z" fill="#36454F"/>
<path id="Vector_10" d="M27.7101 60.7222C27.8223 60.7783 27.9345 60.8344 28.0501 60.8922C26.6334 62.8377 26.6334 62.8377 25.8401 63.1022C26.0824 62.5617 26.3802 62.1609 26.7751 61.7209C26.8785 61.6048 26.982 61.4886 27.0885 61.369C27.2907 61.1487 27.4987 60.9336 27.7101 60.7222Z" fill="#36454F"/>
<path id="Vector_11" d="M19.55 7.68213C19.6622 7.73823 19.7744 7.79433 19.89 7.85213C19.6541 8.12605 19.4165 8.39847 19.1781 8.67025C19.046 8.82212 18.9139 8.97398 18.7777 9.13045C18.378 9.53397 18.0085 9.79564 17.51 10.0621C17.7797 9.39864 18.2127 8.98514 18.7213 8.48963C18.876 8.33798 19.0307 8.18634 19.1901 8.0301C19.3089 7.91527 19.4276 7.80044 19.55 7.68213Z" fill="#36454F"/>
<path id="Vector_12" d="M38.0801 42.3618C39.0899 42.4179 40.0997 42.474 41.1401 42.5318C41.1401 42.644 41.1401 42.7562 41.1401 42.8718C40.8596 42.984 40.5791 43.0962 40.2901 43.2118C40.2901 43.1557 40.2901 43.0996 40.2901 43.0418C39.5608 42.8735 38.8315 42.7052 38.0801 42.5318C38.0801 42.4757 38.0801 42.4196 38.0801 42.3618Z" fill="#36454F"/>
<path id="Vector_13" d="M60.52 64.8018C60.6883 64.8018 60.8566 64.8018 61.03 64.8018C60.9178 65.6994 60.8056 66.597 60.69 67.5218C60.6339 67.5218 60.5778 67.5218 60.52 67.5218C60.52 66.6242 60.52 65.7266 60.52 64.8018Z" fill="#36454F"/>
<path id="Vector_14" d="M7.48004 51.542C7.59224 51.5981 7.70444 51.6542 7.82004 51.712C7.62998 51.9397 7.43845 52.1661 7.24629 52.392C7.13979 52.5182 7.03328 52.6444 6.92355 52.7745C6.77826 52.9218 6.77826 52.9218 6.63004 53.072C6.51784 53.072 6.40564 53.072 6.29004 53.072C6.55439 52.4231 6.97615 52.0194 7.48004 51.542Z" fill="#36454F"/>
<path id="Vector_15" d="M37.91 36.2422C37.6651 36.8137 37.358 37.1928 36.89 37.6022C36.7778 37.6022 36.6656 37.6022 36.55 37.6022C36.7786 36.8976 37.0808 36.2422 37.91 36.2422Z" fill="#36454F"/>
<path id="Vector_16" d="M45.5601 9.21191C45.6162 9.21191 45.6723 9.21191 45.7301 9.21191C45.8423 9.66071 45.9545 10.1095 46.0701 10.5719C46.4628 10.628 46.8555 10.6841 47.2601 10.7419C47.2601 10.798 47.2601 10.8541 47.2601 10.9119C47.0087 10.9165 46.7572 10.9198 46.5057 10.9225C46.2957 10.9255 46.2957 10.9255 46.0814 10.9285C45.7301 10.9119 45.7301 10.9119 45.5601 10.7419C45.5479 10.4836 45.5458 10.2248 45.5495 9.96629C45.551 9.82582 45.5525 9.68535 45.5541 9.54063C45.5561 9.43215 45.5581 9.32368 45.5601 9.21191Z" fill="#36454F"/>
<path id="Vector_17" d="M14.9601 22.812C14.7152 23.3835 14.408 23.7626 13.9401 24.172C13.8279 24.172 13.7157 24.172 13.6001 24.172C13.858 23.5702 14.2381 22.812 14.9601 22.812Z" fill="#36454F"/>
</g>
<defs>
<clipPath id="clip0_315_289">
<rect width="85" height="85" fill="white" transform="translate(0 0.541992)"/>
</clipPath>
</defs>
</svg>
