<svg width="60" height="60" viewBox="0 0 60 60" fill="none" xmlns="http://www.w3.org/2000/svg">
<g id="waterfall-chart-removebg-preview 1" clip-path="url(#clip0_315_538)">
<path id="Vector" d="M2.10503 12.659C2.2403 12.6577 2.37556 12.6563 2.51493 12.6549C2.66281 12.6559 2.81069 12.6569 2.96305 12.6579C3.19725 12.6566 3.19725 12.6566 3.43619 12.6553C3.86413 12.6531 4.29202 12.654 4.71996 12.6555C5.16785 12.6567 5.61573 12.6556 6.06362 12.6548C6.81577 12.654 7.5679 12.6551 8.32004 12.6574C9.18956 12.66 10.059 12.6592 10.9286 12.6565C11.6752 12.6543 12.4218 12.654 13.1684 12.6553C13.6143 12.656 14.0602 12.6561 14.506 12.6546C15.0031 12.6529 15.5001 12.6552 15.9971 12.6579C16.2189 12.6564 16.2189 12.6564 16.4452 12.6549C16.5805 12.6563 16.7158 12.6576 16.8551 12.659C16.9726 12.6592 17.0902 12.6594 17.2112 12.6596C17.616 12.7387 17.7568 12.8705 18.0001 13.2C18.0591 13.4821 18.0591 13.4821 18.0578 13.7998C18.0585 13.9206 18.0591 14.0415 18.0598 14.1659C18.0572 14.3636 18.0572 14.3636 18.0546 14.5653C18.0546 14.7047 18.0547 14.844 18.0548 14.9876C18.0544 15.4486 18.0507 15.9096 18.047 16.3706C18.0461 16.6901 18.0454 17.0095 18.0449 17.329C18.0434 18.0842 18.0395 18.8394 18.0346 19.5946C18.0293 20.4545 18.0266 21.3143 18.0242 22.1742C18.0192 23.9428 18.0108 25.7114 18.0001 27.48C18.0663 27.4796 18.1326 27.4793 18.2008 27.479C19.8133 27.471 21.4258 27.4651 23.0383 27.4613C23.8181 27.4594 24.5979 27.4569 25.3777 27.4528C26.1301 27.4489 26.8825 27.4468 27.6349 27.4458C27.9221 27.4452 28.2093 27.4439 28.4965 27.4419C28.8984 27.4393 29.3003 27.4389 29.7023 27.4391C29.8213 27.4378 29.9403 27.4365 30.063 27.4352C30.6559 27.4379 31.085 27.4405 31.5601 27.84C31.707 28.1338 31.6949 28.3225 31.6945 28.651C31.6948 28.8317 31.6948 28.8317 31.695 29.0161C31.6946 29.1487 31.6941 29.2814 31.6937 29.4181C31.6937 29.5574 31.6937 29.6967 31.6938 29.8403C31.6937 30.3026 31.6927 30.7649 31.6918 31.2272C31.6916 31.547 31.6914 31.8668 31.6913 32.1866C31.6909 32.9435 31.6899 33.7004 31.6887 34.4573C31.6874 35.3189 31.6867 36.1805 31.6861 37.0422C31.6849 38.8148 31.6828 40.5874 31.6801 42.36C31.7469 42.3594 31.8138 42.3589 31.8827 42.3583C33.5102 42.345 35.1377 42.3352 36.7653 42.3289C37.5523 42.3258 38.3394 42.3215 39.1264 42.3147C39.8858 42.3082 40.6452 42.3046 41.4046 42.3031C41.6945 42.3019 41.9844 42.2998 42.2743 42.2965C42.68 42.2922 43.0855 42.2916 43.4913 42.2919C43.6715 42.2886 43.6715 42.2886 43.8554 42.2853C44.373 42.2892 44.6818 42.3145 45.1351 42.578C45.4757 43.1563 45.439 43.6793 45.4282 44.339C45.4283 44.4783 45.4284 44.6177 45.4285 44.7613C45.428 45.2217 45.4234 45.6819 45.4187 46.1423C45.4176 46.4616 45.4167 46.7809 45.4161 47.1002C45.4142 47.8546 45.4093 48.6089 45.4033 49.3633C45.3966 50.2223 45.3933 51.0813 45.3903 51.9403C45.384 53.7069 45.3735 55.4734 45.3601 57.24C45.4277 57.2395 45.4953 57.2391 45.5649 57.2386C47.2094 57.228 48.8539 57.2201 50.4984 57.2151C51.2937 57.2126 52.089 57.2092 52.8842 57.2038C53.6514 57.1986 54.4185 57.1957 55.1857 57.1944C55.4787 57.1935 55.7717 57.1918 56.0647 57.1892C56.4745 57.1858 56.8841 57.1853 57.2939 57.1855C57.4156 57.1838 57.5373 57.182 57.6627 57.1803C58.4804 57.1851 58.4804 57.1851 58.8755 57.4571C59.1187 57.8456 59.1041 58.1117 59.0401 58.56C58.8018 58.8637 58.6575 59.0193 58.2756 59.1004C58.1696 59.1006 58.0636 59.1007 57.9544 59.1009C57.7711 59.103 57.7711 59.103 57.5842 59.105C57.3843 59.1036 57.3843 59.1036 57.1803 59.1021C56.9689 59.1033 56.9689 59.1033 56.7533 59.1046C56.3672 59.1064 55.9813 59.106 55.5952 59.1045C55.191 59.1032 54.7869 59.1044 54.3827 59.1051C53.704 59.106 53.0253 59.1048 52.3466 59.1026C51.5622 59.0999 50.7778 59.1008 49.9933 59.1034C49.3196 59.1056 48.6458 59.1059 47.9721 59.1047C47.5698 59.1039 47.1675 59.1038 46.7652 59.1054C46.3167 59.1066 45.8683 59.1048 45.4198 59.1021C45.2866 59.1031 45.1533 59.104 45.0159 59.105C44.8938 59.1037 44.7716 59.1023 44.6458 59.1009C44.4868 59.1007 44.4868 59.1007 44.3246 59.1004C43.9375 59.0182 43.796 58.8737 43.5601 58.56C43.501 58.2779 43.501 58.2779 43.5024 57.9601C43.5017 57.8393 43.501 57.7185 43.5004 57.594C43.5029 57.3963 43.5029 57.3963 43.5056 57.1946C43.5055 57.0553 43.5054 56.9159 43.5054 56.7724C43.5057 56.3113 43.5094 55.8504 43.5132 55.3894C43.5141 55.0699 43.5148 54.7504 43.5153 54.4309C43.5168 53.6757 43.5207 52.9205 43.5255 52.1653C43.5309 51.3055 43.5335 50.4456 43.5359 49.5857C43.5409 47.8171 43.5494 46.0485 43.5601 44.28C43.4938 44.2803 43.4276 44.2806 43.3594 44.281C41.7469 44.2889 40.1344 44.2949 38.5218 44.2986C37.742 44.3005 36.9622 44.3031 36.1825 44.3071C35.4301 44.311 34.6777 44.3132 33.9253 44.3141C33.6381 44.3148 33.3509 44.3161 33.0637 44.318C32.6617 44.3207 32.2598 44.321 31.8579 44.3208C31.6793 44.3228 31.6793 44.3228 31.4972 44.3248C30.9042 44.3221 30.4752 44.3194 30.0001 43.92C29.8532 43.6262 29.8653 43.4375 29.8656 43.109C29.8654 42.9283 29.8654 42.9283 29.8651 42.7439C29.8656 42.6112 29.866 42.4786 29.8665 42.3419C29.8664 42.2026 29.8664 42.0632 29.8664 41.9197C29.8665 41.4574 29.8674 40.9951 29.8684 40.5328C29.8686 40.213 29.8688 39.8932 29.8689 39.5733C29.8692 38.8164 29.8702 38.0595 29.8714 37.3026C29.8728 36.441 29.8734 35.5794 29.874 34.7178C29.8753 32.9452 29.8774 31.1726 29.8801 29.4C29.8132 29.4004 29.7464 29.4009 29.6775 29.4013C28.05 29.4119 26.4224 29.4198 24.7949 29.4248C24.0078 29.4274 23.2208 29.4308 22.4337 29.4362C21.6743 29.4414 20.915 29.4443 20.1555 29.4455C19.8657 29.4464 19.5758 29.4481 19.2859 29.4507C18.8802 29.4542 18.4746 29.4547 18.0689 29.4545C17.9487 29.4562 17.8286 29.4579 17.7048 29.4597C17.2242 29.4568 16.8711 29.4298 16.425 29.2426C16.056 28.7134 16.1218 28.1728 16.132 27.5436C16.1319 27.4031 16.1318 27.2626 16.1317 27.1178C16.1321 26.6528 16.1368 26.188 16.1415 25.7231C16.1429 25.4009 16.1435 25.0788 16.1441 24.7566C16.1459 23.995 16.1508 23.2335 16.1569 22.4719C16.1636 21.6048 16.1669 20.7377 16.1699 19.8705C16.1762 18.087 16.1867 16.3035 16.2001 14.52C16.1252 14.5204 16.0503 14.5209 15.9731 14.5213C14.1503 14.5319 12.3275 14.5399 10.5047 14.5448C9.6232 14.5473 8.74172 14.5507 7.86022 14.5562C7.09187 14.561 6.32354 14.5641 5.55517 14.5651C5.14836 14.5658 4.74159 14.5672 4.33478 14.5707C3.88053 14.5742 3.42637 14.5747 2.9721 14.5745C2.83736 14.5762 2.70262 14.5779 2.5638 14.5797C1.65716 14.5749 1.65716 14.5749 1.17605 14.3028C0.960078 14.04 0.960078 14.04 0.892578 13.62C1.01118 12.882 1.38482 12.6601 2.10503 12.659Z" fill="#0A56F1"/>
<path id="Vector_2" d="M2.58435 45.9442C2.78826 45.9435 2.78826 45.9435 2.9963 45.9428C3.22039 45.943 3.22039 45.943 3.449 45.9431C3.60928 45.9428 3.76955 45.9425 3.92982 45.9421C4.37064 45.9411 4.81146 45.9409 5.25228 45.9408C5.72754 45.9406 6.20281 45.9397 6.67808 45.9389C7.7174 45.9372 8.75673 45.9365 9.79605 45.936C10.4448 45.9356 11.0936 45.9351 11.7424 45.9346C13.5383 45.9331 15.3343 45.9319 17.1302 45.9315C17.2451 45.9315 17.3601 45.9314 17.4785 45.9314C17.6513 45.9314 17.6513 45.9314 17.8276 45.9313C18.0611 45.9313 18.2946 45.9312 18.5281 45.9312C18.6439 45.9311 18.7597 45.9311 18.879 45.9311C20.7564 45.9306 22.6338 45.9285 24.5111 45.9257C26.438 45.9229 28.365 45.9214 30.2919 45.9212C31.374 45.9211 32.4561 45.9204 33.5382 45.9183C34.4595 45.9164 35.3807 45.9158 36.302 45.9168C36.7721 45.9173 37.2422 45.9171 37.7124 45.9155C38.1427 45.9139 38.5731 45.9141 39.0034 45.9155C39.2329 45.9159 39.4623 45.9145 39.6918 45.913C40.9587 45.9203 40.9587 45.9203 41.5201 46.32C41.6558 46.5914 41.656 46.74 41.6578 47.0412C41.659 47.1921 41.659 47.1921 41.6604 47.3461C41.6607 47.4566 41.661 47.5672 41.6613 47.6812C41.6621 47.7975 41.6629 47.9138 41.6637 48.0336C41.6661 48.4196 41.6675 48.8056 41.6687 49.1916C41.6692 49.3231 41.6697 49.4547 41.6702 49.5903C41.6727 50.2864 41.6744 50.9825 41.6755 51.6787C41.6768 52.3989 41.681 53.119 41.6857 53.8392C41.6889 54.392 41.6899 54.9448 41.6903 55.4976C41.6909 55.7632 41.6923 56.0287 41.6945 56.2942C41.6974 56.6654 41.6973 57.0365 41.6965 57.4077C41.6988 57.5729 41.6988 57.5729 41.7011 57.7414C41.6999 57.8933 41.6999 57.8933 41.6986 58.0483C41.6989 58.1361 41.6992 58.2238 41.6995 58.3142C41.613 58.6719 41.4423 58.8087 41.1601 59.04C40.8463 59.1002 40.8463 59.1002 40.482 59.1004C40.2735 59.1023 40.2735 59.1023 40.0608 59.1042C39.908 59.1031 39.7551 59.102 39.5977 59.1009C39.4338 59.1015 39.2699 59.1023 39.1059 59.1032C38.6551 59.1052 38.2042 59.1042 37.7534 59.1027C37.2673 59.1017 36.7813 59.1033 36.2952 59.1047C35.3428 59.1068 34.3905 59.1063 33.4381 59.1049C32.6643 59.1038 31.8904 59.1037 31.1166 59.1042C31.0065 59.1043 30.8965 59.1044 30.7831 59.1044C30.5596 59.1046 30.3361 59.1048 30.1126 59.1049C28.0155 59.1063 25.9184 59.1047 23.8213 59.1021C22.0209 59.1 20.2205 59.1004 18.4201 59.1026C16.3307 59.1051 14.2412 59.1062 12.1517 59.1047C11.929 59.1045 11.7063 59.1044 11.4836 59.1042C11.374 59.1042 11.2644 59.1041 11.1515 59.104C10.3784 59.1036 9.60528 59.1043 8.83215 59.1054C7.89027 59.1068 6.94842 59.1064 6.00654 59.1038C5.52575 59.1026 5.04499 59.1021 4.5642 59.1037C4.12436 59.1051 3.68459 59.1043 3.24476 59.1018C3.00964 59.101 2.77452 59.1025 2.53941 59.1042C2.40039 59.1029 2.26137 59.1017 2.11813 59.1004C1.99792 59.1003 1.8777 59.1002 1.75384 59.1002C1.35405 59.0235 1.21118 58.8736 0.960091 58.56C0.899687 58.3149 0.899687 58.3149 0.899138 58.0499C0.897785 57.949 0.896431 57.8481 0.895037 57.7441C0.896008 57.6343 0.89698 57.5246 0.897981 57.4116C0.89714 57.2952 0.896299 57.1789 0.895432 57.059C0.893319 56.6743 0.894719 56.2897 0.896341 55.905C0.896017 55.6378 0.895551 55.3706 0.894949 55.1034C0.894241 54.5433 0.895271 53.9833 0.897512 53.4232C0.900247 52.7049 0.898673 51.9867 0.895798 51.2684C0.894064 50.7166 0.894615 50.1648 0.895859 49.613C0.896179 49.3482 0.895785 49.0833 0.894669 48.8184C0.893451 48.4484 0.895306 48.0785 0.897981 47.7084C0.89701 47.5987 0.896038 47.489 0.895037 47.3759C0.904926 46.6385 0.904926 46.6385 1.17397 46.2557C1.63034 45.9544 2.04577 45.9449 2.58435 45.9442ZM2.76009 47.88C2.76009 50.9688 2.76009 54.0576 2.76009 57.24C14.9965 57.24 27.2329 57.24 39.8401 57.24C39.8401 54.1512 39.8401 51.0624 39.8401 47.88C27.6037 47.88 15.3673 47.88 2.76009 47.88Z" fill="#0A56F1"/>
<path id="Vector_3" d="M2.61296 31.1391C2.71898 31.1383 2.825 31.1376 2.93424 31.1368C3.28949 31.1349 3.64464 31.1364 3.99989 31.1379C4.25457 31.1373 4.50924 31.1364 4.76392 31.1354C5.45564 31.1332 6.14733 31.134 6.83905 31.1355C7.5624 31.1368 8.28576 31.1356 9.00911 31.1349C10.2238 31.134 11.4385 31.1352 12.6531 31.1374C14.0584 31.1401 15.4635 31.1392 16.8688 31.1366C18.0745 31.1344 19.2802 31.1341 20.4859 31.1353C21.2064 31.1361 21.9269 31.1362 22.6473 31.1346C23.3245 31.1332 24.0016 31.1342 24.6788 31.1369C24.9276 31.1376 25.1765 31.1374 25.4253 31.1363C25.7644 31.135 26.1033 31.1367 26.4423 31.1391C26.5414 31.138 26.6404 31.1369 26.7424 31.1358C27.1672 31.1417 27.4292 31.1643 27.7811 31.4116C27.9774 31.7061 28.0201 31.8456 28.0202 32.1954C28.0213 32.2976 28.0225 32.3997 28.0237 32.5049C28.0226 32.6159 28.0214 32.727 28.0202 32.8414C28.0212 33.0179 28.0212 33.0179 28.0222 33.1981C28.0237 33.5872 28.0217 33.9763 28.0195 34.3655C28.0196 34.6357 28.0197 34.9059 28.0201 35.176C28.0202 35.7423 28.0187 36.3085 28.016 36.8747C28.0126 37.6013 28.0129 38.3279 28.0145 39.0546C28.0153 39.6124 28.0144 40.1703 28.0129 40.7281C28.0123 40.9961 28.0123 41.2641 28.0128 41.5321C28.0131 41.9061 28.0111 42.2801 28.0085 42.6542C28.0093 42.8211 28.0093 42.8211 28.0101 42.9914C28.009 43.0932 28.0078 43.195 28.0065 43.2998C28.0061 43.4325 28.0061 43.4325 28.0057 43.5678C27.9464 43.8691 27.8394 43.9726 27.6 44.16C27.1411 44.313 26.7094 44.2978 26.2312 44.2977C26.127 44.2981 26.0229 44.2986 25.9155 44.299C25.5651 44.3003 25.2147 44.3008 24.8642 44.3013C24.6135 44.302 24.3628 44.3028 24.1121 44.3037C23.4301 44.3057 22.748 44.307 22.0659 44.308C21.64 44.3086 21.2141 44.3093 20.7881 44.3101C19.4561 44.3124 18.124 44.3141 16.7919 44.3151C15.2532 44.3163 13.7144 44.3194 12.1757 44.3243C10.987 44.3279 9.7983 44.3297 8.6096 44.3301C7.89931 44.3303 7.18903 44.3314 6.47875 44.3344C5.81065 44.3372 5.14259 44.3377 4.47449 44.3365C4.22923 44.3364 3.98397 44.3372 3.73872 44.3389C3.40394 44.341 3.06931 44.3401 2.73453 44.3386C2.63742 44.3399 2.54031 44.3412 2.44026 44.3425C1.81928 44.3355 1.44045 44.2304 0.960017 43.8C0.869747 43.553 0.869747 43.553 0.869396 43.2854C0.866611 43.1325 0.866611 43.1325 0.86377 42.9765C0.865416 42.8656 0.867061 42.7548 0.868757 42.6406C0.867688 42.5231 0.866619 42.4055 0.865518 42.2845C0.86296 41.8958 0.865644 41.5074 0.868611 41.1188C0.868431 40.8489 0.868019 40.579 0.867386 40.3091C0.866866 39.7433 0.86889 39.1777 0.872742 38.612C0.877515 37.8864 0.8764 37.1609 0.873433 36.4353C0.871733 35.878 0.872941 35.3207 0.875055 34.7633C0.875758 34.4958 0.8756 34.2282 0.874572 33.9607C0.873614 33.5869 0.876519 33.2133 0.880476 32.8395C0.87945 32.7286 0.878424 32.6178 0.877367 32.5036C0.879232 32.4016 0.881098 32.2997 0.883019 32.1946C0.883401 32.1063 0.883784 32.018 0.884177 31.927C1.13514 31.1097 1.90368 31.1314 2.61296 31.1391ZM2.76002 33C2.76002 36.0888 2.76002 39.1776 2.76002 42.36C10.482 42.36 18.204 42.36 26.16 42.36C26.16 39.2712 26.16 36.1824 26.16 33C18.438 33 10.716 33 2.76002 33Z" fill="#0A56F1"/>
<path id="Vector_4" d="M2.73111 16.2579C2.84845 16.2571 2.96579 16.2562 3.08668 16.2554C3.47405 16.2532 3.86132 16.2546 4.24869 16.2563C4.51813 16.2559 4.78757 16.2555 5.05701 16.2549C5.62151 16.2542 6.18597 16.2552 6.75047 16.2574C7.47401 16.2602 8.19746 16.2586 8.92099 16.2557C9.47731 16.254 10.0336 16.2545 10.5899 16.2558C10.8567 16.2561 11.1235 16.2557 11.3903 16.2546C11.7632 16.2534 12.1359 16.2552 12.5088 16.2579C12.6741 16.2564 12.6741 16.2564 12.8428 16.255C13.3403 16.2616 13.612 16.2789 14.0456 16.5414C14.4978 17.0405 14.4185 17.6016 14.4193 18.2378C14.4202 18.4033 14.4202 18.4033 14.4211 18.572C14.4228 18.9373 14.4237 19.3026 14.4243 19.6678C14.425 19.9215 14.4257 20.1751 14.4264 20.4287C14.4276 20.9608 14.4284 21.4928 14.4288 22.0248C14.4294 22.7066 14.4323 23.3884 14.4357 24.0703C14.438 24.5943 14.4386 25.1182 14.4388 25.6422C14.4391 25.8936 14.4401 26.145 14.4417 26.3963C14.4437 26.748 14.4435 27.0995 14.4427 27.4511C14.4438 27.555 14.4449 27.6589 14.4461 27.7659C14.4422 28.3288 14.4095 28.7056 14.0399 29.16C13.6714 29.4057 13.5961 29.4302 13.1806 29.4321C13.0282 29.4336 13.0282 29.4336 12.8727 29.4352C12.706 29.435 12.706 29.435 12.536 29.4349C12.4187 29.4357 12.3014 29.4365 12.1806 29.4373C11.7919 29.4396 11.4033 29.4401 11.0146 29.4403C10.7448 29.4411 10.4751 29.4419 10.2053 29.4427C9.63936 29.4442 9.07344 29.4446 8.50752 29.4445C7.7821 29.4445 7.05673 29.4477 6.33132 29.4519C5.77398 29.4545 5.21665 29.455 4.65929 29.4549C4.39184 29.4552 4.12439 29.4562 3.85695 29.4581C3.4829 29.4605 3.10897 29.4598 2.73492 29.4583C2.62431 29.4597 2.5137 29.461 2.39974 29.4624C1.9332 29.4578 1.61856 29.4272 1.19136 29.2288C0.838978 28.7586 0.876019 28.3341 0.882303 27.7606C0.881252 27.643 0.8802 27.5255 0.879117 27.4045C0.876475 27.0158 0.878225 26.6274 0.880252 26.2388C0.879848 25.9689 0.879266 25.699 0.878513 25.4291C0.877628 24.8633 0.878915 24.2977 0.881717 23.7319C0.885136 23.0064 0.883168 22.2809 0.879574 21.5553C0.877407 20.998 0.878095 20.4407 0.87965 19.8833C0.880051 19.6158 0.879558 19.3482 0.878163 19.0807C0.876641 18.7069 0.878959 18.3333 0.882303 17.9595C0.881089 17.8486 0.879874 17.7378 0.878623 17.6236C0.886624 17.1414 0.897007 16.8838 1.19159 16.4914C1.71195 16.2493 2.16329 16.2529 2.73111 16.2579ZM2.75994 18.24C2.75994 21.2892 2.75994 24.3384 2.75994 27.48C5.96754 27.48 9.17514 27.48 12.4799 27.48C12.4799 24.4308 12.4799 21.3816 12.4799 18.24C9.27234 18.24 6.06474 18.24 2.75994 18.24Z" fill="#0A56F1"/>
<path id="Vector_5" d="M38.8581 15.9478C40.8069 16.6221 42.1535 17.893 43.0576 19.725C43.5465 20.8876 43.5959 22.1008 43.5984 23.3474C43.5996 23.4904 43.6008 23.6334 43.602 23.7807C43.6057 24.2482 43.6078 24.7156 43.6098 25.1831C43.6119 25.5093 43.6144 25.8355 43.6168 26.1616C43.6224 26.9291 43.6268 27.6966 43.6308 28.4641C43.6354 29.3388 43.6414 30.2135 43.6474 31.0882C43.6598 32.8854 43.6705 34.6827 43.6801 36.48C43.7726 36.4203 43.8651 36.3606 43.9604 36.299C44.2801 36.12 44.2801 36.12 44.5951 36.135C44.9172 36.2537 45.0495 36.3141 45.2401 36.6C45.3751 36.9825 45.3751 36.9825 45.3601 37.44C45.1369 37.8138 44.8291 38.0961 44.5201 38.4C44.4025 38.5253 44.2854 38.6509 44.1685 38.7769C44.0434 38.9089 43.9181 39.0408 43.7926 39.1725C43.7333 39.2364 43.6741 39.3003 43.613 39.3662C43.2157 39.7718 42.9321 39.9473 42.3601 39.96C41.6855 39.6227 41.1945 39.062 40.6801 38.52C40.5574 38.3982 40.5574 38.3982 40.4321 38.2739C40.0512 37.8776 39.8573 37.6633 39.7651 37.11C39.8432 36.7038 39.8932 36.5151 40.2001 36.24C40.4851 36.1275 40.4851 36.1275 40.8001 36.12C41.0741 36.257 41.3029 36.3828 41.5201 36.6C41.5285 34.665 41.5349 32.7299 41.5388 30.7949C41.5406 29.8963 41.5431 28.9978 41.5473 28.0992C41.5509 27.3156 41.5532 26.532 41.554 25.7484C41.5544 25.3338 41.5555 24.9193 41.5582 24.5048C41.5611 24.0409 41.5611 23.5771 41.561 23.1132C41.5623 22.9772 41.5636 22.8413 41.5649 22.7012C41.5595 21.3035 41.2022 20.0336 40.2404 18.9815C38.8748 17.7407 37.2842 17.7191 35.5329 17.7143C35.2842 17.7131 35.0357 17.7091 34.787 17.7047C34.6398 17.7037 34.4925 17.7027 34.3408 17.7017C33.8907 17.6287 33.7524 17.5188 33.4801 17.16C33.3601 16.8075 33.3601 16.8075 33.3601 16.44C34.2585 15.0459 37.4119 15.59 38.8581 15.9478Z" fill="#0A56F1"/>
<path id="Vector_6" d="M21.1908 0.896246C21.324 0.895557 21.324 0.895557 21.46 0.894854C21.6483 0.894528 21.8366 0.895411 22.0249 0.897418C22.3079 0.899954 22.5904 0.897459 22.8733 0.894371C24.5954 0.891017 25.9483 1.25866 27.36 2.28C27.4862 2.3691 27.6124 2.4582 27.7425 2.55C29.2052 3.98027 29.8564 5.67339 29.9134 7.69351C29.9162 7.95513 29.9177 8.21676 29.9182 8.47839C29.9194 8.62257 29.9206 8.76674 29.9219 8.91528C29.9249 9.30568 29.927 9.69607 29.9285 10.0865C29.9304 10.4963 29.9336 10.9061 29.9367 11.316C29.9423 12.0898 29.9467 12.8637 29.9507 13.6376C29.9553 14.5195 29.9612 15.4015 29.9673 16.2834C29.9796 18.0956 29.9903 19.9078 30 21.72C30.0509 21.6618 30.1018 21.6037 30.1542 21.5437C30.36 21.36 30.36 21.36 30.7725 21.3C31.2 21.36 31.2 21.36 31.5 21.6075C31.7421 22.0816 31.6988 22.2873 31.56 22.8C31.321 23.1244 31.0381 23.39 30.7425 23.6625C30.6669 23.7348 30.5913 23.8071 30.5135 23.8816C30.3677 24.021 30.2211 24.1595 30.0736 24.297C29.9146 24.4473 29.7616 24.6039 29.6104 24.7622C29.4 24.96 29.4 24.96 29.01 25.1025C28.3268 25.0683 28.065 24.712 27.6 24.24C27.4747 24.1238 27.3491 24.008 27.2231 23.8927C27.0911 23.7686 26.9592 23.6444 26.8275 23.52C26.7636 23.4617 26.6996 23.4035 26.6338 23.3434C26.304 23.0226 26.1614 22.8054 26.0433 22.357C26.04 21.96 26.04 21.96 26.28 21.6075C26.7228 21.3031 26.9528 21.2819 27.48 21.36C27.6853 21.5437 27.6853 21.5437 27.84 21.72C27.8512 19.7735 27.8597 17.827 27.8648 15.8804C27.8673 14.9764 27.8707 14.0725 27.8762 13.1686C27.881 12.3801 27.8841 11.5917 27.8851 10.8033C27.8858 10.3863 27.8872 9.96937 27.8907 9.55241C27.8946 9.08541 27.8947 8.61846 27.8945 8.15144C27.8962 8.01524 27.8979 7.87903 27.8997 7.7387C27.8927 6.3766 27.5865 5.30957 26.64 4.32C26.64 4.2408 26.64 4.1616 26.64 4.08C26.5704 4.04658 26.5008 4.01317 26.429 3.97875C26.1719 3.84614 25.9364 3.69903 25.695 3.54C24.8004 2.97777 23.8838 2.86943 22.8398 2.8589C22.6931 2.85604 22.5464 2.85318 22.3952 2.85023C22.0887 2.84505 21.7821 2.84131 21.4755 2.83898C21.3293 2.83565 21.183 2.83233 21.0323 2.8289C20.8994 2.82715 20.7665 2.8254 20.6296 2.8236C20.2019 2.74578 20.0586 2.62438 19.8 2.28C19.7343 1.82043 19.7132 1.56174 19.9868 1.17773C20.3799 0.885758 20.7195 0.890827 21.1908 0.896246Z" fill="#0A56F1"/>
<path id="Vector_7" d="M48.4763 30.5522C48.598 30.5517 48.598 30.5517 48.7222 30.5512C48.8941 30.5509 49.0659 30.5516 49.2378 30.5531C49.4959 30.555 49.7538 30.5531 50.0119 30.5508C52.1038 30.5475 53.8504 31.0823 55.3829 32.5552C56.3671 33.631 57.129 35.0487 57.1391 36.53C57.1402 36.6619 57.1414 36.7938 57.1426 36.9297C57.1433 37.0739 57.144 37.218 57.1447 37.3665C57.1459 37.5188 57.1471 37.671 57.1483 37.8278C57.1515 38.2448 57.1541 38.6618 57.1565 39.0788C57.1591 39.5147 57.1624 39.9507 57.1656 40.3866C57.1716 41.2119 57.177 42.0372 57.1822 42.8626C57.1881 43.8022 57.1947 44.7419 57.2013 45.6816C57.215 47.6144 57.2278 49.5472 57.2401 51.48C57.3301 51.4007 57.4201 51.3213 57.5129 51.2395C57.8401 51 57.8401 51 58.2751 51.0075C58.8652 51.1714 58.8652 51.1714 59.0401 51.48C59.1208 51.8919 59.1326 52.1739 58.9023 52.5375C58.6797 52.798 58.442 53.0373 58.2001 53.28C58.0855 53.4067 57.9713 53.5338 57.8574 53.6611C57.7343 53.7942 57.611 53.9272 57.4876 54.06C57.4303 54.1249 57.373 54.1899 57.314 54.2567C56.9934 54.5908 56.7607 54.7199 56.3096 54.8288C55.5648 54.7727 55.0882 54.1462 54.6001 53.64C54.4434 53.489 54.4434 53.489 54.2837 53.3349C53.4537 52.4945 53.4537 52.4945 53.4362 51.9038C53.5201 51.48 53.5201 51.48 53.7826 51.18C54.1476 50.9853 54.3152 50.9273 54.7201 51C54.8832 51.1158 55.0437 51.2354 55.2001 51.36C55.2085 49.4448 55.2148 47.5295 55.2187 45.6143C55.2206 44.7249 55.2231 43.8355 55.2272 42.9461C55.2308 42.1703 55.2331 41.3945 55.2339 40.6187C55.2344 40.2085 55.2355 39.7982 55.2381 39.388C55.2408 38.9285 55.2411 38.469 55.2409 38.0094C55.2422 37.8755 55.2435 37.7415 55.2449 37.6035C55.2387 36.0105 54.9098 34.897 53.7966 33.7505C52.9193 32.9323 51.9059 32.6322 50.7301 32.6105C50.5588 32.6065 50.3876 32.6025 50.2163 32.5985C49.9477 32.5928 49.6791 32.5875 49.4105 32.5828C49.1503 32.578 48.8902 32.5718 48.6301 32.5655C48.4748 32.5625 48.3195 32.5595 48.1594 32.5564C47.7907 32.5228 47.5844 32.4822 47.2801 32.28C47.0303 31.9589 47.0406 31.7859 47.0551 31.3725C47.1601 30.96 47.1601 30.96 47.3544 30.7572C47.7416 30.5442 48.0354 30.5534 48.4763 30.5522Z" fill="#0A56F1"/>
<path id="Vector_8" d="M5.44575 51.5383C5.59935 51.537 5.59935 51.537 5.75606 51.5357C6.09979 51.5335 6.44343 51.5348 6.78717 51.536C7.03335 51.5352 7.27954 51.5341 7.52573 51.5329C8.1949 51.5302 8.86404 51.5305 9.53322 51.5316C10.0915 51.5322 10.6498 51.5313 11.208 51.5304C12.5249 51.5284 13.8417 51.5288 15.1585 51.5308C16.5179 51.5329 17.8772 51.531 19.2365 51.5271C20.4029 51.5239 21.5693 51.523 22.7357 51.524C23.4326 51.5246 24.1295 51.5244 24.8265 51.5219C25.4818 51.5197 26.137 51.5204 26.7923 51.5234C27.033 51.524 27.2736 51.5235 27.5143 51.522C27.8426 51.5201 28.1706 51.5219 28.4989 51.5246C28.6421 51.5225 28.6421 51.5225 28.7883 51.5203C29.2713 51.5285 29.4949 51.5804 29.88 51.8818C30.1199 52.2 30.1199 52.2 30.1799 52.5675C30.1142 52.9535 30.035 53.1249 29.7599 53.4C29.3083 53.5506 28.8873 53.537 28.4168 53.5361C28.3154 53.5363 28.214 53.5366 28.1096 53.5369C27.7685 53.5376 27.4275 53.5375 27.0864 53.5374C26.8424 53.5378 26.5984 53.5382 26.3544 53.5387C25.6907 53.5397 25.027 53.54 24.3633 53.5401C23.8098 53.5402 23.2563 53.5406 22.7028 53.5411C21.3973 53.542 20.0918 53.5423 18.7863 53.5422C17.4383 53.5422 16.0902 53.5434 14.7421 53.5453C13.5858 53.5469 12.4295 53.5475 11.2732 53.5475C10.5821 53.5474 9.89104 53.5478 9.19994 53.5491C8.55018 53.5502 7.90042 53.5502 7.25065 53.5494C7.01187 53.5492 6.77309 53.5495 6.53431 53.5502C6.20894 53.5512 5.88362 53.5506 5.55825 53.5497C5.46324 53.5503 5.36824 53.5509 5.27035 53.5516C4.81801 53.5487 4.45809 53.5448 4.07993 53.28C3.85327 52.9778 3.83907 52.8206 3.85493 52.44C4.10465 51.5838 4.63704 51.5299 5.44575 51.5383Z" fill="#0A56F1"/>
<path id="Vector_9" d="M5.72487 36.7007C5.83164 36.7001 5.93841 36.6995 6.04841 36.6989C6.40199 36.6971 6.75557 36.6963 7.10915 36.6956C7.35472 36.6949 7.60029 36.6943 7.84585 36.6936C8.36093 36.6923 8.87601 36.6916 9.39108 36.6912C10.0511 36.6905 10.7111 36.6876 11.3711 36.6842C11.8785 36.682 12.3858 36.6814 12.8931 36.6812C13.1364 36.6808 13.3798 36.6799 13.6231 36.6783C13.9635 36.6762 14.3038 36.6765 14.6442 36.6772C14.7448 36.6761 14.8453 36.675 14.9488 36.6739C15.5041 36.6779 15.8691 36.719 16.3201 37.08C16.4934 37.4266 16.4853 37.6556 16.4401 38.04C16.2017 38.3658 16.0099 38.6005 15.6042 38.6949C15.3122 38.7165 15.0258 38.7183 14.7331 38.7138C14.5673 38.7148 14.5673 38.7148 14.3982 38.7159C14.0336 38.7173 13.6692 38.7144 13.3046 38.7113C13.051 38.7111 12.7975 38.7111 12.5439 38.7113C12.0127 38.7111 11.4817 38.7088 10.9506 38.7051C10.2696 38.7003 9.5886 38.6998 8.90755 38.7007C8.38407 38.701 7.86061 38.6996 7.33714 38.6975C7.08601 38.6967 6.83487 38.6963 6.58373 38.6964C6.23297 38.6962 5.88229 38.6936 5.53154 38.6904C5.37565 38.6909 5.37565 38.6909 5.2166 38.6915C4.79744 38.6855 4.51455 38.6791 4.13937 38.4822C3.84627 38.1517 3.84009 37.8725 3.84009 37.44C4.32043 36.6509 4.87501 36.7018 5.72487 36.7007Z" fill="#0A56F1"/>
<path id="Vector_10" d="M33.2288 51.5362C33.3677 51.5358 33.5066 51.5353 33.6497 51.5348C33.943 51.5345 34.2363 51.5354 34.5296 51.5374C34.9784 51.54 35.427 51.5374 35.8758 51.5344C36.161 51.5347 36.4461 51.5353 36.7313 51.5362C36.8654 51.5353 36.9996 51.5343 37.1378 51.5333C38.0667 51.5445 38.0667 51.5445 38.5449 51.8287C38.7802 52.1035 38.8365 52.211 38.82 52.5675C38.76 53.04 38.76 53.04 38.6025 53.2725C38.2194 53.5137 37.8872 53.5359 37.4469 53.5393C37.3263 53.5405 37.2058 53.5416 37.0815 53.5428C36.9514 53.5433 36.8213 53.5438 36.6872 53.5444C36.4864 53.5454 36.4864 53.5454 36.2814 53.5464C35.998 53.5476 35.7145 53.5484 35.4311 53.5488C34.9976 53.55 34.5641 53.5537 34.1307 53.5575C33.8553 53.5583 33.58 53.5589 33.3047 53.5594C33.1103 53.5616 33.1103 53.5616 32.9119 53.5638C31.7796 53.5605 31.7796 53.5605 31.32 53.16C31.1323 52.7846 31.1573 52.4933 31.2 52.08C31.7322 51.424 32.454 51.5306 33.2288 51.5362Z" fill="#0A56F1"/>
<path id="Vector_11" d="M18.9421 36.7007C19.1193 36.6989 19.1193 36.6989 19.3001 36.6972C19.4277 36.6967 19.5552 36.6962 19.6865 36.6956C19.8834 36.6946 19.8834 36.6946 20.0842 36.6936C20.362 36.6924 20.6398 36.6916 20.9176 36.6912C21.3424 36.69 21.7672 36.6863 22.192 36.6825C22.4618 36.6817 22.7317 36.6811 23.0015 36.6806C23.192 36.6784 23.192 36.6784 23.3864 36.6761C24.4969 36.6795 24.4969 36.6795 24.96 37.08C25.1333 37.4266 25.1252 37.6556 25.08 38.04C24.8664 38.3589 24.8664 38.3589 24.48 38.64C24.0041 38.7304 23.5344 38.7241 23.0512 38.7197C22.9123 38.7203 22.7734 38.7208 22.6303 38.7214C22.337 38.7218 22.0437 38.7207 21.7504 38.7182C21.3015 38.715 20.853 38.7182 20.4042 38.722C20.119 38.7216 19.8339 38.7209 19.5487 38.7197C19.3475 38.7215 19.3475 38.7215 19.1422 38.7234C18.2147 38.7094 18.2147 38.7094 17.7349 38.358C17.4712 37.9679 17.4316 37.7815 17.52 37.32C17.9284 36.7989 18.3017 36.7057 18.9421 36.7007Z" fill="#0A56F1"/>
<path id="Vector_12" d="M5.08174 21.9115C5.27397 21.9092 5.27397 21.9092 5.47007 21.9069C5.60783 21.9072 5.74559 21.9076 5.88753 21.9079C6.02954 21.9073 6.17155 21.9067 6.31787 21.906C6.61805 21.9053 6.91824 21.9054 7.21842 21.9065C7.67829 21.9075 8.13799 21.904 8.59784 21.9002C8.8894 21.9 9.18096 21.9001 9.47253 21.9004C9.61028 21.8991 9.74804 21.8978 9.88998 21.8964C10.0181 21.8975 10.1463 21.8986 10.2783 21.8998C10.3909 21.8998 10.5035 21.8998 10.6195 21.8998C11.0135 21.9787 11.1564 22.1259 11.4 22.44C11.46 22.86 11.46 22.86 11.4 23.28C11.155 23.5966 11.0114 23.7415 10.615 23.8217C10.4429 23.8229 10.4429 23.8229 10.2673 23.824C10.0715 23.8268 10.0715 23.8268 9.87168 23.8298C9.7313 23.8292 9.59091 23.8286 9.44628 23.8279C9.22926 23.8291 9.22926 23.8291 9.00786 23.8302C8.70203 23.8311 8.39619 23.8307 8.09036 23.8291C7.62176 23.8275 7.15345 23.8316 6.68487 23.8362C6.38784 23.8363 6.09081 23.836 5.79378 23.8354C5.5832 23.8378 5.5832 23.8378 5.36837 23.8403C4.40279 23.8291 4.40279 23.8291 3.98792 23.4824C3.78458 23.0391 3.82269 22.7835 3.96003 22.32C4.32127 21.9676 4.58528 21.9144 5.08174 21.9115Z" fill="#0A56F1"/>
<path id="Vector_13" d="M43.3201 20.88C43.3597 20.88 43.3993 20.88 43.4401 20.88C43.5613 21.6868 43.5805 22.4778 43.5847 23.2929C43.5859 23.4358 43.5871 23.5788 43.5883 23.726C43.5914 24.1152 43.5941 24.5044 43.5965 24.8936C43.5991 25.3013 43.6024 25.7091 43.6056 26.1168C43.6116 26.8877 43.617 27.6586 43.6222 28.4295C43.6281 29.3077 43.6347 30.1859 43.6413 31.064C43.6549 32.8694 43.6678 34.6747 43.6801 36.48C43.7989 36.48 43.9177 36.48 44.0401 36.48C43.8853 36.6451 43.7248 36.8049 43.5601 36.96C43.4809 36.96 43.4017 36.96 43.3201 36.96C43.3201 31.6536 43.3201 26.3472 43.3201 20.88Z" fill="#0A56F1"/>
<path id="Vector_14" d="M18.9479 36.7025C19.0672 36.7018 19.1865 36.701 19.3095 36.7002C19.4381 36.7001 19.5667 36.6999 19.6993 36.6998C19.8314 36.6994 19.9635 36.699 20.0996 36.6986C20.3789 36.698 20.6582 36.6977 20.9375 36.6977C21.3663 36.6975 21.795 36.6953 22.2237 36.693C22.4947 36.6927 22.7658 36.6924 23.0368 36.6923C23.1657 36.6914 23.2945 36.6906 23.4273 36.6897C23.6057 36.6903 23.6057 36.6903 23.7877 36.6908C23.9452 36.6906 23.9452 36.6906 24.1058 36.6903C24.3601 36.72 24.3601 36.72 24.6001 36.96C22.5013 36.96 20.4025 36.96 18.2401 36.96C18.2401 37.0392 18.2401 37.1184 18.2401 37.2C18.1633 37.2272 18.0866 37.2544 18.0076 37.2825C17.7274 37.4223 17.7274 37.4223 17.6701 37.755C17.6602 37.849 17.6503 37.9431 17.6401 38.04C17.6005 38.04 17.5609 38.04 17.5201 38.04C17.4804 37.6034 17.4615 37.3947 17.7376 37.0425C18.1376 36.7339 18.4585 36.7047 18.9479 36.7025Z" fill="#0A56F1"/>
<path id="Vector_15" d="M27.48 21.36C27.5196 21.4392 27.5592 21.5184 27.6 21.6C27.4366 21.5852 27.4366 21.5852 27.27 21.57C26.875 21.5667 26.875 21.5667 26.595 21.8025C26.3584 22.1391 26.3511 22.2761 26.4 22.68C26.6683 23.0754 27.0204 23.395 27.36 23.73C27.4492 23.8236 27.5385 23.9172 27.6304 24.0136C28.2152 24.6018 28.2152 24.6018 28.9875 24.8419C29.1236 24.8413 29.2597 24.8407 29.4 24.84C29.16 25.08 29.16 25.08 28.7953 25.0997C28.1043 24.9769 27.6632 24.407 27.195 23.925C27.0967 23.8296 26.9985 23.7341 26.8973 23.6358C26.1125 22.8431 26.1125 22.8431 26.0203 22.3317C26.04 21.96 26.04 21.96 26.28 21.6075C26.7152 21.3083 26.9624 21.3093 27.48 21.36Z" fill="#0A56F1"/>
<path id="Vector_16" d="M19.1999 36.84C19.1999 36.8796 19.1999 36.9192 19.1999 36.96C18.8831 36.96 18.5663 36.96 18.2399 36.96C18.2399 37.0392 18.2399 37.1184 18.2399 37.2C18.1632 37.2273 18.0864 37.2545 18.0074 37.2825C17.7273 37.4223 17.7273 37.4223 17.6699 37.755C17.66 37.8491 17.6501 37.9431 17.6399 38.04C17.6003 38.04 17.5607 38.04 17.5199 38.04C17.483 37.6345 17.4785 37.3916 17.6849 37.035C18.1685 36.7357 18.6456 36.8019 19.1999 36.84Z" fill="#0A56F1"/>
<path id="Vector_17" d="M54.1199 51.12C54.0407 51.2784 53.9615 51.4368 53.8799 51.6C53.8007 51.6 53.7215 51.6 53.6399 51.6C53.6399 51.8772 53.6399 52.1544 53.6399 52.44C53.6003 52.44 53.5607 52.44 53.5199 52.44C53.4759 51.5441 53.4759 51.5441 53.6849 51.24C53.8799 51.12 53.8799 51.12 54.1199 51.12Z" fill="#0A56F1"/>
</g>
<defs>
<clipPath id="clip0_315_538">
<rect width="60" height="60" fill="white"/>
</clipPath>
</defs>
</svg>
