<svg width="85" height="86" viewBox="0 0 85 86" fill="none" xmlns="http://www.w3.org/2000/svg">
<g id="web-design-removebg-preview 1">
<path id="Vector" d="M19.7087 3.04831C19.8742 3.04721 20.0397 3.04612 20.2102 3.04499C20.3907 3.04551 20.5712 3.04604 20.7571 3.04658C20.9499 3.04581 21.1426 3.04504 21.3412 3.04425C21.9885 3.04209 22.6358 3.04238 23.2831 3.04266C23.7466 3.04182 24.2102 3.04049 24.6737 3.0392C25.803 3.03637 26.9323 3.03544 28.0616 3.03525C28.9796 3.03509 29.8976 3.03439 30.8157 3.03331C33.419 3.03032 36.0224 3.02875 38.6257 3.029C38.766 3.02902 38.9064 3.02903 39.0509 3.02904C39.1914 3.02906 39.3319 3.02907 39.4767 3.02909C41.7535 3.02922 44.0303 3.02597 46.3071 3.02118C48.6454 3.01629 50.9837 3.01394 53.322 3.01424C54.6346 3.01435 55.9471 3.01342 57.2597 3.00976C58.3773 3.00666 59.4949 3.00592 60.6125 3.00823C61.1825 3.00934 61.7524 3.00899 62.3224 3.00641C62.941 3.00379 63.5594 3.00536 64.1779 3.00798C64.3572 3.00624 64.5366 3.00449 64.7213 3.00269C66.0529 3.01517 66.9467 3.30291 67.9574 4.1758C68.7899 5.1471 69.2119 5.86486 69.2092 7.14627C69.2092 7.35045 69.2092 7.55462 69.2091 7.76498C69.2083 7.98546 69.2074 8.20594 69.2065 8.4331C69.2062 8.66106 69.2059 8.88902 69.2057 9.11697C69.2051 9.71645 69.2034 10.3159 69.2016 10.9154C69.1998 11.5273 69.199 12.1392 69.1982 12.7512C69.1964 13.9515 69.1935 15.1518 69.1899 16.352C69.3346 16.3485 69.4793 16.3449 69.6284 16.3413C70.1743 16.3295 70.7201 16.3211 71.2661 16.3147C71.5007 16.3113 71.7353 16.3067 71.9699 16.3007C74.1568 16.2467 75.9871 16.6105 77.6899 18.052C79.0605 19.442 79.8203 21.1919 79.8396 23.1401C79.8371 23.3207 79.8347 23.5013 79.8321 23.6874C79.8328 23.8849 79.8335 24.0824 79.8343 24.2859C79.8357 24.9421 79.831 25.5982 79.8264 26.2544C79.8257 26.727 79.8262 27.1996 79.8268 27.6722C79.8272 28.6868 79.8246 29.7014 79.8198 30.716C79.8128 32.183 79.8106 33.6498 79.8096 35.1168C79.8077 37.4972 79.8021 39.8777 79.794 42.2581C79.7862 44.5694 79.7802 46.8806 79.7766 49.1919C79.7764 49.3346 79.7761 49.4772 79.7759 49.6242C79.7748 50.34 79.7737 51.0557 79.7727 51.7715C79.7639 57.7017 79.7489 63.6319 79.7299 69.562C79.8587 69.5583 79.9874 69.5545 80.1201 69.5506C80.2889 69.5476 80.4576 69.5447 80.6314 69.5416C80.8825 69.536 80.8825 69.536 81.1385 69.5302C81.5999 69.562 81.5999 69.562 82.1351 69.8884C82.5666 70.6063 82.5695 71.1675 82.5568 71.9912C82.5572 72.144 82.5576 72.2969 82.558 72.4543C82.5579 72.7776 82.5556 73.1008 82.5514 73.424C82.5456 73.9132 82.5478 74.4019 82.5512 74.8911C82.5492 77.4151 82.2062 79.2845 80.3979 81.144C79.0526 82.4167 77.7 83.0122 75.8535 83.0149C75.7368 83.0153 75.62 83.0157 75.4997 83.0161C75.1066 83.0172 74.7135 83.0171 74.3204 83.0171C74.0365 83.0176 73.7525 83.0183 73.4686 83.019C72.6868 83.0207 71.905 83.0213 71.1232 83.0217C70.2806 83.0224 69.438 83.024 68.5954 83.0255C66.5597 83.0289 64.524 83.0306 62.4882 83.0321C61.5297 83.0329 60.5711 83.0338 59.6126 83.0347C56.4263 83.0375 53.24 83.04 50.0536 83.0412C49.2267 83.0416 48.3997 83.0419 47.5728 83.0422C47.2645 83.0423 47.2645 83.0423 46.9499 83.0425C43.6203 83.0439 40.2907 83.0482 36.9611 83.0537C33.543 83.0593 30.1249 83.0624 26.7068 83.0629C24.7876 83.0633 22.8683 83.0648 20.949 83.0691C19.3145 83.0728 17.68 83.0742 16.0454 83.0725C15.2116 83.0718 14.3779 83.0721 13.5441 83.0754C12.7801 83.0784 12.0162 83.0782 11.2522 83.0756C10.9765 83.0752 10.7008 83.0759 10.4251 83.0779C8.00351 83.0946 6.17266 82.6659 4.39797 80.9401C3.29764 79.7769 2.54611 78.4623 2.51709 76.8329C2.51436 76.6927 2.51163 76.5526 2.50882 76.4082C2.50122 75.7711 2.49429 75.134 2.49036 74.4969C2.48754 74.161 2.4829 73.8252 2.47642 73.4893C2.46711 73.0039 2.46339 72.5186 2.4609 72.033C2.45704 71.8834 2.45319 71.7337 2.44922 71.5795C2.45163 70.8796 2.49917 70.4971 2.86357 69.8857C3.45851 69.5267 3.69117 69.5266 4.3684 69.5418C4.62148 69.5462 4.62148 69.5462 4.87967 69.5507C5.00844 69.5544 5.13721 69.5582 5.26988 69.562C5.26956 69.4614 5.26924 69.3607 5.2689 69.257C5.24987 63.2861 5.23529 57.3153 5.22648 51.3444C5.22541 50.6269 5.22431 49.9094 5.22319 49.1919C5.22286 48.9777 5.22285 48.9777 5.22251 48.7591C5.21882 46.4486 5.21212 44.1382 5.2043 41.8277C5.19634 39.4556 5.19163 37.0835 5.18991 34.7114C5.18874 33.2486 5.18507 31.7858 5.17815 30.323C5.17365 29.3189 5.1723 28.3148 5.17341 27.3106C5.17395 26.7319 5.17267 26.1533 5.16856 25.5746C5.16431 24.9454 5.16535 24.3165 5.16767 23.6874C5.16519 23.5068 5.16271 23.3262 5.16016 23.1401C5.1804 21.0947 6.02387 19.3101 7.47988 17.882C8.01934 17.4705 8.56142 17.1405 9.17988 16.862C9.27489 16.8187 9.36991 16.7754 9.4678 16.7308C10.7343 16.2296 12.0179 16.295 13.3555 16.3202C13.5942 16.3227 13.833 16.3251 14.0717 16.3271C14.6512 16.3331 15.2305 16.3415 15.8099 16.352C15.808 16.228 15.8061 16.104 15.8042 15.9763C15.787 14.801 15.7741 13.6257 15.7658 12.4504C15.7614 11.8463 15.7555 11.2423 15.7458 10.6382C15.7347 9.9419 15.7306 9.2457 15.7269 8.54931C15.7225 8.33497 15.7181 8.12064 15.7136 7.8998C15.7132 6.57861 15.8733 5.54217 16.6599 4.45205C17.5431 3.61699 18.4667 3.0504 19.7087 3.04831ZM18.8699 6.49205C18.3857 7.94453 18.6999 9.551 18.6999 11.082C34.4079 11.082 50.1159 11.082 66.2999 11.082C66.6497 7.41993 66.6497 7.41993 65.7899 6.15205C65.3865 5.95035 65.1432 5.96039 64.6931 5.9597C64.533 5.95905 64.3728 5.9584 64.2078 5.95772C64.0307 5.95787 63.8535 5.95802 63.671 5.95817C63.4838 5.95767 63.2965 5.95716 63.1036 5.95664C62.4719 5.95516 61.8403 5.95491 61.2086 5.95465C60.7574 5.95387 60.3063 5.95302 59.8551 5.9521C58.6265 5.94978 57.3979 5.94876 56.1693 5.94801C55.4025 5.94754 54.6357 5.94682 53.8689 5.94606C51.7471 5.94399 49.6252 5.94223 47.5033 5.94166C47.3675 5.94162 47.2316 5.94158 47.0916 5.94155C46.9555 5.94151 46.8193 5.94147 46.6789 5.94143C46.403 5.94136 46.127 5.94128 45.851 5.94121C45.7141 5.94117 45.5772 5.94113 45.4361 5.94109C43.2171 5.94042 40.9981 5.93745 38.7791 5.9335C36.5023 5.92947 34.2255 5.92735 31.9486 5.92715C30.6697 5.92699 29.3908 5.92601 28.1119 5.92293C27.023 5.92031 25.9341 5.91944 24.8452 5.92084C24.2894 5.92151 23.7337 5.92107 23.1779 5.91896C22.5759 5.91682 21.9739 5.91779 21.3719 5.91957C21.1955 5.9182 21.0191 5.91683 20.8374 5.91542C20.6764 5.91654 20.5154 5.91766 20.3494 5.91882C20.141 5.91866 20.141 5.91866 19.9283 5.91851C19.4515 5.99857 19.2199 6.16271 18.8699 6.49205ZM18.6999 13.972C18.6801 22.7136 18.6801 22.7136 18.6667 31.4552C18.6653 32.633 18.664 33.8108 18.6625 34.9886C18.6623 35.1362 18.6622 35.2838 18.662 35.4359C18.659 37.8205 18.6537 40.205 18.6474 42.5895C18.6411 45.0359 18.6373 47.4823 18.6359 49.9287C18.635 51.4388 18.632 52.9489 18.6265 54.4589C18.6229 55.4939 18.6218 56.5288 18.6227 57.5637C18.6231 58.1612 18.6225 58.7586 18.6188 59.3561C18.6149 60.0035 18.6162 60.6508 18.6181 61.2982C18.6161 61.4876 18.6141 61.6769 18.6121 61.872C18.6178 62.5964 18.645 63.1432 18.9305 63.8137C19.6516 64.3085 20.3576 64.2391 21.2125 64.23C21.4015 64.2313 21.5904 64.2326 21.785 64.234C22.4204 64.2374 23.0556 64.2347 23.691 64.232C24.1455 64.2332 24.6001 64.2347 25.0546 64.2365C26.1625 64.2403 27.2703 64.2395 28.3781 64.237C29.2784 64.2351 30.1786 64.2349 31.0788 64.2358C31.2709 64.236 31.2709 64.236 31.4668 64.2362C31.7269 64.2365 31.987 64.2367 32.2471 64.237C34.6871 64.2394 37.1271 64.2366 39.567 64.2321C41.6614 64.2283 43.7557 64.2289 45.8501 64.2329C48.2812 64.2374 50.7123 64.2392 53.1435 64.2366C53.4026 64.2363 53.6618 64.2361 53.9209 64.2358C54.0485 64.2357 54.176 64.2355 54.3074 64.2354C55.2067 64.2347 56.106 64.2359 57.0053 64.2379C58.101 64.2403 59.1967 64.2396 60.2925 64.2351C60.8517 64.2329 61.4109 64.2325 61.9701 64.2348C62.5759 64.2371 63.1815 64.2342 63.7872 64.23C64.0535 64.2328 64.0534 64.2328 64.325 64.2357C65.2555 64.2236 65.2555 64.2236 66.0693 63.8137C66.4241 62.9802 66.391 62.1952 66.3817 61.2982C66.3822 61.0962 66.3828 60.8941 66.3834 60.686C66.3843 60.1257 66.3822 59.5656 66.3788 59.0054C66.3759 58.4011 66.3769 57.7968 66.3774 57.1925C66.3777 56.1456 66.3756 55.0988 66.3718 54.052C66.3663 52.5385 66.3645 51.025 66.3636 49.5115C66.3621 47.0559 66.3576 44.6003 66.3512 42.1447C66.3449 39.7593 66.3401 37.374 66.3372 34.9886C66.3371 34.8401 66.3369 34.6915 66.3367 34.5385C66.3353 33.3768 66.3339 32.2152 66.3326 31.0536C66.3262 25.3597 66.3125 19.6659 66.2999 13.972C50.5919 13.972 34.8839 13.972 18.6999 13.972ZM8.66988 20.942C7.89535 22.1663 7.96555 23.4728 7.96944 24.8731C7.96929 25.0641 7.96915 25.2552 7.969 25.4521C7.96872 26.0927 7.96965 26.7332 7.97058 27.3737C7.97063 27.8328 7.97061 28.2919 7.97051 28.7509C7.97042 29.7394 7.97095 30.7279 7.97191 31.7163C7.97329 33.1455 7.97373 34.5746 7.97395 36.0038C7.97432 38.3225 7.97545 40.6413 7.97706 42.9601C7.97862 45.2124 7.97982 47.4647 7.98054 49.7169C7.98059 49.8558 7.98063 49.9947 7.98068 50.1378C7.9809 50.8344 7.98111 51.5311 7.98133 52.2277C7.98309 58.0058 7.98609 63.7839 7.98988 69.562C8.83138 69.562 9.67288 69.562 10.5399 69.562C10.5403 69.3198 10.5407 69.0776 10.5411 68.828C10.5509 63.0824 10.5632 57.3368 10.5788 51.5911C10.5807 50.8844 10.5826 50.1777 10.5845 49.471C10.5849 49.3303 10.5852 49.1897 10.5856 49.0447C10.5917 46.7645 10.5959 44.4844 10.5994 42.2042C10.6031 39.8657 10.6088 37.5273 10.6162 35.1888C10.6207 33.745 10.6237 32.3013 10.6248 30.8575C10.6257 29.8684 10.6284 28.8793 10.6326 27.8902C10.635 27.3189 10.6363 26.7477 10.6359 26.1764C10.6357 25.558 10.6385 24.9396 10.6421 24.3211C10.6413 24.1394 10.6405 23.9576 10.6396 23.7704C10.6412 23.6053 10.6428 23.4403 10.6445 23.2702C10.6448 23.1274 10.6451 22.9845 10.6455 22.8373C10.7249 22.3871 10.8662 22.2424 11.2199 21.962C11.6665 21.7387 12.0233 21.7559 12.5228 21.7383C12.7134 21.7311 12.9041 21.724 13.1005 21.7167C13.3004 21.71 13.5002 21.7033 13.7061 21.6964C13.9073 21.6891 14.1085 21.6817 14.3157 21.6742C14.8138 21.6561 15.3118 21.639 15.8099 21.622C15.8099 20.8366 15.8099 20.0512 15.8099 19.242C15.1334 19.2282 14.4571 19.2181 13.7805 19.2102C13.5906 19.2059 13.4007 19.2016 13.2051 19.1972C11.3069 19.1805 9.97215 19.508 8.66988 20.942ZM69.1899 19.242C69.1899 20.0274 69.1899 20.8128 69.1899 21.622C69.4888 21.6304 69.7877 21.6387 70.0957 21.6473C70.4879 21.66 70.8801 21.6729 71.2724 21.6858C71.4694 21.6911 71.6664 21.6963 71.8694 21.7017C72.1537 21.7116 72.1537 21.7116 72.4438 21.7217C72.6183 21.727 72.7928 21.7323 72.9725 21.7378C73.4399 21.7921 73.7271 21.8775 74.1199 22.132C74.3239 22.5401 74.312 22.7936 74.3135 23.2493C74.3144 23.414 74.3153 23.5787 74.3163 23.7484C74.3164 23.9307 74.3166 24.1129 74.3168 24.3007C74.318 24.5895 74.318 24.5895 74.3193 24.8842C74.3219 25.5339 74.3234 26.1837 74.3248 26.8334C74.3263 27.2973 74.3281 27.7613 74.3299 28.2253C74.3336 29.2265 74.3367 30.2277 74.3393 31.2289C74.3432 32.6764 74.348 34.124 74.353 35.5715C74.3611 37.9199 74.3685 40.2683 74.3753 42.6167C74.382 44.8984 74.3891 47.18 74.3966 49.4617C74.3971 49.6023 74.3975 49.7428 74.398 49.8877C74.4003 50.5928 74.4026 51.298 74.405 52.0032C74.4244 57.8561 74.4425 63.7091 74.4599 69.562C75.3014 69.562 76.1429 69.562 77.0099 69.562C77.0176 63.6512 77.0237 57.7403 77.0272 51.8294C77.0277 51.1315 77.0281 50.4336 77.0286 49.7356C77.0287 49.5272 77.0287 49.5272 77.0288 49.3146C77.0303 47.0652 77.033 44.8158 77.0361 42.5665C77.0393 40.2582 77.0412 37.9499 77.0419 35.6416C77.0423 34.2174 77.0438 32.7932 77.0466 31.369C77.0484 30.3922 77.0489 29.4154 77.0485 28.4386C77.0483 27.8752 77.0488 27.3118 77.0504 26.7483C77.0521 26.1368 77.0517 25.5254 77.0508 24.9139C77.0518 24.7367 77.0527 24.5594 77.0538 24.3767C77.0479 22.9468 76.9143 21.7575 75.9899 20.602C74.746 19.3864 73.5955 19.1831 71.9192 19.1972C71.7198 19.2015 71.5203 19.2058 71.3149 19.2102C71.1102 19.2125 70.9055 19.2148 70.6947 19.2171C70.193 19.2231 69.6915 19.2323 69.1899 19.242ZM13.4299 24.512C13.4299 39.3785 13.4299 54.245 13.4299 69.562C32.6161 69.562 51.8023 69.562 71.5699 69.562C71.5699 54.6955 71.5699 39.829 71.5699 24.512C70.7845 24.512 69.9991 24.512 69.1899 24.512C69.1898 24.7137 69.1897 24.9154 69.1896 25.1232C69.1872 29.915 69.1804 34.7068 69.1683 39.4985C69.1668 40.0888 69.1654 40.679 69.1639 41.2692C69.1635 41.4455 69.1635 41.4455 69.1631 41.6253C69.1585 43.526 69.157 45.4266 69.1566 47.3273C69.156 49.2787 69.1522 51.23 69.1456 53.1814C69.142 54.277 69.1398 55.3726 69.1412 56.4682C69.1425 57.4999 69.1398 58.5316 69.1341 59.5633C69.1327 59.9414 69.1328 60.3196 69.1344 60.6977C69.1363 61.2153 69.1331 61.7327 69.1286 62.2503C69.1304 62.3988 69.1322 62.5473 69.1341 62.7003C69.1157 63.833 68.7747 64.6963 68.1699 65.652C67.7701 66.0352 67.7701 66.0352 67.3836 66.2577C67.2552 66.335 67.1268 66.4124 66.9945 66.4921C66.4201 66.7836 65.9685 66.8636 65.3338 66.8653C65.1692 66.8662 65.0046 66.8671 64.835 66.868C64.5632 66.8681 64.5632 66.8681 64.2858 66.8682C64.0936 66.869 63.9014 66.8697 63.7033 66.8705C63.0558 66.8727 62.4082 66.8738 61.7606 66.8748C61.2977 66.8761 60.8348 66.8776 60.3719 66.879C58.98 66.8832 57.5882 66.8857 56.1964 66.8879C55.8032 66.8885 55.41 66.8892 55.0168 66.8899C52.5746 66.8942 50.1324 66.8979 47.6903 66.9C47.1246 66.9005 46.5588 66.901 45.9931 66.9016C45.8525 66.9017 45.7119 66.9018 45.5671 66.9019C43.2905 66.9041 41.0139 66.9097 38.7373 66.9168C36.3994 66.924 34.0615 66.928 31.7236 66.9289C30.4112 66.9295 29.0988 66.9315 27.7864 66.9371C26.6684 66.9419 25.5505 66.9437 24.4325 66.9418C23.8624 66.941 23.2925 66.9419 22.7224 66.9457C22.1032 66.9495 21.4843 66.9481 20.8651 66.9454C20.6865 66.9478 20.5079 66.9501 20.3239 66.9526C19.1044 66.9395 18.1956 66.6615 17.1699 65.992C16.7867 65.5923 16.7867 65.5923 16.5643 65.2058C16.4869 65.0774 16.4095 64.949 16.3298 64.8167C15.9243 64.0175 15.9539 63.2682 15.953 62.3934C15.9521 62.2319 15.9513 62.0704 15.9504 61.9041C15.9478 61.3606 15.9464 60.8171 15.945 60.2737C15.9433 59.885 15.9416 59.4964 15.9399 59.1078C15.9353 58.0506 15.9317 56.9934 15.9283 55.9362C15.9246 54.8322 15.9199 53.7282 15.9154 52.6242C15.9079 50.7704 15.9009 48.9167 15.8944 47.063C15.8877 45.1535 15.8807 43.2441 15.8732 41.3346C15.8727 41.2169 15.8722 41.0993 15.8718 40.978C15.8694 40.3877 15.8671 39.7974 15.8648 39.2071C15.8454 34.3087 15.8273 29.4104 15.8099 24.512C15.0245 24.512 14.2391 24.512 13.4299 24.512ZM5.43988 72.282C5.16575 76.0472 5.16575 76.0472 6.69629 79.1777C7.66107 80.0394 8.75614 80.123 9.99374 80.1249C10.1654 80.1255 10.1654 80.1255 10.3405 80.1261C10.7246 80.1272 11.1087 80.1271 11.4928 80.1271C11.7707 80.1276 12.0486 80.1283 12.3266 80.129C13.0908 80.1307 13.8551 80.1313 14.6194 80.1317C15.4435 80.1324 16.2676 80.134 17.0916 80.1355C19.0819 80.1389 21.0721 80.1406 23.0624 80.1421C23.9996 80.1429 24.9369 80.1438 25.8741 80.1447C28.9895 80.1475 32.105 80.15 35.2204 80.1512C36.0288 80.1516 36.8371 80.1519 37.6455 80.1522C37.8464 80.1523 38.0473 80.1524 38.2543 80.1525C41.5098 80.1539 44.7653 80.1582 48.0208 80.1637C51.363 80.1693 54.7052 80.1724 58.0475 80.1729C59.9241 80.1733 61.8006 80.1748 63.6772 80.1791C65.2752 80.1828 66.8731 80.1842 68.4711 80.1825C69.2863 80.1818 70.1014 80.1821 70.9166 80.1854C71.6634 80.1884 72.4101 80.1882 73.1568 80.1856C73.4265 80.1852 73.6961 80.1859 73.9658 80.1879C76.3196 80.2109 76.3196 80.2109 78.3528 79.1395C80.1654 77.2682 79.5599 74.7531 79.5599 72.282C70.4156 72.282 61.2713 72.282 51.8499 72.282C51.7938 73.0674 51.7377 73.8528 51.6799 74.662C51.185 76.0231 50.6101 76.7469 49.2999 77.382C48.6816 77.5839 48.0878 77.5759 47.4407 77.5794C47.3234 77.5803 47.2061 77.5811 47.0852 77.582C46.6981 77.5845 46.3109 77.5856 45.9238 77.5866C45.6536 77.5876 45.3834 77.5885 45.1132 77.5895C44.5467 77.5913 43.9803 77.5923 43.4138 77.5929C42.6905 77.5938 41.9673 77.5979 41.244 77.6027C40.6857 77.6059 40.1275 77.6068 39.5691 77.6071C39.3027 77.6076 39.0362 77.6089 38.7697 77.6112C37.1936 77.6235 35.9529 77.5845 34.563 76.7764C33.2897 75.4342 33.285 74.1731 33.1499 72.282C24.0056 72.282 14.8613 72.282 5.43988 72.282ZM35.8699 72.282C35.8339 73.3933 35.8339 73.3933 36.2099 74.322C36.7774 74.869 37.2097 74.8971 37.9836 74.9007C38.2054 74.9029 38.4272 74.9051 38.6558 74.9073C38.8975 74.9069 39.1391 74.9064 39.3808 74.9058C39.6293 74.9065 39.8779 74.9074 40.1264 74.9085C40.647 74.91 41.1676 74.9096 41.6882 74.9079C42.3544 74.9059 43.0204 74.9094 43.6866 74.9143C44.1998 74.9174 44.713 74.9174 45.2262 74.9164C45.4718 74.9164 45.7174 74.9174 45.9629 74.9195C46.3067 74.9221 46.6505 74.9198 46.9942 74.9173C47.1896 74.9173 47.385 74.9173 47.5863 74.9173C48.2248 74.8133 48.5065 74.6062 48.9599 74.152C49.2016 73.5166 49.2016 73.5166 49.1299 72.282C44.7541 72.282 40.3783 72.282 35.8699 72.282Z" fill="#36454F"/>
<path id="Vector_2" d="M26.1162 16.2391C26.2564 16.2383 26.3966 16.2375 26.541 16.2366C26.8365 16.2361 27.132 16.2376 27.4274 16.2412C27.8787 16.2457 28.3292 16.2412 28.7805 16.2358C29.0682 16.2363 29.356 16.2374 29.6437 16.2391C29.8451 16.2365 29.8451 16.2365 30.0506 16.2339C30.71 16.2479 31.0524 16.3168 31.6266 16.6672C31.96 17.202 31.96 17.202 31.96 19.072C38.9164 19.072 45.8728 19.072 53.04 19.072C53.04 18.4549 53.04 17.8378 53.04 17.202C53.3735 16.6669 53.5871 16.4223 54.2109 16.2775C54.5958 16.239 54.9695 16.2341 55.3562 16.2391C55.4964 16.2383 55.6366 16.2375 55.781 16.2366C56.0765 16.2361 56.372 16.2376 56.6674 16.2412C57.1187 16.2457 57.5692 16.2412 58.0205 16.2358C58.3082 16.2363 58.596 16.2374 58.8837 16.2391C59.018 16.2374 59.1522 16.2357 59.2906 16.2339C59.9654 16.2482 60.2848 16.3085 60.8596 16.6924C61.3138 17.3723 61.3232 17.8672 61.3129 18.6682C61.3137 18.8084 61.3145 18.9486 61.3153 19.093C61.3159 19.3885 61.3144 19.684 61.3108 19.9794C61.3063 20.4307 61.3108 20.8812 61.3162 21.3325C61.3156 21.6202 61.3146 21.908 61.3129 22.1957C61.3146 22.33 61.3163 22.4642 61.3181 22.6026C61.3041 23.262 61.2352 23.6044 60.8848 24.1786C60.35 24.512 60.35 24.512 58.48 24.512C58.48 28.8317 58.48 33.1514 58.48 37.602C59.0971 37.602 59.7142 37.602 60.35 37.602C60.8851 37.9355 61.1297 38.1491 61.2745 38.7729C61.313 39.1578 61.3178 39.5315 61.3129 39.9182C61.3137 40.0584 61.3145 40.1986 61.3153 40.343C61.3159 40.6385 61.3144 40.934 61.3108 41.2294C61.3063 41.6807 61.3108 42.1312 61.3162 42.5825C61.3156 42.8702 61.3146 43.158 61.3129 43.4457C61.3146 43.58 61.3163 43.7142 61.3181 43.8526C61.3038 44.5274 61.2435 44.8468 60.8596 45.4216C60.1797 45.8758 59.6847 45.8852 58.8837 45.8749C58.6735 45.8761 58.6735 45.8761 58.459 45.8773C58.1635 45.8779 57.868 45.8764 57.5726 45.8728C57.1213 45.8683 56.6708 45.8728 56.2195 45.8782C55.9318 45.8776 55.644 45.8766 55.3562 45.8749C55.222 45.8766 55.0877 45.8783 54.9494 45.8801C54.2828 45.866 53.9496 45.7996 53.3734 45.4362C53.04 44.912 53.04 44.912 53.04 43.212C46.0836 43.212 39.1272 43.212 31.96 43.212C31.96 43.773 31.96 44.334 31.96 44.912C31.6273 45.4351 31.4042 45.6931 30.7891 45.8372C30.4043 45.8749 30.0304 45.8798 29.6437 45.8749C29.4335 45.8761 29.4335 45.8761 29.219 45.8773C28.9235 45.8779 28.628 45.8764 28.3325 45.8728C27.8813 45.8683 27.4308 45.8728 26.9795 45.8782C26.6918 45.8776 26.404 45.8766 26.1162 45.8749C25.982 45.8766 25.8477 45.8783 25.7094 45.8801C25.0346 45.8658 24.7151 45.8055 24.1404 45.4216C23.6862 44.7417 23.6768 44.2467 23.6871 43.4457C23.6863 43.3056 23.6855 43.1654 23.6846 43.021C23.6841 42.7255 23.6856 42.43 23.6892 42.1346C23.6937 41.6833 23.6892 41.2328 23.6838 40.7815C23.6843 40.4938 23.6854 40.206 23.6871 39.9182C23.6854 39.784 23.6837 39.6497 23.6819 39.5114C23.6959 38.8519 23.7648 38.5096 24.1152 37.9354C24.65 37.602 24.65 37.602 26.52 37.602C26.52 33.2823 26.52 28.9626 26.52 24.512C25.9029 24.512 25.2858 24.512 24.65 24.512C24.1149 24.1785 23.8703 23.9649 23.7255 23.3411C23.687 22.9562 23.6821 22.5825 23.6871 22.1957C23.6863 22.0556 23.6855 21.9154 23.6846 21.771C23.6841 21.4755 23.6856 21.18 23.6892 20.8846C23.6937 20.4333 23.6892 19.9828 23.6838 19.5315C23.6843 19.2438 23.6854 18.956 23.6871 18.6682C23.6854 18.534 23.6837 18.3997 23.6819 18.2614C23.6962 17.5866 23.7565 17.2672 24.1404 16.6924C24.8203 16.2382 25.3152 16.2288 26.1162 16.2391ZM26.69 19.242C26.69 20.0274 26.69 20.8128 26.69 21.622C27.4754 21.622 28.2608 21.622 29.07 21.622C29.07 20.8366 29.07 20.0512 29.07 19.242C28.2846 19.242 27.4992 19.242 26.69 19.242ZM55.93 19.242C55.93 20.0274 55.93 20.8128 55.93 21.622C56.7154 21.622 57.5008 21.622 58.31 21.622C58.31 20.8366 58.31 20.0512 58.31 19.242C57.5246 19.242 56.7392 19.242 55.93 19.242ZM31.96 21.962C31.9504 22.0797 31.9409 22.1973 31.931 22.3186C31.9174 22.4724 31.9037 22.6263 31.8896 22.7848C31.8765 22.9375 31.8635 23.0902 31.85 23.2476C31.79 23.662 31.79 23.662 31.5562 24.0976C31.11 24.342 31.11 24.342 29.24 24.512C29.24 28.8317 29.24 33.1514 29.24 37.602C29.8571 37.6581 30.4742 37.7142 31.11 37.772C31.5562 38.0057 31.5562 38.0057 31.79 38.452C31.8461 39.0691 31.9022 39.6862 31.96 40.322C38.9164 40.322 45.8728 40.322 53.04 40.322C53.0961 39.7049 53.1522 39.0878 53.21 38.452C53.4437 38.0057 53.4437 38.0057 53.89 37.772C54.5071 37.7159 55.1242 37.6598 55.76 37.602C55.76 33.2823 55.76 28.9626 55.76 24.512C54.8343 24.4278 54.8343 24.4278 53.89 24.342C53.4437 24.0976 53.4437 24.0976 53.21 23.662C53.1678 23.3707 53.1355 23.078 53.1104 22.7848C53.0967 22.6309 53.083 22.4771 53.069 22.3186C53.0594 22.2009 53.0498 22.0832 53.04 21.962C46.011 21.7098 38.9895 21.7482 31.96 21.962ZM26.69 40.492C26.69 41.2774 26.69 42.0628 26.69 42.872C27.4754 42.872 28.2608 42.872 29.07 42.872C29.07 42.0866 29.07 41.3012 29.07 40.492C28.2846 40.492 27.4992 40.492 26.69 40.492ZM55.93 40.492C55.93 41.2774 55.93 42.0628 55.93 42.872C56.7154 42.872 57.5008 42.872 58.31 42.872C58.31 42.0866 58.31 41.3012 58.31 40.492C57.5246 40.492 56.7392 40.492 55.93 40.492Z" fill="#36454F"/>
<path id="Vector_3" d="M35.1901 24.3421C35.7792 24.637 36.3029 25.0131 36.8383 25.3953C37.1559 25.6138 37.4736 25.8322 37.7912 26.0507C38.2883 26.3977 38.7847 26.7457 39.2808 27.094C39.7612 27.4299 40.244 27.7621 40.7271 28.094C40.9491 28.2528 40.9491 28.2528 41.1757 28.4149C41.3148 28.5102 41.4538 28.6055 41.5971 28.7037C41.7184 28.789 41.8398 28.8744 41.9648 28.9623C42.3363 29.1457 42.3363 29.1457 42.758 28.9847C43.1463 28.7799 43.5056 28.5675 43.8663 28.3177C43.9952 28.2293 44.124 28.1408 44.2567 28.0497C44.3936 27.9547 44.5305 27.8598 44.6716 27.762C44.9655 27.5616 45.2594 27.3612 45.5535 27.161C46.0146 26.8459 46.4752 26.5299 46.9344 26.2118C47.3791 25.9044 47.826 25.6005 48.2735 25.297C48.4778 25.1536 48.4778 25.1536 48.6862 25.0073C49.4814 24.4723 50.0085 24.2006 51.0001 24.3421C51.4995 24.5971 51.4995 24.5971 51.8501 25.0221C51.9939 25.9279 51.9939 25.9279 51.8501 26.3821C51.2068 27.1003 50.4897 27.6099 49.6899 28.1332C49.5666 28.215 49.4433 28.2968 49.3162 28.3811C48.9254 28.6401 48.5337 28.8977 48.142 29.1552C47.8755 29.3314 47.6091 29.5077 47.3428 29.6841C46.6926 30.1145 46.0416 30.5436 45.3901 30.9721C45.8449 31.4505 46.2993 31.8309 46.8517 32.1913C47.0012 32.2896 47.1507 32.388 47.3047 32.4893C47.4618 32.5917 47.6189 32.6941 47.7807 32.7996C51.1143 34.9963 51.1143 34.9963 51.8501 35.7321C51.9634 36.9032 51.9634 36.9032 51.5951 37.5171C51.0091 37.8687 50.4707 37.863 49.8101 37.7721C49.2808 37.5078 49.2808 37.5078 48.737 37.1133C48.5186 36.9604 48.3001 36.8077 48.0815 36.6551C47.8937 36.5216 47.8937 36.5216 47.7021 36.3853C46.864 35.7913 46.0198 35.2066 45.1707 34.6284C44.8612 34.4162 44.5545 34.2003 44.2477 33.9843C44.0544 33.8522 43.8611 33.7202 43.6675 33.5885C43.4101 33.4097 43.4101 33.4097 43.1475 33.2274C42.6894 32.9636 42.6894 32.9636 42.2462 33.1051C41.7534 33.3907 41.2773 33.6886 40.8047 34.0068C40.7089 34.0711 40.6131 34.1353 40.5143 34.2014C40.2089 34.4063 39.9042 34.6123 39.5995 34.8183C39.3995 34.9528 39.1995 35.0871 38.9995 35.2214C38.901 35.2876 38.8025 35.3538 38.701 35.422C38.503 35.555 38.305 35.688 38.1069 35.8209C37.6205 36.1477 37.1358 36.4767 36.6541 36.8105C36.3847 36.9952 36.3847 36.9952 36.1098 37.1837C35.9507 37.2941 35.7917 37.4044 35.6278 37.5182C34.9575 37.907 34.585 37.9338 33.8301 37.7721C33.4051 37.5171 33.4051 37.5171 33.1501 37.0921C33.0021 36.2576 33.0021 36.2576 33.1501 35.7321C34.1122 34.7835 35.2535 34.079 36.3801 33.3414C38.0127 32.2673 38.0127 32.2673 39.6101 31.1421C38.9455 30.5926 38.2533 30.1092 37.5362 29.6327C37.3004 29.4745 37.0645 29.3164 36.8287 29.1582C36.4596 28.9112 36.0903 28.6645 35.7206 28.4185C35.3619 28.1795 35.004 27.9393 34.6462 27.6989C34.48 27.5889 34.48 27.5889 34.3103 27.4767C33.8106 27.1399 33.4886 26.8899 33.1501 26.3821C33.0931 25.8694 33.0548 25.5153 33.1501 25.0221C33.7555 24.2882 34.2724 24.2296 35.1901 24.3421Z" fill="#36454F"/>
<path id="Vector_4" d="M33.7884 58.7439C33.9583 58.7419 33.9583 58.7419 34.1316 58.7399C34.5101 58.7365 34.8882 58.7392 35.2666 58.7418C35.5383 58.7407 35.8101 58.7392 36.0818 58.7373C36.8191 58.7335 37.5563 58.735 38.2935 58.7377C39.0652 58.7398 39.8369 58.7378 40.6086 58.7365C41.9045 58.7349 43.2004 58.737 44.4963 58.741C45.9944 58.7456 47.4924 58.7441 48.9904 58.7395C50.2768 58.7356 51.5632 58.7351 52.8496 58.7373C53.6178 58.7386 54.386 58.7388 55.1542 58.736C55.8765 58.7335 56.5987 58.7352 57.3209 58.7401C57.5859 58.7413 57.8509 58.7409 58.1159 58.7391C58.4779 58.7367 58.8395 58.7397 59.2014 58.7439C59.4039 58.7442 59.6063 58.7445 59.8149 58.7449C60.5108 58.884 60.7652 59.1517 61.1999 59.7018C61.3061 60.2968 61.3061 60.2968 61.1999 60.8918C60.7652 61.442 60.5108 61.7097 59.8149 61.8488C59.6125 61.8491 59.41 61.8494 59.2014 61.8498C59.0315 61.8518 59.0315 61.8518 58.8581 61.8538C58.4797 61.8572 58.1016 61.8545 57.7232 61.8518C57.4514 61.853 57.1797 61.8545 56.908 61.8563C56.1707 61.8602 55.4335 61.8587 54.6962 61.856C53.9246 61.8539 53.1529 61.8558 52.3812 61.8572C51.0853 61.8587 49.7894 61.8567 48.4935 61.8526C46.9954 61.848 45.4974 61.8495 43.9994 61.8542C42.713 61.8581 41.4266 61.8586 40.1402 61.8564C39.372 61.855 38.6038 61.8549 37.8356 61.8577C37.1133 61.8601 36.3911 61.8584 35.6689 61.8535C35.4039 61.8524 35.1389 61.8527 34.8739 61.8546C34.5119 61.8569 34.1503 61.854 33.7884 61.8498C33.5859 61.8494 33.3835 61.8491 33.1749 61.8488C32.479 61.7097 32.2246 61.442 31.7899 60.8918C31.6836 60.2968 31.6836 60.2968 31.7899 59.7018C32.4078 58.9199 32.8018 58.7455 33.7884 58.7439Z" fill="#36454F"/>
<path id="Vector_5" d="M33.7886 53.4947C33.9019 53.4935 34.0152 53.4923 34.1319 53.4911C34.5102 53.488 34.8884 53.4898 35.2668 53.4915C35.5386 53.4903 35.8103 53.4888 36.0821 53.4871C36.8193 53.4833 37.5565 53.4838 38.2938 53.4853C38.9093 53.4861 39.5249 53.4849 40.1404 53.4837C41.5925 53.4808 43.0445 53.4814 44.4965 53.4842C45.9946 53.4871 47.4926 53.4844 48.9906 53.4789C50.277 53.4744 51.5634 53.4731 52.8498 53.4746C53.618 53.4754 54.3862 53.475 55.1545 53.4715C55.8767 53.4684 56.5989 53.4694 57.3211 53.4736C57.5862 53.4745 57.8512 53.4739 58.1162 53.4717C58.4781 53.469 58.8397 53.4716 59.2016 53.4754C59.5053 53.4756 59.5053 53.4756 59.8151 53.4757C60.5115 53.6143 60.7661 53.881 61.2001 54.4322C61.2957 55.0378 61.2957 55.0378 61.2001 55.6222C60.8827 56.0242 60.6356 56.2445 60.1801 56.4722C59.8202 56.4901 59.4598 56.4967 59.0994 56.4984C58.9873 56.4991 58.8751 56.4999 58.7596 56.5006C58.382 56.5029 58.0045 56.504 57.6269 56.505C57.3569 56.5063 57.0869 56.5077 56.8169 56.5092C55.9288 56.5137 55.0406 56.5163 54.1524 56.5187C53.8469 56.5196 53.5414 56.5205 53.2359 56.5214C51.9652 56.5251 50.6946 56.5283 49.4239 56.5302C47.6017 56.533 45.7795 56.5386 43.9572 56.5483C42.6766 56.5549 41.3961 56.5582 40.1154 56.5591C39.3502 56.5597 38.5851 56.5618 37.8199 56.5673C37.1 56.5724 36.3802 56.5735 35.6603 56.5715C35.3962 56.5714 35.132 56.5728 34.8678 56.5758C34.5069 56.5797 34.1464 56.5783 33.7856 56.5756C33.5837 56.5761 33.3818 56.5767 33.1739 56.5773C32.483 56.4413 32.2294 56.1595 31.7901 55.6222C31.6246 55.0993 31.7004 54.8273 31.7901 54.2622C32.4253 53.5979 32.8857 53.4968 33.7886 53.4947Z" fill="#36454F"/>
<path id="Vector_6" d="M33.6045 48.2247C33.7183 48.2235 33.8322 48.2223 33.9494 48.2211C34.3307 48.218 34.7118 48.2198 35.093 48.2215C35.3664 48.2203 35.6398 48.2188 35.9132 48.2171C36.6557 48.2132 37.3982 48.2137 38.1408 48.2152C38.7605 48.2161 39.3803 48.2149 40.0001 48.2136C41.4621 48.2107 42.9242 48.2114 44.3862 48.2142C45.8948 48.2171 47.4033 48.2144 48.9119 48.2089C50.207 48.2043 51.502 48.2031 52.7971 48.2046C53.5706 48.2054 54.3441 48.205 55.1177 48.2015C55.8451 48.1984 56.5724 48.1994 57.2998 48.2036C57.5668 48.2045 57.8337 48.2039 58.1006 48.2017C58.4652 48.199 58.8294 48.2015 59.1939 48.2054C59.3979 48.2055 59.6018 48.2056 59.8119 48.2057C60.5085 48.3435 60.7631 48.6139 61.2 49.1622C61.3204 49.8042 61.2655 50.0749 60.9254 50.6324C60.392 51.1585 60.119 51.1386 59.3779 51.139C59.2633 51.1402 59.1486 51.1414 59.0305 51.1426C58.6465 51.1456 58.2627 51.1425 57.8787 51.1395C57.6034 51.1403 57.328 51.1416 57.0527 51.1432C56.3049 51.1463 55.5572 51.1441 54.8094 51.1408C54.0271 51.138 53.2449 51.1395 52.4627 51.1403C51.1491 51.1411 49.8355 51.1384 48.5218 51.1337C47.0026 51.1282 45.4835 51.1282 43.9643 51.1311C42.5034 51.1338 41.0426 51.1327 39.5818 51.1298C38.9598 51.1286 38.3378 51.1288 37.7159 51.1301C36.9836 51.1314 36.2513 51.1293 35.5191 51.1246C35.2501 51.1235 34.9812 51.1235 34.7123 51.1247C34.3455 51.1262 33.9789 51.1235 33.6121 51.1197C33.4068 51.1192 33.2014 51.1187 32.9899 51.1182C32.3691 51.0155 32.1693 50.8442 31.79 50.3522C31.6997 50.0122 31.6997 50.0122 31.705 49.6722C31.7024 49.5039 31.7024 49.5039 31.6997 49.3322C31.963 48.3408 32.6894 48.2268 33.6045 48.2247Z" fill="#36454F"/>
<path id="Vector_7" d="M41.3956 7.08685C41.5858 7.08518 41.776 7.08351 41.9719 7.08179C42.1798 7.08343 42.3877 7.08507 42.6019 7.08677C42.8215 7.08585 43.041 7.08493 43.2672 7.08398C43.8689 7.08161 44.4705 7.08351 45.0722 7.08632C45.7019 7.08867 46.3317 7.08757 46.9614 7.08697C48.0189 7.08651 49.0765 7.0888 50.134 7.09274C51.3565 7.09727 52.579 7.09756 53.8016 7.09557C54.9778 7.09374 56.1539 7.09479 57.3301 7.09719C57.8306 7.09817 58.3311 7.09816 58.8316 7.09735C59.5305 7.09639 60.2292 7.09966 60.9281 7.10337C61.136 7.1026 61.3439 7.10184 61.5581 7.10105C61.8434 7.10358 61.8434 7.10358 62.1344 7.10615C62.3823 7.10677 62.3823 7.10677 62.6351 7.1074C63.1499 7.18393 63.3797 7.32028 63.75 7.68206C63.9306 8.24518 63.9306 8.24518 63.92 8.87206C63.6504 9.37427 63.5295 9.58675 63.07 9.89206C62.3511 10.0458 61.6415 10.0278 60.9088 10.0186C60.6892 10.0199 60.4697 10.0211 60.2434 10.0224C59.6424 10.0256 59.0416 10.0224 58.4406 10.0179C57.8113 10.014 57.182 10.0154 56.5527 10.0161C55.4962 10.0164 54.4397 10.0126 53.3832 10.0064C52.1619 9.99916 50.9407 9.99797 49.7194 10.0001C48.544 10.002 47.3686 10.0001 46.1933 9.99629C45.6932 9.99471 45.1932 9.99441 44.6932 9.99513C43.9952 9.99589 43.2973 9.99097 42.5992 9.98544C42.2878 9.98671 42.2878 9.98671 41.97 9.98799C41.7801 9.98559 41.5901 9.98318 41.3944 9.9807C41.1469 9.97965 41.1469 9.97965 40.8944 9.97858C40.3364 9.86744 40.1327 9.64883 39.78 9.21206C39.6897 8.87206 39.6897 8.87206 39.695 8.53206C39.6924 8.36376 39.6924 8.36376 39.6897 8.19206C39.9248 7.30698 40.5542 7.08703 41.3956 7.08685Z" fill="#36454F"/>
<path id="Vector_8" d="M26.5201 58.7565C26.6875 58.7546 26.8549 58.7527 27.0274 58.7508C27.7753 58.7584 28.264 58.7819 28.9253 59.1503C29.2744 59.5737 29.3556 59.7546 29.3463 60.2971C29.3485 60.4251 29.3507 60.553 29.3529 60.6849C29.1735 61.2846 28.9368 61.4375 28.3901 61.7421C27.7648 61.8448 27.1525 61.8448 26.5201 61.8377C26.2689 61.8438 26.2689 61.8438 26.0127 61.85C25.2011 61.8484 24.7827 61.8397 24.1148 61.3483C23.6974 60.7433 23.6714 60.4228 23.8001 59.7021C24.5275 58.6478 25.3464 58.728 26.5201 58.7565Z" fill="#36454F"/>
<path id="Vector_9" d="M26.6157 53.4865C26.7926 53.4846 26.9696 53.4827 27.1519 53.4808C28.4528 53.4934 28.4528 53.4934 28.9498 53.9045C29.2825 54.3144 29.3366 54.5054 29.3357 55.0271C29.3394 55.1551 29.3431 55.283 29.347 55.4149C29.2401 55.7921 29.2401 55.7921 28.9213 56.1759C28.1481 56.607 27.4644 56.5585 26.5944 56.5358C26.4337 56.5356 26.273 56.5354 26.1074 56.5352C24.7434 56.5178 24.7434 56.5178 24.1401 56.1321C23.715 55.4945 23.7089 55.1871 23.8001 54.4321C24.5277 53.347 25.4263 53.4591 26.6157 53.4865Z" fill="#36454F"/>
<path id="Vector_10" d="M26.6155 48.2165C26.7925 48.2146 26.9694 48.2128 27.1517 48.2109C28.4533 48.2234 28.4533 48.2234 28.95 48.6369C29.2658 49.0239 29.3326 49.1811 29.3249 49.6721C29.3266 49.7843 29.3284 49.8965 29.3302 50.0121C29.1985 50.5081 28.9522 50.7078 28.5599 51.0321C27.8864 51.1706 27.206 51.1346 26.5199 51.1278C26.3341 51.1318 26.1482 51.1359 25.9568 51.14C24.6018 51.1376 24.6018 51.1376 24.0184 50.633C23.7477 50.0744 23.685 49.7749 23.7999 49.1621C24.5386 48.0811 25.4204 48.189 26.6155 48.2165Z" fill="#36454F"/>
<path id="Vector_11" d="M32.5551 7.06563C32.6842 7.06234 32.8132 7.05905 32.9462 7.05566C33.6378 7.06172 33.905 7.08232 34.4244 7.57164C34.7413 8.12976 34.7986 8.41003 34.6801 9.04188C34.2181 9.63403 33.9665 9.86668 33.2191 10.0048C33 10.0026 32.7809 10.0004 32.5551 9.99813C32.2264 10.0014 32.2264 10.0014 31.891 10.0048C31.1437 9.86668 30.8921 9.63403 30.4301 9.04188C30.3116 8.41003 30.3688 8.12976 30.6857 7.57164C31.2882 7.00406 31.7556 7.04527 32.5551 7.06563Z" fill="#36454F"/>
<path id="Vector_12" d="M27.1999 7.08707C27.3209 7.08444 27.4418 7.08181 27.5665 7.0791C28.1524 7.08347 28.5 7.12884 28.9796 7.47488C29.2539 7.87243 29.3323 8.05558 29.3249 8.53207C29.3266 8.64427 29.3284 8.75647 29.3302 8.87207C29.1926 9.3902 28.9942 9.57873 28.5599 9.89207C28.0787 9.96024 27.6787 9.98748 27.1999 9.97707C27.0789 9.9797 26.958 9.98233 26.8333 9.98504C26.2474 9.98067 25.8998 9.9353 25.4202 9.58926C25.1458 9.19171 25.0674 9.00856 25.0749 8.53207C25.0723 8.36377 25.0723 8.36377 25.0696 8.19207C25.3594 7.10093 26.2223 7.06582 27.1999 7.08707Z" fill="#36454F"/>
<path id="Vector_13" d="M21.9301 7.08707C22.0511 7.08444 22.172 7.08181 22.2967 7.0791C22.8827 7.08347 23.2302 7.12884 23.7098 7.47488C23.9842 7.87243 24.0626 8.05558 24.0551 8.53207C24.0569 8.64427 24.0586 8.75647 24.0604 8.87207C23.9228 9.3902 23.7244 9.57873 23.2901 9.89207C22.8089 9.96024 22.4089 9.98748 21.9301 9.97707C21.8092 9.9797 21.6882 9.98233 21.5636 9.98504C20.9776 9.98067 20.63 9.9353 20.1504 9.58926C19.8761 9.19171 19.7977 9.00856 19.8051 8.53207C19.8025 8.36377 19.8025 8.36377 19.7998 8.19207C20.0896 7.10093 20.9525 7.06582 21.9301 7.08707Z" fill="#36454F"/>
</g>
</svg>
